<?xml version="1.0" encoding="UTF-8"?>
<svg xmlns="http://www.w3.org/2000/svg" version="1.1" viewBox="0 0 24 24">
  <defs>
    <style>
      .cls-1 {
        fill: none;
      }

      .cls-2 {
        fill: #fff;
      }
    </style>
  </defs>
  <!-- Generator: Adobe Illustrator 28.7.1, SVG Export Plug-In . SVG Version: 1.2.0 Build 142)  -->
  <g>
    <g id="Layer_2">
      <g id="Layer_1-2">
        <g>
          <rect class="cls-1" y="0" width="24" height="24"/>
          <path class="cls-2" d="M14.3,2h-4.5L2.2,22h4.4l1.6-4.5h7.5l1.5,4.5h4.6L14.3,2ZM8.4,12c0,0-.2,0-.3,0-.4-.1-.6-.6-.5-1l2.3-6.6c.1-.4.6-.6,1-.5.4.1.6.6.5,1l-2.3,6.6c-.1.3-.4.5-.8.5ZM9.4,14.3l2.6-7.3h0l2.5,7.3h-5.2Z"/>
        </g>
      </g>
    </g>
  </g>
</svg>