<?xml version="1.0" encoding="UTF-8"?>
<svg xmlns="http://www.w3.org/2000/svg" version="1.1" viewBox="0 0 240 234">
  <defs>
    <style>
      .cls-1 {
        fill: #001e36;
      }

      .cls-2 {
        fill: #31a8ff;
      }
    </style>
  </defs>
  <!-- Generator: Adobe Illustrator 28.7.1, SVG Export Plug-In . SVG Version: 1.2.0 Build 142)  -->
  <g>
    <g id="Layer_1">
      <g>
        <path class="cls-1" d="M42.5,0h155C221,0,240,19,240,42.5v149c0,23.5-19,42.5-42.5,42.5H42.5c-23.5,0-42.5-19-42.5-42.5V42.5C0,19,19,0,42.5,0Z"/>
        <g>
          <path class="cls-2" d="M54,164.1V61.2c0-.7.3-1.1,1-1.1,1.7,0,3.3,0,5.6,0,2.4,0,4.9,0,7.6-.2s5.6,0,8.7-.2,6.1,0,9.1,0c8.2,0,15,1,20.6,3.1,5,1.7,9.6,4.5,13.4,8.2,3.2,3.2,5.7,7.1,7.3,11.4,1.5,4.2,2.3,8.5,2.3,13,0,8.6-2,15.7-6,21.3s-9.6,9.8-16.1,12.2c-6.8,2.5-14.3,3.4-22.5,3.4s-4,0-5-.1-2.4-.1-4.3-.1v32.1c0,.7-.4,1.3-1.1,1.4h-19.4c-.8,0-1.2-.4-1.2-1.3h0ZM75.8,79.4v33.6c1.4,0,2.7.2,3.9.2h5.3c3.9,0,7.8-.6,11.5-1.8,3.2-.9,6-2.8,8.2-5.3,2.1-2.5,3.1-5.9,3.1-10.3,0-3.1-.7-6.2-2.3-8.9-1.7-2.6-4.1-4.6-7-5.7-3.7-1.5-7.7-2.1-11.8-2-2.6,0-4.9,0-6.8,0-2,0-3.4,0-4.1,0h0Z"/>
          <path class="cls-2" d="M192,106.9c-3-1.6-6.2-2.7-9.6-3.4-3.7-.8-7.4-1.3-11.2-1.3-2,0-4.1.2-6,.7-1.3.3-2.4,1-3.1,2-.5.8-.8,1.8-.8,2.7s.4,1.8,1,2.6c.9,1.1,2.1,2,3.4,2.7,2.3,1.2,4.7,2.3,7.1,3.3,5.4,1.8,10.6,4.3,15.4,7.3,3.3,2.1,6,4.9,7.9,8.3,1.6,3.2,2.4,6.7,2.3,10.3.1,4.7-1.3,9.4-3.9,13.3-2.8,4-6.7,7.1-11.2,8.9-4.9,2.1-10.9,3.2-18.1,3.2s-9.1-.4-13.6-1.3c-3.5-.6-7-1.7-10.2-3.2-.7-.4-1.2-1.1-1.1-1.9v-17.4c0-.3.1-.7.4-.9s.6-.1.9.1c3.9,2.3,8,3.9,12.4,4.9,3.8,1,7.8,1.5,11.8,1.5s6.5-.5,8.3-1.4c1.6-.7,2.7-2.4,2.7-4.2s-.8-2.7-2.4-4-4.9-2.8-9.8-4.7c-5.1-1.8-9.8-4.2-14.2-7.2-3.1-2.2-5.7-5.1-7.6-8.5-1.6-3.2-2.4-6.7-2.3-10.2,0-4.3,1.2-8.4,3.4-12.1,2.5-4,6.2-7.2,10.5-9.2,4.7-2.4,10.6-3.5,17.7-3.5s8.3.3,12.4.9c3,.4,5.9,1.2,8.6,2.3.4,0,.8.5,1,.9.1.4.2.8.2,1.2v16.3c0,.4-.2.8-.5,1-.9.2-1.4.2-1.8,0h0Z"/>
        </g>
      </g>
    </g>
  </g>
</svg>