<?xml version="1.0" encoding="UTF-8"?>
<svg xmlns="http://www.w3.org/2000/svg" version="1.1" viewBox="0 0 240 234">
  <defs>
    <style>
      .cls-1 {
        fill: #209ddf;
      }

      .cls-2 {
        fill: #fff;
      }

      .cls-3 {
        fill: #0a3f6b;
      }
    </style>
  </defs>
  <!-- Generator: Adobe Illustrator 28.7.1, SVG Export Plug-In . SVG Version: 1.2.0 Build 142)  -->
  <g>
    <g id="Layer_1">
      <g id="Layer_1-2" data-name="Layer_1">
        <g id="Layer_1-2">
          <path class="cls-3" d="M42.5,0h155C221,0,240,19,240,42.5v149c0,23.5-19,42.5-42.5,42.5H42.5c-23.5,0-42.5-19-42.5-42.5V42.5C0,19,19,0,42.5,0Z"/>
        </g>
      </g>
      <path class="cls-1" d="M89.3,40.5h107.7v107.7c0,25-20.3,45.4-45.4,45.4H44v-107.7c0-25,20.3-45.4,45.4-45.4Z"/>
      <g>
        <g>
          <polygon class="cls-2" points="146.8 85.1 125.3 85.1 125.3 75.7 116.3 75.7 116.3 85.1 94.8 85.1 94.8 94.1 146.8 94.1 146.8 85.1"/>
          <polygon class="cls-2" points="102 149.9 102 137.4 93 137.4 93 158.8 93.7 158.8 93.7 158.9 148.7 158.9 148.7 149.9 102 149.9"/>
          <path class="cls-2" d="M101.8,113.7c0,9.8,7.9,17.7,17.7,17.7s17.7-7.9,17.7-17.7-7.9-17.7-17.7-17.7-17.7,7.9-17.7,17.7ZM128.1,113.7c0,4.7-3.9,8.6-8.6,8.6s-8.6-3.9-8.6-8.6,3.9-8.6,8.6-8.6,8.6,3.9,8.6,8.6Z"/>
        </g>
        <circle class="cls-2" cx="120" cy="139.8" r="6.5"/>
      </g>
    </g>
  </g>
</svg>