<?xml version="1.0" encoding="UTF-8"?>
<svg xmlns="http://www.w3.org/2000/svg" version="1.1" viewBox="0 0 24 24">
  <defs>
    <style>
      .cls-1, .cls-2 {
        fill: none;
      }

      .cls-3 {
        fill: #fff;
      }

      .cls-3, .cls-2 {
        stroke: #fff;
        stroke-linecap: round;
        stroke-linejoin: round;
        stroke-width: 1.6px;
      }
    </style>
  </defs>
  <!-- Generator: Adobe Illustrator 28.7.1, SVG Export Plug-In . SVG Version: 1.2.0 Build 142)  -->
  <g>
    <g id="Layer_2">
      <g id="Layer_1-2">
        <g>
          <rect class="cls-1" y="0" width="24" height="24"/>
          <g>
            <path class="cls-2" d="M5.4,3.9v16.2c0,.5.4.9.9.9h6.1c.5,0,.9-.4.9-.9V3.9c0-.5-.4-.9-.9-.9h-6.1c-.5,0-.9.4-.9.9Z"/>
            <path class="cls-3" d="M5.4,3.9h0c0,.5.4.9.9.9h6.1c.5,0,.9-.4.9-.9h0c0-.5-.4-.9-.9-.9h-6.1c-.5,0-.9.4-.9.9Z"/>
            <path class="cls-2" d="M19.9,18.1c-3.9-2.8-6.4-7.4-6.4-12.6"/>
          </g>
        </g>
      </g>
    </g>
  </g>
</svg>