<?xml version="1.0" encoding="UTF-8"?>
<svg xmlns="http://www.w3.org/2000/svg" version="1.1" viewBox="0 0 240 234">
  <defs>
    <style>
      .cls-1 {
        fill: none;
      }

      .cls-2 {
        fill: #185c37;
      }

      .cls-3 {
        fill: #0e4425;
      }

      .cls-4 {
        fill-opacity: 0;
      }

      .cls-5 {
        fill-opacity: .2;
      }

      .cls-6 {
        fill: #21a366;
      }

      .cls-7 {
        fill: #33c481;
      }

      .cls-8 {
        fill: #fff;
      }

      .cls-9, .cls-10 {
        fill: #107c41;
      }

      .cls-10 {
        fill-rule: evenodd;
      }
    </style>
  </defs>
  <!-- Generator: Adobe Illustrator 28.7.1, SVG Export Plug-In . SVG Version: 1.2.0 Build 142)  -->
  <g>
    <g id="Layer_1">
      <g id="Layer_1-2" data-name="Layer_1">
        <g id="Layer_1-2">
          <path class="cls-3" d="M42.5,0h155C221,0,240,19,240,42.5v149c0,23.5-19,42.5-42.5,42.5H42.5c-23.5,0-42.5-19-42.5-42.5V42.5C0,19,19,0,42.5,0Z"/>
        </g>
        <g>
          <path class="cls-6" d="M139.1,50.1h-51.1c-3.5,0-6.4,2.9-6.4,6.4v27.1l57.5,33.5,28.7,12.1,28.7-12.1v-33.5l-57.5-33.5Z"/>
          <path class="cls-10" d="M81.7,83.6h57.5v33.5h-57.5v-33.5Z"/>
          <path class="cls-7" d="M190.2,50.1h-51.1v33.5h57.5v-27.1c0-3.5-2.9-6.4-6.4-6.4h0Z"/>
          <path class="cls-2" d="M139.1,117.1h-57.5v60.6c0,3.5,2.9,6.4,6.4,6.4h102.1c3.5,0,6.4-2.9,6.4-6.4v-27.1l-57.5-33.5Z"/>
          <path class="cls-10" d="M139.1,117.1h57.5v33.5h-57.5v-33.5Z"/>
          <g>
            <path class="cls-4" d="M123.2,74h-41.5v91h41.5c3.5,0,6.4-2.9,6.4-6.4v-78.2c0-3.5-2.9-6.4-6.4-6.4h0Z"/>
            <g>
              <path class="cls-5" d="M118.4,78.8h-36.7v91h36.7c3.5,0,6.4-2.9,6.4-6.4v-78.2c0-3.5-2.9-6.4-6.4-6.4h0Z"/>
              <path class="cls-5" d="M118.4,78.8h-36.7v81.4h36.7c3.5,0,6.4-2.9,6.4-6.4v-68.6c0-3.5-2.9-6.4-6.4-6.4h0Z"/>
              <path class="cls-5" d="M113.6,78.8h-31.9v81.4h31.9c3.5,0,6.4-2.9,6.4-6.4v-68.6c0-3.5-2.9-6.4-6.4-6.4h0Z"/>
            </g>
            <path class="cls-9" d="M49.8,78.8h63.8c3.5,0,6.4,2.9,6.4,6.4v63.8c0,3.5-2.9,6.4-6.4,6.4h-63.8c-3.5,0-6.4-2.9-6.4-6.4v-63.8c0-3.5,2.9-6.4,6.4-6.4h0Z"/>
            <path class="cls-8" d="M60.3,141l15.5-24-14.2-23.9h11.4l7.7,15.3c.7,1.4,1.2,2.5,1.5,3.2h.1c.5-1.2,1-2.3,1.6-3.4l8.3-15.1h10.5l-14.6,23.7,14.9,24.1h-11.2l-8.9-16.8c-.4-.7-.8-1.5-1.1-2.2h-.1c-.3.8-.6,1.5-1,2.2l-9.2,16.8h-11.2Z"/>
          </g>
          <path class="cls-1" d="M43.4,40.5h153.2v153.2H43.4V40.5Z"/>
        </g>
      </g>
    </g>
  </g>
</svg>