<?xml version="1.0" encoding="UTF-8"?>
<svg xmlns="http://www.w3.org/2000/svg" version="1.1" viewBox="0 0 24 24">
  <defs>
    <style>
      .cls-1, .cls-2 {
        fill: none;
      }

      .cls-2 {
        stroke: #fff;
        stroke-linecap: round;
        stroke-linejoin: round;
        stroke-width: 1.6px;
      }
    </style>
  </defs>
  <!-- Generator: Adobe Illustrator 28.7.1, SVG Export Plug-In . SVG Version: 1.2.0 Build 142)  -->
  <g>
    <g id="Layer_2">
      <g id="Layer_1-2">
        <g>
          <rect class="cls-1" y="0" width="24" height="24"/>
          <path class="cls-2" d="M13.2,21h-2.1c-.4,0-.8-.3-.8-.7l-.2-1.5c-.4-.1-.8-.3-1.2-.5l-1.3,1c-.2.1-.3.2-.5.2s-.4,0-.6-.2l-1.5-1.5c-.3-.3-.3-.8,0-1.1l.9-1.2c-.2-.4-.4-.8-.5-1.2l-1.6-.2c-.4,0-.7-.4-.7-.8v-2.1c0-.4.3-.8.7-.8l1.6-.2c.1-.4.3-.7.5-1.1l-1.1-1.4c-.3-.3-.2-.8,0-1.1l1.5-1.5c.2-.2.4-.2.6-.2s.4,0,.5.2l1.4,1.1c.3-.2.6-.3.9-.4l.2-1.9c0-.4.4-.7.8-.7h2.1c.4,0,.8.3.8.7l.2,1.9c.3,0,.6.2.8.3l1.6-1.3c.1-.1.3-.2.5-.2s.4,0,.6.2l1.5,1.5c.3.3.3.8,0,1.1l-1.2,1.5c.1.3.3.5.4.8l2,.2c.4,0,.7.4.7.8v2.1c0,.4-.3.8-.7.8l-1.8.2c0,.3-.2.7-.4,1l1.2,1.5c.3.3.2.8,0,1.1l-1.5,1.5c-.2.2-.4.2-.6.2s-.4,0-.5-.2l-1.3-1c-.4.2-.7.4-1.1.5l-.2,1.7c0,.4-.4.7-.8.7h0ZM11.9,15.8c-2,0-3.6-1.6-3.6-3.6s1.6-3.6,3.6-3.6,3.6,1.6,3.6,3.6-1.6,3.6-3.6,3.6Z"/>
        </g>
      </g>
    </g>
  </g>
</svg>