<?xml version="1.0" encoding="UTF-8"?>
<svg xmlns="http://www.w3.org/2000/svg" version="1.1" viewBox="0 0 240 234">
  <defs>
    <style>
      .cls-1 {
        fill: none;
      }

      .cls-2 {
        opacity: .1;
      }

      .cls-2, .cls-3 {
        isolation: isolate;
      }

      .cls-3 {
        opacity: .2;
      }

      .cls-4 {
        fill: #c43e1c;
      }

      .cls-5 {
        fill: #ff8f6b;
      }

      .cls-6 {
        fill: #f9f7f7;
      }

      .cls-7 {
        fill: #d35230;
      }

      .cls-8 {
        fill: #8c2915;
      }

      .cls-9 {
        fill: #ed6c47;
      }
    </style>
  </defs>
  <!-- Generator: Adobe Illustrator 28.7.1, SVG Export Plug-In . SVG Version: 1.2.0 Build 142)  -->
  <g>
    <g id="Layer_1">
      <g id="Layer_1-2" data-name="Layer_1">
        <path class="cls-8" d="M42.5,0h155C221,0,240,19,240,42.5v149c0,23.5-19,42.5-42.5,42.5H42.5c-23.5,0-42.5-19-42.5-42.5V42.5C0,19,19,0,42.5,0Z"/>
      </g>
      <g>
        <path class="cls-9" d="M129.6,50c-36.9.1-66.9,30-67,67l84.8,17.9-17.9-84.8Z"/>
        <path class="cls-5" d="M129.6,50c36.9.1,66.9,30,67,67l-33.5,22.8-33.5-22.8V50Z"/>
        <path class="cls-7" d="M129.6,184c36.9-.1,66.9-30,67-67H62.6c.1,36.9,30,66.9,67,67Z"/>
        <path class="cls-2" d="M123.2,73.9h-44.8c-22.7,26.7-20.7,66.5,4.4,90.9h40.3c3.5,0,6.4-2.9,6.4-6.4v-78.1c0-3.5-2.9-6.4-6.4-6.4Z"/>
        <path class="cls-3" d="M118.4,78.7h-43.7c-20.5,29.1-14.5,69.1,13.6,90.9h30c3.5,0,6.4-2.9,6.4-6.4v-78.1c0-3.5-2.9-6.4-6.4-6.4Z"/>
        <path class="cls-3" d="M118.4,78.7h-43.7c-17.5,24.8-16,58.2,3.7,81.3h40c3.5,0,6.4-2.9,6.4-6.4v-68.6c0-3.5-2.9-6.4-6.4-6.4Z"/>
        <path class="cls-3" d="M113.6,78.7h-38.9c-17.5,24.8-16,58.2,3.7,81.3h35.2c3.5,0,6.4-2.9,6.4-6.4v-68.6c0-3.5-2.9-6.4-6.4-6.4Z"/>
        <path class="cls-4" d="M49.8,78.7h63.8c3.5,0,6.4,2.9,6.4,6.4h0v63.8c0,3.5-2.9,6.4-6.4,6.4h-63.8c-3.5,0-6.4-2.9-6.4-6.4h0v-63.8c0-3.5,2.9-6.4,6.4-6.4h0Z"/>
        <path class="cls-6" d="M81.7,93.1c4.7-.3,9.4,1,13.2,3.9,3.2,2.8,4.8,6.9,4.6,11.2,0,2.7-.7,5.4-2.3,7.6-1.6,2.5-3.8,4.4-6.4,5.7-3,1.4-6.3,2.1-9.7,2h-9.1v17.5h-9.4v-47.8h19.1ZM72,115.5h8.1c2.6.2,5.1-.6,7.1-2.1,1.7-1.1,2.6-3,2.4-4.9,0-5.3-3.1-7.9-9.2-7.9h-8.4v15Z"/>
        <path class="cls-1" d="M43.5,40.5h153.1v153.1H43.5V40.5Z"/>
      </g>
    </g>
  </g>
</svg>