<?xml version="1.0" encoding="UTF-8"?>
<svg xmlns="http://www.w3.org/2000/svg" xmlns:xlink="http://www.w3.org/1999/xlink" version="1.1" viewBox="0 0 240 234">
  <defs>
    <style>
      .cls-1 {
        fill: url(#linear-gradient-5);
      }

      .cls-1, .cls-2, .cls-3, .cls-4, .cls-5, .cls-6, .cls-7, .cls-8, .cls-9, .cls-10 {
        fill-rule: evenodd;
      }

      .cls-2 {
        fill: url(#linear-gradient-7);
      }

      .cls-3 {
        fill: url(#linear-gradient-8);
      }

      .cls-4 {
        fill: url(#linear-gradient-2);
      }

      .cls-5 {
        fill: url(#linear-gradient-3);
      }

      .cls-6 {
        fill: url(#linear-gradient-4);
      }

      .cls-7 {
        fill: url(#linear-gradient-9);
      }

      .cls-8 {
        fill: url(#linear-gradient-6);
      }

      .cls-11 {
        fill: #06cbf6;
      }

      .cls-12 {
        fill: #2b2b2b;
      }

      .cls-13 {
        fill: #009550;
      }

      .cls-14 {
        fill: #00863f;
      }

      .cls-15 {
        fill: #00983e;
      }

      .cls-16 {
        fill: url(#linear-gradient);
      }

      .cls-9 {
        fill: #97cc1a;
      }

      .cls-17 {
        fill: #009a37;
      }

      .cls-10 {
        fill: url(#linear-gradient-10);
      }

      .cls-18 {
        fill: #666565;
      }

      .cls-19 {
        fill: #2ac64b;
      }

      .cls-20 {
        fill: #008a5a;
      }
    </style>
    <linearGradient id="linear-gradient" x1="-44302.8" y1="22577.2" x2="-43986.9" y2="22567.7" gradientTransform="translate(11304.3 5747.9) scale(.3 -.3)" gradientUnits="userSpaceOnUse">
      <stop offset="0" stop-color="#0288f7"/>
      <stop offset="1" stop-color="#2ee2bd"/>
    </linearGradient>
    <linearGradient id="linear-gradient-2" x1="-44278.6" y1="22111.6" x2="-44356.3" y2="22303.7" gradientTransform="translate(11304.3 5747.9) scale(.3 -.3)" gradientUnits="userSpaceOnUse">
      <stop offset="0" stop-color="#cb1918"/>
      <stop offset=".4" stop-color="#a2183d"/>
      <stop offset=".7" stop-color="#902869"/>
      <stop offset="1" stop-color="#73358a"/>
    </linearGradient>
    <linearGradient id="linear-gradient-3" x1="-44317.9" y1="22095.7" x2="-44395.6" y2="22287.9" xlink:href="#linear-gradient-2"/>
    <linearGradient id="linear-gradient-4" x1="-44210" y1="22139.3" x2="-44287.7" y2="22331.5" xlink:href="#linear-gradient-2"/>
    <linearGradient id="linear-gradient-5" x1="-44050.3" y1="22248.1" x2="-44163" y2="22124.9" gradientTransform="translate(11304.3 5747.9) scale(.3 -.3)" gradientUnits="userSpaceOnUse">
      <stop offset="0" stop-color="#add816"/>
      <stop offset="1" stop-color="#dbd704"/>
    </linearGradient>
    <linearGradient id="linear-gradient-6" x1="-44135.6" y1="22011.4" x2="-44231.6" y2="22173.3" gradientTransform="translate(11304.3 5747.9) scale(.3 -.3)" gradientUnits="userSpaceOnUse">
      <stop offset="0" stop-color="#e1282b"/>
      <stop offset=".4" stop-color="#e3402a"/>
      <stop offset=".7" stop-color="#e76226"/>
      <stop offset="1" stop-color="#f19a0a"/>
    </linearGradient>
    <linearGradient id="linear-gradient-7" x1="-44129.4" y1="22015" x2="-44225.4" y2="22176.9" xlink:href="#linear-gradient-6"/>
    <linearGradient id="linear-gradient-8" x1="-44145.7" y1="22005.4" x2="-44241.7" y2="22167.3" xlink:href="#linear-gradient-6"/>
    <linearGradient id="linear-gradient-9" x1="-44198.7" y1="21974" x2="-44294.7" y2="22135.9" xlink:href="#linear-gradient-6"/>
    <linearGradient id="linear-gradient-10" x1="-44216.4" y1="21963.5" x2="-44312.4" y2="22125.4" xlink:href="#linear-gradient-6"/>
  </defs>
  <!-- Generator: Adobe Illustrator 28.7.1, SVG Export Plug-In . SVG Version: 1.2.0 Build 142)  -->
  <g>
    <g id="Layer_1">
      <path class="cls-12" d="M42.5,0h155C221,0,240,19,240,42.5v149c0,23.5-19,42.5-42.5,42.5H42.5c-23.5,0-42.5-19-42.5-42.5V42.5C0,19,19,0,42.5,0Z"/>
      <g>
        <g>
          <path class="cls-19" d="M65.8,87.5c-2.2-1-4.1-1.8-5.7-2.4-.3-2.5-.6-4.9-.7-7.4-.1-2,0-4,.2-6,1.3.2,3.2.5,5.6,1-.2,2.8-.3,5.8,0,8.9.2,2,.4,4,.7,5.9ZM87.7,100.4c-5.6-4.1-10.9-7.3-15.4-9.7-.9-5.7-1.3-11.3-1-16.7,4.2.9,9.2,2.1,14.7,3.7-.4,7.2.3,14.9,1.7,22.8h0ZM145.3,103.4c0,.6-.1,1.2-.2,1.9-7.7,4-15.3,9.4-22.1,16.6-2.2,2.3-4.2,4.7-6.1,7.1-2.1-2.6-4.3-5.3-6.6-7.9-1.1-1.2-2.1-2.3-3.2-3.5-1.8-11.8-2.9-23.4-3.1-34.3,13.6,4.8,28.3,11.4,41.3,20.1h0Z"/>
          <path class="cls-20" d="M67.5,61.3c-1.1,3.5-2,7.3-2.3,11.5-2.3-.5-4.2-.8-5.6-1,.2-1.2.4-2.5.7-3.7,1.7-1.8,4.1-4.2,7.2-6.8Z"/>
          <path class="cls-13" d="M94.2,46.2c-4,7.4-7.3,17.3-8.1,30.6,0,.3,0,.5,0,.8-5.5-1.5-10.5-2.7-14.7-3.7,0-.2,0-.4,0-.5.5-7,2.6-13.4,5.7-19,4.8-3,10.5-5.9,17.1-8.2Z"/>
          <path class="cls-15" d="M145.3,103.4c-12.9-8.7-27.7-15.3-41.3-20.1-.3-13,.7-24.9,3.4-34.8,0-.3.1-.5.2-.8,10.8,6.4,24.9,13.5,38.3,16.6,1.2,11.8.8,25.2-.6,39.1h0Z"/>
          <path class="cls-17" d="M191.2,77.7c-.3,5.5-1.1,10.9-2.3,16.3-1.5,0-3.3.2-5.3.3.9-4.2,1.5-8.5,1.9-12.8,1.2-14.7-3.6-25.8-9.1-33.6,1.6.5,3.1.9,4.6,1.3,6.2,7.8,10.9,17.8,10.3,28.5ZM177.5,95.1c-4.3.6-9.1,1.6-14.3,3,1.2-7.4,1.7-14.6,1.3-21.3-.9-15.3-5.1-26.2-9.9-33.8,4.6.8,8.9,1.6,12.9,2.6,6.4,7.6,10.9,17,11.7,27.8.5,6.9-.2,14.3-1.7,21.6Z"/>
          <path class="cls-14" d="M145.9,64.3c-13.4-3.1-27.4-10.2-38.2-16.6.6-2,1.2-3.8,1.9-5.4,2-.3,4-.6,6.1-.8,8.4-.9,16.9-.8,24.9-.1.9,2.1,1.8,4.5,2.5,7.2,1.3,4.8,2.2,10.1,2.8,15.8Z"/>
          <path class="cls-11" d="M88.2,34.2c-.4.3-14.8,9.1-20.7,27.1-3.2,2.6-5.6,5-7.2,6.8,3.9-16.9,19.5-30.8,27.9-33.8ZM97.3,41.2c-1.1,1.5-2.1,3.2-3.1,5.1-6.6,2.3-12.3,5.2-17.1,8.2,3.7-6.8,8.8-12.5,14.7-17.1,1.4,1,3.3,2.3,5.6,3.8h0Z"/>
          <path class="cls-16" d="M180.9,49.3c-1.4-.4-2.9-.9-4.6-1.3-6.5-9.2-14-13.7-14-13.7,5,1.8,12.5,7.4,18.5,15.1ZM167.5,45.6c-4-.9-8.4-1.8-12.9-2.6-8.2-12.9-18.6-16.6-19.1-16.8,11.1,2.2,23.3,9,32,19.3ZM140.6,41.3c-8-.7-16.5-.7-24.9.1-2.1.2-4.1.5-6.1.8,5.9-14,15.6-16,15.6-16h.3s9.2,1.9,15.2,15ZM115.1,26.3c-.5.2-9.8,3.5-17.8,14.9-2.3-1.5-4.2-2.8-5.6-3.8,7.3-5.7,15.6-9.5,23.4-11.1h0Z"/>
          <path class="cls-18" d="M125.3,207.7h9.9l3.7-16h-27.2l3.7,16h9.9Z"/>
        </g>
        <path class="cls-4" d="M87.8,136.1c1.9,3.9,3.7,7.5,5.3,10.4,2.7,5,5.2,9.3,7.9,13.2.8-2.7,1.7-5.5,2.9-8.4-2-4.7-4.1-9.7-6-15-4.2-11.4-8-23.8-10.1-35.8-5.6-4.1-10.9-7.3-15.4-9.7,2.6,16.2,9.5,32.9,15.5,45.3h0Z"/>
        <path class="cls-5" d="M78.9,135.9c1.1,1.9,2.2,3.8,3.4,5.7,5.4,8.9,11.7,17.2,17.3,23.9.2-.8.4-1.6.6-2.5-2.3-3.1-4.5-6.3-6.4-9.2-2.7-4.2-6.7-10.3-10.8-17.8-7-12.8-14.6-29.8-17.2-48.4-2.2-1-4.1-1.8-5.7-2.4,2.3,16.7,8.6,33.1,18.7,50.7h0Z"/>
        <path class="cls-6" d="M108.1,123.8c.7,4.2,1.5,8.5,2.4,12.7,0,.4.2.8.3,1.2,1.8-2.9,3.8-5.8,6.1-8.8-2.1-2.7-4.3-5.4-6.6-7.9-1.1-1.2-2.1-2.3-3.2-3.5.3,2.1.6,4.1,1,6.2h0Z"/>
        <path class="cls-9" d="M183.5,94.4c-2.5,12.2-7,23.6-11.7,33.3,1,1,1.9,1.9,2.8,2.9,6.7-12.5,11.5-24.5,14.2-36.5-1.5,0-3.3.2-5.3.3ZM163.2,98.1c-.9,5.8-2.3,11.8-3.9,17.7,2.8,2.5,5.8,5.3,8.8,8.2,3.7-8.9,7.2-19,9.3-29-4.3.6-9.1,1.6-14.3,3h0Z"/>
        <path class="cls-1" d="M123,122c-2.2,2.3-4.2,4.7-6.1,7.1,8.1,10.2,14,19.8,18.4,27.9,1.6-6.1,3.2-12.8,4.7-19.7.9-4.5,1.8-9,2.6-13.4,1-6.2,1.9-12.4,2.6-18.5-7.7,4-15.3,9.4-22.1,16.6ZM171.8,127.7c-.2.4-.4.7-.5,1.1-5.3,10.8-11,19.4-14.5,24.9-4.1,6.3-9.6,13.7-14,19.4.2.4.3.8.5,1.2,6.8-7.4,16.9-19.3,25.1-32.7,2.1-3.4,4-6.7,5.8-10,.2-.3.4-.7.6-1-.9-.9-1.8-1.9-2.8-2.9h0ZM159.3,115.8l-.2.8c-5.2,18.7-13.1,36.9-19.4,49.4.7,1.5,1.3,2.9,1.8,4.1,5.8-6.9,10.5-13.8,15.8-23.7,2.9-5.4,6.7-12.8,10.2-21.3l.5-1.1c-3-2.9-6-5.7-8.8-8.2h0Z"/>
        <path class="cls-8" d="M130.5,182.3c4.2-4.4,7.8-8.3,11.1-12.2-.5-1.3-1.2-2.7-1.8-4.1-4.4,8.9-8,14.9-9.3,16.3Z"/>
        <path class="cls-2" d="M135.7,182.1c.2-.2,3.2-3.1,7.6-7.8-.1-.4-.3-.8-.5-1.2-3.9,5.1-6.9,8.7-7.1,9Z"/>
        <path class="cls-3" d="M110.8,137.8c5,23.3,11.8,44.7,11.8,44.7h5.4s3.5-10.9,7.3-25.6c-4.3-8.1-10.3-17.8-18.4-27.9-2.3,2.9-4.3,5.9-6.1,8.8Z"/>
        <path class="cls-7" d="M101,159.7c5.5,8.1,11.2,14.5,19.1,22.7-1.8-2.1-8.9-14.4-16.2-31.1-1.2,2.9-2.1,5.7-2.9,8.4h0Z"/>
        <path class="cls-10" d="M99.6,165.4c8.2,9.9,15,16.3,15.3,16.7-.4-.4-7.8-9.6-14.7-19.2-.2.9-.4,1.7-.6,2.5h0Z"/>
      </g>
    </g>
  </g>
</svg>