<?xml version="1.0" encoding="UTF-8"?>
<svg xmlns="http://www.w3.org/2000/svg" version="1.1" viewBox="0 0 240 234.1">
  <defs>
    <style>
      .cls-1 {
        fill: #fff;
      }

      .cls-2 {
        fill: #b30b00;
      }
    </style>
  </defs>
  <!-- Generator: Adobe Illustrator 28.7.1, SVG Export Plug-In . SVG Version: 1.2.0 Build 142)  -->
  <g>
    <g id="Layer_1">
      <path class="cls-2" d="M42.4.2h155.2c23.2,0,42.4,19.2,42.4,42.4v148.8c0,23.6-19.2,42.4-42.4,42.4H42.4C19.2,234.2,0,215,0,191.8V42.6C0,19.4,19.2.2,42.4.2Z"/>
      <path class="cls-1" d="M192.8,135.8c-4.8-5.2-14-7.6-27.2-7.6s-14.8.8-22,2c-4.8-4.4-8.8-9.6-12.8-14.8-2.8-4-5.6-8-8-12.4,4-11.2,6.4-23.2,7.2-35.2,0-10.8-4.4-22.4-16.4-22.4s-8,2.4-10,6c-5.2,8.8-3.2,26.8,5.2,45.6-2.8,8.4-6,16.8-9.6,26-3.2,8-6.8,15.6-11.2,22.8-12.4,4.8-38.4,16.8-40.8,30-.8,4,.4,8,3.6,10.4,2.8,2.4,6.8,4,10.8,3.6,15.6,0,31.2-21.6,42-40.4,6-2,12-4,18.4-5.6,6.8-1.6,13.2-3.2,19.2-4.4,16.8,14.4,31.6,16.8,38.8,16.8s14-4.4,15.2-8c1.6-4.4.8-9.2-2.4-12.4h0ZM182,143.4c-.4,2.8-3.6,4.8-7.6,4.8s-2.4,0-3.6-.4c-8-2-15.6-6-22-11.2,5.2-.8,10.8-1.2,16-1.2s7.2.4,10.8.8c3.6.8,7.6,2.4,6.4,7.2h0ZM110.4,55c.8-1.2,2-2,3.6-2.4,4,0,4.8,4.4,4.8,8.4-.4,9.2-2,18-4.8,26.8-6.8-17.2-6-28.8-3.6-32.8h0ZM132.8,131.8c-4.4.8-8.8,2-13.2,3.2-3.2.8-6.4,2-10,2.8,1.6-3.6,3.2-7.2,4.8-10.4,2-4.4,3.6-8.8,5.2-13.2,1.6,2.4,2.8,4.4,4.4,6.4,2.8,4,6,7.6,8.8,11.2ZM84.4,155c-10,16-20,26.4-25.6,26.4s-2-.4-2.4-.8c-1.2-.8-1.6-2.4-1.2-3.6.8-6,12.4-14.4,29.2-22h0Z"/>
    </g>
  </g>
</svg>