<?xml version="1.0" encoding="utf-8"?>
<!-- Generator: Adobe Illustrator 27.7.0, SVG Export Plug-In . SVG Version: 6.00 Build 0)  -->
<svg version="1.1" id="레이어_1" xmlns="http://www.w3.org/2000/svg" xmlns:xlink="http://www.w3.org/1999/xlink" x="0px"
	 y="0px" viewBox="0 0 100 100" style="enable-background:new 0 0 100 100;" xml:space="preserve">
<style type="text/css">
	.st0{fill:none;stroke:#000000;stroke-width:3;stroke-linejoin:round;stroke-miterlimit:10;}
	.st1{fill:none;stroke:#000000;stroke-width:2;stroke-linecap:round;stroke-linejoin:round;stroke-miterlimit:10;}
</style>
<g id="안내선_00000006708498300743296520000000111067536031591349_">
	<g id="안내선">
	</g>
</g>
<g id="캘린더_00000021826119622186829960000001677282979021554086_">
	<g>
		<circle cx="26.3" cy="43.2" r="2.1"/>
		<circle cx="23.8" cy="53.7" r="2.1"/>
		<circle cx="21.2" cy="64.1" r="2.1"/>
		<circle cx="18.6" cy="74.5" r="2.1"/>
	</g>
	<g>
		<circle cx="39.6" cy="43.7" r="2.1"/>
		<circle cx="37.1" cy="54.2" r="2.1"/>
		<circle cx="34.5" cy="64.6" r="2.1"/>
		<circle cx="31.8" cy="75.1" r="2.1"/>
	</g>
	<g>
		<circle cx="52.9" cy="44.4" r="2.1"/>
		<circle cx="50.3" cy="54.7" r="2.1"/>
		<circle cx="47.7" cy="65.1" r="2.1"/>
		<circle cx="45.1" cy="75.6" r="2.1"/>
	</g>
	<g>
		<circle cx="66.2" cy="44.9" r="2.1"/>
		<circle cx="63.6" cy="55.3" r="2.1"/>
		<circle cx="61" cy="65.6" r="2.1"/>
		<circle cx="58.4" cy="76.2" r="2.1"/>
	</g>
	<g>
		<polygon class="st0" points="1.7,89.7 73.6,93.8 87.2,14.6 15.5,12.5 		"/>
		<polyline class="st0" points="87.2,14.6 98.3,79.8 75.4,79.8 		"/>
		<line class="st0" x1="12.8" y1="28.1" x2="84.5" y2="30.1"/>
		<path class="st0" d="M26.1,18.8"/>
		<path class="st1" d="M26.1,16.7c-2.3,0-4.2-1.8-4.2-4.2s1.8-4.2,4.2-4.2s4.2,1.8,4.2,4.2"/>
		<path class="st1" d="M38.9,17c-2.3,0-4.2-1.8-4.2-4.2s1.8-4.2,4.2-4.2c2.4,0,4.2,1.8,4.2,4.2"/>
		<path class="st1" d="M62.2,17.8c-2.3,0-4.2-1.8-4.2-4.2s1.8-4.2,4.2-4.2c2.3,0,4.2,1.8,4.2,4.2"/>
		<path class="st1" d="M75,18.2c-2.3,0-4.2-1.8-4.2-4.2s1.8-4.2,4.2-4.2c2.3,0,4.2,1.8,4.2,4.2"/>
	</g>
</g>
</svg>
