<?xml version="1.0" encoding="utf-8"?>
<!-- Generator: Adobe Illustrator 27.7.0, SVG Export Plug-In . SVG Version: 6.00 Build 0)  -->
<svg version="1.1" id="레이어_1" xmlns="http://www.w3.org/2000/svg" xmlns:xlink="http://www.w3.org/1999/xlink" x="0px"
	 y="0px" viewBox="0 0 100 100" style="enable-background:new 0 0 100 100;" xml:space="preserve">
<style type="text/css">
	.st0{fill:none;stroke:#000000;stroke-width:3;stroke-linejoin:round;stroke-miterlimit:10;}
	.st1{fill:none;stroke:#000000;stroke-width:2;stroke-linecap:round;stroke-linejoin:round;stroke-miterlimit:10;}
	.st2{fill:none;stroke:#000000;stroke-width:3;stroke-linecap:round;stroke-linejoin:round;stroke-miterlimit:10;}
	.st3{fill:none;stroke:#000000;stroke-width:3;stroke-miterlimit:10;}
</style>
<g id="안내선_00000006708498300743296520000000111067536031591349_">
	<g id="안내선">
	</g>
</g>
<g id="캘린더_00000021826119622186829960000001677282979021554086_">
	<g>
		<circle cx="-123.3" cy="43.4" r="2.1"/>
		<circle cx="-125.7" cy="53.6" r="2.1"/>
		<circle cx="-128.3" cy="63.8" r="2.1"/>
		<circle cx="-130.8" cy="74" r="2.1"/>
	</g>
	<g>
		<circle cx="-110.3" cy="43.9" r="2.1"/>
		<circle cx="-112.7" cy="54.1" r="2.1"/>
		<circle cx="-115.3" cy="64.3" r="2.1"/>
		<circle cx="-117.9" cy="74.6" r="2.1"/>
	</g>
	<g>
		<circle cx="-97.3" cy="44.5" r="2.1"/>
		<circle cx="-99.8" cy="54.6" r="2.1"/>
		<circle cx="-102.3" cy="64.8" r="2.1"/>
		<circle cx="-104.9" cy="75.1" r="2.1"/>
	</g>
	<g>
		<circle cx="-84.3" cy="45" r="2.1"/>
		<circle cx="-86.8" cy="55.2" r="2.1"/>
		<circle cx="-89.3" cy="65.3" r="2.1"/>
		<circle cx="-91.9" cy="75.6" r="2.1"/>
	</g>
	<g>
		<polygon class="st0" points="-147.3,88.8 -77,92.8 -63.7,15.4 -133.8,13.4 		"/>
		<polyline class="st0" points="-63.7,15.4 -52.9,79.2 -75.3,79.2 		"/>
		<line class="st0" x1="-136.5" y1="28.6" x2="-66.4" y2="30.6"/>
		<path class="st0" d="M-123.5,19.5"/>
		<path class="st1" d="M-123.5,17.5c-2.2,0-4.1-1.8-4.1-4.1s1.8-4.1,4.1-4.1s4.1,1.8,4.1,4.1"/>
		<path class="st1" d="M-111,17.8c-2.2,0-4.1-1.8-4.1-4.1s1.8-4.1,4.1-4.1c2.3,0,4.1,1.8,4.1,4.1"/>
		<path class="st1" d="M-88.2,18.5c-2.2,0-4.1-1.8-4.1-4.1s1.8-4.1,4.1-4.1c2.2,0,4.1,1.8,4.1,4.1"/>
		<path class="st1" d="M-75.7,18.9c-2.2,0-4.1-1.8-4.1-4.1s1.8-4.1,4.1-4.1c2.2,0,4.1,1.8,4.1,4.1"/>
	</g>
</g>
<rect x="12.5" y="6.1" class="st2" width="74.7" height="92.4"/>
<path class="st2" d="M24.6,11.1"/>
<g>
	<g>
		<path d="M24.6,12.2c-3.4,0-6.1-2.7-6.1-6.1c0-3.4,2.7-6.1,6.1-6.1s6.1,2.7,6.1,6.1c0,0.6-0.5,1.1-1.1,1.1s-1.1-0.5-1.1-1.1
			c0-2.2-1.8-3.9-3.9-3.9s-3.9,1.8-3.9,3.9s1.8,3.9,3.9,3.9c0.6,0,1.1,0.5,1.1,1.1C25.7,11.7,25.2,12.2,24.6,12.2z"/>
		<path d="M41.4,12.2c-3.4,0-6.1-2.7-6.1-6.1c0-3.4,2.7-6.1,6.1-6.1c3.4,0,6.1,2.7,6.1,6.1c0,0.6-0.5,1.1-1.1,1.1
			c-0.6,0-1.1-0.5-1.1-1.1c0-2.2-1.8-3.9-3.9-3.9c-2.2,0-3.9,1.8-3.9,3.9s1.8,3.9,3.9,3.9c0.6,0,1.1,0.5,1.1,1.1
			C42.5,11.7,42,12.2,41.4,12.2z"/>
		<path d="M58.3,12.2c-3.4,0-6.1-2.7-6.1-6.1c0-3.4,2.7-6.1,6.1-6.1c3.4,0,6.1,2.7,6.1,6.1c0,0.6-0.5,1.1-1.1,1.1s-1.1-0.5-1.1-1.1
			c0-2.2-1.8-3.9-3.9-3.9c-2.2,0-3.9,1.8-3.9,3.9s1.8,3.9,3.9,3.9c0.6,0,1.1,0.5,1.1,1.1C59.3,11.7,58.9,12.2,58.3,12.2z"/>
		<path d="M75.1,12.2c-3.4,0-6.1-2.7-6.1-6.1C69,2.7,71.7,0,75.1,0c3.4,0,6.1,2.7,6.1,6.1c0,0.6-0.5,1.1-1.1,1.1
			c-0.6,0-1.1-0.5-1.1-1.1c0-2.2-1.8-3.9-3.9-3.9s-3.9,1.8-3.9,3.9s1.8,3.9,3.9,3.9c0.6,0,1.1,0.5,1.1,1.1
			C76.2,11.7,75.7,12.2,75.1,12.2z"/>
	</g>
</g>
<g>
	<g>
		<circle cx="24.6" cy="39.6" r="2.4"/>
		<circle cx="41.4" cy="39.6" r="2.4"/>
		<circle cx="58.3" cy="39.6" r="2.4"/>
		<circle cx="75.1" cy="39.6" r="2.4"/>
	</g>
	<g>
		<circle cx="24.6" cy="52.9" r="2.4"/>
		<circle cx="41.4" cy="52.9" r="2.4"/>
		<circle cx="58.3" cy="52.9" r="2.4"/>
		<circle cx="75.1" cy="52.9" r="2.4"/>
	</g>
	<g>
		<circle cx="24.6" cy="66.2" r="2.4"/>
		<circle cx="41.4" cy="66.2" r="2.4"/>
		<circle cx="58.3" cy="66.2" r="2.4"/>
		<circle cx="75.1" cy="66.2" r="2.4"/>
	</g>
	<g>
		<circle cx="24.6" cy="79.5" r="2.4"/>
		<circle cx="41.4" cy="79.5" r="2.4"/>
		<circle cx="58.3" cy="79.5" r="2.4"/>
		<circle cx="75.1" cy="79.5" r="2.4"/>
	</g>
</g>
<line class="st3" x1="12.5" y1="21.9" x2="87.1" y2="21.9"/>
<polyline class="st2" points="87.1,6.1 92.5,92 87.1,92 "/>
</svg>
