<svg width="132" height="136" viewBox="0 0 132 136" fill="none" xmlns="http://www.w3.org/2000/svg">
<g clip-path="url(#clip0_4269_12100)">
<path d="M0 12.6804V123.32C0 130.314 5.73037 136 12.7666 136H90.9258C97.9621 136 103.692 130.314 103.692 123.32V99.8758L127.023 77.4034C130.343 74.2042 132.149 69.8587 131.98 65.4743C131.831 61.5303 130.109 58.0072 127.14 55.5592C121.624 51 112.684 51.8678 106.798 57.5345L103.692 60.5265V12.6804C103.692 5.6861 97.9686 0 90.9258 0H12.7666C5.73037 0 0 5.6861 0 12.6804ZM104.992 67.1128L117.135 79.0937L85.5268 109.532C84.2014 110.814 82.5122 111.688 80.771 112.006L70.2653 113.923C69.752 114.013 69.3102 113.897 69.0179 113.599C68.7255 113.294 68.6215 112.848 68.732 112.342L71.0189 101.942C71.3243 100.536 71.9415 98.9497 76.0217 95.0187L104.992 67.1128ZM118.61 58.2339C120.448 58.2339 122.183 58.7779 123.541 59.8983C125.256 61.3166 126.25 63.3695 126.341 65.688C126.445 68.4728 125.269 71.264 123.099 73.3493L121.208 75.1756L109.065 63.1947L110.735 61.5821C113.009 59.3867 115.92 58.2339 118.61 58.2339ZM98.0401 12.6804V65.9665L72.0975 90.9516C67.9783 94.9215 66.1852 97.5703 65.503 100.724L63.216 111.131C62.7028 113.476 63.3525 115.859 64.9572 117.51C66.2566 118.851 68.0563 119.583 69.9534 119.583C70.3952 119.583 70.8435 119.544 71.2918 119.46L81.7975 117.543C84.6562 117.018 87.307 115.652 89.464 113.579L98.0401 105.316V123.313C98.0401 127.192 94.85 130.353 90.9258 130.353H12.7666C8.84245 130.353 5.65241 127.192 5.65241 123.313V12.6804C5.65241 8.79467 8.84245 5.63429 12.7666 5.63429H90.9258C94.85 5.63429 98.0401 8.79467 98.0401 12.6804Z" fill="#EDEDED"/>
<path d="M35.3179 23.4502H68.3942C69.9535 23.4502 71.2204 22.1873 71.2204 20.6331C71.2204 19.0788 69.9535 17.8159 68.3942 17.8159H35.3179C33.7586 17.8159 32.4917 19.0788 32.4917 20.6331C32.4917 22.1873 33.7586 23.4502 35.3179 23.4502Z" fill="#EDEDED"/>
<path d="M18.1006 95.99H51.1834C52.7427 95.99 54.0097 94.7271 54.0097 93.1729C54.0097 91.6186 52.7427 90.3557 51.1834 90.3557H18.1006C16.5413 90.3557 15.2744 91.6186 15.2744 93.1729C15.2744 94.7271 16.5413 95.99 18.1006 95.99Z" fill="#EDEDED"/>
<path d="M18.1006 78.6079H69.9014C71.4607 78.6079 72.7276 77.3451 72.7276 75.7908C72.7276 74.2365 71.4607 72.9736 69.9014 72.9736H18.1006C16.5413 72.9736 15.2744 74.2365 15.2744 75.7908C15.2744 77.3451 16.5413 78.6079 18.1006 78.6079Z" fill="#EDEDED"/>
<path d="M18.1006 46.5315H85.6112C87.1705 46.5315 88.4374 45.2686 88.4374 43.7144C88.4374 42.1601 87.1705 40.8972 85.6112 40.8972H18.1006C16.5413 40.8972 15.2744 42.1601 15.2744 43.7144C15.2744 45.2686 16.5413 46.5315 18.1006 46.5315Z" fill="#EDEDED"/>
<path d="M18.1006 63.4666H85.6112C87.1705 63.4666 88.4374 62.2037 88.4374 60.6494C88.4374 59.0951 87.1705 57.8323 85.6112 57.8323H18.1006C16.5413 57.8323 15.2744 59.0951 15.2744 60.6494C15.2744 62.2037 16.5413 63.4666 18.1006 63.4666Z" fill="#EDEDED"/>
</g>
<defs>
<clipPath id="clip0_4269_12100">
<rect width="132" height="136" fill="white"/>
</clipPath>
</defs>
</svg>
