<svg width="24" height="24" viewBox="0 0 24 24" fill="none" xmlns="http://www.w3.org/2000/svg">
<g clip-path="url(#clip0_570_2644)">
<path d="M21.23 3H2.77C1.24 3 0 4.24 0 5.77V17.77C0 19.3 1.24 20.54 2.77 20.54H21.23C22.76 20.54 24 19.3 24 17.77V5.77C24 4.24 22.76 3 21.23 3ZM2.77 4.85H21.23C21.74 4.85 22.15 5.26 22.15 5.77V7H1.85V5.77C1.85 5.26 2.26 4.85 2.77 4.85ZM21.23 18.7H2.77C2.26 18.7 1.85 18.29 1.85 17.78V8.85H22.16V17.77C22.16 18.28 21.75 18.69 21.24 18.69L21.23 18.7Z" fill="#222222"/>
<path d="M20.7705 15.9199H16.1505C15.6405 15.9199 15.2305 16.3299 15.2305 16.8399C15.2305 17.3499 15.6405 17.7599 16.1505 17.7599H20.7705C21.2805 17.7599 21.6905 17.3499 21.6905 16.8399C21.6905 16.3299 21.2805 15.9199 20.7705 15.9199Z" fill="#222222"/>
</g>
<defs>
<clipPath id="clip0_570_2644">
<rect width="24" height="17.54" fill="white" transform="translate(0 3)"/>
</clipPath>
</defs>
</svg>
