<?xml version="1.0" encoding="utf-8"?>
<!-- Generator: Adobe Illustrator 27.7.0, SVG Export Plug-In . SVG Version: 6.00 Build 0)  -->
<svg version="1.1" id="레이어_1" xmlns="http://www.w3.org/2000/svg" xmlns:xlink="http://www.w3.org/1999/xlink" x="0px"
	 y="0px" viewBox="0 0 24 24" style="enable-background:new 0 0 24 24;" xml:space="preserve">
<style type="text/css">
	.st0{fill:#183882;}
</style>
<path class="st0" d="M12,11.5c-1.3,0-2.4-0.4-3.3-1.3c-0.9-0.9-1.3-2-1.3-3.3c0-1.3,0.4-2.5,1.3-3.3c0.9-0.9,2-1.3,3.3-1.3
	c1.3,0,2.4,0.4,3.3,1.3c0.9,0.9,1.3,2,1.3,3.3s-0.4,2.5-1.3,3.3C14.4,11,13.3,11.5,12,11.5z M1.5,20.5v-1c0-0.7,0.2-1.4,0.6-2
	c0.4-0.6,0.9-1,1.5-1.3c1.5-0.7,2.9-1.1,4.2-1.5c1.4-0.3,2.7-0.5,4.1-0.5c1.4,0,2.7,0.2,4.1,0.5s2.8,0.8,4.2,1.5
	c0.7,0.3,1.2,0.7,1.6,1.3c0.4,0.6,0.6,1.2,0.6,2v1c0,0.4-0.2,0.8-0.5,1.1c-0.3,0.3-0.7,0.5-1.1,0.5H3.2c-0.4,0-0.8-0.2-1.1-0.5
	C1.7,21.3,1.5,21,1.5,20.5z M3.1,20.5h17.7v-1.1c0-0.4-0.1-0.7-0.3-1c-0.2-0.3-0.5-0.6-0.9-0.8c-1.4-0.7-2.7-1.1-3.9-1.4
	c-1.2-0.3-2.5-0.4-3.8-0.4c-1.3,0-2.5,0.1-3.8,0.4C7,16.5,5.7,17,4.3,17.6c-0.4,0.2-0.7,0.5-0.9,0.8c-0.2,0.3-0.3,0.7-0.3,1
	C3.1,19.5,3.1,20.5,3.1,20.5z M12,9.9c0.9,0,1.6-0.3,2.2-0.9C14.8,8.5,15,7.7,15,6.9c0-0.9-0.3-1.6-0.9-2.2
	c-0.6-0.6-1.3-0.9-2.2-0.9s-1.6,0.3-2.2,0.9C9.2,5.3,9,6,9,6.9C9,7.7,9.2,8.5,9.8,9C10.4,9.6,11.1,9.9,12,9.9z"/>
</svg>
