<svg width="20" height="21" viewBox="0 0 20 21" fill="none" xmlns="http://www.w3.org/2000/svg">
<path d="M10.0002 14.6422C10.1909 14.6422 10.3507 14.5776 10.4797 14.4486C10.6088 14.3196 10.6733 14.1597 10.6733 13.969C10.6733 13.7783 10.6088 13.6185 10.4797 13.4895C10.3507 13.3606 10.1909 13.2961 10.0002 13.2961C9.80947 13.2961 9.64961 13.3606 9.52058 13.4895C9.39155 13.6185 9.32704 13.7783 9.32704 13.969C9.32704 14.1597 9.39155 14.3196 9.52058 14.4486C9.64961 14.5776 9.80947 14.6422 10.0002 14.6422ZM10.0004 11.5974C10.1776 11.5974 10.326 11.5374 10.4456 11.4176C10.5653 11.2979 10.6252 11.1495 10.6252 10.9724V7.22237C10.6252 7.04529 10.5652 6.89681 10.4454 6.77695C10.3255 6.65723 10.177 6.59737 9.99995 6.59737C9.82273 6.59737 9.67433 6.65723 9.55475 6.77695C9.43502 6.89681 9.37516 7.04529 9.37516 7.22237V10.9724C9.37516 11.1495 9.43509 11.2979 9.55495 11.4176C9.67482 11.5374 9.82329 11.5974 10.0004 11.5974ZM10.0016 18.6165C8.90662 18.6165 7.87738 18.4088 6.91391 17.9932C5.95044 17.5776 5.11238 17.0137 4.39975 16.3013C3.68711 15.589 3.12287 14.7513 2.70704 13.7882C2.29134 12.8251 2.0835 11.7962 2.0835 10.7013C2.0835 9.60633 2.29127 8.57709 2.70683 7.61362C3.12238 6.65015 3.68634 5.81209 4.3987 5.09945C5.11107 4.38681 5.94877 3.82258 6.91183 3.40674C7.87488 2.99105 8.90384 2.7832 9.9987 2.7832C11.0937 2.7832 12.1229 2.99098 13.0864 3.40654C14.0499 3.82209 14.8879 4.38605 15.6006 5.09841C16.3132 5.81077 16.8775 6.64848 17.2933 7.61154C17.709 8.57459 17.9168 9.60355 17.9168 10.6984C17.9168 11.7934 17.7091 12.8226 17.2935 13.7861C16.8779 14.7496 16.314 15.5876 15.6016 16.3003C14.8893 17.0129 14.0516 17.5772 13.0885 17.993C12.1254 18.4087 11.0965 18.6165 10.0016 18.6165Z" fill="#FFA500"/>
</svg>
