<?xml version="1.0" encoding="utf-8"?>
<!-- Generator: Adobe Illustrator 27.7.0, SVG Export Plug-In . SVG Version: 6.00 Build 0)  -->
<svg version="1.1" id="레이어_1" xmlns="http://www.w3.org/2000/svg" xmlns:xlink="http://www.w3.org/1999/xlink" x="0px"
	 y="0px" viewBox="0 0 24 24" style="enable-background:new 0 0 24 24;" xml:space="preserve">
<style type="text/css">
	.st0{fill:#183882;}
</style>
<path class="st0" d="M2.9,21.2V10.4H2.5c-0.4,0-0.8-0.1-1-0.4c-0.3-0.3-0.4-0.6-0.4-1V6c0-0.4,0.1-0.8,0.4-1c0.3-0.3,0.6-0.4,1-0.4
	h4.7C7,4.3,6.9,4.1,6.8,3.8C6.7,3.6,6.6,3.3,6.6,3c0-0.8,0.3-1.5,0.9-2.1C8.1,0.3,8.8,0,9.6,0c0.4,0,0.9,0.1,1.3,0.3
	c0.4,0.2,0.7,0.5,1,0.8c0.3-0.4,0.6-0.6,1-0.8C13.4,0.1,13.8,0,14.2,0c0.8,0,1.5,0.3,2.1,0.9c0.6,0.6,0.9,1.3,0.9,2.1
	c0,0.3,0,0.6-0.1,0.8c-0.1,0.3-0.2,0.5-0.4,0.7h4.8c0.4,0,0.8,0.1,1,0.4c0.3,0.3,0.4,0.6,0.4,1v2.9c0,0.4-0.1,0.8-0.4,1
	c-0.3,0.3-0.6,0.4-1,0.4h-0.4v10.8c0,0.5-0.2,0.9-0.5,1.3c-0.4,0.4-0.8,0.5-1.3,0.5H4.7c-0.5,0-0.9-0.2-1.3-0.5
	C3.1,22.1,2.9,21.7,2.9,21.2z M14.2,1.4c-0.4,0-0.8,0.1-1.1,0.4c-0.3,0.3-0.4,0.7-0.4,1.1s0.1,0.8,0.4,1.1c0.3,0.3,0.7,0.4,1.1,0.4
	c0.4,0,0.8-0.1,1.1-0.4c0.3-0.3,0.4-0.7,0.4-1.1c0-0.4-0.1-0.8-0.4-1.1C15,1.6,14.7,1.4,14.2,1.4z M8.1,3c0,0.4,0.1,0.8,0.4,1.1
	c0.3,0.3,0.7,0.4,1.1,0.4c0.4,0,0.8-0.1,1.1-0.4C11,3.8,11.2,3.4,11.2,3c0-0.4-0.1-0.8-0.4-1.1c-0.3-0.3-0.7-0.4-1.1-0.4
	c-0.4,0-0.8,0.1-1.1,0.4C8.2,2.2,8.1,2.6,8.1,3z M2.5,6v3h8.8V6C11.3,6,2.5,6,2.5,6z M11.3,21.6V10.4h-7v10.8c0,0.1,0,0.2,0.1,0.3
	s0.2,0.1,0.3,0.1C4.6,21.6,11.3,21.6,11.3,21.6z M12.7,21.6h6.6c0.1,0,0.2,0,0.3-0.1c0.1-0.1,0.1-0.2,0.1-0.3V10.4h-7V21.6z M21.5,9
	V6h-8.8v3H21.5z"/>
</svg>
