<?xml version="1.0" encoding="utf-8"?>
<!-- Generator: Adobe Illustrator 27.7.0, SVG Export Plug-In . SVG Version: 6.00 Build 0)  -->
<svg version="1.1" id="레이어_1" xmlns="http://www.w3.org/2000/svg" xmlns:xlink="http://www.w3.org/1999/xlink" x="0px"
	 y="0px" viewBox="0 0 24 24" style="enable-background:new 0 0 24 24;" xml:space="preserve">
<style type="text/css">
	.st0{fill:#183882;}
</style>
<path class="st0" d="M11.9,11.6c-1.2,0-2.3-0.4-3.1-1.3C7.9,9.4,7.5,8.4,7.5,7.3S7.9,5,8.8,4.1s1.9-1.3,3.1-1.3s2.3,0.4,3.1,1.3
	C15.9,5,16.3,6,16.3,7.2s-0.4,2.3-1.3,3.1C14.2,11.2,13.1,11.6,11.9,11.6z M2.5,19.2v-0.9c0-0.6,0.2-1.2,0.5-1.7s0.8-0.9,1.4-1.2
	c1.3-0.6,2.5-1.1,3.8-1.4s2.6-0.5,3.9-0.5s2.6,0.2,3.9,0.5s2.5,0.8,3.8,1.4c0.6,0.3,1,0.7,1.4,1.2c0.3,0.5,0.5,1.1,0.5,1.7v0.9
	c0,0.5-0.2,1-0.6,1.4s-0.8,0.6-1.4,0.6H4.4c-0.5,0-1-0.2-1.4-0.6C2.7,20.2,2.5,19.8,2.5,19.2z M4.4,19.3h15v-0.9
	c0-0.3-0.1-0.5-0.2-0.7c-0.1-0.2-0.4-0.4-0.6-0.5c-1.1-0.5-2.2-0.9-3.3-1.2s-2.3-0.4-3.4-0.4c-1.2,0-2.3,0.1-3.4,0.4
	c-1.1,0.3-2.3,0.7-3.3,1.2c-0.3,0.1-0.5,0.3-0.6,0.5c-0.1,0.2-0.2,0.5-0.2,0.7C4.4,18.4,4.4,19.3,4.4,19.3z M11.9,9.7
	c0.7,0,1.3-0.2,1.8-0.7c0.5-0.5,0.7-1.1,0.7-1.8S14.2,6,13.7,5.5c-0.5-0.5-1.1-0.7-1.8-0.7S10.6,5,10.1,5.5S9.4,6.6,9.4,7.3
	S9.6,8.5,10.1,9S11.2,9.7,11.9,9.7z"/>
</svg>
