<svg width="29" height="29" viewBox="0 0 29 29" fill="none" xmlns="http://www.w3.org/2000/svg">
<path d="M14.5 18.1803C14.3594 18.1803 14.2286 18.1578 14.1074 18.1129C13.9863 18.0682 13.8711 17.9912 13.7618 17.8819L10.134 14.2542C9.9606 14.0805 9.87494 13.8774 9.87708 13.6449C9.87942 13.4123 9.96507 13.2055 10.134 13.0245C10.3151 12.8437 10.5229 12.7502 10.7576 12.7442C10.9925 12.7382 11.2005 12.8257 11.3815 13.0067L13.625 15.2502V6.3252C13.625 6.07689 13.7088 5.86903 13.8764 5.70161C14.0438 5.534 14.2517 5.4502 14.5 5.4502C14.7483 5.4502 14.9562 5.534 15.1236 5.70161C15.2912 5.86903 15.375 6.07689 15.375 6.3252V15.2502L17.6185 13.0067C17.7921 12.8333 17.9982 12.7476 18.2365 12.7497C18.4751 12.7521 18.6849 12.8437 18.866 13.0245C19.0349 13.2055 19.1224 13.4105 19.1285 13.6393C19.1345 13.8682 19.047 14.0731 18.866 14.2542L15.2382 17.8819C15.1289 17.9912 15.0137 18.0682 14.8926 18.1129C14.7714 18.1578 14.6406 18.1803 14.5 18.1803ZM7.85904 22.9502C7.26968 22.9502 6.77083 22.746 6.3625 22.3377C5.95417 21.9294 5.75 21.4305 5.75 20.8412V18.5527C5.75 18.3044 5.83381 18.0966 6.00142 17.9292C6.16883 17.7615 6.37669 17.6777 6.625 17.6777C6.87331 17.6777 7.08117 17.7615 7.24858 17.9292C7.41619 18.0966 7.5 18.3044 7.5 18.5527V20.8412C7.5 20.931 7.53743 21.0132 7.61229 21.0879C7.68696 21.1628 7.76921 21.2002 7.85904 21.2002H21.141C21.2308 21.2002 21.313 21.1628 21.3877 21.0879C21.4626 21.0132 21.5 20.931 21.5 20.8412V18.5527C21.5 18.3044 21.5838 18.0966 21.7514 17.9292C21.9188 17.7615 22.1267 17.6777 22.375 17.6777C22.6233 17.6777 22.8312 17.7615 22.9986 17.9292C23.1662 18.0966 23.25 18.3044 23.25 18.5527V20.8412C23.25 21.4305 23.0458 21.9294 22.6375 22.3377C22.2292 22.746 21.7303 22.9502 21.141 22.9502H7.85904Z" fill="#767676"/>
</svg>
