<?xml version="1.0" encoding="utf-8"?>
<!-- Generator: Adobe Illustrator 27.7.0, SVG Export Plug-In . SVG Version: 6.00 Build 0)  -->
<svg version="1.1" id="레이어_1" xmlns="http://www.w3.org/2000/svg" xmlns:xlink="http://www.w3.org/1999/xlink" x="0px"
	 y="0px" viewBox="0 0 24 25" style="enable-background:new 0 0 24 25;" xml:space="preserve">
<style type="text/css">
	.st0{fill:#FFFFFF;}
</style>
<path class="st0" d="M14.5,12.4L7.2,5C7,4.8,6.8,4.5,6.8,4.1c0-0.3,0.1-0.6,0.4-0.9s0.5-0.4,0.9-0.4c0.3,0,0.6,0.1,0.9,0.4l7.7,7.7
	c0.2,0.2,0.4,0.4,0.5,0.7c0.1,0.3,0.1,0.5,0.1,0.8c0,0.3,0,0.5-0.1,0.8c-0.1,0.3-0.2,0.5-0.5,0.7l-7.8,7.6c-0.2,0.3-0.5,0.4-0.8,0.4
	c-0.3,0-0.6-0.1-0.9-0.4c-0.3-0.3-0.4-0.5-0.4-0.9c0-0.4,0.1-0.6,0.4-0.9L14.5,12.4z"/>
</svg>
