<?xml version="1.0" encoding="utf-8"?>
<!-- Generator: Adobe Illustrator 27.7.0, SVG Export Plug-In . SVG Version: 6.00 Build 0)  -->
<svg version="1.1" id="레이어_1" xmlns="http://www.w3.org/2000/svg" xmlns:xlink="http://www.w3.org/1999/xlink" x="0px"
	 y="0px" viewBox="0 0 52 53" style="enable-background:new 0 0 52 53;" xml:space="preserve">
<style type="text/css">
	.st0{fill:#183882;}
</style>
<path class="st0" d="M24.9,29.2v9.1c0,0.3,0.1,0.6,0.3,0.8c0.2,0.2,0.5,0.3,0.8,0.3s0.6-0.1,0.8-0.3c0.2-0.2,0.3-0.5,0.3-0.8v-9.1
	l3.8,3.8c0.1,0.1,0.2,0.2,0.4,0.2c0.1,0.1,0.3,0.1,0.4,0.1s0.3,0,0.4-0.1c0.1-0.1,0.3-0.1,0.4-0.2c0.2-0.2,0.3-0.5,0.4-0.8
	c0-0.3-0.1-0.5-0.4-0.8l-5.2-5.2c-0.2-0.2-0.4-0.3-0.6-0.4s-0.4-0.1-0.6-0.1s-0.4,0-0.6,0.1s-0.4,0.2-0.6,0.4l-5.2,5.2
	c-0.2,0.2-0.3,0.5-0.3,0.7c0,0.3,0.1,0.5,0.3,0.8c0.2,0.2,0.5,0.3,0.8,0.4c0.3,0,0.5-0.1,0.8-0.4L24.9,29.2z M14.3,46.4
	c-1,0-1.8-0.3-2.5-1s-1-1.5-1-2.5v-32c0-1,0.3-1.8,1-2.5s1.5-1,2.5-1H30c0.5,0,0.9,0.1,1.4,0.3c0.4,0.2,0.8,0.4,1.1,0.8l7.7,7.7
	c0.3,0.3,0.6,0.7,0.8,1.1s0.3,0.9,0.3,1.4V43c0,1-0.3,1.8-1,2.5s-1.5,1-2.5,1L14.3,46.4L14.3,46.4z M30.3,16.5V9.6h-16
	c-0.3,0-0.6,0.1-0.9,0.4c-0.3,0.3-0.4,0.6-0.4,0.9v32c0,0.3,0.1,0.6,0.4,0.9c0.3,0.3,0.6,0.4,0.9,0.4h23.3c0.3,0,0.6-0.1,0.9-0.4
	c0.3-0.3,0.4-0.6,0.4-0.9V18.2H32c-0.5,0-0.9-0.2-1.3-0.5C30.5,17.4,30.3,17,30.3,16.5z"/>
</svg>
