<svg width="157" height="32" viewBox="0 0 157 32" fill="none" xmlns="http://www.w3.org/2000/svg">
<path d="M51.2642 23V8.45455H54.3395V20.4645H60.5753V23H51.2642ZM75.4119 15.7273C75.4119 17.3134 75.1113 18.6629 74.5099 19.7756C73.9134 20.8883 73.099 21.7382 72.0668 22.3253C71.0393 22.9077 69.884 23.1989 68.6009 23.1989C67.3082 23.1989 66.1482 22.9053 65.1207 22.3182C64.0933 21.7311 63.2813 20.8812 62.6847 19.7685C62.0881 18.6558 61.7898 17.3087 61.7898 15.7273C61.7898 14.1411 62.0881 12.7917 62.6847 11.679C63.2813 10.5663 64.0933 9.71875 65.1207 9.13636C66.1482 8.54924 67.3082 8.25568 68.6009 8.25568C69.884 8.25568 71.0393 8.54924 72.0668 9.13636C73.099 9.71875 73.9134 10.5663 74.5099 11.679C75.1113 12.7917 75.4119 14.1411 75.4119 15.7273ZM72.294 15.7273C72.294 14.6998 72.1402 13.8333 71.8324 13.1278C71.5294 12.4223 71.1009 11.8873 70.5469 11.5227C69.9929 11.1581 69.3442 10.9759 68.6009 10.9759C67.8575 10.9759 67.2088 11.1581 66.6548 11.5227C66.1009 11.8873 65.67 12.4223 65.3622 13.1278C65.0592 13.8333 64.9077 14.6998 64.9077 15.7273C64.9077 16.7547 65.0592 17.6212 65.3622 18.3267C65.67 19.0322 66.1009 19.5672 66.6548 19.9318C67.2088 20.2964 67.8575 20.4787 68.6009 20.4787C69.3442 20.4787 69.9929 20.2964 70.5469 19.9318C71.1009 19.5672 71.5294 19.0322 71.8324 18.3267C72.1402 17.6212 72.294 16.7547 72.294 15.7273ZM87.3349 13.1562C87.2354 12.8106 87.0958 12.5052 86.9158 12.2401C86.7359 11.9702 86.5157 11.7429 86.2553 11.5582C85.9996 11.3688 85.7061 11.2244 85.3746 11.125C85.0479 11.0256 84.6857 10.9759 84.288 10.9759C83.5446 10.9759 82.8912 11.1605 82.3278 11.5298C81.7691 11.8991 81.3335 12.4366 81.021 13.142C80.7085 13.8428 80.5522 14.6998 80.5522 15.7131C80.5522 16.7263 80.7061 17.5881 81.0138 18.2983C81.3216 19.0085 81.7572 19.5507 82.3207 19.9247C82.8841 20.294 83.5494 20.4787 84.3164 20.4787C85.0124 20.4787 85.6067 20.3556 86.0991 20.1094C86.5962 19.8584 86.975 19.5057 87.2354 19.0511C87.5006 18.5966 87.6332 18.0592 87.6332 17.4389L88.2582 17.5312H84.5082V15.2159H90.5948V17.0483C90.5948 18.3267 90.3249 19.4252 89.7852 20.3438C89.2454 21.2576 88.502 21.9631 87.555 22.4602C86.6081 22.9527 85.5238 23.1989 84.3022 23.1989C82.9386 23.1989 81.7406 22.8982 80.7085 22.2969C79.6763 21.6908 78.8713 20.8314 78.2937 19.7188C77.7208 18.6013 77.4343 17.2756 77.4343 15.7415C77.4343 14.5625 77.6048 13.5114 77.9457 12.5881C78.2913 11.66 78.7743 10.8741 79.3945 10.2301C80.0148 9.58617 80.7369 9.09612 81.5607 8.75994C82.3846 8.42377 83.2771 8.25568 84.2383 8.25568C85.0621 8.25568 85.8292 8.37642 86.5394 8.6179C87.2496 8.85464 87.8794 9.19081 88.4286 9.62642C88.9826 10.062 89.4348 10.5805 89.7852 11.1818C90.1355 11.7784 90.3604 12.4366 90.4599 13.1562H87.3349ZM106.271 15.7273C106.271 17.3134 105.971 18.6629 105.369 19.7756C104.773 20.8883 103.958 21.7382 102.926 22.3253C101.899 22.9077 100.743 23.1989 99.4602 23.1989C98.1676 23.1989 97.0076 22.9053 95.9801 22.3182C94.9527 21.7311 94.1406 20.8812 93.544 19.7685C92.9474 18.6558 92.6491 17.3087 92.6491 15.7273C92.6491 14.1411 92.9474 12.7917 93.544 11.679C94.1406 10.5663 94.9527 9.71875 95.9801 9.13636C97.0076 8.54924 98.1676 8.25568 99.4602 8.25568C100.743 8.25568 101.899 8.54924 102.926 9.13636C103.958 9.71875 104.773 10.5663 105.369 11.679C105.971 12.7917 106.271 14.1411 106.271 15.7273ZM103.153 15.7273C103.153 14.6998 103 13.8333 102.692 13.1278C102.389 12.4223 101.96 11.8873 101.406 11.5227C100.852 11.1581 100.204 10.9759 99.4602 10.9759C98.7169 10.9759 98.0682 11.1581 97.5142 11.5227C96.9602 11.8873 96.5294 12.4223 96.2216 13.1278C95.9186 13.8333 95.767 14.6998 95.767 15.7273C95.767 16.7547 95.9186 17.6212 96.2216 18.3267C96.5294 19.0322 96.9602 19.5672 97.5142 19.9318C98.0682 20.2964 98.7169 20.4787 99.4602 20.4787C100.204 20.4787 100.852 20.2964 101.406 19.9318C101.96 19.5672 102.389 19.0322 102.692 18.3267C103 17.6212 103.153 16.7547 103.153 15.7273Z" fill="#747474"/>
</svg>
