<svg width="20" height="21" viewBox="0 0 20 21" fill="none" xmlns="http://www.w3.org/2000/svg">
<path d="M9.98396 16.335C9.85785 16.335 9.73257 16.3182 9.60813 16.2844C9.48368 16.2508 9.36965 16.2046 9.26604 16.1459C8.67521 15.7932 8.05792 15.528 7.41417 15.3502C6.77056 15.1723 6.10472 15.0834 5.41667 15.0834C4.90819 15.0834 4.40875 15.1397 3.91833 15.2523C3.42792 15.3651 2.95514 15.531 2.5 15.75C2.20306 15.8867 1.92049 15.8664 1.65229 15.689C1.3841 15.5118 1.25 15.2607 1.25 14.9359V5.904C1.25 5.72442 1.29757 5.55851 1.39271 5.40629C1.48771 5.25407 1.61965 5.14324 1.78854 5.07379C2.35257 4.79921 2.94042 4.59331 3.55208 4.45608C4.16375 4.31872 4.78528 4.25004 5.41667 4.25004C6.2275 4.25004 7.01701 4.3649 7.78521 4.59462C8.5534 4.82435 9.29167 5.14754 10 5.56421V15.1346C10.7031 14.6902 11.4448 14.3622 12.2252 14.1507C13.0056 13.9391 13.7917 13.8334 14.5833 13.8334C15.0619 13.8334 15.5141 13.8671 15.9398 13.9344C16.3656 14.0016 16.8056 14.1079 17.2596 14.2532C17.3183 14.2693 17.3731 14.2707 17.424 14.2573C17.4747 14.2439 17.5 14.1998 17.5 14.125V4.76608C17.6442 4.80886 17.7849 4.85643 17.9223 4.90879C18.0595 4.96115 18.1933 5.02685 18.3237 5.10587C18.4658 5.17532 18.5724 5.27678 18.6433 5.41025C18.7144 5.54386 18.75 5.68705 18.75 5.83983V14.9198C18.75 15.2447 18.6119 15.4944 18.3356 15.669C18.0595 15.8437 17.7649 15.8654 17.4519 15.734C17.0022 15.5202 16.5361 15.3584 16.0538 15.2484C15.5714 15.1384 15.0813 15.0834 14.5833 15.0834C13.89 15.0834 13.2161 15.1723 12.5617 15.3502C11.9074 15.528 11.2848 15.7932 10.694 16.1459C10.5903 16.2046 10.4776 16.2508 10.3558 16.2844C10.234 16.3182 10.1101 16.335 9.98396 16.335ZM12.306 12.4232C12.1778 12.5375 12.0392 12.5605 11.8902 12.4921C11.7412 12.4237 11.6667 12.3045 11.6667 12.1346V5.65879C11.6667 5.60851 11.6771 5.55907 11.6979 5.51046C11.7188 5.46185 11.7474 5.41942 11.7838 5.38317L15.181 1.98567C15.3092 1.85747 15.45 1.82678 15.6033 1.89358C15.7567 1.96025 15.8333 2.08282 15.8333 2.26129V9.07858C15.8333 9.14261 15.8208 9.19761 15.7956 9.24358C15.7705 9.28955 15.7398 9.33074 15.7035 9.36712L12.306 12.4232ZM8.75 14.5305V6.32067C8.22764 6.06206 7.68653 5.8606 7.12667 5.71629C6.56681 5.57212 5.99681 5.50004 5.41667 5.50004C4.90278 5.50004 4.41479 5.54733 3.95271 5.64192C3.49062 5.7365 3.05715 5.86761 2.65229 6.03525C2.60951 6.05136 2.57347 6.07407 2.54417 6.10337C2.51472 6.13282 2.5 6.16886 2.5 6.2115V14.1538C2.5 14.2287 2.52535 14.2727 2.57604 14.2861C2.62688 14.2994 2.68167 14.2954 2.74042 14.274C3.15167 14.1255 3.57556 14.015 4.01208 13.9423C4.44847 13.8697 4.91667 13.8334 5.41667 13.8334C6.03958 13.8334 6.63465 13.8977 7.20188 14.0265C7.76924 14.1552 8.28528 14.3232 8.75 14.5305Z" fill="#212529"/>
</svg>
