<svg width="20" height="21" viewBox="0 0 20 21" fill="none" xmlns="http://www.w3.org/2000/svg">
<path d="M5.54254 18.428C5.00296 18.428 4.53955 18.2468 4.15233 17.8846C3.76497 17.5225 3.57129 17.0743 3.57129 16.54V5.16358C3.57129 4.68386 3.7265 4.25837 4.03691 3.88712C4.34719 3.51587 4.74219 3.28004 5.22191 3.17962L11.1915 1.96649C11.6573 1.86608 12.0743 1.96518 12.4423 2.26379C12.8104 2.5624 12.9944 2.9515 12.9944 3.43108V13.1202C12.9944 13.4802 12.8814 13.7991 12.6555 14.0769C12.4295 14.3547 12.1434 14.5283 11.7973 14.5977L5.35504 15.9423C5.20865 15.9755 5.08309 16.0468 4.97837 16.1563C4.87365 16.2659 4.82129 16.3938 4.82129 16.54C4.82129 16.7249 4.89316 16.8775 5.03691 16.9977C5.18053 17.1179 5.34907 17.178 5.54254 17.178H14.5648C14.6397 17.178 14.7011 17.1539 14.7492 17.1059C14.7973 17.0578 14.8213 16.9964 14.8213 16.9215V4.88629C14.8213 4.70893 14.8812 4.56045 15.0009 4.44087C15.1205 4.32115 15.2689 4.26129 15.4463 4.26129C15.6237 4.26129 15.7721 4.32115 15.8917 4.44087C16.0114 4.56045 16.0713 4.70893 16.0713 4.88629V16.9215C16.0713 17.3371 15.9241 17.6921 15.6298 17.9865C15.3354 18.2808 14.9804 18.428 14.5648 18.428H5.54254ZM7.06483 14.3271L11.544 13.4023C11.6027 13.3916 11.6509 13.3623 11.6884 13.3142C11.7257 13.2661 11.7444 13.2127 11.7444 13.154V3.45191C11.7444 3.37191 11.7123 3.30517 11.6482 3.2517C11.5841 3.19823 11.5121 3.17955 11.4319 3.19566L7.06483 4.08816V14.3271ZM5.81483 14.5802V4.34149L5.47837 4.41191C5.28823 4.45038 5.13115 4.53774 5.00712 4.67399C4.88323 4.81024 4.82129 4.97344 4.82129 5.16358V14.8688C4.90671 14.8249 4.99434 14.7872 5.08421 14.7557C5.17393 14.7241 5.26421 14.6988 5.35504 14.6796L5.81483 14.5802Z" fill="#212529"/>
</svg>
