<?xml version="1.0" encoding="UTF-8"?>
<svg id="Layer_2" xmlns="http://www.w3.org/2000/svg" viewBox="0 0 24 24">
  <defs>
    <style>
      .cls-1, .cls-2 {
        fill: none;
      }

      .cls-2 {
        stroke: #333;
        stroke-linecap: round;
        stroke-linejoin: round;
        stroke-width: 1.6px;
      }
    </style>
  </defs>
  <g id="Layer_1-2" data-name="Layer_1">
    <g>
      <g>
        <path class="cls-2" d="M21.42,7.04H2.58c-.55,0-.99.44-.99.99v8.93c0,.55.44.99.99.99h3.47v-3.97h11.9v3.97h3.47c.55,0,.99-.44.99-.99v-8.93c0-.55-.44-.99-.99-.99ZM16.46,10.02h2.98-2.98Z"/>
        <path class="cls-2" d="M6.05,13.98v7.93c0,.55.44.99.99.99h9.92c.55,0,.99-.44.99-.99v-7.93H6.05Z"/>
        <path class="cls-2" d="M16.46,1.09H7.54c-.55,0-.99.44-.99.99v4.96h10.91V2.08c0-.55-.44-.99-.99-.99Z"/>
      </g>
      <rect class="cls-1" width="24" height="24"/>
    </g>
  </g>
</svg>