<?xml version="1.0" encoding="utf-8"?>
<!-- Generator: Adobe Illustrator 27.7.0, SVG Export Plug-In . SVG Version: 6.00 Build 0)  -->
<svg version="1.1" id="레이어_1" xmlns="http://www.w3.org/2000/svg" xmlns:xlink="http://www.w3.org/1999/xlink" x="0px"
	 y="0px" viewBox="0 0 20 20" style="enable-background:new 0 0 20 20;" xml:space="preserve">
<style type="text/css">
	.st0{fill:#FFFFFF;}
</style>
<path class="st0" d="M9.2,10.8v2.5c0,0.2,0.1,0.4,0.2,0.6c0.2,0.2,0.4,0.2,0.6,0.2c0.2,0,0.4-0.1,0.6-0.2c0.2-0.2,0.2-0.4,0.2-0.6
	v-2.5h2.5c0.2,0,0.4-0.1,0.6-0.2c0.2-0.2,0.2-0.4,0.2-0.6c0-0.2-0.1-0.4-0.2-0.6c-0.2-0.2-0.4-0.2-0.6-0.2h-2.5V6.7
	c0-0.2-0.1-0.4-0.2-0.6c-0.2-0.2-0.4-0.2-0.6-0.2C9.8,5.9,9.6,6,9.4,6.1C9.2,6.2,9.2,6.4,9.2,6.7v2.5H6.7c-0.2,0-0.4,0.1-0.6,0.2
	C5.9,9.6,5.8,9.8,5.8,10s0.1,0.4,0.2,0.6c0.2,0.2,0.4,0.2,0.6,0.2H9.2z M10,18.3c-1.2,0-2.2-0.2-3.2-0.7s-1.9-1-2.6-1.8
	s-1.3-1.6-1.8-2.6c-0.4-1-0.7-2.1-0.7-3.3s0.2-2.2,0.7-3.2s1-1.9,1.8-2.6s1.6-1.3,2.6-1.8s2-0.6,3.2-0.6s2.2,0.2,3.3,0.7
	c1,0.4,1.9,1,2.6,1.8c0.7,0.8,1.3,1.6,1.8,2.6s0.7,2.1,0.7,3.2c0,1.2-0.2,2.2-0.7,3.3c-0.4,1-1,1.9-1.8,2.6
	c-0.8,0.7-1.6,1.3-2.6,1.8C12.2,18.1,11.2,18.3,10,18.3z"/>
</svg>
