<?xml version="1.0" encoding="utf-8"?>
<!-- Generator: Adobe Illustrator 27.7.0, SVG Export Plug-In . SVG Version: 6.00 Build 0)  -->
<svg version="1.1" id="레이어_1" xmlns="http://www.w3.org/2000/svg" xmlns:xlink="http://www.w3.org/1999/xlink" x="0px"
	 y="0px" viewBox="0 0 24 24" style="enable-background:new 0 0 24 24;" xml:space="preserve">
<style type="text/css">
	.st0{fill:#767676;}
</style>
<path class="st0" d="M7,22.1c-0.5,0-1-0.2-1.4-0.6S5,20.6,5,20.1s0.2-1,0.6-1.4s0.9-0.6,1.4-0.6s1,0.2,1.4,0.6S9,19.5,9,20.1
	s-0.2,1-0.6,1.4C8,21.9,7.6,22.1,7,22.1z M17,22.1c-0.5,0-1-0.2-1.4-0.6S15,20.6,15,20.1s0.2-1,0.6-1.4c0.4-0.4,0.9-0.6,1.4-0.6
	c0.6,0,1,0.2,1.4,0.6s0.6,0.9,0.6,1.4s-0.2,1-0.6,1.4S17.6,22.1,17,22.1z M6.3,6.1l2.3,4.7h7l2.6-4.7C18.1,6.1,6.3,6.1,6.3,6.1z
	 M5.3,3.9h14.5c0.5,0,0.8,0.2,1,0.6s0.2,0.8,0,1.2l-3.4,6.2c-0.2,0.3-0.4,0.6-0.8,0.8c-0.3,0.2-0.6,0.3-1,0.3H8.2l-1,1.9H18
	c0.3,0,0.6,0.1,0.8,0.3c0.2,0.2,0.3,0.5,0.3,0.8c0,0.3-0.1,0.6-0.3,0.8c-0.2,0.2-0.5,0.3-0.8,0.3H7c-0.8,0-1.4-0.3-1.8-1
	c-0.4-0.7-0.4-1.4,0-2.1l1.3-2.4L2.9,4.1H2C1.7,4.1,1.4,4,1.2,3.8S0.9,3.3,0.9,3S1,2.4,1.2,2.2S1.7,1.9,2,1.9h1.6
	C3.8,1.9,4,2,4.2,2.1s0.3,0.3,0.4,0.5L5.3,3.9z M8.6,10.8h7H8.6z"/>
</svg>
