<?xml version="1.0" encoding="utf-8"?>
<!-- Generator: Adobe Illustrator 27.7.0, SVG Export Plug-In . SVG Version: 6.00 Build 0)  -->
<svg version="1.1" id="레이어_1" xmlns="http://www.w3.org/2000/svg" xmlns:xlink="http://www.w3.org/1999/xlink" x="0px"
	 y="0px" viewBox="0 0 24 25" style="enable-background:new 0 0 24 25;" xml:space="preserve">
<style type="text/css">
	.st0{fill:#767676;}
</style>
<path class="st0" d="M12,14.8l7.4-7.3c0.2-0.2,0.5-0.4,0.9-0.4c0.3,0,0.6,0.1,0.9,0.4s0.4,0.5,0.4,0.9c0,0.3-0.1,0.6-0.4,0.9
	L13.5,17c-0.2,0.2-0.4,0.4-0.7,0.5s-0.5,0.1-0.8,0.1s-0.5,0-0.8-0.1s-0.5-0.2-0.7-0.5L2.9,9.2C2.6,9,2.5,8.7,2.5,8.4
	s0.1-0.6,0.4-0.9s0.5-0.4,0.9-0.4s0.6,0.1,0.9,0.4L12,14.8z"/>
</svg>
