<?xml version="1.0" encoding="utf-8"?>
<!-- Generator: Adobe Illustrator 27.7.0, SVG Export Plug-In . SVG Version: 6.00 Build 0)  -->
<svg version="1.1" id="레이어_1" xmlns="http://www.w3.org/2000/svg" xmlns:xlink="http://www.w3.org/1999/xlink" x="0px"
	 y="0px" viewBox="0 0 24 24" style="enable-background:new 0 0 24 24;" xml:space="preserve">
<style type="text/css">
	.st0{fill:#FFFFFF;}
</style>
<path class="st0" d="M21.5,6.3v11.4c0,0.5-0.2,0.9-0.5,1.3s-0.8,0.5-1.3,0.5H4.3c-0.5,0-0.9-0.2-1.3-0.5s-0.5-0.8-0.5-1.3V6.3
	C2.5,5.8,2.7,5.4,3,5s0.8-0.5,1.3-0.5h15.4c0.5,0,0.9,0.2,1.3,0.5S21.5,5.8,21.5,6.3z M4,8.4h16V6.3c0-0.1,0-0.1-0.1-0.2
	C19.8,6,19.8,6,19.7,6H4.3C4.2,6,4.2,6,4.1,6.1C4,6.2,4,6.2,4,6.3C4,6.3,4,8.4,4,8.4z M4,11.6v6.1c0,0.1,0,0.1,0.1,0.2
	C4.2,18,4.2,18,4.3,18h15.4c0.1,0,0.1,0,0.2-0.1c0.1-0.1,0.1-0.1,0.1-0.2v-6.1H4z M4,18V6V18z"/>
</svg>
