<?xml version="1.0" encoding="utf-8"?>
<!-- Generator: Adobe Illustrator 27.7.0, SVG Export Plug-In . SVG Version: 6.00 Build 0)  -->
<svg version="1.1" id="레이어_1" xmlns="http://www.w3.org/2000/svg" xmlns:xlink="http://www.w3.org/1999/xlink" x="0px"
	 y="0px" viewBox="0 0 6 10" style="enable-background:new 0 0 6 10;" xml:space="preserve">
<style type="text/css">
	.st0{fill:#9F9F9F;}
</style>
<path class="st0" d="M4.9,5L0.5,0.7C0.5,0.6,0.4,0.5,0.4,0.4c0-0.1,0-0.2,0.1-0.3C0.6,0.1,0.7,0,0.8,0C0.9,0,1,0.1,1,0.2l4.3,4.3
	c0.1,0.1,0.1,0.2,0.2,0.2c0,0.1,0.1,0.2,0.1,0.3s0,0.2-0.1,0.3c0,0.1-0.1,0.2-0.2,0.2L1,9.9C1,9.9,0.9,10,0.8,10
	c-0.1,0-0.2,0-0.3-0.1C0.5,9.8,0.4,9.7,0.4,9.6c0-0.1,0-0.2,0.1-0.2L4.9,5z"/>
</svg>
