<?xml version="1.0" encoding="utf-8"?>
<!-- Generator: Adobe Illustrator 28.3.0, SVG Export Plug-In . SVG Version: 6.00 Build 0)  -->
<svg version="1.1" id="Layer_2_00000034778405236322435200000006931047285338221724_"
	 xmlns="http://www.w3.org/2000/svg" xmlns:xlink="http://www.w3.org/1999/xlink" x="0px" y="0px" viewBox="0 0 9.3 16.1"
	 style="enable-background:new 0 0 9.3 16.1;" xml:space="preserve">
<style type="text/css">
	.st0{fill:#FFFFFF;}
</style>
<g id="Layer_1-2">
	<path class="st0" d="M3.1,11.3c0-1,0.1-1.7,0.4-2.3s0.7-1.2,1.4-1.9S6.1,6,6.2,5.7c0.3-0.4,0.4-0.9,0.4-1.4c0-0.7-0.2-1.2-0.5-1.5
		S5.3,2.2,4.7,2.2S3.6,2.4,3.2,2.7S2.6,3.5,2.6,4.1H0c0-1.3,0.4-2.3,1.3-3S3.3,0,4.7,0s2.6,0.4,3.4,1.1s1.2,1.8,1.2,3.1
		c0,1.2-0.6,2.3-1.6,3.5L6.3,9c-0.5,0.5-0.7,1.3-0.7,2.4L3.1,11.3L3.1,11.3z M3,14.7c0-0.4,0.1-0.8,0.4-1c0.3-0.3,0.6-0.4,1.1-0.4
		s0.8,0.1,1.1,0.4C5.9,14,6,14.3,6,14.7s-0.1,0.7-0.4,1S5,16.1,4.5,16.1S3.7,16,3.4,15.7C3.1,15.4,3,15.1,3,14.7z"/>
</g>
</svg>
