<svg width="18" height="18" viewBox="0 0 18 18" fill="none" xmlns="http://www.w3.org/2000/svg">
<path d="M8.10001 9.83333V12.3333C8.10001 12.5694 8.17987 12.7674 8.33959 12.9271C8.49931 13.0868 8.69723 13.1667 8.93334 13.1667C9.16945 13.1667 9.36737 13.0868 9.52709 12.9271C9.68681 12.7674 9.76667 12.5694 9.76667 12.3333V9.83333H12.2667C12.5028 9.83333 12.7007 9.75347 12.8604 9.59375C13.0201 9.43402 13.1 9.23611 13.1 9C13.1 8.76389 13.0201 8.56597 12.8604 8.40625C12.7007 8.24652 12.5028 8.16666 12.2667 8.16666H9.76667V5.66666C9.76667 5.43055 9.68681 5.23264 9.52709 5.07291C9.36737 4.91319 9.16945 4.83333 8.93334 4.83333C8.69723 4.83333 8.49931 4.91319 8.33959 5.07291C8.17987 5.23264 8.10001 5.43055 8.10001 5.66666V8.16666H5.60001C5.36389 8.16666 5.16598 8.24652 5.00626 8.40625C4.84653 8.56597 4.76667 8.76389 4.76667 9C4.76667 9.23611 4.84653 9.43402 5.00626 9.59375C5.16598 9.75347 5.36389 9.83333 5.60001 9.83333H8.10001ZM8.93334 17.3333C7.78056 17.3333 6.69723 17.1146 5.68334 16.6771C4.66945 16.2396 3.78751 15.6458 3.03751 14.8958C2.28751 14.1458 1.69376 13.2639 1.25626 12.25C0.818756 11.2361 0.600006 10.1528 0.600006 9C0.600006 7.84722 0.818756 6.76389 1.25626 5.75C1.69376 4.73611 2.28751 3.85416 3.03751 3.10416C3.78751 2.35416 4.66945 1.76041 5.68334 1.32291C6.69723 0.885414 7.78056 0.666664 8.93334 0.666664C10.0861 0.666664 11.1694 0.885414 12.1833 1.32291C13.1972 1.76041 14.0792 2.35416 14.8292 3.10416C15.5792 3.85416 16.1729 4.73611 16.6104 5.75C17.0479 6.76389 17.2667 7.84722 17.2667 9C17.2667 10.1528 17.0479 11.2361 16.6104 12.25C16.1729 13.2639 15.5792 14.1458 14.8292 14.8958C14.0792 15.6458 13.1972 16.2396 12.1833 16.6771C11.1694 17.1146 10.0861 17.3333 8.93334 17.3333Z" fill="#183882"/>
</svg>
