<?xml version="1.0" encoding="utf-8"?>
<!-- Generator: Adobe Illustrator 27.4.0, SVG Export Plug-In . SVG Version: 6.00 Build 0)  -->
<svg version="1.1" id="레이어_1" xmlns="http://www.w3.org/2000/svg" xmlns:xlink="http://www.w3.org/1999/xlink" x="0px"
	 y="0px" viewBox="0 0 24 24" style="enable-background:new 0 0 24 24;" xml:space="preserve">
<style type="text/css">
	.st0{fill:#252726;}
	.st1{fill:#FFFFFF;}
</style>
<g>
	<polygon class="st0" points="19.5,6.9 4.5,7.7 4.5,5.9 19.5,5.1 	"/>
	<polygon class="st0" points="19.5,12.3 4.5,13.1 4.5,11.3 19.5,10.5 	"/>
	<polygon class="st0" points="19.5,18.1 4.5,18.9 4.5,17.1 19.5,16.3 	"/>
	<g>
		<ellipse transform="matrix(0.6978 -0.7163 0.7163 0.6978 0.1421 12.7586)" class="st1" cx="15.2" cy="6.2" rx="2.2" ry="2.1"/>
		<path class="st0" d="M15.2,9c-1.5,0.1-2.8-1.1-2.8-2.6c0-1.5,1.2-2.8,2.8-2.9C16.7,3.4,18,4.5,18,6.1C18,7.6,16.7,8.9,15.2,9z
			 M15.2,4.8c-0.8,0-1.5,0.7-1.5,1.5c0,0.8,0.7,1.4,1.5,1.4c0.8,0,1.5-0.7,1.5-1.5C16.6,5.3,16,4.7,15.2,4.8z"/>
	</g>
	<g>
		<ellipse transform="matrix(0.6978 -0.7163 0.7163 0.6978 -9.9213 12.0133)" class="st1" cx="9.3" cy="17.8" rx="2.2" ry="2.1"/>
		<path class="st0" d="M9.3,20.5c-1.5,0.1-2.8-1.1-2.8-2.6c0-1.5,1.2-2.8,2.8-2.9c1.5-0.1,2.8,1.1,2.8,2.6
			C12,19.1,10.8,20.4,9.3,20.5z M9.3,16.3c-0.8,0-1.5,0.7-1.5,1.5s0.7,1.4,1.5,1.4s1.5-0.7,1.5-1.5C10.7,16.9,10.1,16.3,9.3,16.3z"
			/>
	</g>
</g>
</svg>
