<svg width="20" height="19" viewBox="0 0 20 19" fill="none" xmlns="http://www.w3.org/2000/svg">
<g clip-path="url(#clip0_80_1653)">
<g clip-path="url(#clip1_80_1653)">
<path d="M19.44 4.15047C19.21 3.29047 18.54 2.62047 17.68 2.39047C16.13 1.98047 9.91999 1.98047 9.91999 1.98047C9.91999 1.98047 3.70999 1.98047 2.15999 2.39047C1.29999 2.62047 0.62999 3.29047 0.39999 4.15047C-0.0100098 5.70047 -0.0100098 8.93047 -0.0100098 8.93047C-0.0100098 8.93047 -0.0100098 12.1605 0.39999 13.7105C0.62999 14.5705 1.29999 15.2405 2.15999 15.4705C3.70999 15.8805 9.91999 15.8805 9.91999 15.8805C9.91999 15.8805 16.13 15.8805 17.68 15.4705C18.54 15.2405 19.21 14.5705 19.44 13.7105C19.85 12.1605 19.85 8.93047 19.85 8.93047C19.85 8.93047 19.85 5.70047 19.44 4.15047ZM7.93999 11.9105V5.95047L13.1 8.93047L7.93999 11.9105Z" fill="#555555"/>
</g>
</g>
<defs>
<clipPath id="clip0_80_1653">
<rect width="20" height="18.4843" fill="white"/>
</clipPath>
<clipPath id="clip1_80_1653">
<rect width="19.85" height="19.85" fill="white" transform="translate(0 -1)"/>
</clipPath>
</defs>
</svg>
