<svg width="20" height="19" viewBox="0 0 20 19" fill="none" xmlns="http://www.w3.org/2000/svg">
<g clip-path="url(#clip0_80_1672)">
<g clip-path="url(#clip1_80_1672)">
<path d="M4.57704 7.16406C4.21165 7.16406 3.91357 7.46214 3.91357 7.82752C3.91357 8.19291 4.21165 8.49099 4.57704 8.49099C4.94242 8.49099 5.2405 8.19291 5.2405 7.82752C5.2405 7.46214 4.94242 7.16406 4.57704 7.16406Z" fill="#555555"/>
<path d="M11.1251 7.08594C10.7309 7.08594 10.4136 7.40325 10.4136 7.79748C10.4136 8.19171 10.7309 8.50901 11.1251 8.50901C11.5193 8.50901 11.8367 8.19171 11.8367 7.79748C11.8367 7.40325 11.5193 7.08594 11.1251 7.08594Z" fill="#555555"/>
<path d="M17.0384 0.576172H2.96144C1.53837 0.576172 0.384521 1.73002 0.384521 3.15309V11.5089C0.384521 12.9319 1.53837 14.0858 2.96144 14.0858H7.9326L9.62491 18.0762C9.62491 18.0762 9.74029 18.4223 10.0191 18.4223C10.298 18.4223 10.4134 18.0762 10.4134 18.0762L12.1057 14.0858H17.0384C18.4614 14.0858 19.6153 12.9319 19.6153 11.5089V3.15309C19.6153 1.73002 18.4614 0.576172 17.0384 0.576172ZM6.42298 7.9704C6.42298 9.49925 4.83644 9.53771 4.83644 9.53771C4.22106 9.53771 3.88452 9.13386 3.88452 9.13386V9.41271H2.73068V4.66271C2.79798 4.67233 3.88452 4.66271 3.88452 4.66271V6.48002C4.15375 6.01848 4.94221 6.02809 4.94221 6.02809C6.64414 6.19156 6.4326 7.9704 6.4326 7.9704H6.42298ZM8.45183 6.16271V9.41271H7.32683V6.19156C7.32683 5.74925 6.78837 5.63386 6.78837 5.63386V4.49925C8.58644 4.57617 8.46144 6.16271 8.46144 6.16271H8.45183ZM11.1249 9.53771C10.0864 9.53771 9.24029 8.75886 9.24029 7.79733C9.24029 6.83579 10.0864 6.05694 11.1249 6.05694C12.1634 6.05694 13.0095 6.83579 13.0095 7.79733C13.0095 8.75886 12.1634 9.53771 11.1249 9.53771ZM17.2884 9.53771C17.2884 9.53771 17.3076 11.1916 15.6249 11.1916H15.1153V10.1242H15.423C15.423 10.1242 16.1249 10.1916 16.1153 9.10502C16.1153 9.10502 15.9807 9.54733 14.9903 9.54733C14.9903 9.54733 13.5864 9.44156 13.5864 8.07617V7.55694C13.5864 7.55694 13.6153 6.14348 15.1538 6.02809C15.1538 6.02809 15.7595 5.96079 16.1345 6.4704V6.12425H17.2788V9.55694L17.2884 9.53771Z" fill="#555555"/>
<path d="M15.4999 7.10547C15.1153 7.10547 14.8076 7.41316 14.8076 7.79778C14.8076 8.18239 15.1153 8.49008 15.4999 8.49008C15.8845 8.49008 16.1922 8.18239 16.1922 7.79778C16.1922 7.41316 15.8845 7.10547 15.4999 7.10547Z" fill="#555555"/>
</g>
</g>
<defs>
<clipPath id="clip0_80_1672">
<rect width="20" height="19" fill="white"/>
</clipPath>
<clipPath id="clip1_80_1672">
<rect width="20" height="18.4615" fill="white"/>
</clipPath>
</defs>
</svg>
