<svg width="32" height="33" viewBox="0 0 32 33" fill="none" xmlns="http://www.w3.org/2000/svg">
<path d="M10.6666 16.8861H21.3333C21.523 16.8861 21.6816 16.8224 21.8089 16.6951C21.9363 16.5677 21.9999 16.4092 21.9999 16.2194C21.9999 16.0296 21.9363 15.8711 21.8089 15.7437C21.6816 15.6164 21.523 15.5527 21.3333 15.5527H10.6666C10.4768 15.5527 10.3183 15.6164 10.1909 15.7437C10.0636 15.8711 9.99992 16.0296 9.99992 16.2194C9.99992 16.4092 10.0636 16.5677 10.1909 16.6951C10.3183 16.8224 10.4768 16.8861 10.6666 16.8861ZM7.48725 26.8861C6.87347 26.8861 6.36103 26.6805 5.94992 26.2694C5.53881 25.8583 5.33325 25.3458 5.33325 24.7321V7.70673C5.33325 7.09296 5.53881 6.58051 5.94992 6.1694C6.36103 5.75829 6.87347 5.55273 7.48725 5.55273H24.5126C25.1264 5.55273 25.6388 5.75829 26.0499 6.1694C26.461 6.58051 26.6666 7.09296 26.6666 7.70673V24.7321C26.6666 25.3458 26.461 25.8583 26.0499 26.2694C25.6388 26.6805 25.1264 26.8861 24.5126 26.8861H7.48725ZM7.48725 25.5527H24.5126C24.7179 25.5527 24.906 25.4673 25.0769 25.2964C25.2478 25.1255 25.3333 24.9374 25.3333 24.7321V7.70673C25.3333 7.5014 25.2478 7.31329 25.0769 7.1424C24.906 6.97151 24.7179 6.88607 24.5126 6.88607H7.48725C7.28192 6.88607 7.09381 6.97151 6.92292 7.1424C6.75203 7.31329 6.66659 7.5014 6.66659 7.70673V24.7321C6.66659 24.9374 6.75203 25.1255 6.92292 25.2964C7.09381 25.4673 7.28192 25.5527 7.48725 25.5527Z" fill="#767676"/>
</svg>
