<svg width="32" height="33" viewBox="0 0 32 33" fill="none" xmlns="http://www.w3.org/2000/svg">
<path d="M16.0001 17.8853L9.46673 24.4186C9.22229 24.6631 8.91118 24.7853 8.5334 24.7853C8.15562 24.7853 7.84451 24.6631 7.60007 24.4186C7.35562 24.1742 7.2334 23.8631 7.2334 23.4853C7.2334 23.1075 7.35562 22.7964 7.60007 22.552L14.1334 16.0186L7.60007 9.48529C7.35562 9.24084 7.2334 8.92973 7.2334 8.55195C7.2334 8.17418 7.35562 7.86306 7.60007 7.61862C7.84451 7.37418 8.15562 7.25195 8.5334 7.25195C8.91118 7.25195 9.22229 7.37418 9.46673 7.61862L16.0001 14.152L22.5334 7.61862C22.7778 7.37418 23.089 7.25195 23.4667 7.25195C23.8445 7.25195 24.1556 7.37418 24.4001 7.61862C24.6445 7.86306 24.7667 8.17418 24.7667 8.55195C24.7667 8.92973 24.6445 9.24084 24.4001 9.48529L17.8667 16.0186L24.4001 22.552C24.6445 22.7964 24.7667 23.1075 24.7667 23.4853C24.7667 23.8631 24.6445 24.1742 24.4001 24.4186C24.1556 24.6631 23.8445 24.7853 23.4667 24.7853C23.089 24.7853 22.7778 24.6631 22.5334 24.4186L16.0001 17.8853Z" fill="#767676"/>
</svg>
