<svg width="32" height="32" viewBox="0 0 32 32" fill="none" xmlns="http://www.w3.org/2000/svg">
<path d="M14.6255 16.0003L18.0358 12.59C18.2203 12.4075 18.3125 12.1794 18.3125 11.9057C18.3125 11.6321 18.2203 11.3961 18.0358 11.1977C17.8374 10.991 17.5997 10.8898 17.3228 10.894C17.046 10.8982 16.8084 10.9994 16.6102 11.1977L12.6512 15.1567C12.4101 15.3978 12.2895 15.679 12.2895 16.0003C12.2895 16.3217 12.4101 16.6029 12.6512 16.844L16.6305 20.8233C16.829 21.0215 17.0632 21.1194 17.3332 21.117C17.6032 21.1143 17.8374 21.0097 18.0358 20.803C18.2203 20.6045 18.3138 20.3703 18.3165 20.1003C18.3189 19.8303 18.2211 19.5961 18.0228 19.3977L14.6255 16.0003ZM15.9975 3.33366C17.7495 3.33366 19.3963 3.6661 20.9378 4.33099C22.4794 4.99588 23.8203 5.89822 24.9605 7.03799C26.1007 8.17777 27.0035 9.5181 27.6688 11.059C28.334 12.5999 28.6665 14.2462 28.6665 15.998C28.6665 17.75 28.3341 19.3968 27.6692 20.9383C27.0043 22.4799 26.1019 23.8208 24.9622 24.961C23.8224 26.1012 22.4821 27.004 20.9412 27.6693C19.4003 28.3344 17.7539 28.667 16.0022 28.667C14.2502 28.667 12.6034 28.3345 11.0618 27.6697C9.52028 27.0048 8.17939 26.1024 7.03917 24.9627C5.89895 23.8229 4.99617 22.4825 4.33084 20.9417C3.66573 19.4008 3.33317 17.7544 3.33317 16.0027C3.33317 14.2507 3.66562 12.6039 4.33051 11.0623C4.9954 9.52077 5.89773 8.17988 7.03751 7.03966C8.17728 5.89944 9.51762 4.99666 11.0585 4.33133C12.5994 3.66621 14.2457 3.33366 15.9975 3.33366Z" fill="#E1E1E1"/>
</svg>
