<svg width="20" height="20" viewBox="0 0 20 20" fill="none" xmlns="http://www.w3.org/2000/svg">
<g clip-path="url(#clip0_113_4385)">
<g clip-path="url(#clip1_113_4385)">
<path d="M17.06 0H2.79C1.25 0 0 1.25945 0 2.81108V17.1889C0 18.7406 1.25 20 2.79 20H9.28V12.6952H6.83V9.84383H9.28V7.74811C9.28 6.55919 9.61 5.63224 10.26 4.97733C10.91 4.32242 11.8 3.98992 12.92 3.98992C14.04 3.98992 14.76 4.03023 15.1 4.12091V6.65995H13.61C13.07 6.65995 12.7 6.77078 12.51 7.00252C12.29 7.30479 12.19 7.66751 12.22 8.0403V9.8539H15.02L14.65 12.7053H12.23V20.0101H17.08C18.62 20.0101 19.87 18.7506 19.87 17.199V2.81108C19.85 1.25945 18.6 0 17.06 0Z" fill="#555555"/>
</g>
</g>
<defs>
<clipPath id="clip0_113_4385">
<rect width="20" height="20" fill="white"/>
</clipPath>
<clipPath id="clip1_113_4385">
<rect width="19.85" height="20" fill="white"/>
</clipPath>
</defs>
</svg>
