<svg width="28" height="29" viewBox="0 0 28 29" fill="none" xmlns="http://www.w3.org/2000/svg">
<rect width="19.8333" height="19.8333" rx="2" transform="matrix(-1 0 0 1 23.9167 4.97266)" fill="#183882"/>
<path d="M9.64987 14.234L12.36 16.9444L18.3593 10.9449C18.5285 10.7759 18.7334 10.6914 18.9742 10.6914C19.2149 10.6914 19.4198 10.7759 19.589 10.9449C19.758 11.114 19.8406 11.3208 19.8369 11.5652C19.833 11.8098 19.7504 12.0129 19.589 12.1745L13.0982 18.6653C12.8873 18.8761 12.6412 18.9814 12.36 18.9814C12.0789 18.9814 11.8328 18.8761 11.6218 18.6653L8.42021 15.4637C8.25123 15.2945 8.16675 15.0895 8.16675 14.8488C8.16675 14.6081 8.25123 14.4032 8.42021 14.234C8.58937 14.065 8.79616 13.9824 9.04058 13.9861C9.28519 13.99 9.48829 14.0726 9.64987 14.234Z" fill="white"/>
</svg>
