<svg width="21" height="20" viewBox="0 0 21 20" fill="none" xmlns="http://www.w3.org/2000/svg">
<g clip-path="url(#clip0_175_416)">
<path d="M5.02557 0.250781C4.46811 0.529513 4.05203 1.01022 3.85813 1.6L0.121515 12.8179C-0.0764252 13.4077 -0.0319898 14.0419 0.250781 14.6034C0.529513 15.1569 1.01022 15.5729 1.6 15.7709L13.844 19.8832C14.4378 20.0811 15.072 20.0367 15.6295 19.7539C16.187 19.4711 16.603 18.9945 16.7969 18.4047L20.5336 7.18675C20.9416 5.9668 20.2791 4.63777 19.0551 4.23382L6.80703 0.121515C6.21321 -0.0764252 5.58304 -0.0319898 5.02154 0.250781" fill="white"/>
<path d="M11.0078 11.024C10.3412 11.7672 9.5131 12.3651 8.55168 12.7367L7.99826 12.9508V7.75189L8.5436 7.96195C9.50502 8.32956 10.3372 8.92741 11.0037 9.66666C11.4804 8.89914 11.7753 8.01447 11.8359 7.04901C11.9853 4.55658 10.4261 2.27017 8.28103 1.47437L6.51169 0.884594C5.71185 0.617981 4.86354 1.0583 4.60097 1.85409L0.860306 13.0801C0.593693 13.88 1.04209 14.7444 1.84193 15.007L10.3372 17.8428C11.2017 16.9218 11.7672 15.7018 11.848 14.3405C11.9247 13.1245 11.6056 11.9813 11.0078 11.0199M6.09561 13.27H5.25134V7.44085H6.09561V13.27Z" fill="#0099DA"/>
<path d="M10.5193 10.3458C10.0467 9.78839 9.47304 9.32383 8.81055 8.98047V11.7193C9.47304 11.3759 10.0507 10.9033 10.5193 10.3458Z" fill="#F15D22"/>
<path d="M18.7798 4.98053L10.9834 2.375C12.0297 3.52224 12.6719 5.04517 12.676 6.71352C12.676 8.03042 12.268 9.29482 11.553 10.3491C12.272 11.4035 12.6841 12.6638 12.6881 13.9807C12.6881 15.5562 12.1226 17.0064 11.1813 18.1294L14.11 19.107C14.9099 19.3736 15.7582 18.9333 16.0208 18.1334L19.7655 6.90742C20.0321 6.10758 19.5837 5.24311 18.7838 4.98053M16.7115 13.2536H15.6572L13.492 10.3411L15.6936 7.42852H16.756L14.5504 10.3451L16.7115 13.2536Z" fill="#0056A2"/>
</g>
<defs>
<clipPath id="clip0_175_416">
<rect width="20.6463" height="20" fill="white"/>
</clipPath>
</defs>
</svg>
