<?xml version="1.0" encoding="UTF-8"?>
<svg xmlns="http://www.w3.org/2000/svg" xmlns:xlink="http://www.w3.org/1999/xlink" version="1.1" viewBox="0 0 20 20">
  <defs>
    <style>
      .cls-1 {
        fill: none;
      }

      .cls-2 {
        fill: #555;
      }

      .cls-3 {
        clip-path: url(#clippath);
      }
    </style>
    <clipPath id="clippath">
      <rect class="cls-1" y="0" width="20" height="20"/>
    </clipPath>
  </defs>
  <!-- Generator: Adobe Illustrator 28.6.0, SVG Export Plug-In . SVG Version: 1.2.0 Build 709)  -->
  <g>
    <g id="Layer_1">
      <g class="cls-3">
        <g>
          <path class="cls-2" d="M0,18v2h2c-1.1,0-2-.9-2-2Z"/>
          <path class="cls-2" d="M2,0H0v2C0,.9.9,0,2,0Z"/>
          <path class="cls-2" d="M18,20h2v-2c0,1.1-.9,2-2,2Z"/>
          <path class="cls-2" d="M18,0C19.1,0,20,.9,20,2V0h-2Z"/>
          <path class="cls-2" d="M18,0H2C.9,0,0,.9,0,2v16c0,1.1.9,2,2,2h16c1.1,0,2-.9,2-2V2C20,.9,19.1,0,18,0ZM13.9,13.8h-2.4l-2.9-4.1v4.1h-2.5v-7.6h2.3l2.9,4.1v-4.1h2.5v7.6Z"/>
        </g>
      </g>
    </g>
  </g>
</svg>