<?xml version="1.0" encoding="utf-8"?>
<!-- Generator: Adobe Illustrator 27.7.0, SVG Export Plug-In . SVG Version: 6.00 Build 0)  -->
<svg version="1.1" id="레이어_1" xmlns="http://www.w3.org/2000/svg" xmlns:xlink="http://www.w3.org/1999/xlink" x="0px"
	 y="0px" viewBox="0 0 156.4 32" style="enable-background:new 0 0 156.4 32;" xml:space="preserve">
<style type="text/css">
	.st0{fill:#248DC0;}
	.st1{fill:#133679;}
	.st2{fill:#221714;}
	.st3{fill:#040000;}
</style>
<g>
	<g>
		<polygon class="st0" points="0,15.4 10.5,0 23.1,0 12.6,15.4 		"/>
		<polygon class="st1" points="0,15.4 10.5,30.8 23.1,30.8 12.6,15.4 		"/>
		<polygon class="st1" points="24.5,2 18.2,11.4 20.9,15.4 33.6,15.4 		"/>
		<polygon class="st1" points="24.5,2 18.2,11.4 20.9,15.4 33.6,15.4 		"/>
		<polygon class="st1" points="24.5,2 18.2,11.4 20.9,15.4 33.6,15.4 		"/>
		<polygon class="st0" points="24.5,28.9 18.2,19.5 20.9,15.4 33.6,15.4 		"/>
	</g>
	<g>
		<path class="st2" d="M106.3,32H94v-0.8h11.7v-5.9H94V10h12.5v22H106.3z M105.5,10.8H94.7v13.8h10.8V10.8z"/>
		<path class="st2" d="M121.5,10v15.4H109V10h0.8v14.7h10.8V10H121.5z"/>
		<path class="st2" d="M125.6,10v15.4h-0.8V10H125.6z"/>
		<path class="st2" d="M141.2,2.2v23.2h-12.5V10h11.7V2.2H141.2z M140.4,10.8h-10.8v13.8h10.8V10.8z"/>
		<path class="st2" d="M156.4,17.7h-11.7v7h11.7v0.8h-12.5V10h12.5V17.7z M155.5,10.8h-10.8V17h10.8V10.8z"/>
		<path class="st2" d="M56.2,25.7H40.7v-23h4v7h11.4v16H56.2z M52.2,13.5h-7.6V22h7.6V13.5z"/>
		<path class="st2" d="M74.1,25.7H58.7v-16h15.4V25.7z M70.1,13.5h-7.6V22h7.6V13.5z"/>
		<g>
			<g>
				<path class="st3" d="M81.2,17.7l-5.5-8.1H80l5.5,8.1H81.2z M80,9.7l5.5,8.1h-4.3l-5.5-8.1"/>
			</g>
			<g>
				<path class="st3" d="M85.5,17.7L80,25.7h-4.3l5.5-8.1C81.2,17.7,85.5,17.7,85.5,17.7z M75.7,25.7l5.5-8.1h4.3L80,25.7"/>
			</g>
			<g>
				<path class="st1" d="M81.2,17.7l-5.5-8.1H80l5.5,8.1H81.2z M80,9.7l5.5,8.1h-4.3l-5.5-8.1"/>
			</g>
			<g>
				<path class="st0" d="M85.5,17.7L80,25.7h-4.3l5.5-8.1C81.2,17.7,85.5,17.7,85.5,17.7z M75.7,25.7l5.5-8.1h4.3L80,25.7"/>
			</g>
			<polygon class="st0" points="91.1,9.7 86.9,9.7 83.4,14.6 85.5,17.7 			"/>
			<polygon class="st1" points="83.4,20.8 86.9,25.7 91.1,25.7 85.5,17.7 			"/>
		</g>
	</g>
</g>
</svg>
