<svg width="131" height="32" viewBox="0 0 131 32" fill="none" xmlns="http://www.w3.org/2000/svg">
<g clip-path="url(#clip0_232_1840)">
<path d="M49.7779 8.26758H55.8223L49.7779 16.3565L56.0001 24.8898H49.9557L44.5334 16.3565L49.7779 8.26758Z" fill="#1C98D0"/>
<path d="M72.4446 8.00009C72.3557 9.24453 72.2668 10.5779 72.2668 12.3556V22.3112C72.2668 26.5779 71.3779 28.7112 69.9557 30.0445C68.4446 31.4668 66.2223 32.0001 64.2668 32.0001C62.4001 32.0001 60.2668 31.5556 58.9335 30.5779L59.5557 29.2445C60.7112 30.0445 62.4001 30.6668 64.5335 30.6668C68.089 30.6668 70.5779 28.889 70.5779 23.9112V21.5112H70.489C69.6001 23.2001 67.6446 24.7112 64.7112 24.7112C60.5335 24.7112 57.5112 21.0668 57.5112 16.5334C57.5112 10.6668 61.3335 7.64453 65.0668 7.64453C68.3557 7.64453 70.0446 9.42231 70.6668 10.8445H70.7557L70.9335 8.00009H72.4446ZM70.6668 14.489C70.6668 13.8668 70.5779 13.3334 70.489 12.889C69.7779 10.8445 68.0001 9.06675 65.2446 9.06675C61.689 9.06675 59.289 12.0001 59.289 16.4445C59.289 20.1779 61.2446 23.4668 65.2446 23.4668C67.4668 23.4668 69.6001 22.0445 70.4001 19.6445C70.5779 19.1112 70.6668 18.489 70.6668 17.8668V14.489Z" fill="#1C98D0"/>
<path d="M89.0669 20.6222C89.0669 22.1333 89.1558 23.4667 89.2447 24.7111H87.7336L87.6447 21.7778H87.5558C86.6669 23.2889 84.8002 25.1556 81.778 25.1556C79.6447 25.1556 76.0891 24.0889 76.0891 17.7778V8H77.778V17.4222C77.778 21.0667 78.9336 23.6444 82.2224 23.6444C84.6224 23.6444 86.4891 21.9556 87.1113 20.2667C87.2891 19.7333 87.4669 19.1111 87.4669 18.4V8H89.1558V20.6222H89.0669Z" fill="#1C98D0"/>
<path d="M96.0002 3.19957C96.0002 3.99957 95.4669 4.62179 94.578 4.62179C93.778 4.62179 93.2446 3.91068 93.2446 3.19957C93.2446 2.39957 93.8669 1.77734 94.578 1.77734C95.4669 1.77734 96.0002 2.39957 96.0002 3.19957ZM93.778 24.7107V7.99957H95.4669V24.7107H93.778Z" fill="#1C98D0"/>
<path d="M113.511 0V20.8889C113.511 22.1333 113.6 23.5556 113.689 24.8H112.178L112.089 21.6H112C111.111 23.4667 109.156 25.1556 106.044 25.1556C101.956 25.1556 98.8445 21.6889 98.8445 16.7111C98.8445 11.1111 102.222 7.64444 106.4 7.64444C109.244 7.64444 111.111 9.15555 111.822 10.5778H111.911V0H113.511ZM111.911 14.6667C111.911 14.2222 111.822 13.6 111.733 13.1556C111.111 10.9333 109.156 9.06667 106.489 9.06667C102.844 9.06667 100.533 12.2667 100.533 16.5333C100.533 20.2667 102.4 23.7333 106.4 23.7333C108.8 23.7333 111.022 22.1333 111.733 19.3778C111.822 18.9333 111.911 18.4889 111.911 17.9556V14.6667Z" fill="#1C98D0"/>
<path d="M118.489 16.2668C118.489 21.6001 121.422 23.7334 124.889 23.7334C127.289 23.7334 128.622 23.289 129.511 22.7556L129.956 24.089C129.333 24.4445 127.556 25.1556 124.711 25.1556C119.911 25.1556 116.889 21.689 116.889 16.7112C116.889 11.1112 120.089 7.64453 124.444 7.64453C129.956 7.64453 130.933 12.8001 130.933 15.2001C130.933 15.6445 130.933 15.9112 130.844 16.2668H118.489ZM129.156 14.9334C129.156 12.6223 128.267 9.06675 124.178 9.06675C120.533 9.06675 118.933 12.3556 118.578 14.9334H129.156Z" fill="#1C98D0"/>
<path d="M0 24.711C0.0888889 23.7332 0.177778 21.6888 0.177778 19.7332V0.533203H5.6V10.311H5.68889C6.75556 8.79987 8.71111 7.82209 11.2 7.82209C15.4667 7.82209 18.8444 11.0221 18.7556 16.2665C18.7556 22.311 14.4889 25.1554 10.4889 25.1554C8.35556 25.1554 6.22222 24.3554 4.97778 22.311H4.8L4.62222 24.711H0ZM5.51111 17.3332C5.51111 17.5999 5.51111 17.9554 5.6 18.2221C5.95556 19.6443 7.28889 20.9776 9.15556 20.9776C11.5556 20.9776 13.1556 19.2888 13.1556 16.4443C13.1556 13.9554 11.8222 11.8221 9.15556 11.8221C7.46667 11.8221 5.95556 12.9776 5.6 14.6665C5.51111 14.9332 5.51111 15.2888 5.51111 15.5554V17.3332Z" fill="#183782"/>
<path d="M39.111 16.2664C39.111 22.0442 34.6666 25.1553 29.5999 25.1553C24.5333 25.1553 20.2666 21.9553 20.2666 16.6219C20.2666 11.4664 23.911 7.82194 29.9555 7.82194C35.3777 7.73305 39.111 11.2886 39.111 16.2664ZM25.8666 16.4442C25.8666 19.2886 27.2888 21.3331 29.6888 21.3331C31.911 21.3331 33.4222 19.5553 33.4222 16.4442C33.4222 13.9553 32.2666 11.5553 29.6888 11.5553C27.0222 11.5553 25.8666 13.9553 25.8666 16.4442Z" fill="#183782"/>
<path d="M44.5333 8.26562H38.4888L44.5333 16.3545L38.311 24.8878H44.3555L49.7777 16.3545L44.5333 8.26562Z" fill="#183782"/>
</g>
<defs>
<clipPath id="clip0_232_1840">
<rect width="130.933" height="32" fill="white"/>
</clipPath>
</defs>
</svg>
