<?xml version="1.0" encoding="utf-8"?>
<!-- Generator: Adobe Illustrator 27.7.0, SVG Export Plug-In . SVG Version: 6.00 Build 0)  -->
<svg version="1.1" id="Layer_2" xmlns="http://www.w3.org/2000/svg" xmlns:xlink="http://www.w3.org/1999/xlink" x="0px" y="0px"
	 viewBox="0 0 665.5 407.6" style="enable-background:new 0 0 665.5 407.6;" xml:space="preserve">
<style type="text/css">
	.st0{fill:#E7F4FB;}
	.st1{fill:#BCDAEB;}
	.st2{fill:#DEDEDE;}
	.st3{fill:#9E9E9E;}
	.st4{fill:#8FB0DB;}
	.st5{fill:#8CA9D3;}
	.st6{fill:#FFFFFF;}
	.st7{fill:#D7E1F4;}
	.st8{fill:#819FC6;}
	.st9{fill:#D17D43;}
	.st10{fill:#F79D5E;}
	.st11{fill:#213A72;}
	.st12{fill:#2B1710;}
	.st13{fill:#FF8762;}
	.st14{fill:#276D8A;}
	.st15{fill:#1A2D59;}
	.st16{fill:#F27862;}
	.st17{fill:#5877BA;}
	.st18{fill:#E0B3A8;}
	.st19{fill:#F05E3E;}
	.st20{fill:#FF7557;}
	.st21{fill:#FF7A52;}
	.st22{fill:#BFBFBF;}
	.st23{fill:#D6EDFA;}
</style>
<g>
	<g>
		<g>
			<g>
				<g>
					<path class="st0" d="M403.1,14.5c-138-12.8-148.1,65.8-166.4,110.6c-6.9,16.8-18.6,29.2-30.6,38.2
						c-15.7,11.7-34.2,18.9-53.6,21.5c-124.7,16.6-104.4,184.9-57.5,199h497.3C714.9,150.7,541.2,27.3,403.1,14.5z"/>
				</g>
				<g>
					<path class="st0" d="M164.6,52c-71.9,0.4-91.1,71-52.1,110.6C166.4,217.5,314.5,51.1,164.6,52z"/>
				</g>
			</g>
			<g>
				<g>
					<g>
						<path class="st1" d="M509.8,312.7l-0.1-0.1c-0.8-1.9-2.5-3.3-4.5-3.8l-0.1,0l1.2-4.6l0.1,0c3.4,0.9,6.3,3.3,7.7,6.5l0.1,0.1
							L509.8,312.7z M505.5,308.5c2,0.5,3.6,1.9,4.5,3.8l3.8-1.7c-1.4-3-4.1-5.3-7.3-6.2L505.5,308.5z"/>
					</g>
				</g>
				<g>
					<g>
						<g>
							<path class="st1" d="M501.1,329c-6.3,0-11.4-5.1-11.4-11.4s5.1-11.4,11.4-11.4c0.9,0,1.8,0.1,2.8,0.4l0.1,0l-1.2,4.6l-0.1,0
								c-0.5-0.1-1.1-0.2-1.6-0.2c-3.7,0-6.7,3-6.7,6.7c0,3.7,3,6.7,6.7,6.7c1,0,2-0.2,3-0.7l0.1-0.1l2.2,4.2l-0.1,0.1
								C504.7,328.6,502.9,329,501.1,329z M501.1,306.4c-6.1,0-11.1,5-11.1,11.1s5,11.1,11.1,11.1c1.7,0,3.3-0.4,4.9-1.1l-1.9-3.7
								c-0.9,0.4-1.9,0.7-3,0.7c-3.8,0-7-3.1-7-7s3.1-7,7-7c0.5,0,1,0.1,1.5,0.2l1-4C502.8,306.5,502,306.4,501.1,306.4z"/>
						</g>
					</g>
					<g>
						<g>
							<path class="st1" d="M507.2,327.3l-2.6-4l0.1-0.1c2-1.2,3.1-3.3,3.1-5.6c0-0.9-0.2-1.8-0.6-2.7l-0.1-0.1l4.4-1.9l0.1,0.1
								c0.6,1.5,1,3,1,4.6c0,3.9-2,7.5-5.3,9.6L507.2,327.3z M505,323.4l2.3,3.5c3.1-2.1,5-5.5,5-9.3c0-1.5-0.3-3-0.9-4.3l-3.8,1.7
								c0.3,0.8,0.5,1.7,0.5,2.6C508.1,319.9,507,322.1,505,323.4z"/>
						</g>
					</g>
				</g>
			</g>
			<g>
				<g>
					<g>
						<g>
							<path class="st2" d="M542.6,231.2c-0.9-0.7-1.9-1.5-2.7-2.3c-0.2-0.2-0.3-0.6,0-0.8c0.2-0.2,0.6-0.2,0.8,0
								c1.7,1.6,3.6,3,5.5,4.2c0.3,0.2,0.4,0.5,0.2,0.8c-0.2,0.3-0.5,0.4-0.8,0.2C544.6,232.6,543.6,231.9,542.6,231.2z
								 M535.2,223.7c0,0-0.1-0.1-0.1-0.1c-1.4-1.9-2.7-4-3.7-6.1c-0.1-0.3,0-0.6,0.3-0.8c0.3-0.1,0.6,0,0.8,0.3
								c1,2.1,2.2,4.1,3.6,5.9c0.2,0.3,0.1,0.6-0.1,0.8C535.7,223.8,535.4,223.8,535.2,223.7z M551.8,236.4
								c-0.2-0.2-0.3-0.4-0.2-0.7c0.1-0.3,0.5-0.4,0.8-0.3c2.2,0.9,4.4,1.5,6.7,2c0.3,0.1,0.5,0.4,0.5,0.7c-0.1,0.3-0.4,0.5-0.7,0.5
								c-2.3-0.5-4.7-1.1-6.9-2C551.9,236.5,551.9,236.5,551.8,236.4z M529,211c-0.1-0.1-0.2-0.2-0.2-0.3c-0.6-2.3-1.1-4.7-1.3-7.1
								c0-0.3,0.2-0.6,0.5-0.6c0.3,0,0.6,0.2,0.6,0.5c0.2,2.3,0.6,4.6,1.2,6.9c0.1,0.3-0.1,0.6-0.4,0.7
								C529.4,211.2,529.2,211.1,529,211z M565.6,239.1c-0.1-0.1-0.2-0.3-0.2-0.5c0-0.3,0.3-0.6,0.6-0.6c2.3,0,4.6-0.2,6.9-0.6
								c0.3-0.1,0.6,0.2,0.7,0.5c0.1,0.3-0.2,0.6-0.5,0.7c-2.4,0.4-4.8,0.6-7.1,0.6C565.8,239.2,565.7,239.2,565.6,239.1z
								 M527.9,197c-0.2-0.1-0.2-0.3-0.2-0.5c0.2-2.4,0.7-4.7,1.4-7c0.1-0.3,0.4-0.5,0.7-0.4c0.3,0.1,0.5,0.4,0.4,0.7
								c-0.7,2.2-1.1,4.5-1.3,6.8c0,0.3-0.3,0.6-0.6,0.5C528,197.1,527.9,197,527.9,197z M579.5,236.7c-0.1-0.1-0.1-0.2-0.2-0.3
								c-0.1-0.3,0-0.6,0.3-0.8c2.2-0.8,4.3-1.8,6.3-3c0.3-0.2,0.6-0.1,0.8,0.2c0.2,0.3,0.1,0.6-0.2,0.8c-2,1.2-4.2,2.3-6.5,3.1
								C579.8,236.8,579.6,236.8,579.5,236.7z M531.8,183.5c-0.2-0.2-0.3-0.5-0.2-0.7c1.1-2.1,2.4-4.2,3.8-6.1
								c0.2-0.3,0.6-0.3,0.8-0.1c0,0,0,0,0,0c0.3,0.2,0.3,0.6,0.1,0.8c-1.4,1.8-2.7,3.8-3.7,5.9
								C532.5,183.6,532.2,183.7,531.8,183.5C531.9,183.5,531.8,183.5,531.8,183.5z M591.5,229.4
								C591.5,229.3,591.4,229.3,591.5,229.4c-0.3-0.3-0.3-0.7,0-0.9c1.7-1.5,3.3-3.3,4.7-5.1c0.2-0.3,0.6-0.3,0.9-0.2c0,0,0,0,0,0
								c0.3,0.2,0.3,0.5,0.1,0.8c0,0,0,0,0,0c-1.5,1.9-3.1,3.7-4.9,5.3C592,229.5,591.7,229.5,591.5,229.4z M540.4,172.3
								C540.3,172.3,540.3,172.3,540.4,172.3c-0.3-0.3-0.3-0.7,0-0.9c1.8-1.6,3.7-3,5.8-4.3c0.3-0.2,0.6-0.1,0.8,0.2
								c0.2,0.3,0.1,0.6-0.2,0.8c-2,1.2-3.9,2.6-5.6,4.2C540.9,172.5,540.6,172.5,540.4,172.3z M600.1,218.1
								c-0.2-0.2-0.3-0.5-0.2-0.7c1-2.1,1.9-4.2,2.6-6.5c0.1-0.3,0.4-0.5,0.7-0.4c0.3,0.1,0.5,0.4,0.4,0.7c-0.7,2.3-1.6,4.5-2.6,6.7
								C600.9,218.2,600.5,218.3,600.1,218.1C600.2,218.2,600.2,218.1,600.1,218.1z M552.4,165c-0.1-0.1-0.1-0.2-0.2-0.3
								c-0.1-0.3,0-0.6,0.3-0.8c2.2-0.8,4.6-1.5,6.9-1.9c0.3-0.1,0.6,0.2,0.7,0.5c0.1,0.3-0.2,0.6-0.5,0.7c-2.3,0.4-4.5,1-6.7,1.8
								C552.8,165.2,552.5,165.1,552.4,165z M604.1,204.6c-0.2-0.1-0.2-0.3-0.2-0.5c0.2-2.3,0.2-4.6,0-7c0-0.3,0.2-0.6,0.5-0.6
								c0.3,0,0.6,0.2,0.6,0.5c0.2,2.4,0.2,4.8,0,7.2c0,0.3-0.3,0.6-0.6,0.5C604.3,204.7,604.2,204.7,604.1,204.6z M566.2,162.5
								c-0.1-0.1-0.2-0.3-0.2-0.5c0-0.3,0.3-0.6,0.6-0.6c2.4,0,4.8,0.3,7.1,0.7c0.3,0.1,0.5,0.4,0.5,0.7c-0.1,0.3-0.4,0.5-0.7,0.5
								c-2.3-0.4-4.6-0.7-6.9-0.7C566.5,162.6,566.3,162.6,566.2,162.5z M580,165.2c-0.2-0.2-0.3-0.4-0.2-0.7
								c0.1-0.3,0.5-0.4,0.8-0.3c2.2,0.9,4.4,2,6.4,3.2c0.3,0.2,0.4,0.5,0.2,0.8c-0.2,0.3-0.5,0.4-0.8,0.2c-2-1.2-4.1-2.3-6.2-3.2
								C580.1,165.3,580.1,165.2,580,165.2z"/>
						</g>
					</g>
				</g>
				<g>
					<g>
						<g>
							<path class="st1" d="M608.3,187.5h-3.1v-10h3.1V187.5z M605.4,187.2h2.5v-9.4h-2.5V187.2z"/>
						</g>
					</g>
					<g>
						<g>
							<path class="st1" d="M603.5,187.5h-3.1v-13.4h3.1V187.5z M600.6,187.2h2.5v-12.8h-2.5V187.2z"/>
						</g>
					</g>
					<g>
						<g>
							<path class="st1" d="M598.6,187.5h-3.1v-17.1h3.1V187.5z M595.8,187.2h2.5v-16.5h-2.5V187.2z"/>
						</g>
					</g>
					<g>
						<g>
							<path class="st1" d="M613.1,187.5H610V174h3.1V187.5z M610.3,187.2h2.5v-12.9h-2.5V187.2z"/>
						</g>
					</g>
					<g>
						<g>
							<path class="st1" d="M617.9,187.5h-3.1v-16.4h3.1V187.5z M615.1,187.2h2.5v-15.8h-2.5V187.2z"/>
						</g>
					</g>
					<g>
						<g>
							<path class="st1" d="M607.3,171.7C607.3,171.7,607.3,171.7,607.3,171.7l-10.9-3.1c-0.1,0-0.1-0.1-0.1-0.2
								c0-0.1,0.1-0.1,0.2-0.1l10.8,3.1l10.7-5.8c0.1,0,0.2,0,0.2,0.1c0,0.1,0,0.2-0.1,0.2L607.3,171.7
								C607.4,171.7,607.3,171.7,607.3,171.7z"/>
						</g>
					</g>
					<g>
						<g>
							<path class="st1" d="M617.6,168C617.6,168,617.6,167.9,617.6,168c-0.1,0-0.2-0.1-0.1-0.2l1-2.3h-2.6c-0.1,0-0.2-0.1-0.2-0.2
								s0.1-0.2,0.2-0.2h2.8c0.1,0,0.1,0,0.1,0.1c0,0,0,0.1,0,0.1l-1,2.5C617.7,167.9,617.7,168,617.6,168z"/>
						</g>
					</g>
				</g>
			</g>
			<g>
				<g>
					<g>
						<path class="st1" d="M437.1,122.1c-0.9-0.7-1.9-1.5-2.7-2.3c-0.2-0.2-0.3-0.6,0-0.8c0.2-0.2,0.6-0.2,0.8,0
							c1.7,1.6,3.6,3,5.5,4.2c0.3,0.2,0.4,0.5,0.2,0.8c-0.2,0.3-0.5,0.4-0.8,0.2C439,123.6,438,122.9,437.1,122.1z M429.7,114.6
							c0,0-0.1-0.1-0.1-0.1c-1.4-1.9-2.7-4-3.7-6.1c-0.1-0.3,0-0.6,0.3-0.8c0.3-0.1,0.6,0,0.8,0.3c1,2.1,2.2,4.1,3.6,5.9
							c0.2,0.3,0.1,0.6-0.1,0.8C430.2,114.8,429.9,114.8,429.7,114.6z M446.3,127.4c-0.2-0.2-0.3-0.4-0.2-0.7
							c0.1-0.3,0.5-0.4,0.8-0.3c2.2,0.9,4.4,1.5,6.7,2c0.3,0.1,0.5,0.4,0.5,0.7c-0.1,0.3-0.4,0.5-0.7,0.5c-2.3-0.5-4.7-1.1-6.9-2
							C446.4,127.4,446.3,127.4,446.3,127.4z M423.5,102c-0.1-0.1-0.2-0.2-0.2-0.3c-0.6-2.3-1.1-4.7-1.3-7.1c0-0.3,0.2-0.6,0.5-0.6
							c0.3,0,0.6,0.2,0.6,0.5c0.2,2.3,0.6,4.6,1.2,6.9c0.1,0.3-0.1,0.6-0.4,0.7C423.8,102.1,423.7,102.1,423.5,102z M460.1,130.1
							c-0.1-0.1-0.2-0.3-0.2-0.5c0-0.3,0.3-0.6,0.6-0.6c2.3,0,4.6-0.2,6.9-0.6c0.3-0.1,0.6,0.2,0.7,0.5c0.1,0.3-0.2,0.6-0.5,0.7
							c-2.4,0.4-4.8,0.6-7.1,0.6C460.3,130.2,460.2,130.1,460.1,130.1z M422.3,87.9c-0.2-0.1-0.2-0.3-0.2-0.5c0.2-2.4,0.7-4.7,1.4-7
							c0.1-0.3,0.4-0.5,0.7-0.4c0.3,0.1,0.5,0.4,0.4,0.7c-0.7,2.2-1.1,4.5-1.3,6.8c0,0.3-0.3,0.6-0.6,0.5
							C422.5,88,422.4,88,422.3,87.9z M473.9,127.6c-0.1-0.1-0.1-0.2-0.2-0.3c-0.1-0.3,0-0.6,0.3-0.8c2.2-0.8,4.3-1.8,6.3-3
							c0.3-0.2,0.6-0.1,0.8,0.2c0.2,0.3,0.1,0.6-0.2,0.8c-2,1.2-4.2,2.3-6.5,3.1C474.3,127.8,474.1,127.7,473.9,127.6z M426.3,74.4
							c-0.2-0.2-0.3-0.5-0.2-0.7c1.1-2.1,2.4-4.2,3.8-6.1c0.2-0.3,0.6-0.3,0.8-0.1c0,0,0,0,0,0c0.3,0.2,0.3,0.6,0.1,0.8
							c-1.4,1.8-2.7,3.8-3.7,5.9C427,74.5,426.7,74.6,426.3,74.4C426.3,74.5,426.3,74.5,426.3,74.4z M486,120.3
							C485.9,120.3,485.9,120.3,486,120.3c-0.3-0.3-0.3-0.7,0-0.9c1.7-1.5,3.3-3.3,4.7-5.1c0.2-0.3,0.6-0.3,0.9-0.2c0,0,0,0,0,0
							c0.3,0.2,0.3,0.5,0.1,0.8c0,0,0,0,0,0c-1.5,1.9-3.1,3.7-4.9,5.3C486.5,120.5,486.2,120.5,486,120.3z M434.8,63.3
							C434.8,63.3,434.8,63.2,434.8,63.3c-0.3-0.3-0.3-0.7,0-0.9c1.8-1.6,3.7-3,5.8-4.3c0.3-0.2,0.6-0.1,0.8,0.2
							c0.2,0.3,0.1,0.6-0.2,0.8c-2,1.2-3.9,2.6-5.6,4.2C435.4,63.4,435.1,63.5,434.8,63.3z M494.6,109.1c-0.2-0.2-0.3-0.5-0.2-0.7
							c1-2.1,1.9-4.2,2.6-6.5c0.1-0.3,0.4-0.5,0.7-0.4c0.3,0.1,0.5,0.4,0.4,0.7c-0.7,2.3-1.6,4.5-2.6,6.7
							C495.3,109.2,495,109.3,494.6,109.1C494.7,109.1,494.6,109.1,494.6,109.1z M446.9,56c-0.1-0.1-0.1-0.2-0.2-0.3
							c-0.1-0.3,0-0.6,0.3-0.8c2.2-0.8,4.6-1.5,6.9-1.9c0.3-0.1,0.6,0.2,0.7,0.5c0.1,0.3-0.2,0.6-0.5,0.7c-2.3,0.4-4.5,1-6.7,1.8
							C447.2,56.1,447,56.1,446.9,56z M498.5,95.6c-0.2-0.1-0.2-0.3-0.2-0.5c0.2-2.3,0.2-4.6,0-7c0-0.3,0.2-0.6,0.5-0.6
							c0.3,0,0.6,0.2,0.6,0.5c0.2,2.4,0.2,4.8,0,7.2c0,0.3-0.3,0.6-0.6,0.5C498.7,95.7,498.6,95.6,498.5,95.6z M460.7,53.5
							c-0.1-0.1-0.2-0.3-0.2-0.5c0-0.3,0.3-0.6,0.6-0.6c2.4,0,4.8,0.3,7.1,0.7c0.3,0.1,0.5,0.4,0.5,0.7c-0.1,0.3-0.4,0.5-0.7,0.5
							c-2.3-0.4-4.6-0.7-6.9-0.7C460.9,53.6,460.8,53.6,460.7,53.5z M474.5,56.2c-0.2-0.2-0.3-0.4-0.2-0.7c0.1-0.3,0.5-0.4,0.8-0.3
							c2.2,0.9,4.4,2,6.4,3.2c0.3,0.2,0.4,0.5,0.2,0.8c-0.2,0.3-0.5,0.4-0.8,0.2c-2-1.2-4.1-2.3-6.2-3.2
							C474.6,56.2,474.6,56.2,474.5,56.2z"/>
					</g>
				</g>
				<g>
					<g>
						<g>
							<path class="st1" d="M502.7,78.5h-3.1v-10h3.1V78.5z M499.9,78.2h2.5v-9.4h-2.5V78.2z"/>
						</g>
					</g>
					<g>
						<g>
							<path class="st1" d="M497.9,78.5h-3.1V65.1h3.1V78.5z M495.1,78.2h2.5V65.4h-2.5V78.2z"/>
						</g>
					</g>
					<g>
						<g>
							<path class="st1" d="M493.1,78.5H490V61.4h3.1V78.5z M490.3,78.2h2.5V61.7h-2.5V78.2z"/>
						</g>
					</g>
					<g>
						<g>
							<path class="st1" d="M507.6,78.5h-3.1V65h3.1V78.5z M504.7,78.2h2.5V65.3h-2.5V78.2z"/>
						</g>
					</g>
					<g>
						<g>
							<path class="st1" d="M512.4,78.5h-3.1V62.1h3.1V78.5z M509.5,78.2h2.5V62.4h-2.5V78.2z"/>
						</g>
					</g>
					<g>
						<g>
							<path class="st1" d="M501.8,62.6C501.8,62.6,501.8,62.6,501.8,62.6l-10.9-3.1c-0.1,0-0.1-0.1-0.1-0.2c0-0.1,0.1-0.1,0.2-0.1
								l10.8,3.1l10.7-5.8c0.1,0,0.2,0,0.2,0.1c0,0.1,0,0.2-0.1,0.2L501.8,62.6C501.8,62.6,501.8,62.6,501.8,62.6z"/>
						</g>
					</g>
					<g>
						<g>
							<path class="st1" d="M512.1,58.9C512.1,58.9,512.1,58.9,512.1,58.9c-0.1,0-0.2-0.1-0.1-0.2l1-2.3h-2.6
								c-0.1,0-0.2-0.1-0.2-0.2c0-0.1,0.1-0.2,0.2-0.2h2.8c0.1,0,0.1,0,0.1,0.1c0,0,0,0.1,0,0.1l-1,2.5
								C512.2,58.9,512.2,58.9,512.1,58.9z"/>
						</g>
					</g>
				</g>
			</g>
			<g>
				<g>
					<g>
						<path class="st1" d="M610.4,319.6c-5.5,0-10-4.5-10-10c0-5.5,4.5-10,10-10s10,4.5,10,10C620.4,315.1,615.9,319.6,610.4,319.6z
							 M610.4,300.5c-5.1,0-9.2,4.1-9.2,9.2c0,5.1,4.1,9.2,9.2,9.2c5.1,0,9.2-4.1,9.2-9.2C619.6,304.6,615.5,300.5,610.4,300.5z"/>
					</g>
				</g>
				<g>
					<g>
						<path class="st1" d="M610.4,305.4c-2.5,0-4.8-0.9-6.6-2.5l0.5-0.6c1.7,1.5,3.9,2.3,6.1,2.3c2.3,0,4.4-0.8,6.1-2.3l0.5,0.6
							C615.2,304.5,612.9,305.4,610.4,305.4z"/>
					</g>
				</g>
				<g>
					<g>
						<path class="st1" d="M604.4,317.2l-0.5-0.6c1.8-1.6,4.1-2.4,6.5-2.4c2.4,0,4.7,0.9,6.5,2.4l-0.5,0.6c-1.7-1.4-3.8-2.2-6-2.2
							C608.2,315,606.1,315.8,604.4,317.2z"/>
					</g>
				</g>
				<g>
					<g>
						<path class="st1" d="M610.4,319.6c-2.9,0-5.1-4.4-5.1-10s2.3-10,5.1-10c2.9,0,5.1,4.4,5.1,10S613.3,319.6,610.4,319.6z
							 M610.4,300.5c-2.4,0-4.3,4.2-4.3,9.2s2,9.2,4.3,9.2c2.4,0,4.3-4.2,4.3-9.2S612.8,300.5,610.4,300.5z"/>
					</g>
				</g>
				<g>
					<g>
						<rect x="610" y="300.1" class="st1" width="0.8" height="19.1"/>
					</g>
				</g>
				<g>
					<g>
						<rect x="600.9" y="309.3" class="st1" width="19.1" height="0.8"/>
					</g>
				</g>
			</g>
			<g>
				<g>
					<g>
						<g>
							<path class="st1" d="M583.2,135.2h-29.7c-0.1,0-0.2-0.1-0.2-0.2v-22.6c0-0.1,0.1-0.2,0.2-0.2h29.7c0.1,0,0.2,0.1,0.2,0.2V135
								C583.4,135.1,583.3,135.2,583.2,135.2z M553.6,134.8h29.3v-22.2h-29.3V134.8z"/>
						</g>
					</g>
				</g>
				<g>
					<g>
						<g>
							<path class="st1" d="M584.1,137.8h-31.6c-0.1,0-0.2-0.1-0.2-0.2V135c0-0.1,0.1-0.2,0.2-0.2h31.6c0.1,0,0.2,0.1,0.2,0.2v2.6
								C584.3,137.7,584.2,137.8,584.1,137.8z M552.7,137.4h31.2v-2.2h-31.2V137.4z"/>
						</g>
					</g>
				</g>
				<g>
					<g>
						<g>
							<path class="st1" d="M568.3,142.3c-0.8,0-1.5-0.7-1.5-1.5c0-0.8,0.7-1.5,1.5-1.5c0.8,0,1.5,0.7,1.5,1.5
								C569.8,141.6,569.1,142.3,568.3,142.3z M568.3,139.7c-0.6,0-1.1,0.5-1.1,1.1c0,0.6,0.5,1.1,1.1,1.1c0.6,0,1.1-0.5,1.1-1.1
								C569.4,140.2,568.9,139.7,568.3,139.7z"/>
						</g>
					</g>
				</g>
				<g>
					<g>
						<path class="st1" d="M568.3,139.6C568.3,139.6,568.3,139.6,568.3,139.6c-0.1,0-0.2-0.1-0.2-0.2l0-1.8c0-0.1,0.1-0.2,0.2-0.2
							c0.1,0,0.2,0.1,0.2,0.2l0,1.8C568.5,139.5,568.4,139.6,568.3,139.6z"/>
					</g>
				</g>
				<g>
					<g>
						<g>
							<path class="st1" d="M561.1,133h-4.4c-0.1,0-0.2-0.1-0.2-0.2v-10.7c0-0.1,0.1-0.2,0.2-0.2h4.4c0.1,0,0.2,0.1,0.2,0.2v10.7
								C561.3,133,561.2,133,561.1,133z M556.9,132.6h3.9v-10.3h-3.9V132.6z"/>
						</g>
					</g>
				</g>
				<g>
					<g>
						<g>
							<path class="st1" d="M569.7,133h-4.4c-0.1,0-0.2-0.1-0.2-0.2v-15c0-0.1,0.1-0.2,0.2-0.2h4.4c0.1,0,0.2,0.1,0.2,0.2v15
								C569.9,133,569.8,133,569.7,133z M565.5,132.6h3.9v-14.6h-3.9V132.6z"/>
						</g>
					</g>
				</g>
				<g>
					<g>
						<g>
							<path class="st1" d="M578.8,133h-4.4c-0.1,0-0.2-0.1-0.2-0.2v-18.1c0-0.1,0.1-0.2,0.2-0.2h4.4c0.1,0,0.2,0.1,0.2,0.2v18.1
								C579,133,578.9,133,578.8,133z M574.6,132.6h3.9V115h-3.9V132.6z"/>
						</g>
					</g>
				</g>
			</g>
			<g>
				<g>
					<g>
						<g>
							<path class="st1" d="M435.1,276h-29.7c-0.1,0-0.2-0.1-0.2-0.2v-22.6c0-0.1,0.1-0.2,0.2-0.2h29.7c0.1,0,0.2,0.1,0.2,0.2v22.6
								C435.3,276,435.2,276,435.1,276z M405.6,275.6h29.3v-22.2h-29.3V275.6z"/>
						</g>
					</g>
				</g>
				<g>
					<g>
						<g>
							<path class="st1" d="M436.1,278.6h-31.6c-0.1,0-0.2-0.1-0.2-0.2v-2.6c0-0.1,0.1-0.2,0.2-0.2h31.6c0.1,0,0.2,0.1,0.2,0.2v2.6
								C436.3,278.5,436.2,278.6,436.1,278.6z M404.7,278.2h31.2V276h-31.2V278.2z"/>
						</g>
					</g>
				</g>
				<g>
					<g>
						<g>
							<path class="st1" d="M420.3,283.1c-0.8,0-1.5-0.7-1.5-1.5s0.7-1.5,1.5-1.5s1.5,0.7,1.5,1.5S421.1,283.1,420.3,283.1z
								 M420.3,280.5c-0.6,0-1.1,0.5-1.1,1.1c0,0.6,0.5,1.1,1.1,1.1c0.6,0,1.1-0.5,1.1-1.1C421.4,281,420.9,280.5,420.3,280.5z"/>
						</g>
					</g>
				</g>
				<g>
					<g>
						<path class="st1" d="M420.3,280.5C420.3,280.5,420.3,280.5,420.3,280.5c-0.1,0-0.2-0.1-0.2-0.2l0-1.8c0-0.1,0.1-0.2,0.2-0.2
							c0.1,0,0.2,0.1,0.2,0.2l0,1.8C420.5,280.4,420.4,280.5,420.3,280.5z"/>
					</g>
				</g>
				<g>
					<g>
						<g>
							<path class="st1" d="M413.1,273.9h-4.4c-0.1,0-0.2-0.1-0.2-0.2V263c0-0.1,0.1-0.2,0.2-0.2h4.4c0.1,0,0.2,0.1,0.2,0.2v10.7
								C413.3,273.8,413.2,273.9,413.1,273.9z M408.9,273.5h3.9v-10.3h-3.9V273.5z"/>
						</g>
					</g>
				</g>
				<g>
					<g>
						<g>
							<path class="st1" d="M421.7,273.9h-4.4c-0.1,0-0.2-0.1-0.2-0.2v-15c0-0.1,0.1-0.2,0.2-0.2h4.4c0.1,0,0.2,0.1,0.2,0.2v15
								C421.9,273.8,421.8,273.9,421.7,273.9z M417.5,273.5h3.9v-14.6h-3.9V273.5z"/>
						</g>
					</g>
				</g>
				<g>
					<g>
						<g>
							<path class="st1" d="M430.8,273.9h-4.4c-0.1,0-0.2-0.1-0.2-0.2v-18.1c0-0.1,0.1-0.2,0.2-0.2h4.4c0.1,0,0.2,0.1,0.2,0.2v18.1
								C431,273.8,430.9,273.9,430.8,273.9z M426.6,273.5h3.9v-17.7h-3.9V273.5z"/>
						</g>
					</g>
				</g>
			</g>
			<g>
				<g>
					<g>
						<g>
							<path class="st1" d="M165.6,233.6h-29.7c-0.1,0-0.2-0.1-0.2-0.2v-22.6c0-0.1,0.1-0.2,0.2-0.2h29.7c0.1,0,0.2,0.1,0.2,0.2
								v22.6C165.8,233.6,165.7,233.6,165.6,233.6z M136.1,233.2h29.3V211h-29.3V233.2z"/>
						</g>
					</g>
				</g>
				<g>
					<g>
						<g>
							<path class="st1" d="M166.5,236.2H135c-0.1,0-0.2-0.1-0.2-0.2v-2.6c0-0.1,0.1-0.2,0.2-0.2h31.6c0.1,0,0.2,0.1,0.2,0.2v2.6
								C166.7,236.1,166.6,236.2,166.5,236.2z M135.2,235.8h31.2v-2.2h-31.2V235.8z"/>
						</g>
					</g>
				</g>
				<g>
					<g>
						<g>
							<path class="st1" d="M150.7,240.7c-0.8,0-1.5-0.7-1.5-1.5s0.7-1.5,1.5-1.5s1.5,0.7,1.5,1.5S151.6,240.7,150.7,240.7z
								 M150.7,238.1c-0.6,0-1.1,0.5-1.1,1.1c0,0.6,0.5,1.1,1.1,1.1c0.6,0,1.1-0.5,1.1-1.1C151.8,238.6,151.3,238.1,150.7,238.1z"/>
						</g>
					</g>
				</g>
				<g>
					<g>
						<path class="st1" d="M150.7,238.1C150.7,238.1,150.7,238.1,150.7,238.1c-0.1,0-0.2-0.1-0.2-0.2l0-1.8c0-0.1,0.1-0.2,0.2-0.2
							c0.1,0,0.2,0.1,0.2,0.2l0,1.8C151,238,150.9,238.1,150.7,238.1z"/>
					</g>
				</g>
				<g>
					<g>
						<g>
							<path class="st1" d="M143.5,231.5h-4.4c-0.1,0-0.2-0.1-0.2-0.2v-10.7c0-0.1,0.1-0.2,0.2-0.2h4.4c0.1,0,0.2,0.1,0.2,0.2v10.7
								C143.7,231.4,143.6,231.5,143.5,231.5z M139.4,231.1h3.9v-10.3h-3.9V231.1z"/>
						</g>
					</g>
				</g>
				<g>
					<g>
						<g>
							<path class="st1" d="M152.1,231.5h-4.4c-0.1,0-0.2-0.1-0.2-0.2v-15c0-0.1,0.1-0.2,0.2-0.2h4.4c0.1,0,0.2,0.1,0.2,0.2v15
								C152.3,231.4,152.2,231.5,152.1,231.5z M148,231.1h3.9v-14.6H148V231.1z"/>
						</g>
					</g>
				</g>
				<g>
					<g>
						<g>
							<path class="st1" d="M161.2,231.5h-4.4c-0.1,0-0.2-0.1-0.2-0.2v-18.1c0-0.1,0.1-0.2,0.2-0.2h4.4c0.1,0,0.2,0.1,0.2,0.2v18.1
								C161.4,231.4,161.4,231.5,161.2,231.5z M157.1,231.1h3.9v-17.7h-3.9V231.1z"/>
						</g>
					</g>
				</g>
			</g>
			<g>
				<g>
					<g>
						<g>
							<path class="st1" d="M277.8,321.1c-6.4,0-11.7-5.2-11.7-11.7c0-6.4,5.2-11.7,11.7-11.7c0.1,0,0.1,0,0.2,0.1
								c0.1,0.1,0.1,0.1,0.1,0.2l-0.1,11.3h11.3c0.1,0,0.1,0,0.2,0.1c0.1,0.1,0.1,0.1,0.1,0.2C289.4,315.9,284.1,321.1,277.8,321.1z
								 M277.5,298.3c-6,0.2-10.8,5.1-10.8,11.1c0,6.1,5,11.1,11.1,11.1c6,0,10.9-4.8,11.1-10.7h-11.3c-0.1,0-0.1,0-0.2-0.1
								c-0.1-0.1-0.1-0.1-0.1-0.2L277.5,298.3z"/>
						</g>
					</g>
				</g>
				<g>
					<g>
						<g>
							<path class="st1" d="M291.3,307.8h-11.6c-0.1,0-0.1,0-0.2-0.1c-0.1-0.1-0.1-0.1-0.1-0.2l0.1-11.6c0-0.2,0.1-0.3,0.3-0.3
								c6.5,0,11.7,5.2,11.7,11.7c0,0,0,0.1,0,0.1l0,0.1C291.6,307.7,291.5,307.8,291.3,307.8z M280.1,307.3h11
								c-0.1-6-4.9-10.9-10.9-11L280.1,307.3z"/>
						</g>
					</g>
				</g>
			</g>
			<g>
				<g>
					<g>
						<path class="st1" d="M196.8,164.7c-0.4,1.1-0.9,2.2-1.5,3.3c-0.1,0.3-0.5,0.4-0.8,0.3c-0.3-0.1-0.4-0.5-0.3-0.8
							c1-2.1,1.9-4.3,2.5-6.5c0.1-0.3,0.4-0.5,0.7-0.4c0.3,0.1,0.5,0.4,0.4,0.7C197.6,162.4,197.2,163.6,196.8,164.7z M191.6,173.9
							c0,0,0,0.1-0.1,0.1c-1.4,1.9-3.1,3.7-4.9,5.3c-0.2,0.2-0.6,0.2-0.8,0c-0.2-0.2-0.2-0.6,0-0.8c1.7-1.6,3.3-3.3,4.7-5.1
							c0.2-0.3,0.6-0.3,0.8-0.1C191.6,173.4,191.7,173.6,191.6,173.9z M199.3,154.4c-0.1,0.2-0.3,0.4-0.6,0.4
							c-0.3,0-0.6-0.3-0.5-0.6c0.2-2.3,0.2-4.6,0-7c0-0.3,0.2-0.6,0.5-0.6c0.3,0,0.6,0.2,0.6,0.5c0.2,2.4,0.2,4.8,0,7.2
							C199.3,154.3,199.3,154.3,199.3,154.4z M181.1,183.3c0,0.1-0.1,0.2-0.2,0.3c-2,1.2-4.2,2.3-6.4,3.2c-0.3,0.1-0.6,0-0.8-0.3
							c-0.1-0.3,0-0.6,0.3-0.8c2.2-0.8,4.3-1.9,6.2-3.1c0.3-0.2,0.6-0.1,0.8,0.2C181.2,182.9,181.2,183.1,181.1,183.3z M198,140.4
							c-0.1,0.2-0.2,0.3-0.4,0.3c-0.3,0.1-0.6-0.1-0.7-0.4c-0.6-2.2-1.5-4.4-2.5-6.5c-0.1-0.3,0-0.6,0.3-0.8c0.3-0.1,0.6,0,0.8,0.3
							c1.1,2.1,1.9,4.4,2.6,6.7C198.1,140.1,198.1,140.2,198,140.4z M168,188.3c-0.1,0.2-0.2,0.3-0.4,0.4c-2.4,0.4-4.8,0.6-7.1,0.6
							c-0.3,0-0.6-0.3-0.6-0.6c0-0.3,0.3-0.6,0.6-0.6c2.3,0,4.6-0.2,6.9-0.6c0.3-0.1,0.6,0.2,0.7,0.5
							C168.1,188.1,168,188.2,168,188.3z M191.8,127.7c0,0.1-0.1,0.2-0.2,0.3c-0.3,0.2-0.6,0.1-0.8-0.1c-1.4-1.9-3-3.6-4.7-5.2
							c-0.2-0.2-0.3-0.6,0-0.8c0.2-0.2,0.6-0.3,0.8,0c1.8,1.6,3.4,3.4,4.8,5.3C191.9,127.3,191.9,127.5,191.8,127.7z M153.9,188.3
							c-0.1,0.3-0.4,0.4-0.7,0.4c-2.3-0.4-4.7-1.1-6.9-2c-0.3-0.1-0.4-0.5-0.3-0.8c0,0,0,0,0,0c0.1-0.3,0.5-0.4,0.8-0.3
							c2.2,0.8,4.4,1.5,6.7,1.9c0.3,0.1,0.5,0.4,0.5,0.7C154,188.2,154,188.2,153.9,188.3z M181.5,118.2
							C181.5,118.2,181.4,118.3,181.5,118.2c-0.2,0.4-0.6,0.5-0.9,0.3c-2-1.2-4-2.3-6.2-3.1c-0.3-0.1-0.5-0.5-0.4-0.8c0,0,0,0,0,0
							c0.1-0.3,0.4-0.5,0.7-0.3c0,0,0.1,0,0.1,0c2.3,0.9,4.4,2,6.5,3.2C181.5,117.6,181.6,117.9,181.5,118.2z M140.8,183.1
							C140.8,183.2,140.8,183.2,140.8,183.1c-0.2,0.4-0.6,0.5-0.9,0.3c-2-1.3-3.9-2.7-5.7-4.3c-0.2-0.2-0.3-0.6,0-0.8
							c0.2-0.2,0.6-0.3,0.8,0c1.7,1.6,3.6,3,5.5,4.2C140.9,182.6,140.9,182.9,140.8,183.1z M168.3,113c-0.1,0.3-0.4,0.4-0.7,0.4
							c-2.3-0.4-4.6-0.7-6.9-0.7c-0.3,0-0.6-0.3-0.6-0.6c0-0.3,0.3-0.6,0.6-0.6c2.4,0,4.8,0.2,7.1,0.7c0.3,0.1,0.5,0.4,0.5,0.7
							C168.3,112.9,168.3,113,168.3,113z M130.5,173.6c0,0.1-0.1,0.2-0.2,0.3c-0.3,0.2-0.6,0.1-0.8-0.1c-1.4-1.9-2.7-4-3.7-6.1
							c-0.1-0.3,0-0.6,0.3-0.8c0.3-0.1,0.6,0,0.8,0.3c1,2.1,2.2,4.1,3.6,5.9C130.5,173.2,130.6,173.4,130.5,173.6z M154.2,113
							c-0.1,0.2-0.2,0.3-0.4,0.4c-2.3,0.4-4.5,1.1-6.7,1.9c-0.3,0.1-0.6,0-0.8-0.3c-0.1-0.3,0-0.6,0.3-0.8c2.2-0.9,4.6-1.5,6.9-1.9
							c0.3-0.1,0.6,0.2,0.7,0.5C154.3,112.8,154.2,112.9,154.2,113z M124.3,161c-0.1,0.2-0.2,0.3-0.4,0.3c-0.3,0.1-0.6-0.1-0.7-0.4
							c-0.6-2.3-1.1-4.7-1.3-7.1c0-0.3,0.2-0.6,0.5-0.6c0.3,0,0.6,0.2,0.6,0.5c0.2,2.3,0.6,4.6,1.3,6.8
							C124.3,160.7,124.3,160.9,124.3,161z M123,147c-0.1,0.2-0.3,0.4-0.6,0.4c-0.3,0-0.6-0.3-0.5-0.6c0.2-2.4,0.7-4.7,1.3-7
							c0.1-0.3,0.4-0.5,0.7-0.4c0.3,0.1,0.5,0.4,0.4,0.7c-0.6,2.2-1.1,4.5-1.3,6.8C123,146.9,123,146.9,123,147z"/>
					</g>
				</g>
				<g>
					<g>
						<g>
							<g>
								<path class="st1" d="M134,125.2h-18.9c-0.1,0-0.2-0.1-0.2-0.2v-11.9c0-0.1,0.1-0.2,0.2-0.2H134c0.1,0,0.2,0.1,0.2,0.2V125
									C134.2,125.1,134.2,125.2,134,125.2z M115.4,124.8h18.5v-11.5h-18.5V124.8z"/>
							</g>
						</g>
					</g>
					<g>
						<g>
							<g>
								<path class="st1" d="M124.6,118.8c0,0-0.1,0-0.1,0l-9.4-5.5c-0.1,0-0.1-0.1-0.1-0.2c0-0.1,0.1-0.2,0.2-0.2H134
									c0.1,0,0.2,0.1,0.2,0.2c0,0.1,0,0.2-0.1,0.2l-9.5,5.5C124.6,118.8,124.6,118.8,124.6,118.8z M115.9,113.3l8.7,5.1l8.7-5.1
									H115.9z"/>
							</g>
						</g>
					</g>
				</g>
			</g>
			<g>
				<g>
					<g>
						<g>
							<path class="st1" d="M502.6,382h-16.4c-0.1,0-0.2-0.1-0.2-0.2v-21.1c0-0.1,0.1-0.2,0.2-0.2H499c0.1,0,0.1,0,0.1,0.1l3.6,3.3
								c0,0,0.1,0.1,0.1,0.2v17.8C502.8,381.9,502.7,382,502.6,382z M486.4,381.6h15.9v-17.5l-3.5-3.2h-12.5V381.6z"/>
						</g>
					</g>
				</g>
				<g>
					<g>
						<path class="st1" d="M502.6,364.2C502.6,364.2,502.6,364.2,502.6,364.2l-3.5,0c-0.1,0-0.2-0.1-0.2-0.2l0-3.3
							c0-0.1,0.1-0.2,0.2-0.2c0.1,0,0.2,0.1,0.2,0.2l0,3.1l3.3,0c0.1,0,0.2,0.1,0.2,0.2C502.8,364.1,502.7,364.2,502.6,364.2z"/>
					</g>
				</g>
				<g>
					<g>
						<path class="st1" d="M493.9,364h-6.2c-0.1,0-0.2-0.1-0.2-0.2c0-0.1,0.1-0.2,0.2-0.2h6.2c0.1,0,0.2,0.1,0.2,0.2
							C494.1,363.9,494,364,493.9,364z"/>
					</g>
				</g>
				<g>
					<g>
						<path class="st1" d="M500.5,366.8h-12.8c-0.1,0-0.2-0.1-0.2-0.2s0.1-0.2,0.2-0.2h12.8c0.1,0,0.2,0.1,0.2,0.2
							S500.6,366.8,500.5,366.8z"/>
					</g>
				</g>
				<g>
					<g>
						<path class="st1" d="M500.5,371.4h-12.8c-0.1,0-0.2-0.1-0.2-0.2c0-0.1,0.1-0.2,0.2-0.2h12.8c0.1,0,0.2,0.1,0.2,0.2
							C500.7,371.3,500.6,371.4,500.5,371.4z"/>
					</g>
				</g>
				<g>
					<g>
						<path class="st1" d="M500.5,375.9h-12.8c-0.1,0-0.2-0.1-0.2-0.2c0-0.1,0.1-0.2,0.2-0.2h12.8c0.1,0,0.2,0.1,0.2,0.2
							C500.7,375.8,500.6,375.9,500.5,375.9z"/>
					</g>
				</g>
			</g>
			<g>
				
					<image style="overflow:visible;" width="98" height="169" xlink:href="84DDFB56AF741610.png"  transform="matrix(1 0 0 1 523.0931 217.0803)">
				</image>
				<g>
					<g>
						<path class="st3" d="M547.1,327.8c0.3-0.1,0.7,0.1,0.8,0.4l4.5,13.2c0.6-2.9,1.3-5.9,2.1-9.1c3.7-14.7,9.8-33.8,19.9-54.9
							c0-0.1-0.1-0.1-0.1-0.2l-5.3-15.5c-0.1-0.3,0.1-0.7,0.4-0.8c0.3-0.1,0.7,0.1,0.8,0.4l4.9,14.5c7.6-15.7,17.4-32.4,30-49.4
							c0.2-0.3,0.6-0.3,0.9-0.1c0.3,0.2,0.3,0.6,0.1,0.9c-7.5,10-13.9,20-19.5,29.7l11.2-3.5c0.3-0.1,0.7,0.1,0.8,0.4
							c0.1,0.3-0.1,0.7-0.4,0.8l-12.5,3.9c0,0,0,0,0,0c-11.6,20.4-19.5,39.6-24.8,55.8l16.4-3.9c0.3-0.1,0.7,0.1,0.8,0.5
							c0.1,0.3-0.1,0.7-0.5,0.8l-16.8,3.9c0,0-0.1,0-0.1,0c-0.1,0-0.1,0-0.2,0c-2,6.1-3.6,11.8-4.9,17c-1,3.9-1.8,7.6-2.5,11.2
							c0,0.1,0,0.3-0.1,0.4c-4.4,21.4-4.3,35.1-4.3,35.3c0,0.3-0.3,0.6-0.6,0.6c0,0,0,0,0,0c-0.3,0-0.6-0.3-0.6-0.6
							c0-0.2-0.1-14,4.4-35.6l-5.2-15.2C546.6,328.3,546.8,327.9,547.1,327.8z"/>
					</g>
				</g>
			</g>
			<g>
				
					<image style="overflow:visible;" width="88" height="65" xlink:href="84DDFB56AF741611.png"  transform="matrix(1 0 0 1 562.0931 321.0803)">
				</image>
				<g>
					<g>
						<path class="st3" d="M573.6,377.2c0-0.1,5.1-8.2,16.2-18.5c5.8-5.4,13.9-12.1,24.6-18.8c0,0,0-0.1,0-0.1l1.6-7.9
							c0-0.2,0.2-0.3,0.4-0.2c0.2,0,0.3,0.2,0.3,0.4l-1.5,7.4c8-4.9,17.3-9.8,28.1-14.1c0.2-0.1,0.4,0,0.5,0.2
							c0.1,0.2,0,0.3-0.2,0.4c-6.4,2.5-12.2,5.3-17.6,8.1l6.4,1.1c0.2,0,0.3,0.2,0.3,0.4c0,0.2-0.2,0.3-0.4,0.2l-7.2-1.3
							c0,0,0,0,0,0c-11.2,6-20.2,12.3-27.2,18l9.1,2.2c0.2,0,0.3,0.2,0.2,0.4c-0.1,0.2-0.2,0.3-0.4,0.2l-9.3-2.3c0,0-0.1,0-0.1,0
							c0,0-0.1,0-0.1-0.1c-2.6,2.2-5,4.2-7,6.1c-11,10.3-16,18.4-16.1,18.4c-0.1,0.1-0.3,0.2-0.5,0.1c0,0,0,0,0,0
							C573.6,377.5,573.5,377.3,573.6,377.2z"/>
					</g>
				</g>
			</g>
			<g>
				
					<image style="overflow:visible;" width="120" height="206" xlink:href="84DDFB56AF741617.png"  transform="matrix(1 0 0 1 65.0931 181.0803)">
				</image>
				<g>
					<g>
						<path class="st3" d="M155.2,316.1c-0.4-0.1-0.8,0.1-1,0.5l-5.5,16.2c-0.8-3.5-1.6-7.2-2.6-11.1c-4.5-18-12-41.3-24.3-67.1
							c0-0.1,0.1-0.1,0.1-0.2l6.4-18.9c0.1-0.4-0.1-0.8-0.5-1c-0.4-0.1-0.8,0.1-1,0.5l-6,17.7c-9.3-19.2-21.3-39.7-36.7-60.4
							c-0.3-0.3-0.7-0.4-1.1-0.2c-0.3,0.3-0.4,0.7-0.2,1.1c9.1,12.2,17,24.4,23.9,36.3l-13.7-4.3c-0.4-0.1-0.8,0.1-1,0.5
							c-0.1,0.4,0.1,0.8,0.5,1l15.3,4.8c0,0,0,0,0,0c14.2,24.9,23.8,48.3,30.3,68.2l-20.1-4.7c-0.4-0.1-0.8,0.2-0.9,0.6
							c-0.1,0.4,0.2,0.8,0.6,0.9l20.5,4.8c0.1,0,0.1,0,0.2,0c0.1,0,0.2,0,0.3,0c2.4,7.5,4.4,14.5,5.9,20.8c1.2,4.8,2.2,9.3,3.1,13.6
							c0,0.2,0,0.3,0.1,0.5c5.3,26.2,5.3,42.9,5.3,43.1c0,0.4,0.3,0.8,0.8,0.8c0,0,0,0,0,0c0.4,0,0.8-0.3,0.8-0.8
							c0-0.2,0.1-17.1-5.3-43.5l6.3-18.6C155.8,316.7,155.6,316.2,155.2,316.1z"/>
					</g>
				</g>
			</g>
			<g>
				
					<image style="overflow:visible;" width="130" height="96" xlink:href="84DDFB56AF741612.png"  transform="matrix(1 0 0 1 15.0931 290.0803)">
				</image>
				<g>
					<g>
						<path class="st3" d="M128.4,373.4c-0.1-0.1-7.5-12.1-23.9-27.4c-8.6-8-20.6-17.9-36.4-27.8c0,0,0-0.1,0-0.1l-2.4-11.6
							c-0.1-0.2-0.3-0.4-0.6-0.4c-0.3,0-0.5,0.3-0.4,0.5l2.2,10.9c-11.8-7.3-25.6-14.5-41.5-20.8c-0.3-0.1-0.6,0-0.7,0.2
							c-0.1,0.2,0,0.5,0.3,0.6c9.4,3.7,18.1,7.8,26,12l-9.5,1.7c-0.3,0.1-0.5,0.3-0.4,0.5c0.1,0.2,0.3,0.4,0.6,0.4l10.6-1.9
							c0,0,0,0,0,0c16.6,8.8,29.9,18.2,40.2,26.7l-13.4,3.3c-0.3,0.1-0.4,0.3-0.4,0.6c0.1,0.2,0.4,0.4,0.6,0.3l13.7-3.4
							c0,0,0.1,0,0.1,0c0.1,0,0.1-0.1,0.1-0.1c3.9,3.2,7.3,6.3,10.3,9.1c16.3,15.3,23.7,27.1,23.8,27.2c0.1,0.2,0.5,0.3,0.7,0.2
							c0,0,0,0,0,0C128.4,373.9,128.5,373.6,128.4,373.4z"/>
					</g>
				</g>
			</g>
			<g>
				<g>
					<circle class="st4" cx="526.2" cy="90.9" r="2.9"/>
				</g>
				<g>
					
						<ellipse transform="matrix(0.1602 -0.9871 0.9871 0.1602 363.8542 609.5444)" class="st4" cx="540.1" cy="90.9" rx="2.9" ry="2.9"/>
				</g>
				<g>
					
						<ellipse transform="matrix(0.2298 -0.9732 0.9732 0.2298 338.2878 609.3297)" class="st4" cx="554.1" cy="90.9" rx="2.9" ry="2.9"/>
				</g>
				<g>
					
						<ellipse transform="matrix(0.2298 -0.9732 0.9732 0.2298 307.7233 589.3242)" class="st4" cx="526.2" cy="100.2" rx="2.9" ry="2.9"/>
				</g>
				<g>
					
						<ellipse transform="matrix(0.9239 -0.3827 0.3827 0.9239 2.7523 214.3355)" class="st4" cx="540.1" cy="100.2" rx="2.9" ry="2.9"/>
				</g>
				<g>
					<circle class="st4" cx="554.1" cy="100.2" r="2.9"/>
				</g>
			</g>
			<g>
				<g>
					
						<ellipse transform="matrix(0.2298 -0.9732 0.9732 0.2298 175.2412 327.1094)" class="st4" cx="294.3" cy="52.8" rx="2.9" ry="2.9"/>
				</g>
				<g>
					
						<ellipse transform="matrix(0.9239 -0.3827 0.3827 0.9239 3.2421 121.9813)" class="st4" cx="308.2" cy="52.8" rx="2.9" ry="2.9"/>
				</g>
				<g>
					<circle class="st4" cx="322.2" cy="52.8" r="2.9"/>
				</g>
				<g>
					
						<ellipse transform="matrix(0.2298 -0.9732 0.9732 0.2298 166.1833 334.278)" class="st4" cx="294.3" cy="62.1" rx="2.9" ry="2.9"/>
				</g>
				<g>
					
						<ellipse transform="matrix(0.9239 -0.3827 0.3827 0.9239 -0.3195 122.6898)" class="st4" cx="308.2" cy="62.1" rx="2.9" ry="2.9"/>
				</g>
				<g>
					<circle class="st4" cx="322.2" cy="62.1" r="2.9"/>
				</g>
			</g>
			<g>
				
					<image style="overflow:visible;" width="57" height="69" xlink:href="84DDFB56AF741613.png"  transform="matrix(1 0 0 1 487.0931 317.0803)">
				</image>
				<g>
					<g>
						<path class="st3" d="M535.5,378.9c0-0.1-2-7.7-8.2-18.6c-3.2-5.7-8-13-14.8-20.8c0,0,0-0.1,0-0.1l0.7-6.6
							c0-0.1-0.1-0.3-0.3-0.3c-0.2,0-0.3,0.1-0.3,0.2l-0.6,6.2c-5.1-5.8-11.2-11.9-18.7-18c-0.1-0.1-0.3-0.1-0.4,0
							c-0.1,0.1-0.1,0.3,0,0.4c4.4,3.5,8.3,7.1,11.9,10.7l-5.4-0.7c-0.2,0-0.3,0.1-0.3,0.2c0,0.1,0.1,0.3,0.3,0.3l6,0.8c0,0,0,0,0,0
							c7.4,7.5,12.9,14.7,17,20.9l-7.7-0.5c-0.2,0-0.3,0.1-0.3,0.2c0,0.1,0.1,0.3,0.3,0.3l7.9,0.5c0,0,0,0,0.1,0c0,0,0.1,0,0.1,0
							c1.5,2.3,2.9,4.5,4,6.5c6.1,10.8,8.1,18.4,8.1,18.5c0,0.1,0.2,0.2,0.3,0.2c0,0,0,0,0,0C535.5,379.2,535.6,379,535.5,378.9z"/>
					</g>
				</g>
			</g>
			<g>
				<g>
					<g>
						<path class="st2" d="M168,57.7h-42.7c-8.2,0-14.8,6.6-14.8,14.8v10c0,8.2,6.6,14.8,14.8,14.8h17.2l15.3,13.4l1.9-13.4h8.3
							c8.2,0,14.8-6.6,14.8-14.8v-10C182.8,64.4,176.2,57.7,168,57.7z"/>
					</g>
				</g>
				<g>
					<path class="st5" d="M162.5,56.8h-42.7c-8.2,0-14.8,6.6-14.8,14.8v10c0,8.2,6.6,14.8,14.8,14.8H137l15.3,13.4l1.9-13.4h8.3
						c8.2,0,14.8-6.6,14.8-14.8v-10C177.3,63.5,170.7,56.8,162.5,56.8z"/>
				</g>
				<g>
					<path class="st6" d="M127.2,75.5c0,3.2-2.6,5.8-5.8,5.8c-1.6,0-3-0.6-4-1.6c-1.1-1.1-1.8-2.6-1.8-4.2c0-3.2,2.6-5.8,5.8-5.8
						C124.6,69.6,127.2,72.3,127.2,75.5z"/>
				</g>
				<g>
					<g>
						<g>
							<path class="st2" d="M119.3,83.6c-1.6,0-3.1-0.6-4.2-1.7c-1.2-1.2-1.9-2.7-1.9-4.4c0-0.2,0.1-0.3,0.3-0.3s0.3,0.1,0.3,0.3
								c0,1.5,0.6,3,1.7,4c1,1,2.4,1.5,3.8,1.5c0.2,0,0.3,0.1,0.3,0.3S119.5,83.6,119.3,83.6z"/>
						</g>
					</g>
				</g>
				<g>
					<path class="st6" d="M147,75.5c0,3.2-2.6,5.8-5.8,5.8c-1.6,0-3-0.6-4-1.6c-1.1-1.1-1.8-2.6-1.8-4.2c0-3.2,2.6-5.8,5.8-5.8
						S147,72.3,147,75.5z"/>
				</g>
				<g>
					<g>
						<g>
							<path class="st2" d="M139.1,83.6c-1.6,0-3.1-0.6-4.2-1.7c-1.2-1.2-1.9-2.7-1.9-4.4c0-0.2,0.1-0.3,0.3-0.3s0.3,0.1,0.3,0.3
								c0,1.5,0.6,3,1.7,4c1,1,2.4,1.5,3.8,1.5c0.2,0,0.3,0.1,0.3,0.3S139.3,83.6,139.1,83.6z"/>
						</g>
					</g>
				</g>
				<g>
					<path class="st6" d="M168,75.5c0,3.2-2.6,5.8-5.8,5.8c-1.6,0-3-0.6-4-1.6c-1.1-1.1-1.8-2.6-1.8-4.2c0-3.2,2.6-5.8,5.8-5.8
						C165.4,69.6,168,72.3,168,75.5z"/>
				</g>
				<g>
					<g>
						<g>
							<path class="st2" d="M160.1,83.6c-1.6,0-3.1-0.6-4.2-1.7c-1.2-1.2-1.9-2.7-1.9-4.4c0-0.2,0.1-0.3,0.3-0.3s0.3,0.1,0.3,0.3
								c0,1.5,0.6,3,1.7,4c1,1,2.4,1.5,3.8,1.5c0.2,0,0.3,0.1,0.3,0.3S160.3,83.6,160.1,83.6z"/>
						</g>
					</g>
				</g>
			</g>
			<g>
				<g>
					<g>
						<path class="st2" d="M554.1,259.8H355.4c-5.9,0-10.7-4.8-10.7-10.7V130.7c0-5.9,4.8-10.7,10.7-10.7h198.6
							c5.9,0,10.7,4.8,10.7,10.7v118.3C564.7,255,560,259.8,554.1,259.8z"/>
					</g>
				</g>
				<g>
					<path class="st7" d="M545.8,251.4H347.2c-5.9,0-10.7-4.8-10.7-10.7V122.4c0-5.9,4.8-10.7,10.7-10.7h198.6
						c5.9,0,10.7,4.8,10.7,10.7v118.3C556.5,246.6,551.7,251.4,545.8,251.4z"/>
				</g>
				<g>
					<path class="st8" d="M336.5,138.3h220V121c0-5.1-4.1-9.3-9.3-9.3H345.8c-5.1,0-9.3,4.1-9.3,9.3V138.3z"/>
				</g>
				<g>
					<path class="st8" d="M429,234.7h-71.9c-1.4,0-2.6-1.2-2.6-2.6V155c0-1.4,1.2-2.6,2.6-2.6H429c1.4,0,2.6,1.2,2.6,2.6v77.2
						C431.6,233.6,430.5,234.7,429,234.7z"/>
				</g>
				<g>
					<path class="st6" d="M472.6,167.2h-23.2c-1.9,0-3.4-1.5-3.4-3.4v-6.2c0-1.9,1.5-3.4,3.4-3.4h23.2c1.9,0,3.4,1.5,3.4,3.4v6.2
						C476.1,165.7,474.5,167.2,472.6,167.2z"/>
				</g>
				<g>
					<path class="st6" d="M539.5,167.2h-50.1c-1.9,0-3.4-1.5-3.4-3.4v-6.2c0-1.9,1.5-3.4,3.4-3.4h50.1c1.9,0,3.4,1.5,3.4,3.4v6.2
						C542.9,165.7,541.4,167.2,539.5,167.2z"/>
				</g>
				<g>
					<path class="st6" d="M539.5,193.2h-88.1c-1.9,0-3.4-1.5-3.4-3.4v-6.2c0-1.9,1.5-3.4,3.4-3.4h88.1c1.9,0,3.4,1.5,3.4,3.4v6.2
						C542.9,191.7,541.4,193.2,539.5,193.2z"/>
				</g>
				<g>
					<path class="st6" d="M539.5,219.2h-88.1c-1.9,0-3.4-1.5-3.4-3.4v-6.2c0-1.9,1.5-3.4,3.4-3.4h88.1c1.9,0,3.4,1.5,3.4,3.4v6.2
						C542.9,217.6,541.4,219.2,539.5,219.2z"/>
				</g>
				<g>
					<g>
						
							<rect x="351.1" y="121.3" transform="matrix(0.7071 -0.7071 0.7071 0.7071 13.3778 285.9738)" class="st6" width="1.7" height="11.1"/>
					</g>
					<g>
						
							<rect x="346.3" y="126" transform="matrix(0.7071 -0.7071 0.7071 0.7071 13.3778 285.9738)" class="st6" width="11.1" height="1.7"/>
					</g>
				</g>
				<g>
					<g>
						<polygon class="st6" points="539.2,131.3 534.4,127 539.1,122.1 540.5,123.5 537.2,126.9 540.5,129.8 						"/>
					</g>
				</g>
				<g>
					<g>
						<polygon class="st6" points="545.1,131.3 540.4,127 545.1,122.1 546.5,123.5 543.2,126.9 546.5,129.8 						"/>
					</g>
				</g>
			</g>
			<g>
				<g>
					<g>
						<g>
							<path class="st9" d="M493.1,243.8c-0.1,0.5,0,0.9,0.3,1.3l20.8,30.6c1.4,2,3.5,3.4,5.9,3.9l57.4,11.6c5,1,10-2.2,11-7.3
								l8.1-40.2c1-5-2.2-10-7.3-11l-57.4-11.6c-2.4-0.5-4.9,0-6.9,1.3l-31.1,20.2C493.5,243,493.2,243.4,493.1,243.8z M501.9,245.6
								c0.4-2,2.3-3.3,4.3-2.9c2,0.4,3.3,2.3,2.9,4.3c-0.4,2-2.3,3.3-4.3,2.9C502.8,249.5,501.5,247.6,501.9,245.6z"/>
						</g>
					</g>
					<g>
						<g>
							<path class="st10" d="M491.9,245.5c-0.3,0.5-0.4,1.1-0.3,1.7l10.8,45c0.7,3,2.5,5.5,5.1,7.2l62,39c5.4,3.4,12.6,1.8,16.1-3.7
								l27.3-43.4c3.4-5.4,1.8-12.6-3.7-16.1l-62-39c-2.6-1.6-5.7-2.2-8.7-1.5l-45.3,9.8C492.7,244.6,492.2,245,491.9,245.5z
								 M501.4,251.4c1.4-2.2,4.2-2.8,6.4-1.4c2.2,1.4,2.8,4.2,1.4,6.4c-1.4,2.2-4.2,2.8-6.4,1.4
								C500.7,256.4,500.1,253.6,501.4,251.4z"/>
						</g>
					</g>
					<g>
						<g>
							<path class="st11" d="M504.8,253.9c0.6-0.2,1-0.9,0.9-1.5c-0.1-0.7-0.9-1.2-1.6-1.1c-21.6,4.3-35.8-1.4-39.8-8.6
								c-1.4-2.6-1.3-5.1,0.3-6.9c3.5-3.7,14.1-5,32.7,3.7c0.7,0.3,1.5,0,1.8-0.6c0.3-0.7,0-1.5-0.7-1.8
								c-19.9-9.3-31.5-7.7-35.8-3.1c-2.5,2.7-2.7,6.4-0.7,10c4.6,8.3,19.6,14.6,42.7,9.9C504.7,253.9,504.8,253.9,504.8,253.9z"/>
						</g>
					</g>
				</g>
				<g>
					<g>
						<g>
							<g>
								<path class="st6" d="M528.8,290.6l2.4-3.9c-2.2-1.4-4.1-3.5-4.8-5.3l2.5-2c0.8,1.8,2.4,3.7,4.5,5.1c2.7,1.7,5.5,1.2,6.9-0.9
									c1.3-2.1,0.6-4.3-1.5-7.2c-3-4-4.3-7.2-2.2-10.6c2-3.2,5.7-4.2,9.6-2.6l2.4-3.9l2.4,1.5l-2.3,3.7c2.3,1.5,3.5,3.1,4.2,4.4
									l-2.5,1.9c-0.5-1-1.6-2.8-4-4.3c-3-1.8-5.2-0.7-6.1,0.8c-1.2,2-0.4,3.9,2.1,7.3c3,4.1,3.7,7.3,1.6,10.7
									c-1.9,3-5.7,4.6-10.1,2.8l-2.5,4L528.8,290.6z"/>
							</g>
						</g>
					</g>
					<g>
						<g>
							<g>
								<path class="st6" d="M567.1,314.1l2.4-3.9c-2.2-1.4-4.1-3.5-4.8-5.3l2.5-2c0.8,1.8,2.4,3.7,4.5,5.1c2.7,1.7,5.5,1.2,6.9-0.9
									c1.3-2.1,0.6-4.3-1.5-7.2c-3-4-4.3-7.2-2.2-10.6c2-3.2,5.7-4.2,9.6-2.6l2.4-3.9l2.4,1.5l-2.3,3.7c2.3,1.5,3.5,3.1,4.2,4.4
									l-2.5,1.9c-0.5-1-1.6-2.8-4-4.3c-3-1.8-5.2-0.7-6.1,0.8c-1.2,2-0.4,3.9,2.1,7.3c3,4.1,3.7,7.3,1.6,10.7
									c-1.9,3-5.7,4.6-10.1,2.8l-2.5,4L567.1,314.1z"/>
							</g>
						</g>
					</g>
					<g>
						<g>
							<g>
								<path class="st6" d="M547.9,302.4l2.4-3.9c-2.2-1.4-4.1-3.5-4.8-5.3l2.5-2c0.8,1.8,2.4,3.7,4.5,5.1c2.7,1.7,5.5,1.2,6.9-0.9
									c1.3-2.1,0.6-4.3-1.5-7.2c-3-4-4.3-7.2-2.2-10.6c2-3.2,5.7-4.2,9.6-2.6l2.4-3.9l2.4,1.5l-2.3,3.7c2.3,1.5,3.5,3.1,4.2,4.4
									l-2.5,1.9c-0.5-1-1.6-2.8-4-4.3c-3-1.8-5.2-0.7-6.1,0.8c-1.2,2-0.4,3.9,2.1,7.3c3,4.1,3.7,7.3,1.6,10.7
									c-1.9,3-5.7,4.6-10.1,2.8l-2.5,4L547.9,302.4z"/>
							</g>
						</g>
					</g>
				</g>
			</g>
			<g>
				<g>
					<g>
						<g>
							<path class="st2" d="M439.9,129.1h-85.3c-3.6,0-6.5-2.9-6.5-6.5V45c0-3.6,2.9-6.5,6.5-6.5h85.3c3.6,0,6.5,2.9,6.5,6.5v77.7
								C446.4,126.2,443.5,129.1,439.9,129.1z"/>
						</g>
					</g>
					<g>
						<path class="st10" d="M432.3,125.3H355c-5.8,0-10.5-4.7-10.5-10.5V45.1c0-5.8,4.7-10.5,10.5-10.5h77.4
							c5.8,0,10.5,4.7,10.5,10.5v69.7C442.8,120.6,438.1,125.3,432.3,125.3z"/>
					</g>
					<g>
						<path class="st8" d="M432.8,34.6h-78.4c-5.5,0-10,4.5-10,10v7.9h98.4v-7.9C442.8,39,438.4,34.6,432.8,34.6z"/>
					</g>
					<g>
						<path class="st6" d="M364.8,44.5h-13.5c-0.3,0-0.6-0.3-0.6-0.6v-0.7c0-0.3,0.3-0.6,0.6-0.6h13.5c0.3,0,0.6,0.3,0.6,0.6v0.7
							C365.4,44.2,365.1,44.5,364.8,44.5z"/>
					</g>
					<g>
						<path class="st6" d="M364.8,49.3h-13.5c-0.3,0-0.6-0.3-0.6-0.6V48c0-0.3,0.3-0.6,0.6-0.6h13.5c0.3,0,0.6,0.3,0.6,0.6v0.7
							C365.4,49,365.1,49.3,364.8,49.3z"/>
					</g>
					<g>
						<path class="st6" d="M364.8,39.7h-13.5c-0.3,0-0.6-0.3-0.6-0.6v-0.7c0-0.3,0.3-0.6,0.6-0.6h13.5c0.3,0,0.6,0.3,0.6,0.6v0.7
							C365.4,39.4,365.1,39.7,364.8,39.7z"/>
					</g>
				</g>
				<g>
					<g>
						<path class="st6" d="M388.3,73.2c0,8.1-4.1,14.9-12.9,14.9c-8.3,0-12.5-6.4-12.5-14.8c0-7.9,4.2-14.9,12.6-14.9
							C383.6,58.4,388.3,64.4,388.3,73.2z M366.9,73.2c0,6.4,3,11.2,8.8,11.2c5.5,0,8.7-4.5,8.7-11.2c0-6.6-3.2-11-8.9-11
							C370.3,62.1,366.9,66.2,366.9,73.2z M373.8,111.6L409,59.4h4.4l-35.2,52.2H373.8z M424.2,97.7c0,8-4,14.9-12.9,14.9
							c-8.4,0-12.5-6.8-12.5-14.8c0-7.9,4.1-14.9,12.6-14.9C419.7,82.9,424.2,88.9,424.2,97.7z M402.8,97.7c0,6.4,3,11.2,8.8,11.2
							c5.5,0,8.7-4.5,8.7-11.2c0-6.5-3.2-11-8.9-11C406.4,86.7,402.8,91,402.8,97.7z"/>
					</g>
				</g>
			</g>
			<g>
				<g>
					<path class="st6" d="M420.3,181.3h-13l-2.9-14.7c-0.1-0.4-0.5-0.7-0.9-0.6c-0.4,0.1-0.7,0.5-0.6,0.9l2.8,14.4h-24l7.8-10.3
						c0.3-0.3,0.2-0.8-0.2-1.1c-0.3-0.3-0.8-0.2-1.1,0.2l-8.5,11.2h-14.7c-2.3,0-4.2,1.9-4.2,4.2v7.4c0,2.3,1.9,4.2,4.2,4.2h2.6
						v17.5c0,2.3,1.9,4.2,4.2,4.2h12.8h16h12.8c2.3,0,4.2-1.9,4.2-4.2V197h2.6c2.3,0,4.2-1.9,4.2-4.2v-7.4
						C424.4,183.2,422.5,181.3,420.3,181.3z M403.3,204.3h-21.2V197h21.2V204.3z M380.5,204.3h-11.2V197h11.2V204.3z M369.3,214.5
						v-8.6h11.2v8.6c0,1,0.4,1.9,0.9,2.6h-9.6C370.5,217.1,369.3,215.9,369.3,214.5z M384.7,217.1c-1.4,0-2.6-1.2-2.6-2.6v-8.6h21.2
						v8.6c0,1.4-1.2,2.6-2.6,2.6H384.7z M413.5,217.1h-9.6c0.6-0.7,0.9-1.6,0.9-2.6v-8.6H416v8.6C416,215.9,414.9,217.1,413.5,217.1
						z M416,204.3h-11.2V197H416V204.3z M422.8,192.8c0,1.4-1.2,2.6-2.6,2.6h-2.6h-12.8h-24.3h-12.8h-2.6c-1.4,0-2.6-1.2-2.6-2.6
						v-7.4c0-1.4,1.2-2.6,2.6-2.6h13.5l-1.2,1.6c-0.1,0-0.3,0-0.4,0c-1.1,0-2.1,0.9-2.1,2.1s0.9,2.1,2.1,2.1s2.1-0.9,2.1-2.1
						c0-0.4-0.1-0.8-0.3-1.1l1.9-2.4H406l0.4,1.9c-0.6,0.4-0.9,1-0.9,1.7c0,1.1,0.9,2.1,2.1,2.1c1.1,0,2.1-0.9,2.1-2.1
						c0-1-0.7-1.8-1.7-2l-0.3-1.6h12.7c1.4,0,2.6,1.2,2.6,2.6V192.8z M378.3,186.5c0,0.7-0.6,1.3-1.3,1.3c-0.7,0-1.3-0.6-1.3-1.3
						c0-0.7,0.5-1.2,1.2-1.3l-0.5,0.7c-0.3,0.3-0.2,0.8,0.2,1.1c0.1,0.1,0.3,0.2,0.5,0.2c0.2,0,0.5-0.1,0.6-0.3l0.6-0.8
						C378.2,186.2,378.3,186.3,378.3,186.5z M406.7,186.4c0.1,0.4,0.4,0.6,0.8,0.6c0.1,0,0.1,0,0.2,0c0.4-0.1,0.7-0.5,0.6-0.9
						l-0.1-0.7c0.4,0.2,0.7,0.6,0.7,1.2c0,0.7-0.6,1.3-1.3,1.3c-0.7,0-1.3-0.6-1.3-1.3c0-0.3,0.1-0.6,0.3-0.9L406.7,186.4z"/>
				</g>
			</g>
			<g>
				<g>
					<g>
						<path class="st12" d="M185.5,150.4c-0.1,0-0.2,0-0.3,0c-0.1,0-0.3-0.1-0.3-0.2c-6.8-10.2-9.3-27.7-5.9-40.8
							c1.1-4.3,2.8-8,5-10.8c1.7-4.9,4-9.8,6.9-14.4c0.1-0.2,0.4-0.3,0.6-0.1c0.2,0.1,0.3,0.4,0.1,0.6c-2.4,4-4.5,8.1-6.1,12.2
							c1.4-1.4,2.9-2.5,4.5-3.4c0.2-0.1,0.5,0,0.6,0.2c0.1,0.2,0,0.5-0.2,0.6c-2.2,1.1-4.1,2.7-5.7,4.8c-4,11.4-4.7,23-1.8,32.3
							c2.4,7.8,7.3,13.4,14,16.3c0.2,0.1,0.3,0.2,0.3,0.4c0,0.2-0.1,0.3-0.3,0.4C190.3,150.3,186.4,150.4,185.5,150.4z M183.1,101.5
							c-1.4,2.3-2.5,5-3.3,8.1c-3.3,12.8-0.9,29.9,5.6,39.9c0.9,0,4.3-0.1,10.1-1.6c-6.4-3.1-11-8.8-13.4-16.3
							C179.4,122.9,179.8,112.2,183.1,101.5z"/>
					</g>
				</g>
				<g>
					<g>
						<path class="st12" d="M211,72.3c-0.1,0-0.2-0.1-0.3-0.2c-0.1-0.2-0.1-0.4,0.1-0.6c12.3-9.6,35.2-19.4,47.7-7.3
							c0.2,0.2,0.2,0.4,0,0.6c-0.2,0.2-0.4,0.2-0.6,0c-12.1-11.8-34.5-2-46.6,7.4C211.2,72.3,211.1,72.3,211,72.3z"/>
					</g>
				</g>
				<g>
					<g>
						<path class="st12" d="M264.6,101.9c-4.5,0-7.1-1.6-8.6-3.3c-3.1-3.6-3.1-9.7-0.1-16c0.1-0.2,0.4-0.3,0.6-0.2
							c0.2,0.1,0.3,0.3,0.2,0.6c-2.9,6-2.9,11.7-0.1,15c2.1,2.4,6.7,4.6,16.5,1.5c7.4-2.4,13.6-7.1,19.7-11.6
							c9.2-6.9,17.9-13.5,29.9-12c0.2,0,0.4,0.2,0.4,0.5c0,0.2-0.2,0.4-0.5,0.4c-11.7-1.4-20.2,5-29.3,11.9
							c-6.1,4.6-12.4,9.4-19.9,11.8C269.9,101.5,267,101.9,264.6,101.9z"/>
					</g>
				</g>
				<g>
					<path class="st12" d="M198.3,146.6c-25.5-17.9-22.5-74.4,11.1-74.4c23.5-15.3,50.9-10.1,49.9,3.3c-1,13.4-13.1,12.7-9.1,22.5
						c3.9,9.8,24.5,9.8,52.5-9.5c28.1-19.3,47.6-3.3,47.3,4.9c15,0.3,16,13.7,14.7,16c10.8,21.5-3.3,47.6-15,52.2
						c10.1,14-16.6,36.5-37.5,37.8c-20.9,1.3-60,2.3-64.9-2.9C242.3,191.3,198.3,146.6,198.3,146.6z"/>
				</g>
				<g>
					<polygon class="st13" points="267.1,176.4 278.9,196.5 248.5,199.8 247.9,174.6 251.1,171.7 					"/>
				</g>
				<g>
					<path class="st11" d="M170.1,266.7c-26.1,33.1-32.2,67.4-27.8,110.5h133.6c2.2-57-17.4-100.5-17.4-100.5l-29.1-24.8l-31.3,6.1
						L170.1,266.7z"/>
				</g>
				<g>
					<g>
						<path class="st14" d="M152.7,371.2C152.7,371.2,152.7,371.2,152.7,371.2c-0.5,0-0.9-0.4-0.8-0.9c0.1-1.6,0.2-3.5,0.3-5.9
							c0-0.5,0.4-0.8,0.9-0.8c0.5,0,0.8,0.4,0.8,0.9c-0.1,2.3-0.3,4.3-0.3,5.8C153.5,370.9,153.2,371.2,152.7,371.2z M153.5,359.6
							C153.5,359.6,153.4,359.6,153.5,359.6c-0.5,0-0.9-0.4-0.8-0.9c0.1-1.8,0.3-3.8,0.5-5.8c0-0.5,0.5-0.8,0.9-0.7
							c0.5,0,0.8,0.5,0.8,0.9c-0.2,2-0.4,4-0.5,5.8C154.3,359.2,153.9,359.6,153.5,359.6z M154.6,347.9
							C154.6,347.9,154.5,347.9,154.6,347.9c-0.6-0.1-0.9-0.5-0.8-0.9c0.2-1.9,0.4-3.8,0.7-5.8c0.1-0.5,0.5-0.8,0.9-0.7
							c0.5,0.1,0.8,0.5,0.7,0.9c-0.3,2-0.5,3.9-0.7,5.8C155.4,347.6,155,347.9,154.6,347.9z M156.1,336.3c0,0-0.1,0-0.1,0
							c-0.5-0.1-0.8-0.5-0.7-0.9c0.3-1.9,0.6-3.9,0.9-5.8c0.1-0.5,0.5-0.8,1-0.7c0.5,0.1,0.8,0.5,0.7,1c-0.3,1.9-0.6,3.8-0.9,5.8
							C156.9,336,156.5,336.3,156.1,336.3z M158.1,324.8c-0.1,0-0.1,0-0.2,0c-0.5-0.1-0.7-0.5-0.7-1c0.4-1.9,0.8-3.9,1.2-5.7
							c0.1-0.4,0.5-0.7,1-0.6c0.4,0.1,0.7,0.5,0.6,1c-0.4,1.8-0.8,3.8-1.2,5.7C158.8,324.5,158.5,324.8,158.1,324.8z M160.6,313.4
							c-0.1,0-0.1,0-0.2,0c-0.4-0.1-0.7-0.6-0.6-1c0.5-1.9,1-3.9,1.5-5.7c0.1-0.4,0.6-0.7,1-0.6c0.4,0.1,0.7,0.6,0.6,1
							c-0.5,1.8-1,3.7-1.5,5.6C161.3,313.1,161,313.4,160.6,313.4z M163.9,302.2c-0.1,0-0.2,0-0.3,0c-0.4-0.1-0.7-0.6-0.5-1.1
							c0.7-1.9,1.3-3.8,2-5.5c0.2-0.4,0.7-0.6,1.1-0.5c0.4,0.2,0.6,0.7,0.5,1.1c-0.7,1.7-1.4,3.5-2,5.4
							C164.6,302,164.3,302.2,163.9,302.2z M168.3,291.3c-0.1,0-0.2,0-0.4-0.1c-0.4-0.2-0.6-0.7-0.4-1.1c0.7-1.5,1.5-3,2.3-4.3
							c0.2-0.3,0.5-0.5,0.9-0.4l1,0.2c0.5,0.1,0.7,0.5,0.7,1c-0.1,0.5-0.5,0.7-1,0.7l-0.4-0.1c-0.7,1.2-1.3,2.4-1.9,3.7
							C168.9,291.2,168.6,291.3,168.3,291.3z M179.7,288.2c-0.8,0-1.6,0-2.4-0.1c-0.5,0-0.8-0.4-0.8-0.9c0-0.5,0.4-0.8,0.9-0.8
							c2.1,0.2,3.9,0.1,5.6-0.1c0.5-0.1,0.9,0.2,0.9,0.7c0.1,0.5-0.2,0.9-0.7,0.9C182.1,288.1,180.9,288.2,179.7,288.2z
							 M188.7,286.3c-0.3,0-0.6-0.2-0.8-0.5c-0.2-0.4,0-0.9,0.4-1.1c1.6-0.7,3.2-1.8,4.8-3c0.4-0.3,0.9-0.2,1.2,0.1
							c0.3,0.4,0.2,0.9-0.1,1.2c-1.7,1.3-3.4,2.4-5.1,3.2C188.9,286.3,188.8,286.3,188.7,286.3z M197.9,279.2
							c-0.2,0-0.4-0.1-0.6-0.2c-0.3-0.3-0.4-0.8-0.1-1.2c1.2-1.3,2.4-2.8,3.6-4.5c0.3-0.4,0.8-0.5,1.2-0.2c0.4,0.3,0.5,0.8,0.2,1.2
							c-1.2,1.7-2.5,3.2-3.7,4.6C198.3,279.1,198.1,279.2,197.9,279.2z"/>
					</g>
				</g>
				<g>
					<path class="st15" d="M275.8,377.2c2.2-57-17.4-100.5-17.4-100.5l-11.9-10.1l-6.8,8.3c-1.3,30.1-13.5,42.7-22.2,44.9
						c-2.4,17.7-8,41.6-11.9,57.4H275.8z"/>
				</g>
				<g>
					<path class="st16" d="M197.4,140.3c-42.6,20.6-45,65.2-45,65.2l6.1,0.2l22.4,38.7l-10.9,22.2c29.6,10.4,85.7,11.3,85.7,11.3
						l6.5-79.2c0,0,2.3-13.2-0.4-16.3c-2.8-3.1-4.6-6.1-4.6-6.1l9.8,0.1c-11.6-23.7-24.9-34.8-31.8-37.1c-8.5-1.6-15.5,0-15.5,0
						L197.4,140.3z"/>
				</g>
				<g>
					<path class="st17" d="M322.1,274.8h-85.7c-5.2,0-8.7-5.2-6.8-10l27.5-69.8c1.1-2.8,3.8-4.6,6.8-4.6h89.8c3.2,0,5.4,3.2,4.2,6.2
						l-29,73.7C327.8,273,325.1,274.8,322.1,274.8z"/>
				</g>
				<g>
					<path class="st15" d="M325.4,274.8h-85.7c-5.2,0-8.7-5.2-6.8-10l27.5-69.8c1.1-2.8,3.8-4.6,6.8-4.6H357c3.2,0,5.4,3.2,4.2,6.2
						l-29,73.7C331.1,273,328.4,274.8,325.4,274.8z"/>
				</g>
				<g>
					<path class="st13" d="M197.4,140.3c0-0.5,6.9-2,9.4-6.5c2.5-4.4,3.7-15.7,2.7-30.7c5.9,1.6,7.9-3.1,8-11.1s3.9-20.8,19.5-18.8
						c5.9,7.2,9,11.7,8.5,21c-0.5,9.3,0.6,15.9-0.6,20.4c-1.1,4.4-5.9,12.6-16.9,12.4c-1,5.7-1.7,11.4,7.2,12.3
						C226.4,153.9,197.4,140.3,197.4,140.3z"/>
				</g>
				
					<image style="overflow:visible;" width="7" height="6" xlink:href="84DDFB56AF74161E.png"  transform="matrix(1 0 0 1 235.0931 104.0803)">
				</image>
				<g>
					<g>
						<path class="st12" d="M237.3,109.3c-0.1,0-0.2,0-0.2-0.1c-0.1-0.1-0.1-0.3,0-0.4c1.6-1.3,3.3-2.8,3.7-3.3
							c-0.3-0.1-0.9-0.1-1.3-0.1c-1.1,0-2.4,0-3.1-0.5c-1.6-0.9-0.1-7.8,1.4-11.1c0.1-0.2,0.2-0.2,0.4-0.2c0.2,0.1,0.2,0.2,0.2,0.4
							c-1.7,3.8-2.6,9.7-1.6,10.3c0.6,0.3,1.8,0.4,2.8,0.4c1.2,0,2,0,2,0.6c0,0.6-2.2,2.4-4,3.9
							C237.5,109.2,237.4,109.3,237.3,109.3z"/>
					</g>
				</g>
				<g>
					<path class="st12" d="M228.1,99c0,1.8-0.8,3.3-1.9,3.3c-1,0-1.9-1.5-1.9-3.3s0.8-3.3,1.9-3.3C227.2,95.7,228.1,97.2,228.1,99z"
						/>
				</g>
				<g>
					<g>
						<path class="st18" d="M225.8,103.4c-0.6,0-2-0.3-2.5-2.6c0-0.1,0-0.2,0.1-0.2c0.1,0,0.2,0,0.2,0.1c0.4,2.3,1.8,2.4,2.3,2.3
							c0.1,0,0.2,0.1,0.2,0.1c0,0.1-0.1,0.2-0.1,0.2C225.9,103.4,225.8,103.4,225.8,103.4z"/>
					</g>
				</g>
				<g>
					<ellipse class="st12" cx="240.2" cy="99.4" rx="1.9" ry="3.3"/>
				</g>
				<g>
					<g>
						<path class="st18" d="M239.8,103.8c-0.6,0-2-0.3-2.5-2.6c0-0.1,0-0.2,0.1-0.2c0.1,0,0.2,0,0.2,0.1c0.4,2.3,1.8,2.4,2.3,2.3
							c0.1,0,0.2,0.1,0.2,0.1c0,0.1-0.1,0.2-0.1,0.2C239.9,103.8,239.9,103.8,239.8,103.8z"/>
					</g>
				</g>
				<g>
					<path class="st19" d="M227.2,113.7c7.1-2.2,13.9-2.1,13.3-0.3C241,117.9,233.4,122.6,227.2,113.7z"/>
				</g>
				<g>
					<g>
						<path class="st18" d="M234.3,122.6c0.7,0,1.7-0.1,2.6-0.5c0.1,0,0.2-0.2,0.1-0.3c0-0.1-0.2-0.2-0.3-0.1
							c-2,0.7-3.9,0.3-3.9,0.3c-0.1,0-0.3,0-0.3,0.2c0,0.1,0,0.3,0.2,0.3C232.8,122.5,233.4,122.6,234.3,122.6z"/>
					</g>
				</g>
				<g>
					<path class="st12" d="M237.1,73.2c-0.9,13-19,14.9-22.3,14.2C211.5,86.7,220.1,67.6,237.1,73.2z"/>
				</g>
				<g>
					<path class="st20" d="M221.3,109c0.3,2.1,2.3,3.5,4.4,3.2c2.2-0.3,3.7-2.2,3.4-4.3c-0.3-2.1-2.3-3.5-4.4-3.2
						C222.5,105,221,106.9,221.3,109z"/>
				</g>
				<g>
					<g>
						
							<ellipse transform="matrix(0.9674 -0.2534 0.2534 0.9674 -20.1287 55.9609)" class="st21" cx="207.1" cy="106.1" rx="4.4" ry="4.4"/>
					</g>
					<g>
						<g>
							<path class="st18" d="M207.7,103.1c-0.9-0.2-1.9,0.1-2.6,0.7c-0.1,0.1-0.1,0.2,0,0.3c0.1,0.1,0.2,0.1,0.3,0
								c0.6-0.6,1.5-0.8,2.3-0.6c0.4,0.1,0.8,0.2,1.1,0.5c0,0-0.1,0-0.1,0c-1-0.2-2,0.5-2.2,1.5c-0.2,1,0.5,2,1.5,2.2
								c0.7,0.1,1.4-0.2,1.8-0.7c-0.2,0.8-0.7,1.5-1.5,1.8c-0.1,0-0.1,0.2-0.1,0.2c0,0.1,0.1,0.1,0.1,0.1c0,0,0.1,0,0.1,0
								c0.9-0.4,1.6-1.3,1.7-2.3C210.5,105,209.4,103.4,207.7,103.1z M208,107.2c-0.8-0.1-1.3-0.9-1.2-1.7c0.1-0.8,0.9-1.3,1.7-1.2
								c0.8,0.1,1.3,0.9,1.2,1.7C209.6,106.8,208.8,107.3,208,107.2z"/>
						</g>
					</g>
				</g>
				<g>
					<path class="st20" d="M227.2,126.6c-11.7-4-15.1-16.1-15.3-15.9C213.8,130.4,225.3,137,227.2,126.6z"/>
				</g>
				<g>
					<path class="st12" d="M228.4,92.7c-2.2,0-4,0.4-5.5,1.1c-0.6,0.3-1.2-0.4-0.8-1c3-4.1,7.3-3.9,7-0.7
						C229,92.5,228.7,92.8,228.4,92.7z"/>
				</g>
				<g>
					<path class="st12" d="M240.1,92.7c1.7,0,3.2,0.4,4.4,1c0.5,0.3,1-0.3,0.6-0.8c-2.5-3.4-5.9-3.4-5.5-0.8
						C239.6,92.5,239.9,92.7,240.1,92.7z"/>
				</g>
				<g>
					<g>
						<path class="st12" d="M235.2,115.4c-3.4,0-7.2-0.8-8.9-1.8c-0.1-0.1-0.2-0.3-0.1-0.4c0.1-0.1,0.3-0.2,0.4-0.1
							c2.3,1.4,8.7,2.2,12.3,1.3c1-0.3,1.8-0.7,2.1-1.2c0.1-0.1,0.3-0.2,0.4-0.1c0.1,0.1,0.2,0.3,0.1,0.4c-0.4,0.7-1.2,1.1-2.4,1.5
							C238,115.3,236.6,115.4,235.2,115.4z"/>
					</g>
				</g>
				<g>
					<path class="st13" d="M158.6,205.8h33.2c15.3,45.1,44,76.4,86.9,49.7c3.4-9.9,14.8-17.5,16.9-20.4s4.7,0.7,0.9,7
						c-3.8,6.2-6.7,8.4-1.4,8.1c5.3-0.3,31.9-22.9,30.7-9.1c3.8,4.4-0.9,10.6-0.9,10.6c1.3,2-5.8,10.8-5.8,10.8
						c3.8-0.7,2.6,1.7-4.3,6.2c-6.8,4.5-19,7.2-24.3,7c-11.5,5.1-50.7,32-95.5,2.8C158.3,254.6,158.6,205.8,158.6,205.8z"/>
				</g>
				
					<image style="overflow:visible;" width="23" height="32" xlink:href="84DDFB56AF74161F.png"  transform="matrix(1 0 0 1 305.0931 236.0803)">
				</image>
				<g>
					<path class="st20" d="M215.5,272.5c-8.3-6.2-18.8-6.3-23.4-0.1c-0.7,0.9-1.2,1.9-1.5,2.9c1.4,1.1,2.8,2.1,4.4,3.1
						c10.1,6.5,19.8,10.3,29.1,12C225.1,284.6,221.9,277.4,215.5,272.5z"/>
				</g>
				<g>
					<g>
						<path class="st18" d="M305.6,256.1c-0.1,0-0.3-0.1-0.4-0.2c-0.1-0.2,0-0.5,0.2-0.6c2-1,13.9-8.1,18.9-14.2
							c0.1-0.2,0.4-0.2,0.6-0.1c0.2,0.1,0.2,0.4,0.1,0.6c-5,6.2-17.1,13.4-19.1,14.5C305.8,256.1,305.7,256.1,305.6,256.1z"/>
					</g>
				</g>
				<g>
					<g>
						<path class="st18" d="M310.2,263.5c-0.1,0-0.3-0.1-0.4-0.2c-0.1-0.2-0.1-0.5,0.1-0.6c0.1-0.1,8.6-5.3,13.5-11.6
							c0.1-0.2,0.4-0.2,0.6-0.1c0.2,0.1,0.2,0.4,0.1,0.6c-5,6.5-13.7,11.8-13.7,11.9C310.3,263.5,310.3,263.5,310.2,263.5z"/>
					</g>
				</g>
				<g>
					<g>
						<path class="st18" d="M311.8,267.3c-0.1,0-0.3-0.1-0.4-0.2c-0.1-0.2,0-0.5,0.2-0.6c0,0,4.3-2.4,5.9-3.9c0.2-0.2,0.4-0.2,0.6,0
							c0.2,0.2,0.2,0.4,0,0.6c-1.7,1.7-5.9,4-6,4.1C312,267.3,311.9,267.3,311.8,267.3z"/>
					</g>
				</g>
				<g>
					<path class="st17" d="M305.9,232.1h-14.5v-2.6c0-3.3,2.6-5.9,5.9-5.9h14.5v2.6C311.8,229.4,309.2,232.1,305.9,232.1z"/>
				</g>
				<g>
					<g>
						<path class="st22" d="M254.9,174c-0.1,0-0.3-0.1-0.4-0.2c-5.8-9.9-11.9-17.5-11.9-17.6c-0.1-0.2-0.1-0.4,0.1-0.6
							c0.2-0.1,0.4-0.1,0.6,0.1c0.1,0.1,6.2,7.8,12,17.7c0.1,0.2,0.1,0.5-0.1,0.6C255.1,174,255,174,254.9,174z"/>
					</g>
				</g>
				<g>
					<g>
						<path class="st22" d="M198.6,191.6c-0.2,0-0.4-0.2-0.4-0.4c0-24.2-7.5-33.5-13.7-37.1c-0.2-0.1-0.3-0.4-0.2-0.6
							c0.1-0.2,0.4-0.3,0.6-0.2c6.4,3.6,14.1,13.1,14.1,37.8C199,191.4,198.8,191.6,198.6,191.6z"/>
					</g>
				</g>
				<g>
					<g>
						<path class="st13" d="M353.5,229.9c10.6-3.6,20.8-24.1,7.8-33.1c-0.8,0.6-3.2,5.9-3.2,5.9s-22.2-4.6-25.2,1.7
							c-4.4,2.5-1.9,7.5-1.9,7.5c-1.6,3.8,7.1,9.1,7.1,9.1s-5.4-2.9-6,0C331.4,223.6,346.2,230.6,353.5,229.9z"/>
					</g>
					
						<image style="overflow:visible;" width="19" height="28" xlink:href="84DDFB56AF741614.png"  transform="matrix(1 0 0 1 330.0931 200.0803)">
					</image>
					<g>
						<g>
							<path class="st18" d="M339.1,208.4c4.9,1.5,12.4,3.3,18.2,2.2c0.1,0,0.2-0.2,0.2-0.3c0-0.1-0.2-0.2-0.3-0.2
								c-9.1,1.8-22.7-3.8-22.8-3.8c-0.1-0.1-0.3,0-0.3,0.1c-0.1,0.1,0,0.3,0.1,0.3C334.3,206.7,336.2,207.5,339.1,208.4z"/>
						</g>
					</g>
					<g>
						<g>
							<path class="st18" d="M347.9,220.1C348,220.1,348,220.1,347.9,220.1c0.2,0.1,0.3,0,0.4-0.1c0-0.1,0-0.3-0.2-0.3
								c-0.1,0-8.4-2.5-16.1-7.7c-0.1-0.1-0.3,0-0.3,0.1c-0.1,0.1,0,0.3,0.1,0.3C339.2,217.3,347.1,219.9,347.9,220.1z"/>
						</g>
					</g>
					<g>
						<g>
							<path class="st18" d="M343.2,223.4c0.4,0.1,0.7,0.2,0.7,0.2c0.1,0,0.3-0.1,0.3-0.2c0-0.1-0.1-0.3-0.2-0.3c0,0-2.4-0.5-5-2.1
								c-0.1-0.1-0.3,0-0.3,0.1c-0.1,0.1,0,0.3,0.1,0.3C340.6,222.5,342.3,223.1,343.2,223.4z"/>
						</g>
					</g>
				</g>
				<g>
					<g>
						<path class="st12" d="M218,90.3c-2.5,0-5.2-0.4-7.9-1.1c-0.2-0.1-0.4-0.3-0.3-0.5c0.1-0.2,0.3-0.4,0.5-0.3
							c8.6,2.3,16.5,0.8,21.1-4c2.9-3,3.9-6.8,2.7-10.5c-0.1-0.2,0.1-0.5,0.3-0.5c0.2-0.1,0.5,0.1,0.5,0.3c1.2,4,0.2,8.1-2.9,11.3
							C228.7,88.5,223.7,90.3,218,90.3z"/>
					</g>
				</g>
			</g>
			<g>
				<path class="st23" d="M606.1,393.9H79.5v-4.2c0-6.2,5.1-11.3,11.3-11.3h503.9c6.2,0,11.3,5.1,11.3,11.3V393.9z"/>
			</g>
			<g>
				<g>
					<g>
						<path class="st2" d="M265,366.7l27.8-15.4c-4.2-6-6.7-13.3-6.7-21.2v0c0-20.3,16.5-36.8,36.8-36.8h107.6
							c20.3,0,36.8,16.5,36.8,36.8v0c0,20.3-16.5,36.8-36.8,36.8H322.9c-1.5,0-2.9-0.1-4.3-0.3H265z"/>
					</g>
				</g>
				<g>
					<path class="st8" d="M261.2,361.4L289,346c-4.2-6-6.7-13.3-6.7-21.2v0c0-20.3,16.5-36.8,36.8-36.8h107.6
						c20.3,0,36.8,16.5,36.8,36.8v0c0,20.3-16.5,36.8-36.8,36.8H319.1c-1.5,0-2.9-0.1-4.3-0.3H261.2z"/>
				</g>
				<g>
					<path class="st6" d="M392.9,307.8h43.2c2,0,3.6-1.6,3.6-3.6v-2.3c0-2-1.6-3.6-3.6-3.6h-43.2c-2,0-3.6,1.6-3.6,3.6v2.3
						C389.3,306.2,390.9,307.8,392.9,307.8z"/>
				</g>
				<g>
					<path class="st6" d="M311.5,348.2h43.2c2,0,3.6-1.6,3.6-3.6v-2.3c0-2-1.6-3.6-3.6-3.6h-43.2c-2,0-3.6,1.6-3.6,3.6v2.3
						C307.9,346.6,309.5,348.2,311.5,348.2z"/>
				</g>
				<g>
					<path class="st6" d="M309.4,328.2h126.7c2,0,3.6-1.6,3.6-3.6v-2.3c0-2-1.6-3.6-3.6-3.6H309.4c-2,0-3.6,1.6-3.6,3.6v2.3
						C305.8,326.6,307.5,328.2,309.4,328.2z"/>
				</g>
			</g>
		</g>
	</g>
</g>
</svg>
