<?xml version="1.0" encoding="utf-8"?>
<!-- Generator: Adobe Illustrator 27.7.0, SVG Export Plug-In . SVG Version: 6.00 Build 0)  -->
<svg version="1.1" id="레이어_1" xmlns="http://www.w3.org/2000/svg" xmlns:xlink="http://www.w3.org/1999/xlink" x="0px"
	 y="0px" viewBox="0 0 509 472" style="enable-background:new 0 0 509 472;" xml:space="preserve">
<style type="text/css">
	.st0{fill:#A67D48;}
	.st1{fill:#B88A4D;}
	.st2{opacity:0.21;fill:#B88A4D;}
	.st3{fill:#E0B784;}
	.st4{opacity:7.000000e-02;fill:#8F775A;}
	.st5{fill:#454545;}
	.st6{fill:#FFFFFF;}
	.st7{fill:#B5B5B5;}
	.st8{opacity:0.43;fill:#876439;}
	.st9{opacity:0.11;}
</style>
<g>
	<g>
		<g>
			<rect x="52.4" y="206.1" class="st0" width="225.7" height="146.6"/>
			<rect x="247.2" y="206.1" class="st1" width="30.9" height="144.5"/>
			<polygon class="st2" points="267.4,206.1 259.3,206.1 259.3,236.9 261.7,234.7 262.3,236.9 264.1,234.6 264.8,236.9 266.6,234.6 
				267.4,236.9 			"/>
			<rect x="52.4" y="206.1" class="st3" width="194.8" height="144.5"/>
			<path class="st4" d="M247.2,206.1L247.2,206.1C236,297,175,350,90.4,344.1l-38.1,6.5h194.8V206.1z"/>
			<g>
				<path class="st5" d="M76.6,241.3v0.3c0,0.8,0.6,1.4,1.4,1.4c0.8,0,1.4-0.6,1.4-1.4v-9.1c0.6,0,1.2,0.1,1.8,0.2
					c0.1,0,0.2,0,0.3,0c0.5,0.1,1,0.2,1.4,0.3l0.1,0l0,0c1.2-0.4,2.5-0.4,3.7,0l0,0c0-3.9-3.4-6.3-7.3-6.5l-0.9,0
					c-1,0-2,0.2-2.9,0.6c-0.1,0-0.1,0-0.2,0.1c-2.5,1-4.3,3-4.3,5.7c0,0.1,0,0.1,0,0.2c1.2-0.4,2.5-0.4,3.7,0l0,0l0,0l0,0l0.1,0
					c0.2,0,0.3-0.1,0.5-0.1c0.2-0.1,0.5-0.1,0.7-0.2c0.5-0.1,1-0.2,1.4-0.2c0.1,0,0.2,0,0.3,0c0.2,0,0.4,0,0.5,0v9.1
					c0,0.3-0.2,0.5-0.5,0.5c-0.3,0-0.5-0.2-0.5-0.5v-0.3H76.6z"/>
				<g>
					<path class="st5" d="M96.5,237L96.5,237c-2.1,0-3.8-1.7-3.8-3.8v-6.4h7.7v6.4C100.4,235.2,98.7,237,96.5,237z"/>
					<rect x="96.1" y="236.5" class="st5" width="0.9" height="6.6"/>
					
						<rect x="96.1" y="239.3" transform="matrix(-1.836970e-16 1 -1 -1.836970e-16 339.1645 146.0818)" class="st5" width="0.9" height="6.6"/>
				</g>
				<g>
					<g>
						<rect x="107.9" y="227.3" class="st5" width="0.9" height="12.9"/>
						
							<rect x="107.2" y="226.5" transform="matrix(0.7071 0.7071 -0.7071 0.7071 192.7932 -9.2984)" class="st5" width="0.9" height="3"/>
						
							<rect x="108.7" y="226.5" transform="matrix(-0.7069 0.7073 -0.7073 -0.7069 347.6222 312.1064)" class="st5" width="0.9" height="3"/>
					</g>
					<g>
						<rect x="113.7" y="227.3" class="st5" width="0.9" height="12.9"/>
						
							<rect x="113" y="226.5" transform="matrix(0.707 0.7072 -0.7072 0.707 194.5169 -13.3955)" class="st5" width="0.9" height="3"/>
						
							<rect x="114.5" y="226.5" transform="matrix(-0.707 0.7072 -0.7072 -0.707 357.5199 308.0357)" class="st5" width="0.9" height="3"/>
					</g>
					
						<rect x="110.8" y="237.6" transform="matrix(-1.836970e-16 1 -1 -1.836970e-16 353.911 131.3354)" class="st5" width="0.9" height="10.1"/>
				</g>
			</g>
			<g>
				<rect x="191.7" y="219.6" class="st6" width="40.7" height="27.8"/>
				<g>
					<rect x="197.2" y="227.4" class="st7" width="29.5" height="2"/>
					<rect x="197.2" y="232.1" class="st7" width="29.5" height="2"/>
					<rect x="197.2" y="236.9" class="st7" width="13" height="2"/>
				</g>
			</g>
			<g>
				<rect x="177.8" y="321.3" class="st6" width="56.4" height="13.9"/>
				<g>
					
						<rect x="181.1" y="324.8" transform="matrix(-1.836970e-16 1 -1 -1.836970e-16 513.8903 142.6228)" class="st7" width="9.1" height="6.9"/>
					
						<rect x="179.6" y="328" transform="matrix(-1.836970e-16 1 -1 -1.836970e-16 512.3541 144.159)" class="st7" width="9.1" height="0.5"/>
					
						<rect x="181.3" y="327.9" transform="matrix(-1.836970e-16 1 -1 -1.836970e-16 514.126 142.3869)" class="st7" width="9.1" height="0.7"/>
					
						<rect x="183.1" y="327.8" transform="matrix(-1.836970e-16 1 -1 -1.836970e-16 515.9298 140.5832)" class="st7" width="9.1" height="1"/>
					
						<rect x="184.5" y="328" transform="matrix(-1.836970e-16 1 -1 -1.836970e-16 517.3401 139.1729)" class="st7" width="9.1" height="0.5"/>
					
						<rect x="188" y="326.3" transform="matrix(-1.836970e-16 1 -1 -1.836970e-16 520.7559 135.7571)" class="st7" width="9.1" height="4"/>
					
						<rect x="188" y="327.9" transform="matrix(-1.836970e-16 1 -1 -1.836970e-16 520.7565 135.7565)" class="st7" width="9.1" height="0.7"/>
					
						<rect x="189.6" y="327.9" transform="matrix(-1.836970e-16 1 -1 -1.836970e-16 522.4179 134.0951)" class="st7" width="9.1" height="0.7"/>
					
						<rect x="191.4" y="327.9" transform="matrix(-1.836970e-16 1 -1 -1.836970e-16 524.1409 132.3721)" class="st7" width="9.1" height="0.8"/>
					
						<rect x="195.5" y="325.4" transform="matrix(-1.836970e-16 1 -1 -1.836970e-16 528.2898 128.2232)" class="st7" width="9.1" height="5.8"/>
					
						<rect x="194.8" y="327.8" transform="matrix(-1.836970e-16 1 -1 -1.836970e-16 527.564 128.949)" class="st7" width="9.1" height="1"/>
					
						<rect x="196.6" y="327.9" transform="matrix(-1.836970e-16 1 -1 -1.836970e-16 529.3978 127.1152)" class="st7" width="9.1" height="0.7"/>
					
						<rect x="198.1" y="327.8" transform="matrix(-1.836970e-16 1 -1 -1.836970e-16 530.8881 125.625)" class="st7" width="9.1" height="1"/>
				</g>
				<rect x="208.6" y="324.6" class="st7" width="21.3" height="2"/>
				<rect x="208.6" y="329.3" class="st7" width="12.2" height="2"/>
			</g>
		</g>
		<g>
			<rect x="138.4" y="63" class="st0" width="225.7" height="146.6"/>
			<rect x="333.3" y="63" class="st1" width="30.9" height="144.5"/>
			<polygon class="st2" points="353.5,63 345.4,63 345.4,93.8 347.8,91.6 348.4,93.8 350.2,91.6 350.9,93.8 352.7,91.5 353.5,93.8 
							"/>
			<rect x="138.4" y="63" class="st3" width="194.8" height="144.5"/>
			<path class="st4" d="M333.3,63L333.3,63c-11.2,91-72.2,143.9-156.8,138l-38.1,6.5h194.8V63z"/>
			<g>
				<path class="st5" d="M162.6,98.3v0.3c0,0.8,0.6,1.4,1.4,1.4c0.8,0,1.4-0.6,1.4-1.4v-9.1c0.6,0,1.2,0.1,1.8,0.2
					c0.1,0,0.2,0,0.3,0c0.5,0.1,1,0.2,1.4,0.3l0.1,0l0,0c1.2-0.4,2.5-0.4,3.7,0l0,0c0-3.9-3.4-6.3-7.3-6.5l-0.9,0
					c-1,0-2,0.2-2.9,0.6c-0.1,0-0.1,0-0.2,0.1c-2.5,1-4.3,3-4.3,5.7c0,0.1,0,0.1,0,0.2c1.2-0.4,2.5-0.4,3.7,0l0,0l0,0l0,0l0.1,0
					c0.2,0,0.3-0.1,0.5-0.1c0.2-0.1,0.5-0.1,0.7-0.2c0.5-0.1,1-0.2,1.4-0.2c0.1,0,0.2,0,0.3,0c0.2,0,0.4,0,0.5,0v9.1
					c0,0.3-0.2,0.5-0.5,0.5c-0.3,0-0.5-0.2-0.5-0.5v-0.3H162.6z"/>
				<g>
					<path class="st5" d="M182.6,93.9L182.6,93.9c-2.1,0-3.8-1.7-3.8-3.8v-6.4h7.7V90C186.5,92.2,184.8,93.9,182.6,93.9z"/>
					<rect x="182.2" y="93.4" class="st5" width="0.9" height="6.6"/>
					
						<rect x="182.2" y="96.3" transform="matrix(-1.836970e-16 1 -1 -1.836970e-16 282.1854 -83.0807)" class="st5" width="0.9" height="6.6"/>
				</g>
				<g>
					<g>
						<rect x="194" y="84.2" class="st5" width="0.9" height="12.9"/>
						
							<rect x="193.3" y="83.5" transform="matrix(0.7071 0.7071 -0.7071 0.7071 116.8425 -112.0788)" class="st5" width="0.9" height="3"/>
						
							<rect x="194.8" y="83.5" transform="matrix(-0.7071 0.7071 -0.7071 -0.7071 393.4032 7.051)" class="st5" width="0.9" height="3"/>
					</g>
					<g>
						<rect x="199.8" y="84.2" class="st5" width="0.9" height="12.9"/>
						
							<rect x="199.1" y="83.5" transform="matrix(0.7071 0.7071 -0.7071 0.7071 118.5429 -116.1839)" class="st5" width="0.9" height="3"/>
						
							<rect x="200.6" y="83.5" transform="matrix(-0.7071 0.7071 -0.7071 -0.7071 403.3135 2.946)" class="st5" width="0.9" height="3"/>
					</g>
					
						<rect x="196.9" y="94.5" transform="matrix(-1.836970e-16 1 -1 -1.836970e-16 296.9319 -97.8272)" class="st5" width="0.9" height="10.1"/>
				</g>
			</g>
			<g>
				<rect x="277.8" y="76.5" class="st6" width="40.7" height="27.8"/>
				<g>
					<rect x="283.3" y="84.4" class="st7" width="29.5" height="2"/>
					<rect x="283.3" y="89.1" class="st7" width="29.5" height="2"/>
					<rect x="283.3" y="93.8" class="st7" width="13" height="2"/>
				</g>
			</g>
			<g>
				<rect x="263.9" y="178.2" class="st6" width="56.4" height="13.9"/>
				<g>
					
						<rect x="267.2" y="181.7" transform="matrix(-1.836970e-16 1 -1 -1.836970e-16 456.9112 -86.5399)" class="st7" width="9.1" height="6.9"/>
					
						<rect x="265.7" y="184.9" transform="matrix(-1.836970e-16 1 -1 -1.836970e-16 455.375 -85.0037)" class="st7" width="9.1" height="0.5"/>
					
						<rect x="267.4" y="184.8" transform="matrix(-1.836970e-16 1 -1 -1.836970e-16 457.1469 -86.7756)" class="st7" width="9.1" height="0.7"/>
					
						<rect x="269.2" y="184.7" transform="matrix(-1.836970e-16 1 -1 -1.836970e-16 458.9507 -88.5794)" class="st7" width="9.1" height="1"/>
					
						<rect x="270.6" y="184.9" transform="matrix(-1.836970e-16 1 -1 -1.836970e-16 460.361 -89.9897)" class="st7" width="9.1" height="0.5"/>
					
						<rect x="274.1" y="183.2" transform="matrix(-1.836970e-16 1 -1 -1.836970e-16 463.7767 -93.4054)" class="st7" width="9.1" height="4"/>
					
						<rect x="274.1" y="184.8" transform="matrix(-1.836970e-16 1 -1 -1.836970e-16 463.7773 -93.406)" class="st7" width="9.1" height="0.7"/>
					
						<rect x="275.7" y="184.8" transform="matrix(-1.836970e-16 1 -1 -1.836970e-16 465.4389 -95.0676)" class="st7" width="9.1" height="0.7"/>
					
						<rect x="277.4" y="184.8" transform="matrix(-1.836970e-16 1 -1 -1.836970e-16 467.1618 -96.7905)" class="st7" width="9.1" height="0.8"/>
					
						<rect x="281.6" y="182.3" transform="matrix(-1.836970e-16 1 -1 -1.836970e-16 471.3107 -100.9394)" class="st7" width="9.1" height="5.8"/>
					
						<rect x="280.9" y="184.7" transform="matrix(-1.836970e-16 1 -1 -1.836970e-16 470.5849 -100.2136)" class="st7" width="9.1" height="1"/>
					
						<rect x="282.7" y="184.9" transform="matrix(-1.836970e-16 1 -1 -1.836970e-16 472.4187 -102.0473)" class="st7" width="9.1" height="0.7"/>
					
						<rect x="284.2" y="184.7" transform="matrix(-1.836970e-16 1 -1 -1.836970e-16 473.9088 -103.5375)" class="st7" width="9.1" height="1"/>
				</g>
				<rect x="294.7" y="181.5" class="st7" width="21.3" height="2"/>
				<rect x="294.7" y="186.3" class="st7" width="12.2" height="2"/>
			</g>
		</g>
		<g>
			<rect x="229.1" y="209.7" class="st0" width="225.7" height="146.6"/>
			<rect x="424" y="209.7" class="st1" width="30.9" height="144.5"/>
			<polygon class="st2" points="444.2,209.7 436.1,209.7 436.1,240.4 438.5,238.3 439,240.4 440.9,238.2 441.5,240.4 443.4,238.2 
				444.2,240.4 			"/>
			<rect x="229.1" y="209.7" class="st3" width="194.8" height="144.5"/>
			<path class="st4" d="M424,209.7L424,209.7c-11.2,91-72.2,143.9-156.8,138l-38.1,6.5H424V209.7z"/>
			<g>
				<path class="st5" d="M253.3,244.9v0.3c0,0.8,0.6,1.4,1.4,1.4c0.8,0,1.4-0.6,1.4-1.4v-9.1c0.6,0,1.2,0.1,1.8,0.2
					c0.1,0,0.2,0,0.3,0c0.5,0.1,1,0.2,1.4,0.3l0.1,0l0,0c1.2-0.4,2.5-0.4,3.7,0l0,0c0-3.9-3.4-6.3-7.3-6.5l-0.9,0
					c-1,0-2,0.2-2.9,0.6c-0.1,0-0.1,0-0.2,0.1c-2.5,1-4.3,3-4.3,5.7c0,0.1,0,0.1,0,0.2c1.2-0.4,2.5-0.4,3.7,0l0,0l0,0l0,0l0.1,0
					c0.2,0,0.3-0.1,0.5-0.1c0.2-0.1,0.5-0.1,0.7-0.2c0.5-0.1,1-0.2,1.4-0.2c0.1,0,0.2,0,0.3,0c0.2,0,0.4,0,0.5,0v9.1
					c0,0.3-0.2,0.5-0.5,0.5c-0.3,0-0.5-0.2-0.5-0.5v-0.3H253.3z"/>
				<g>
					<path class="st5" d="M273.3,240.5L273.3,240.5c-2.1,0-3.8-1.7-3.8-3.8v-6.4h7.7v6.4C277.2,238.8,275.4,240.5,273.3,240.5z"/>
					<rect x="272.9" y="240.1" class="st5" width="0.9" height="6.6"/>
					
						<rect x="272.9" y="242.9" transform="matrix(-1.836970e-16 1 -1 -1.836970e-16 519.5091 -27.1205)" class="st5" width="0.9" height="6.6"/>
				</g>
				<g>
					<g>
						<rect x="284.7" y="230.9" class="st5" width="0.9" height="12.9"/>
						
							<rect x="283.9" y="230.1" transform="matrix(0.7071 0.7071 -0.7071 0.7071 247.1118 -133.2519)" class="st5" width="0.9" height="3"/>
						
							<rect x="285.5" y="230.1" transform="matrix(-0.7069 0.7073 -0.7073 -0.7069 651.889 193.1741)" class="st5" width="0.9" height="3"/>
					</g>
					<g>
						<rect x="290.5" y="230.9" class="st5" width="0.9" height="12.9"/>
						
							<rect x="289.7" y="230.1" transform="matrix(0.707 0.7072 -0.7072 0.707 248.8481 -137.3611)" class="st5" width="0.9" height="3"/>
						
							<rect x="291.3" y="230.1" transform="matrix(-0.707 0.7072 -0.7072 -0.707 661.8024 189.104)" class="st5" width="0.9" height="3"/>
					</g>
					
						<rect x="287.6" y="241.1" transform="matrix(-1.836970e-16 1 -1 -1.836970e-16 534.2556 -41.867)" class="st5" width="0.9" height="10.1"/>
				</g>
			</g>
			<g>
				<rect x="368.4" y="223.1" class="st6" width="40.7" height="27.8"/>
				<g>
					<rect x="374" y="231" class="st7" width="29.5" height="2"/>
					<rect x="374" y="235.7" class="st7" width="29.5" height="2"/>
					<rect x="374" y="240.4" class="st7" width="13" height="2"/>
				</g>
			</g>
			<g>
				<rect x="354.6" y="324.9" class="st6" width="56.4" height="13.9"/>
				<g>
					
						<rect x="357.9" y="328.4" transform="matrix(-1.836970e-16 1 -1 -1.836970e-16 694.2349 -30.5795)" class="st7" width="9.1" height="6.9"/>
					
						<rect x="356.3" y="331.6" transform="matrix(-1.836970e-16 1 -1 -1.836970e-16 692.6987 -29.0433)" class="st7" width="9.1" height="0.5"/>
					
						<rect x="358.1" y="331.5" transform="matrix(-1.836970e-16 1 -1 -1.836970e-16 694.4707 -30.8153)" class="st7" width="9.1" height="0.7"/>
					
						<rect x="359.9" y="331.3" transform="matrix(-1.836970e-16 1 -1 -1.836970e-16 696.2745 -32.619)" class="st7" width="9.1" height="1"/>
					
						<rect x="361.3" y="331.6" transform="matrix(-1.836970e-16 1 -1 -1.836970e-16 697.6848 -34.0293)" class="st7" width="9.1" height="0.5"/>
					
						<rect x="364.7" y="329.8" transform="matrix(-1.836970e-16 1 -1 -1.836970e-16 701.1006 -37.4451)" class="st7" width="9.1" height="4"/>
					
						<rect x="364.7" y="331.5" transform="matrix(-1.836970e-16 1 -1 -1.836970e-16 701.1012 -37.4458)" class="st7" width="9.1" height="0.7"/>
					
						<rect x="366.4" y="331.5" transform="matrix(-1.836970e-16 1 -1 -1.836970e-16 702.7626 -39.1072)" class="st7" width="9.1" height="0.7"/>
					
						<rect x="368.1" y="331.4" transform="matrix(-1.836970e-16 1 -1 -1.836970e-16 704.4855 -40.8301)" class="st7" width="9.1" height="0.8"/>
					
						<rect x="372.3" y="328.9" transform="matrix(-1.836970e-16 1 -1 -1.836970e-16 708.6345 -44.9791)" class="st7" width="9.1" height="5.8"/>
					
						<rect x="371.5" y="331.3" transform="matrix(-1.836970e-16 1 -1 -1.836970e-16 707.9086 -44.2532)" class="st7" width="9.1" height="1"/>
					
						<rect x="373.4" y="331.5" transform="matrix(-1.836970e-16 1 -1 -1.836970e-16 709.7424 -46.087)" class="st7" width="9.1" height="0.7"/>
					
						<rect x="374.9" y="331.3" transform="matrix(-1.836970e-16 1 -1 -1.836970e-16 711.2327 -47.5773)" class="st7" width="9.1" height="1"/>
				</g>
				<rect x="385.3" y="328.2" class="st7" width="21.3" height="2"/>
				<rect x="385.3" y="332.9" class="st7" width="12.2" height="2"/>
			</g>
		</g>
		<polygon class="st8" points="151.8,209.7 212,352.7 229.1,352.7 229.1,209.7 		"/>
	</g>
	<ellipse class="st9" cx="253.5" cy="358" rx="229.5" ry="10.3"/>
</g>
</svg>
