<?xml version="1.0" encoding="utf-8"?>
<!-- Generator: Adobe Illustrator 27.7.0, SVG Export Plug-In . SVG Version: 6.00 Build 0)  -->
<svg version="1.1" id="레이어_1" xmlns="http://www.w3.org/2000/svg" xmlns:xlink="http://www.w3.org/1999/xlink" x="0px"
	 y="0px" viewBox="0 0 100 100" style="enable-background:new 0 0 100 100;" xml:space="preserve">
<g id="안내선_00000006708498300743296520000000111067536031591349_">
	<g id="안내선">
	</g>
</g>
<path d="M96.5,32.7c0,2,0,4,0,6.1c0,1.4-0.4,2.5-1.8,3C94,42,94.2,42.5,94.2,43c0,9.5,0,19,0,28.4c0,3.1-0.3,3.5-3.1,4.7
	c-10.1,4.3-20.1,8.7-30.2,13c-2.5,1.1-4.9,2.3-7.5,3.1c-0.7,0.2-1.5,0.3-2.2,0C37,86.8,22.6,82,8.4,76.8c-2.5-0.9-2.9-1.5-2.9-4.2
	c0-9.2-0.1-18.5-0.1-27.7c0-0.7-0.1-1.2-0.7-1.8c-0.9-0.8-1.2-2-1-3.2c0.4-3.3,0.2-6.7,0.2-10c0-2.4,0.2-2.9,2.5-3.9
	c4.2-1.7,8.4-3.5,12.6-5.2c8.8-3.7,17.7-7.4,26.5-11.1c1.2-0.5,2.6-0.4,3.8,0c6.2,1.8,12.3,3.6,18.4,5.6c8.7,2.8,17.4,5.5,26.2,8.3
	c2.4,0.8,2.7,1.3,2.7,3.8C96.5,29.2,96.5,30.9,96.5,32.7z M10.3,28.1c13.4,4.3,26.6,8.5,39.8,12.7c1.3,0.4,2.6,0.4,3.8-0.2
	c11.6-4.8,23.1-9.6,34.7-14.5c0.2-0.1,0.6,0,0.5-0.4c-5.3-1.7-10.5-3.3-15.8-5c-8-2.5-16-5-24-7.5c-1.5-0.5-2.8-0.4-4.3,0.2
	c-8.9,3.8-17.8,7.5-26.6,11.2C15.8,25.8,13.2,26.9,10.3,28.1z M53.7,88.4c0.4-0.1,0.7-0.2,0.9-0.3c3.4-1.5,6.9-2.9,10.3-4.4
	c8.1-3.5,16.2-7.1,24.3-10.6c1.2-0.5,1.5-1,1.5-2.3c-0.1-8.7,0-17.4,0-26.1c0-0.4,0-0.8,0-1.3c-0.8,0.4-1.6,0.7-2.3,1
	c-11.3,4.8-22.5,9.6-33.8,14.4c-0.7,0.3-0.9,0.7-0.9,1.4c0.1,2.8,0,5.6,0,8.4C53.7,75.2,53.7,81.8,53.7,88.4z M7,30.7
	c0,3.1,0,6.1,0,9.1c0,0.8,0.3,1.2,1,1.4c2.6,0.8,5.2,1.7,7.9,2.5c11.3,3.7,22.5,7.5,33.8,11.2c0.6,0.2,0.9,0.2,0.8-0.6
	c-0.1-2.3,0-4.7,0-7c0-2.7,0-2.7-2.6-3.6c-11.4-3.7-22.9-7.4-34.3-11C11.4,32.1,9.3,31.4,7,30.7z M53.7,55.2
	c0.4-0.1,0.6-0.2,0.8-0.3c12.7-5.1,25.3-10.7,38-16c0.5-0.2,0.6-0.5,0.6-1c0-2.9,0-5.8,0-8.6c0-1.3,0-1.3-1.2-0.8
	c-7.7,3.2-15.5,6.5-23.2,9.7c-4.6,1.9-9.3,3.9-13.9,5.8c-0.5,0.2-1.1,0.3-1.1,1.1C53.7,48.4,53.7,51.7,53.7,55.2z M50.5,88.1
	c0-2.9,0-5.7,0-8.6c0-2.5-0.3-2.7-2.8-2.4c-0.1,0-0.3,0.1-0.4,0.1c-1.6,0.2-3.3,0.2-4.8-0.5c-1.5-0.7-2.7-1.6-3.8-2.7
	c-1-1-2.2-1.5-3.5-1.2c-3.5,0.7-6.4-0.5-9-2.8c-1.5-1.4-3.2-1.8-5.2-1.5c-1.1,0.2-2.2,0.3-3.3-0.2c-1.5-0.7-3-1.4-4.3-2.5
	c-1.2-1-2.4-1.6-4-1.2c-0.5,0.1-0.6,0.2-0.6,0.7c0,2.3,0.1,4.5,0,6.8c0,0.8,0.2,1.2,0.9,1.4c3.9,1.3,7.7,2.7,11.5,4.1
	C30.9,81.2,40.6,84.6,50.5,88.1z M8.7,44.9c0,2.4,0,4.7,0,7c0,2,0.3,2.3,2.3,2.3c0.4,0,0.9,0,1.3,0c2.8-0.2,5.1,0.6,7.1,2.6
	c0.9,0.9,2.1,1.3,3.4,1.3c0.8,0,1.7,0,2.5,0c2.5,0.1,4.7,0.8,6.5,2.6c1.2,1.2,2.6,1.7,4.3,1.7c0.8,0,1.6,0,2.4,0
	c2-0.1,3.8,0.6,5.2,2.1c1.6,1.8,3.5,2.5,5.9,2.1c0.8-0.1,0.9-0.3,0.9-1c0-1.8-0.1-3.6,0-5.4c0-1-0.3-1.4-1.2-1.7
	c-9.7-3.2-19.4-6.5-29.1-9.7C16.4,47.5,12.5,46.2,8.7,44.9z M50.4,71.9C50.5,71.9,50.5,71.9,50.4,71.9c0-0.5,0-0.9,0-1.4
	c0.1-0.9-0.3-1-1-0.8c-2.9,0.5-5.5-0.1-7.6-2.3c-1.3-1.4-2.8-1.9-4.7-1.8c-0.5,0-1.1,0-1.6,0c-2.3,0-4.5-0.7-6.1-2.5
	c-1.1-1.2-2.5-1.7-4-1.7c-0.9,0-1.9,0-2.8,0c-2.1-0.1-4.1-0.6-5.6-2.3c-0.8-0.8-1.6-1.7-3-1.6c-1.4,0.1-2.9,0.1-4.3-0.2
	c-0.7-0.2-1.2,0-1.1,0.9c0.1,0.7,0.1,1.4,0,2.2c-0.1,1,0.3,1.4,1.2,1.3c2.1-0.1,3.8,0.7,5.4,2c0.4,0.3,0.8,0.6,1.3,0.8
	c1.4,0.8,3.1,1.3,4.6,1.1c2.4-0.3,4.4,0.2,6.2,1.8c2.2,1.9,4.6,2.9,7.5,2.4c2-0.3,3.8,0.2,5.3,1.5c0.5,0.4,1,0.9,1.4,1.3
	c1.3,1.2,2.8,2,4.7,1.6c0.7-0.1,1.4-0.1,2.1-0.2c0.7-0.1,1.5,0.4,1.9-0.1C50.7,73.4,50.4,72.6,50.4,71.9z"/>
</svg>
