<?xml version="1.0" encoding="UTF-8"?>
<svg xmlns="http://www.w3.org/2000/svg" version="1.1" viewBox="0 0 240 234">
  <defs>
    <style>
      .cls-1 {
        fill: #49021f;
      }

      .cls-2 {
        fill: #f36;
      }
    </style>
  </defs>
  <!-- Generator: Adobe Illustrator 28.7.1, SVG Export Plug-In . SVG Version: 1.2.0 Build 142)  -->
  <g>
    <g id="Layer_1">
      <g>
        <path class="cls-1" d="M42.5,0h155C221,0,240,19,240,42.5v149c0,23.5-19,42.5-42.5,42.5H42.5c-23.5,0-42.5-19-42.5-42.5V42.5C0,19,19,0,42.5,0Z"/>
        <g>
          <path class="cls-2" d="M87.2,61.2v102.6c0,1.1-.5,1.6-1.4,1.6h-19.6c-.9,0-1.3-.5-1.3-1.6V61.2c0-.9.5-1.3,1.4-1.3h19.5c.6,0,1.2.3,1.3,1,0,0,0,.2,0,.3Z"/>
          <path class="cls-2" d="M144.8,167c-7.4.1-14.8-1.4-21.5-4.5-6.3-2.9-11.5-7.7-15.1-13.6-3.7-6.1-5.5-13.7-5.5-22.8,0-7.4,1.8-14.7,5.5-21.1,3.8-6.5,9.3-11.9,15.9-15.5,7-3.9,15.4-5.8,25.3-5.8s1.2,0,2.1,0,1.9,0,3.1.2v-31.6c0-.7.3-1.1,1-1.1h20.3c.5,0,.9.3,1,.7v95.4c0,1.8.1,3.8.2,6,.2,2.1.3,4.1.4,5.8,0,.7-.3,1.3-1,1.6-5.2,2.2-10.7,3.8-16.3,4.8-5,.9-10.2,1.4-15.4,1.4h0ZM154.6,147v-44c-.9-.2-1.8-.4-2.7-.5-1.1,0-2.2-.2-3.3-.2-3.9,0-7.8.8-11.3,2.6-3.4,1.7-6.3,4.2-8.5,7.4s-3.3,7.5-3.3,12.7c-.1,3.5.5,7,1.7,10.3,1,2.7,2.5,5.1,4.5,7.1,1.9,1.8,4.2,3.2,6.8,4,2.7.9,5.5,1.3,8.3,1.3s2.9-.1,4.2-.2c1.3.1,2.5-.1,3.6-.5h0Z"/>
        </g>
      </g>
    </g>
  </g>
</svg>