<?xml version="1.0" encoding="utf-8"?>
<!-- Generator: Adobe Illustrator 25.0.0, SVG Export Plug-In . SVG Version: 6.00 Build 0)  -->
<svg version="1.1" id="Layer_1" xmlns="http://www.w3.org/2000/svg" xmlns:xlink="http://www.w3.org/1999/xlink" x="0px" y="0px"
	 viewBox="0 0 210.8 287.7" style="enable-background:new 0 0 210.8 287.7;" xml:space="preserve">
<style type="text/css">
	.st0{fill:#264DE4;}
	.st1{fill:#2965F1;}
	.st2{fill:#EBEBEB;}
	.st3{fill:#FFFFFF;}
</style>
<g>
	<path class="st0" d="M210.8,49l-19.2,214.8l-86.2,23.9l-86-23.9L0.3,49H210.8z"/>
	<path class="st1" d="M175.2,250.1l16.4-183.6h-86v202.9L175.2,250.1z"/>
	<path class="st2" d="M44.2,146.2l2.4,26.4h59v-26.4H44.2z M105.6,92.9H39.5l2.4,26.4h63.7V92.9z M105.6,242.1v-27.4l-0.1,0
		l-29.3-7.9l-1.9-21H47.8l3.7,41.4l54,15L105.6,242.1z"/>
	<path d="M49.8,0h31.9v13.3H63.2v13.3h18.6V40H49.8L49.8,0z M88.1,0h31.9v11.6h-18.6v2.3h18.6v26.7H88.1V28.4h18.6v-2.3H88.1V0z
		 M126.4,0h31.9v11.6h-18.6v2.3h18.6v26.7h-31.9V28.4H145v-2.3h-18.6V0z"/>
	<path class="st3" d="M137.9,172.6l-3.1,34.2l-29.4,7.9v27.4l54-15l0.4-4.5l6.2-69.4l0.6-7.1l4.8-53.3h-66v26.4h37.1l-2.4,27h-34.7
		v26.4L137.9,172.6z"/>
</g>
</svg>
