<?xml version="1.0" encoding="utf-8"?>
<!-- Generator: Adobe Illustrator 27.7.0, SVG Export Plug-In . SVG Version: 6.00 Build 0)  -->
<svg version="1.1" id="레이어_1" xmlns="http://www.w3.org/2000/svg" xmlns:xlink="http://www.w3.org/1999/xlink" x="0px"
	 y="0px" viewBox="0 0 100 100" style="enable-background:new 0 0 100 100;" xml:space="preserve">
<style type="text/css">
	.st0{fill:#1A1A1A;}
</style>
<g>
	<path class="st0" d="M85.1,5.1c-0.1-2.9-0.3-3.2-2.6-3.2c-19.2,0-38.5,0-57.7,0c-1.3,0-2.7,0.1-4,0.4c-4.8,1.3-7.5,4.9-7.5,9.7
		c0,25.1,0,50.2,0,75.3c0,1,0.1,2,0.3,3c1,4.3,4.5,7.5,8.8,7.7c0.2,0,0.3,0,0.5,0c20.1,0,40.2,0,60.2,0c0.9,0,1.3-0.3,1.5-1.1
		c-0.1-0.3-0.1-0.7-0.2-1.1c-0.2-0.2-0.5-0.3-0.6-0.5c-0.5-0.5-1.5-1.1-1.6-1.7c-0.9-3.4-1.3-6.9-0.2-10.5c0.3-1.2,0.7-1.8,2-2
		c0.4-0.1,0.7-0.7,1.1-1.2c0.1-0.4,0.2-0.9,0.2-1.4c0-24,0-48.2,0-72.2C85.3,5.9,85.2,5.5,85.1,5.1z M16.2,79c0-0.7,0.2-1.6,0.2-2.4
		c0-18.9,0-37.9,0-56.9c0-2.5-0.3-4.9-0.2-7.4c0.1-2.9,1.2-5.3,4-6.7c1.5-0.7,3.1-0.7,4.7-0.6c0.2,0,0.5,0.4,0.6,0.6s0,0.4,0,0.6
		c0,23.8,0,47.7,0,71.4c0,0.2,0,0.5,0,1c-3.2,0.4-6.7-0.2-9.3,3C16.2,80.5,16.2,79.7,16.2,79z M17.1,91.5c-1.3-2.5-1-4.9,0.5-7.3
		c1.6-2.5,4.1-2.8,6.6-2.9c2.7-0.1,5.5-0.1,8.1-0.1c1.5,0,2.9,0,4.4,0c7.4,0,14.6,0,22,0c6,0,12,0,17.8,0c0.9,0,1.7,0,2.7,0
		c-0.1,1-0.1,1.7-0.3,2.5c-0.9,3.5-0.6,7.1,0.5,10.6c0.2,0.6,0,1.1-0.7,1c-1.1,0-2.1,0-3.2,0c-0.9,0-1.6,0-2.5,0c-0.4,0-0.9,0-1.3,0
		c-1.7,0-3.4,0-5.1,0c-1.3,0-2.5,0-3.7,0c-0.2,0-0.3,0-0.5,0c-0.4,0-0.9,0-1.3,0c-0.6,0-1.3,0-1.9,0c-7.4,0-14.7,0-22.1,0
		c-0.9,0-1.6,0-2.5,0c-0.7,0-1.6,0-2.4,0c-0.5,0-1.1,0-1.6,0c-0.9,0-1.8,0-2.7,0c-0.6,0-1.3,0-1.9,0c-1,0-1.9-0.1-2.9,0
		C20.4,95.3,18.4,93.9,17.1,91.5z M78.7,78.5c-0.7,0-1.5,0-2.2,0c-1.3,0-2.6,0-3.8,0c-7.2,0-14.3,0-21.5,0c-6,0-12,0-17.8,0
		c-1.5,0.1-3.1,0.1-4.8,0.2c0-24.7,0-49.3,0-74.1c0.3,0,0.7-0.1,1.2-0.1c17,0,34,0,51,0c0.9,0,1.6-0.1,1.7,1.1
		c0,4.3-0.1,8.7-0.1,12.9c0,18.9,0,37.9,0,56.9c0,0.9-0.1,1.7-0.1,2.6C81,78.4,79.9,78.5,78.7,78.5z"/>
	<path class="st0" d="M69.6,24.6c0.6-2.1-0.5-2.7-2.2-2.7c-8.3,0-16.7,0-25,0c-2.2,0-2.5,0.2-2.5,2.5c0,4.8,0,9.6,0,14.4
		c0,1.6,0,3.2,0,4.8c0,1,0.3,1.6,1.6,1.6c4.4-0.1,8.8,0,13,0l0,0c4.5,0,8.9,0,13.4,0c1.1,0,1.9-0.3,1.8-1.6
		c-0.1-5.3-0.2-10.7-0.3-16.1C69.5,26.5,69.4,25.5,69.6,24.6z M66.8,42.2c-7.9,0-15.8,0-23.7,0C43,42.1,43,42.1,42.9,42
		c0-5.6,0-11.2,0-16.8c0.1-0.1,0.1-0.1,0.2-0.2c6.7,0,13.5-0.1,20.2,0c1.2,0,2.2,0.2,3.5,0.3C66.8,30.8,66.8,36.4,66.8,42.2z"/>
</g>
</svg>
