<?xml version="1.0" encoding="utf-8"?>
<!-- Generator: Adobe Illustrator 27.7.0, SVG Export Plug-In . SVG Version: 6.00 Build 0)  -->
<svg version="1.1" id="레이어_1" xmlns="http://www.w3.org/2000/svg" xmlns:xlink="http://www.w3.org/1999/xlink" x="0px"
	 y="0px" viewBox="0 0 100 100" style="enable-background:new 0 0 100 100;" xml:space="preserve">
<style type="text/css">
	.st0{fill:#1D1D1D;}
</style>
<g>
	<g>
		<circle class="st0" cx="50" cy="48.1" r="1.8"/>
		<circle class="st0" cx="50" cy="60.2" r="1.8"/>
	</g>
	<g>
		<path class="st0" d="M97.3,8c-0.4-0.3-0.9-0.5-1.4-0.4L50,16.2L4.1,7.6c-0.5-0.1-1,0-1.4,0.4C2.3,8.3,2,8.8,2,9.3v72
			c0,0.8,0.6,1.5,1.4,1.7l46.2,9.4c0.1,0,0.2,0,0.3,0s0.2,0,0.3,0L96.6,83c0.8-0.2,1.4-0.9,1.4-1.7v-72C98,8.8,97.7,8.3,97.3,8z
			 M94.5,79.9l-42.8,8.7V71.4c0-0.9-0.8-1.7-1.7-1.7c-0.9,0-1.7,0.8-1.7,1.7v17.2L5.5,79.9V11.4l42.8,8V36c0,0.9,0.8,1.7,1.7,1.7
			c0.9,0,1.7-0.8,1.7-1.7V19.4l42.8-8V79.9z"/>
		<g>
			<path class="st0" d="M62,50.7c-0.4,0-0.8-0.1-1.1-0.4c-0.4-0.3-0.6-0.8-0.6-1.3V30.5c0-0.8,0.6-1.5,1.4-1.7l23.1-4.4
				c0.5-0.1,1,0,1.4,0.4c0.4,0.3,0.6,0.8,0.6,1.3v19c0,0.8-0.6,1.5-1.4,1.7l-23.1,3.9C62.2,50.7,62.1,50.7,62,50.7z M63.7,32v15
				l19.7-3.3V28.2L63.7,32z"/>
		</g>
	</g>
</g>
</svg>
