<?xml version="1.0" encoding="utf-8"?>
<!-- Generator: Adobe Illustrator 27.7.0, SVG Export Plug-In . SVG Version: 6.00 Build 0)  -->
<svg version="1.1" id="레이어_1" xmlns="http://www.w3.org/2000/svg" xmlns:xlink="http://www.w3.org/1999/xlink" x="0px"
	 y="0px" viewBox="0 0 100 100" style="enable-background:new 0 0 100 100;" xml:space="preserve">
<style type="text/css">
	.st0{fill:none;stroke:#000000;stroke-width:3;stroke-linecap:round;stroke-linejoin:round;stroke-miterlimit:10;}
</style>
<g>
	<g id="안내선_00000006708498300743296520000000111067536031591349_">
		<g id="안내선">
		</g>
	</g>
	<path class="st0" d="M83.3,93.2H16.7c-0.9,0-1.6-0.7-1.6-1.6V15.3c0-0.9,0.7-1.6,1.6-1.6h66.6c0.9,0,1.6,0.7,1.6,1.6v76.3
		C84.9,92.5,84.2,93.2,83.3,93.2z"/>
	<path d="M25.2,93.2h-6.8c-1.8,0-3.3-1.5-3.3-3.3v-73c0-1.8,1.5-3.3,3.3-3.3h6.8V93.2z"/>
	<path class="st0" d="M16.5,13.7l57-9.1c0.9-0.1,1.7,0.5,1.7,1.4v7.7"/>
</g>
</svg>
