<?xml version="1.0" encoding="utf-8"?>
<!-- Generator: Adobe Illustrator 27.7.0, SVG Export Plug-In . SVG Version: 6.00 Build 0)  -->
<svg version="1.1" id="레이어_1" xmlns="http://www.w3.org/2000/svg" xmlns:xlink="http://www.w3.org/1999/xlink" x="0px"
	 y="0px" viewBox="0 0 100 100" style="enable-background:new 0 0 100 100;" xml:space="preserve">
<style type="text/css">
	.st0{fill:none;stroke:#000000;stroke-width:3;stroke-linecap:round;stroke-linejoin:round;stroke-miterlimit:10;}
</style>
<g id="안내선_00000006708498300743296520000000111067536031591349_">
	<g id="안내선">
	</g>
</g>
<g>
	<path class="st0" d="M8.7,80.4V24.2c0-0.7,0.7-1.3,1.6-1.3h74.5c0.9,0,1.6,0.6,1.6,1.3v56.1c0,0.7-0.7,1.3-1.6,1.3H10.3
		C9.4,81.7,8.7,81.1,8.7,80.4z"/>
	<path d="M8.7,33v-6.8c0-1.8,1.4-3.3,3.2-3.3h71.3c1.8,0,3.2,1.5,3.2,3.3V33H8.7z"/>
	<path class="st0" d="M86.4,24.1l8.9,48.1c0.1,0.7-0.4,1.5-1.3,1.5h-7.5"/>
</g>
</svg>
