<svg width="70" height="70" viewBox="0 0 70 70" fill="none" xmlns="http://www.w3.org/2000/svg">
<path d="M0.5 35C0.5 15.9462 15.9462 0.5 35 0.5C54.0538 0.5 69.5 15.9462 69.5 35C69.5 54.0538 54.0538 69.5 35 69.5C15.9462 69.5 0.5 54.0538 0.5 35Z" stroke="white"/>
<path d="M24.4333 50C23.6459 50 22.9733 49.7212 22.4154 49.1636C21.8578 48.6057 21.5789 47.933 21.5789 47.1457V29.4646C21.1155 29.2257 20.7364 28.8861 20.4417 28.4458C20.1472 28.0055 20 27.4979 20 26.9229V22.8543C20 22.067 20.2788 21.3943 20.8364 20.8364C21.3943 20.2788 22.067 20 22.8543 20H47.1457C47.933 20 48.6057 20.2788 49.1636 20.8364C49.7212 21.3943 50 22.067 50 22.8543V26.9229C50 27.4979 49.8528 28.0055 49.5583 28.4458C49.2636 28.8861 48.8845 29.2257 48.4211 29.4646V47.1457C48.4211 47.933 48.1422 48.6057 47.5846 49.1636C47.0267 49.7212 46.3541 50 45.5667 50H24.4333ZM22.8543 27.4088H47.1457C47.2875 27.4088 47.4039 27.3633 47.495 27.2722C47.5861 27.1812 47.6316 27.0647 47.6316 26.9229V22.8543C47.6316 22.7125 47.5861 22.5961 47.495 22.505C47.4039 22.4139 47.2875 22.3684 47.1457 22.3684H22.8543C22.7125 22.3684 22.5961 22.4139 22.505 22.505C22.4139 22.5961 22.3684 22.7125 22.3684 22.8543V26.9229C22.3684 27.0647 22.4139 27.1812 22.505 27.2722C22.5961 27.3633 22.7125 27.4088 22.8543 27.4088ZM31.7055 37.2622H38.3099C38.6357 37.2622 38.9043 37.1539 39.1159 36.9374C39.3275 36.7205 39.4333 36.4492 39.4333 36.1234C39.4333 35.7976 39.3275 35.5289 39.1159 35.3174C38.9043 35.1058 38.6357 35 38.3099 35H31.6901C31.3643 35 31.0957 35.1058 30.8841 35.3174C30.6725 35.5289 30.5667 35.7976 30.5667 36.1234C30.5667 36.4492 30.675 36.7205 30.8916 36.9374C31.1082 37.1539 31.3795 37.2622 31.7055 37.2622Z" fill="white"/>
</svg>
