<?xml version="1.0" encoding="utf-8"?>
<!-- Generator: Adobe Illustrator 25.0.0, SVG Export Plug-In . SVG Version: 6.00 Build 0)  -->
<svg version="1.1" id="Layer_1" xmlns="http://www.w3.org/2000/svg" xmlns:xlink="http://www.w3.org/1999/xlink" x="0px" y="0px"
	 viewBox="0 0 210.8 205.5" style="enable-background:new 0 0 210.8 205.5;" xml:space="preserve">
<style type="text/css">
	.st0{fill:#330000;}
	.st1{fill:#FF9A00;}
</style>
<g>
	<path class="st0" d="M37.3,0h136.1c20.6,0,37.3,16.7,37.3,37.3v130.9c0,20.6-16.7,37.3-37.3,37.3H37.3C16.7,205.5,0,188.8,0,168.2
		V37.3C0,16.7,16.7,0,37.3,0z"/>
	<g>
		<path class="st1" d="M102.2,123.3H69.5L62.8,144c-0.2,0.8-0.9,1.3-1.7,1.3H44.6c-0.9,0-1.3-0.5-1-1.6l28.3-81.5
			c0.3-0.8,0.6-1.8,0.8-2.9c0.4-1.9,0.6-3.8,0.6-5.7c-0.1-0.5,0.3-0.9,0.7-1c0.1,0,0.2,0,0.2,0h22.5c0.7,0,1,0.2,1.1,0.7l32.1,90.5
			c0.3,0.9,0,1.4-0.8,1.4h-18.4c-0.7,0.1-1.3-0.4-1.4-1L102.2,123.3z M74.6,105.5h22.3c-0.6-1.9-1.2-4-2-6.4
			c-0.8-2.4-1.6-4.9-2.4-7.6L90,83.5c-0.8-2.7-1.6-5.3-2.3-7.8c-0.7-2.5-1.3-4.8-1.9-6.9h-0.1c-0.8,3.8-1.8,7.6-3,11.3
			c-1.3,4.2-2.7,8.6-4,13C77.2,97.6,75.9,101.7,74.6,105.5L74.6,105.5z M149.1,67.6c-2.9,0.1-5.7-1-7.8-3.1c-2-2.2-3.1-5.1-3-8.1
			c-0.1-2.9,1.1-5.8,3.2-7.8c2.1-2,4.9-3.1,7.8-3c3.4,0,6.1,1,8,3c2,2.1,3,5,2.9,7.8c0.1,3-1,5.9-3,8.1
			C155.1,66.6,152.1,67.8,149.1,67.6z M139.3,143.8V76.2c0-0.8,0.4-1.3,1.1-1.3h17.4c0.8,0,1.1,0.4,1.1,1.3v67.6
			c0,0.9-0.4,1.4-1.1,1.4h-17.3C139.8,145.2,139.3,144.8,139.3,143.8L139.3,143.8z"/>
	</g>
</g>
</svg>
