<?xml version="1.0" encoding="utf-8"?>
<!-- Generator: Adobe Illustrator 25.0.0, SVG Export Plug-In . SVG Version: 6.00 Build 0)  -->
<svg version="1.1" id="Layer_1" xmlns="http://www.w3.org/2000/svg" xmlns:xlink="http://www.w3.org/1999/xlink" x="0px" y="0px"
	 viewBox="0 0 210.8 205.5" style="enable-background:new 0 0 210.8 205.5;" xml:space="preserve">
<style type="text/css">
	.st0{fill:#F7DF1E;}
</style>
<g>
	<path class="st0" d="M0-5.1h210.7v210.7H0V-5.1z"/>
	<path d="M55.4,171l16.1-9.8c3.1,5.5,5.9,10.2,12.7,10.2c6.5,0,10.6-2.5,10.6-12.4V91.7h19.8v67.6c0,20.5-12,29.8-29.6,29.8
		C69.3,189.1,60.1,180.9,55.4,171 M125.4,168.9l16.1-9.3c4.2,6.9,9.8,12,19.5,12c8.2,0,13.4-4.1,13.4-9.8c0-6.8-5.4-9.2-14.4-13.2
		l-4.9-2.1c-14.3-6.1-23.8-13.7-23.8-29.8c0-14.8,11.3-26.2,29-26.2c12.6,0,21.6,4.4,28.1,15.8l-15.4,9.9c-3.4-6.1-7.1-8.5-12.7-8.5
		c-5.8,0-9.5,3.7-9.5,8.5c0,5.9,3.7,8.4,12.2,12l4.9,2.1c16.8,7.2,26.3,14.6,26.3,31.1c0,17.8-14,27.6-32.8,27.6
		C143.1,189.1,131.2,180.4,125.4,168.9"/>
</g>
</svg>
