<?xml version="1.0" encoding="utf-8"?>
<!-- Generator: Adobe Illustrator 27.7.0, SVG Export Plug-In . SVG Version: 6.00 Build 0)  -->
<svg version="1.1" id="레이어_1" xmlns="http://www.w3.org/2000/svg" xmlns:xlink="http://www.w3.org/1999/xlink" x="0px"
	 y="0px" viewBox="0 0 100 100" style="enable-background:new 0 0 100 100;" xml:space="preserve">
<style type="text/css">
	.st0{fill:none;stroke:#040000;stroke-width:3;stroke-linejoin:round;stroke-miterlimit:10;}
</style>
<g id="안내선_00000006708498300743296520000000111067536031591349_">
	<g id="안내선">
	</g>
</g>
<g id="포스터_00000141424800117301468740000000819912429872499595_">
	<polygon class="st0" points="14.4,2.2 85.6,2.2 85.6,75.6 63.4,97.8 14.4,97.8 	"/>
	<polyline class="st0" points="85.6,75.6 63.8,75.6 63.8,97.8 	"/>
</g>
<g>
	<path d="M36.2,29.5H53c9,0,13.7,3.9,13.7,9.9c0,4.4-3.1,7.7-7.6,8.6v0.4c5,0.2,9.1,3.8,9.1,9.4c0,6.4-5.2,11.1-13.8,11.1H36.2V29.5
		z M56.1,41.6c0-2.5-2-3.9-4.8-3.9h-4.8v7.8h4.6C54,45.5,56.1,44.1,56.1,41.6z M57.3,56.5c0-2.9-2.1-4.5-5.4-4.5h-5.4v8.6h5.3
		C55.5,60.6,57.3,59.2,57.3,56.5z"/>
</g>
</svg>
