<?xml version="1.0" encoding="utf-8"?>
<!-- Generator: Adobe Illustrator 25.0.0, SVG Export Plug-In . SVG Version: 6.00 Build 0)  -->
<svg version="1.1" id="Layer_1" xmlns="http://www.w3.org/2000/svg" xmlns:xlink="http://www.w3.org/1999/xlink" x="0px" y="0px"
	 viewBox="0 0 210.8 287.7" style="enable-background:new 0 0 210.8 287.7;" xml:space="preserve">
<style type="text/css">
	.st0{fill:#E44D26;}
	.st1{fill:#F16529;}
	.st2{fill:#EBEBEB;}
	.st3{fill:#FFFFFF;}
</style>
<g>
	<path class="st0" d="M19.2,263.6L0,48.4h210.8l-19.2,215.1l-86.3,23.9L19.2,263.6z"/>
	<path class="st1" d="M105.4,269.2l69.8-19.3L191.6,66h-86.2V269.2z"/>
	<path class="st2" d="M105.4,145.8H70.5l-2.4-27h37.3V92.4H39.2l0.6,7.1l6.5,72.7h59.1V145.8z M105.4,214.4l-0.1,0l-29.4-7.9
		l-1.9-21H47.5l3.7,41.4l54.1,15l0.1,0L105.4,214.4z"/>
	<path d="M19.6,0.2H33v13.3h12.3V0.2h13.4v40.1H45.3V26.9H33v13.4H19.6L19.6,0.2L19.6,0.2z M76.3,13.5H64.5V0.2h37v13.3H89.8v26.8
		H76.3L76.3,13.5L76.3,13.5z M107.4,0.2h14l8.6,14.1l8.6-14.1h14v40.1h-13.4V20.4L130,34.7h-0.2l-9.2-14.3v19.9h-13.1V0.2z
		 M159.3,0.2h13.4V27h18.9v13.3h-32.3V0.2z"/>
	<path class="st3" d="M105.3,145.8v26.4h32.5l-3.1,34.2l-29.4,7.9v27.5l54.1-15l0.4-4.5l6.2-69.5l0.6-7.1h-7.1L105.3,145.8z
		 M105.3,92.4v26.4h63.7l0.5-5.9l1.2-13.4l0.6-7.1L105.3,92.4z"/>
</g>
</svg>
