<?xml version="1.0" encoding="utf-8"?>
<!-- Generator: Adobe Illustrator 25.0.0, SVG Export Plug-In . SVG Version: 6.00 Build 0)  -->
<svg version="1.1" id="Layer_1" xmlns="http://www.w3.org/2000/svg" xmlns:xlink="http://www.w3.org/1999/xlink" x="0px" y="0px"
	 viewBox="0 0 210.8 205.5" style="enable-background:new 0 0 210.8 205.5;" xml:space="preserve">
<style type="text/css">
	.st0{fill:#001E36;}
	.st1{fill:#31A8FF;}
</style>
<g>
	<path class="st0" d="M37.3,0h136.1c20.6,0,37.3,16.7,37.3,37.3v130.8c0,20.6-16.7,37.3-37.3,37.3H37.3C16.7,205.5,0,188.8,0,168.2
		V37.3C0,16.7,16.7,0,37.3,0z"/>
	<g>
		<path class="st1" d="M47.5,144.1V53.8c0-0.7,0.3-1,0.8-1c1.5,0,2.9,0,5-0.1c2.1,0,4.3-0.1,6.7-0.1c2.4,0,4.9-0.1,7.6-0.1
			c2.7,0,5.3-0.1,8-0.1c7.2,0,13.2,0.9,18.1,2.7c4.4,1.5,8.5,4,11.8,7.2c2.8,2.8,5,6.2,6.4,10c1.3,3.6,2,7.5,2,11.4
			c0,7.5-1.7,13.8-5.2,18.7c-3.5,4.9-8.4,8.6-14.1,10.7c-5.9,2.2-12.5,3-19.8,3c-2.1,0-3.5,0-4.4-0.1c-0.8,0-2.1-0.1-3.8-0.1V144
			c0.1,0.6-0.3,1.2-1,1.3c-0.1,0-0.2,0-0.3,0H48.4C47.8,145.2,47.5,144.9,47.5,144.1L47.5,144.1z M66.6,69.7v29.5
			c1.2,0.1,2.4,0.1,3.4,0.1h4.7c3.4,0,6.8-0.6,10.1-1.6c2.8-0.8,5.3-2.5,7.2-4.7c1.8-2.2,2.8-5.2,2.8-9c0.1-2.7-0.6-5.4-2.1-7.8
			c-1.5-2.3-3.6-4-6.1-5c-3.3-1.3-6.8-1.9-10.3-1.8c-2.3,0-4.3,0-6,0.1C68.4,69.6,67.2,69.6,66.6,69.7z M168.6,93.8
			c-2.7-1.4-5.5-2.4-8.4-3c-3.2-0.7-6.5-1.1-9.8-1.1c-1.8,0-3.6,0.2-5.3,0.6c-1.1,0.2-2.1,0.9-2.8,1.8c-0.5,0.7-0.7,1.6-0.7,2.4
			c0,0.8,0.3,1.6,0.8,2.3c0.8,1,1.8,1.8,3,2.3c2,1.1,4.1,2.1,6.2,2.9c4.7,1.6,9.3,3.7,13.5,6.4c2.9,1.8,5.3,4.3,6.9,7.3
			c1.4,2.8,2.1,5.9,2,9c0.1,4.1-1.1,8.2-3.4,11.7c-2.5,3.5-5.9,6.2-9.8,7.8c-4.3,1.9-9.6,2.8-15.9,2.8c-4,0-8-0.3-11.9-1.1
			c-3.1-0.6-6.1-1.5-9-2.8c-0.6-0.3-1-1-1-1.7v-15.3c0-0.3,0.1-0.6,0.4-0.8c0.2-0.1,0.6-0.1,0.8,0.1c3.4,2,7.1,3.4,10.9,4.3
			c3.4,0.8,6.8,1.3,10.3,1.3c3.3,0,5.7-0.4,7.3-1.3c1.4-0.7,2.3-2.1,2.3-3.7c0-1.2-0.7-2.4-2.1-3.5c-1.4-1.1-4.3-2.5-8.6-4.1
			c-4.4-1.5-8.6-3.7-12.5-6.4c-2.8-1.9-5-4.5-6.6-7.4c-1.4-2.8-2.1-5.9-2-9c0-3.7,1-7.4,3-10.6c2.2-3.5,5.4-6.3,9.2-8.1
			c4.1-2.1,9.3-3.1,15.6-3.1c3.6,0,7.3,0.2,10.9,0.8c2.6,0.3,5.2,1,7.6,2.1c0.4,0.1,0.7,0.4,0.8,0.8c0.1,0.3,0.1,0.7,0.1,1.1V93
			c0,0.3-0.1,0.7-0.4,0.8C169.4,94,169,94,168.6,93.8L168.6,93.8z"/>
	</g>
</g>
</svg>
