<?xml version="1.0" encoding="UTF-8"?>
<svg id="Layer_2" xmlns="http://www.w3.org/2000/svg" viewBox="0 0 24 24">
  <defs>
    <style>
      .cls-1, .cls-2 {
        fill: none;
      }

      .cls-2 {
        stroke: #333;
        stroke-linecap: round;
        stroke-linejoin: round;
        stroke-width: 1.6px;
      }

      .cls-3 {
        fill: #333;
      }
    </style>
  </defs>
  <g id="Layer_1-2" data-name="Layer_1">
    <g>
      <g>
        <path class="cls-2" d="M4.12,8.48l2.46-5.17c.18-.4.52-.7.94-.81,1.33-.32,4.51-.85,8.68.03.44.09.8.4.98.82l2.46,5.12"/>
        <path class="cls-3" d="M19.65,8.48l1.18-1.99h1.19c.54,0,.98.44.98.99h0c0,.55-.44.99-.98.99"/>
        <path class="cls-3" d="M1.98,8.48c-.54,0-.98-.44-.98-.99h0c0-.55.44-.99.98-.99h.95l1.18,1.99"/>
        <path class="cls-3" d="M5.51,18.46v2.04c0,.79-.63,1.43-1.42,1.43h-.12c-.78,0-1.42-.64-1.42-1.43v-2.04"/>
        <path class="cls-3" d="M7.74,12.63c.33.21.15.66-.25.66h-2.75c-.74,0-1.34-.52-1.34-1.16s.6-1.16,1.34-1.16c.31,0,.59.09.81.24l2.19,1.43Z"/>
        <path class="cls-2" d="M11.88,8.48h7.51c.17,0,.33.06.46.16l2.35,1.81c.19.15.3.37.3.62v6.63c0,.43-.34.77-.76.77H2.02c-.42,0-.76-.35-.76-.77v-6.63c0-.24.11-.47.3-.62l2.35-1.81c.13-.1.29-.16.46-.16h7.51Z"/>
        <path class="cls-2" d="M18.26,18.46v-1.26c0-1.22-.98-2.22-2.19-2.22H7.69c-1.21,0-2.19.99-2.19,2.22v1.26"/>
        <path class="cls-3" d="M18.26,18.46v2.04c0,.79.63,1.43,1.42,1.43h.12c.78,0,1.42-.64,1.42-1.43v-2.04"/>
        <path class="cls-3" d="M16.03,12.63c-.33.21-.15.66.25.66h2.75c.74,0,1.34-.52,1.34-1.16s-.6-1.16-1.34-1.16c-.31,0-.59.09-.81.24l-2.19,1.43Z"/>
      </g>
      <rect class="cls-1" width="24" height="24"/>
    </g>
  </g>
</svg>