<svg width="28" height="28" viewBox="0 0 28 28" fill="none" xmlns="http://www.w3.org/2000/svg">
<path d="M7.22896 20.3986C8.22063 19.6852 9.27286 19.121 10.3857 18.706C11.4985 18.2909 12.7032 18.0833 14 18.0833C15.2968 18.0833 16.5015 18.2909 17.6143 18.706C18.7271 19.121 19.7794 19.6852 20.771 20.3986C21.5414 19.6014 22.161 18.6599 22.6298 17.5741C23.0988 16.4881 23.3333 15.2968 23.3333 14C23.3333 11.4139 22.4243 9.21181 20.6063 7.39375C18.7882 5.57569 16.5861 4.66667 14 4.66667C11.4139 4.66667 9.21181 5.57569 7.39375 7.39375C5.57569 9.21181 4.66667 11.4139 4.66667 14C4.66667 15.2968 4.90117 16.4881 5.37017 17.5741C5.83897 18.6599 6.45857 19.6014 7.22896 20.3986ZM14 14.5833C13.0173 14.5833 12.1883 14.2457 11.513 13.5704C10.8377 12.8951 10.5 12.0661 10.5 11.0833C10.5 10.1006 10.8377 9.2716 11.513 8.59629C12.1883 7.92099 13.0173 7.58333 14 7.58333C14.9827 7.58333 15.8117 7.92099 16.487 8.59629C17.1623 9.2716 17.5 10.1006 17.5 11.0833C17.5 12.0661 17.1623 12.8951 16.487 13.5704C15.8117 14.2457 14.9827 14.5833 14 14.5833ZM14 24.5C12.5356 24.5 11.1648 24.2274 9.8875 23.6822C8.61019 23.1369 7.49885 22.3917 6.55346 21.4465C5.60826 20.5012 4.86306 19.3898 4.31783 18.1125C3.77261 16.8352 3.5 15.4644 3.5 14C3.5 12.5356 3.77261 11.1648 4.31783 9.8875C4.86306 8.61019 5.60826 7.49885 6.55346 6.55346C7.49885 5.60826 8.61019 4.86305 9.8875 4.31783C11.1648 3.77261 12.5356 3.5 14 3.5C15.4644 3.5 16.8352 3.77261 18.1125 4.31783C19.3898 4.86305 20.5012 5.60826 21.4465 6.55346C22.3917 7.49885 23.1369 8.61019 23.6822 9.8875C24.2274 11.1648 24.5 12.5356 24.5 14C24.5 15.4644 24.2274 16.8352 23.6822 18.1125C23.1369 19.3898 22.3917 20.5012 21.4465 21.4465C20.5012 22.3917 19.3898 23.1369 18.1125 23.6822C16.8352 24.2274 15.4644 24.5 14 24.5Z" fill="#767676"/>
</svg>
