<?xml version="1.0" encoding="utf-8"?>
<!-- Generator: Adobe Illustrator 27.7.0, SVG Export Plug-In . SVG Version: 6.00 Build 0)  -->
<svg version="1.1" id="레이어_1" xmlns="http://www.w3.org/2000/svg" xmlns:xlink="http://www.w3.org/1999/xlink" x="0px"
	 y="0px" viewBox="0 0 100 100" style="enable-background:new 0 0 100 100;" xml:space="preserve">
<g id="안내선_00000006708498300743296520000000111067536031591349_">
	<g id="안내선">
	</g>
</g>
<g>
	<path d="M63.3,55.9c-1.3-1.7-2.4-1.7-3.7,0c-1.1,1.3-2.2,2.7-3.4,4.1c-3.2-3.9-6.3-7.6-9.4-11.2c-1.4-1.7-2.4-1.6-3.7,0.1
		C38.4,55,33.7,61.2,29,67.3c-0.6,0.7-1.1,1.4-0.6,2.4c0.4,1,1.3,1.1,2.3,1.1c13.4,0,26.8,0,40.2,0c0.8,0,1.7,0,2.1-0.9
		c0.5-0.9,0-1.6-0.5-2.2C69.4,63.7,66.3,59.8,63.3,55.9z M33.2,67.2c2.3-3,4.4-5.9,6.6-8.9c1.4-1.8,2.9-3.6,4.2-5.5
		c0.8-1.2,1.3-0.8,2,0c2.4,2.9,4.8,5.7,7.2,8.6c1.6,1.9,3.1,3.7,4.8,5.8C49.6,67.2,41.5,67.2,33.2,67.2z M62.9,67.3
		c-0.4,0-0.8-0.1-1.1-0.5c-1-1.3-2-2.6-3-3.8c-0.4-0.5-0.4-0.8,0.1-1.3c0.3-0.3,0.6-0.6,0.8-0.9c0.6-0.7,1-1.9,1.7-1.9
		c0.6,0,1.1,1.2,1.7,1.9c1.6,2.1,3.4,4,4.8,6.5C66.1,67.3,64.5,67.3,62.9,67.3z"/>
	<path d="M59.6,51c3.7,0,6.6-3,6.6-6.6s-3.1-6.6-6.7-6.6c-3.6,0-6.5,3-6.5,6.6C53.1,48.1,56,51,59.6,51z M59.6,40.9
		c1.8,0,3.4,1.7,3.4,3.6c0,1.9-1.5,3.4-3.4,3.4s-3.4-1.5-3.4-3.5C56.2,42.4,57.6,40.9,59.6,40.9z"/>
	<path d="M90.5,22.3c-1,0-1.6,0.6-1.7,1.6c0,1.1,0.5,1.8,1.6,1.8s1.7-0.7,1.7-1.8C92.1,22.9,91.6,22.3,90.5,22.3z"/>
	<path d="M100,18.4c0-0.6,0-1.1-0.1-1.7c-1-3.4-3.4-5.1-7.1-5.1c-14.2,0-28.3,0-42.5,0l0,0c-0.1,0-0.2,0-0.2,0h-0.2l0,0
		c-14.2,0-28.4,0-42.5,0c-3.7,0-6.1,1.8-7.1,5.1C0,17.3,0,17.8,0,18.4c0,6.2,0,12.3,0,18.5c0,3,2.1,5.1,5.2,5.1c2.5,0,4.9,0,7.4-0.1
		c0.9,0,1.3,0.1,1.3,1.1c0,13.2,0,26.4,0,39.6c0,1-0.3,1.2-1.2,1.2c-2.3-0.1-2.8,0.5-2.8,2.8c0,4.2,0,4.2,4.3,4.2c1.5,0,3.1,0,4.6,0
		c1.3,0,2-0.6,1.9-2c0-0.9,0-1.8,0-2.8c0-1.8-0.4-2.2-2.2-2.2c-1,0-1.2-0.3-1.2-1.2c0-13.1,0.1-26.2,0-39.3c0-1.6,0.8-1.3,1.8-1.4
		c1.1-0.1,1.6,0.2,1.6,1.5c-0.1,12.1,0,24.2,0,36.4c0,2.6,0.4,3.1,3,3.1C32.4,83,41.1,83,49.8,83l0,0c0.1,0,0.2,0,0.2,0h0.2l0,0
		c8.7,0,17.4,0,26.1-0.1c2.6,0,3-0.5,3-3.1c0-12.1,0-24.2,0-36.4c0-1.3,0.4-1.5,1.6-1.5c1,0.1,1.8-0.2,1.8,1.4
		c-0.1,13.1,0,26.2,0,39.3c0,1-0.2,1.2-1.2,1.2c-1.8,0-2.1,0.4-2.2,2.2c0,0.9,0,1.9,0,2.8c-0.1,1.4,0.6,2,1.9,2c1.5,0,3.1,0,4.6,0
		c4.3,0,4.3,0,4.3-4.2c0-2.3-0.5-2.8-2.8-2.8c-0.9,0-1.2-0.2-1.2-1.2c0-13.2,0-26.4,0-39.6c0-1,0.4-1.2,1.3-1.1
		c2.5,0.1,4.9,0.1,7.4,0.1c3.1,0,5.2-2.1,5.2-5.2C100,30.7,100,24.5,100,18.4z M17.9,87.3c0,0.5-0.2,0.6-0.6,0.6c-0.6,0-1.2,0-1.8,0
		c-0.7,0-1.3,0-2,0c-0.4,0-0.6-0.2-0.6-0.6s0.2-0.5,0.6-0.5c1.3,0,2.6,0,4,0C17.7,86.8,17.8,87,17.9,87.3z M19.3,38.4
		c-4.7-0.1-9.3-0.1-14,0c-1.5,0-2-0.6-1.9-2c0.1-3,0-6.1,0-9.1c0-2.9,0-5.7,0-8.6c0-2.4,1-3.5,3.4-3.5c2.4-0.1,4.8,0,7.2,0
		c0.9,0,1.1,0.3,1.1,1.1c0,3.5,0,7,0,10.5c0,4.5,0,4.5,4.5,4.6c0.9,0,1.1,0.3,1.1,1.2c-0.1,1.5-0.1,3.1,0,4.6
		C20.7,38.1,20.4,38.4,19.3,38.4z M76,77.6c0,1.4-0.2,1.9-1.7,1.9c-8-0.1-16-0.1-24-0.1l0,0c-0.1,0-0.2,0-0.2,0c-0.1,0-0.2,0-0.2,0
		l0,0c-8,0-16-0.1-24,0.1c-1.6,0-1.8-0.5-1.7-1.9c0-14.9,0-29.9,0-44.8c0-1.3,0.4-1.6,1.6-1.6c8.1,0,16.1,0,24.2,0l0,0
		c0.1,0,0.2,0,0.2,0c0.1,0,0.2,0,0.2,0l0,0c8.1,0,16.1,0,24.2,0c1.2,0,1.6,0.3,1.6,1.6C76,47.7,76,62.7,76,77.6z M50.2,27.9
		L50.2,27.9c-0.1,0-0.2,0-0.2,0h-0.2l0,0c-10,0-20,0-30.1,0c-1.1,0-1.3-0.4-1.2-1.3c0.1-3.4,0.1-6.8,0-10.2c0-1.1,0.3-1.3,1.4-1.3
		c10.1,0,20.1,0,30.2,0s20.1,0,30.2,0c1,0,1.4,0.2,1.4,1.3c-0.1,3.4-0.1,6.8,0,10.2c0,1-0.2,1.3-1.2,1.3
		C70.3,27.9,60.3,27.9,50.2,27.9z M86.6,86.8c0.4,0,0.6,0.2,0.6,0.5c0,0.4-0.2,0.6-0.6,0.6c-0.7,0-1.3,0-2,0c-0.6,0-1.2,0-1.8,0
		c-0.4,0-0.7-0.2-0.6-0.6c0-0.4,0.2-0.6,0.6-0.6C84,86.8,85.3,86.8,86.6,86.8z M94.7,38.4c-4.7-0.1-9.3-0.1-14,0
		c-1.1,0-1.4-0.3-1.3-1.4c0.1-1.5,0.1-3.1,0-4.6c0-0.8,0.2-1.1,1.1-1.2c4.5-0.1,4.5-0.1,4.5-4.6c0-3.5,0-7,0-10.5
		c0-0.8,0.2-1.1,1.1-1.1c2.4,0.1,4.8,0,7.2,0c2.4,0.1,3.4,1.1,3.4,3.5c0,2.9,0,5.7,0,8.6c0,3,0,6.1,0,9.1
		C96.7,37.8,96.2,38.4,94.7,38.4z"/>
	<path d="M9.5,22.3c-1.1,0-1.6,0.7-1.6,1.7c0,1.1,0.6,1.8,1.7,1.8s1.6-0.8,1.6-1.8C11.1,22.8,10.5,22.3,9.5,22.3z"/>
</g>
</svg>
