<?xml version="1.0" encoding="utf-8"?>
<!-- Generator: Adobe Illustrator 27.7.0, SVG Export Plug-In . SVG Version: 6.00 Build 0)  -->
<svg version="1.1" id="레이어_1" xmlns="http://www.w3.org/2000/svg" xmlns:xlink="http://www.w3.org/1999/xlink" x="0px"
	 y="0px" viewBox="0 0 100 100" style="enable-background:new 0 0 100 100;" xml:space="preserve">
<g id="안내선_00000006708498300743296520000000111067536031591349_">
	<g id="안내선">
	</g>
</g>
<path d="M50,0.4C72.8,0.1,92.1,16,97.3,36.8c1.5,5.9,2.1,11.9,1.4,17.9c-0.1,1.2-0.9,2-1.7,2.8c-3,3.1-6.1,6.1-9.1,9.2
	C77.4,77.2,66.8,87.9,56.3,98.5c-1,1-2.1,1.1-3.4,1.1c-7.8,0-15.4-1.2-22.5-4.6C14.9,87.6,5,75.5,1.8,58.4
	C-2.1,37,7.9,16.9,25.7,6.6C32.3,2.8,40.9,0.2,50,0.4z M5.4,50c0,2.1,0.1,4.6,0.5,7.1c1.4,8.5,5,16.1,10.7,22.5
	c8.2,9.1,18.3,14.4,30.6,15.5c0.9,0.1,1.3,0.1,1-1.1c-1.7-6-1.9-12.1-0.3-18.1c3.7-14.2,15.4-24.2,30.1-25.6
	c5.3-0.5,10.5,0,15.6,1.5c0.9,0.3,1.1,0.2,1.2-0.8c0.1-4-0.4-7.8-1.2-11.7c-1.6-7.6-5.1-14.3-10.4-19.9C70.5,6,55,1.8,37.4,6.5
	C18.2,11.5,5,29.9,5.4,50z M92.6,56c-12.5-4-26.4-1.1-34.8,9.1c-7.6,9.3-8.4,22.2-4.7,29.8C66.1,82.1,79.3,69.1,92.6,56z"/>
</svg>
