<?xml version="1.0" encoding="utf-8"?>
<!-- Generator: Adobe Illustrator 27.7.0, SVG Export Plug-In . SVG Version: 6.00 Build 0)  -->
<svg version="1.1" id="레이어_1" xmlns="http://www.w3.org/2000/svg" xmlns:xlink="http://www.w3.org/1999/xlink" x="0px"
	 y="0px" viewBox="0 0 100 100" style="enable-background:new 0 0 100 100;" xml:space="preserve">
<g id="안내선_00000006708498300743296520000000111067536031591349_">
	<g id="안내선">
	</g>
</g>
<g>
	<path d="M95.3,14c-30.2,0-60.3,0-90.5,0c-2.6,0-3,0.5-3,3c0,22.1,0,44.2,0,66.3c0,2.3,0.4,2.7,2.7,2.7c15.2,0,30.3,0,45.5,0
		s30.3,0,45.5,0c2.5,0,3-0.4,3-3c0-22,0-44,0-66C98.3,14.4,97.9,14,95.3,14z M94.8,81.2c0,1.3-0.3,1.6-1.6,1.6
		c-14.4,0-28.8,0-43.1,0l0,0c-14.4,0-28.7,0-43,0c-1.2,0-1.5-0.2-1.5-1.5c0.1-20.8,0-41.6,0-62.4c0-1.2,0.3-1.4,1.4-1.4
		c28.9,0,57.6,0,86.5,0c1.2,0,1.5,0.3,1.5,1.5C94.8,39.7,94.8,60.4,94.8,81.2z"/>
	<path d="M76.3,65.5C72,60.7,67.8,55.9,63.6,51c-1.4-1.6-2.1-1.5-3.6,0.1c-1.7,2-3.4,4.2-5.1,6.3C50.6,52.2,46.4,47,42.1,42
		c-1.8-2.1-2.7-2.2-4.4,0c-6.7,8.7-13.3,17.5-20,26.2c-0.6,0.8-1,1.5-0.6,2.4c0.4,1,1.4,1,2.3,1c7.1,0,14.4,0,21.5,0
		c12,0,23.9,0,35.8,0c0.9,0,1.6-0.1,2.1-1c0.5-1,0.1-1.7-0.5-2.4C77.8,67.3,77,66.4,76.3,65.5z M22.1,68c6-7.9,12-15.7,18-23.7
		c6.4,7.9,12.7,15.6,19.2,23.7C46.8,68,34.6,68,22.1,68z M67.3,68.1c-2.6,0.3-4.4-0.5-5.9-2.7c-1.1-1.6-2.3-3.1-3.6-4.5
		c-0.3-0.4-0.8-0.8-0.3-1.4c1.4-1.7,2.8-3.5,4.2-5.3c4,4.5,7.9,9,11.9,13.9C71.5,68,69.4,67.9,67.3,68.1z"/>
	<path d="M60.6,44.8c4.6,0.1,8.4-3.7,8.3-8.4c0-4.5-3.7-8-8.2-8c-4.6,0-8,3.4-8.1,7.9C52.3,40.3,55.9,44.7,60.6,44.8z M60.6,31.9
		c3,0,5,1.9,5,4.8c0,2.8-1.9,4.7-4.8,4.7c-2.6,0-4.8-2.2-4.8-4.9C56,33.8,57.9,31.9,60.6,31.9z"/>
	<path d="M88.1,27.5c2.2,0,3.5-1.2,3.5-3.3c0-2.3-1.4-4-3.5-4c-2,0-3.7,1.6-3.8,3.7C84.4,26,86,27.5,88.1,27.5z M88,23.2
		c0.6-0.1,0.8,0.3,1,0.8c-0.1,0.5-0.3,0.8-0.8,0.9c-0.5,0-1-0.2-1-0.7C87.3,23.6,87.5,23.3,88,23.2z"/>
	<path d="M88.1,72.8c-2,0-3.7,1.5-3.7,3.5s1.8,3.8,3.7,3.8c2,0,3.5-1.5,3.5-3.6C91.7,74.2,90.3,72.8,88.1,72.8z M88,77.1
		c-0.4-0.1-0.8-0.4-0.8-0.9c0.1-0.5,0.4-0.9,1-0.8c0.5,0.1,0.7,0.4,0.8,0.9C88.8,76.8,88.6,77.2,88,77.1z"/>
	<path d="M11.8,72.8c-2.2,0-3.8,1.4-3.7,3.5c0,1.8,1.7,3.7,3.5,3.8c1.9,0.1,3.8-1.7,3.8-3.7C15.3,74.3,13.8,72.8,11.8,72.8z
		 M11.7,77.1c-0.5,0-0.9-0.3-0.9-0.9c0-0.5,0.4-0.7,0.8-0.9c0.4,0.2,0.8,0.3,0.8,0.9C12.5,76.7,12.2,77.1,11.7,77.1z"/>
	<path d="M11.5,20.6c-2,0-3.5,1.5-3.5,3.6s1.5,3.5,3.7,3.4c2,0,3.6-1.5,3.6-3.6C15.3,22,13.7,20.6,11.5,20.6z M11.7,24.8
		c-0.5,0.1-0.9-0.3-0.9-0.9c0-0.5,0.4-0.8,0.8-0.8c0.4,0,0.8,0.3,0.8,0.8C12.5,24.4,12.2,24.8,11.7,24.8z"/>
</g>
</svg>
