<?xml version="1.0" encoding="UTF-8"?>
<svg id="Layer_2" xmlns="http://www.w3.org/2000/svg" viewBox="0 0 24 24">
  <defs>
    <style>
      .cls-1, .cls-2 {
        fill: none;
      }

      .cls-2 {
        stroke: #333;
        stroke-linecap: round;
        stroke-linejoin: round;
        stroke-width: 1.6px;
      }
    </style>
  </defs>
  <g id="Layer_1-2" data-name="Layer_1">
    <g>
      <rect class="cls-1" width="24" height="24"/>
      <g>
        <path class="cls-2" d="M3.53,20.1c1.46,1.17,3.61,1.16,5.06-.03,1.54-1.26,1.89-3.34,1.06-4.97l7.51-7.51c1.02-1.02,1.67-2.36,1.84-3.8v-.09c.08-.56-.6-.89-1-.49L7.87,13.33c-1.52-.77-3.42-.53-4.69.74-1.69,1.69-1.57,4.49.35,6.03ZM4.77,15.66c.7-.7,1.84-.7,2.54,0,.7.7.7,1.84,0,2.54-.7.7-1.84.7-2.54,0-.7-.7-.7-1.84,0-2.54Z"/>
        <path class="cls-2" d="M20.82,14.07c-1.27-1.27-3.17-1.52-4.69-.74L6.01,3.21c-.4-.4-1.08-.07-1.01.49v.09c.18,1.44.83,2.77,1.85,3.8l7.51,7.51c-.83,1.64-.48,3.72,1.06,4.97,1.45,1.18,3.6,1.2,5.06.03,1.92-1.53,2.03-4.34.35-6.03ZM19.23,18.2c-.7.7-1.84.7-2.54,0-.7-.7-.7-1.84,0-2.54.7-.7,1.84-.7,2.54,0s.7,1.84,0,2.54Z"/>
      </g>
    </g>
  </g>
</svg>