<?xml version="1.0" encoding="UTF-8"?>
<svg id="Layer_2" xmlns="http://www.w3.org/2000/svg" viewBox="0 0 24 24">
  <defs>
    <style>
      .cls-1, .cls-2 {
        fill: none;
      }

      .cls-2 {
        stroke: #333;
        stroke-linecap: round;
        stroke-linejoin: round;
        stroke-width: 1.6px;
      }
    </style>
  </defs>
  <g id="Layer_1-2" data-name="Layer_1">
    <g>
      <rect class="cls-1" width="24" height="24"/>
      <g>
        <path class="cls-2" d="M1.7,18.5h20.6v2.68c0,.45-.37.82-.82.82H2.52c-.45,0-.82-.37-.82-.82v-2.68h0Z"/>
        <path class="cls-2" d="M1.7,18.5V2.77c0-.56.58-.94,1.09-.7l2.57,1.18c.27.13.45.4.45.7v9.16h4.12V2.77c0-.56.58-.94,1.09-.7l2.57,1.18c.27.13.45.4.45.7v9.16h4.12V2.77c0-.56.58-.94,1.09-.7l2.57,1.18c.27.13.45.4.45.7v14.55H1.7Z"/>
      </g>
    </g>
  </g>
</svg>