<?xml version="1.0" encoding="UTF-8"?>
<svg xmlns="http://www.w3.org/2000/svg" version="1.1" viewBox="0 0 24 24">
  <defs>
    <style>
      .cls-1, .cls-2 {
        fill: none;
      }

      .cls-2 {
        stroke: #fff;
        stroke-linecap: round;
        stroke-linejoin: round;
        stroke-width: 1.6px;
      }
    </style>
  </defs>
  <!-- Generator: Adobe Illustrator 28.7.1, SVG Export Plug-In . SVG Version: 1.2.0 Build 142)  -->
  <g>
    <g id="Layer_2">
      <g id="Layer_1-2">
        <g>
          <rect class="cls-1" y="0" width="24" height="24"/>
          <path class="cls-2" d="M6.2,7.3c.3-.9.7-1.7,1.2-2.3.6-.7,1.2-1.2,2.1-1.5.8-.4,1.8-.5,2.9-.5s1.6.1,2.3.4c.7.3,1.4.6,2,1.1.6.5,1,1.1,1.3,1.8s.5,1.5.5,2.3-.1,1.7-.4,2.3-.7,1.2-1.1,1.7c-.5.5-1,1-1.6,1.4-.6.4-1.2.8-1.8,1.2-.6.4-1.2.8-1.8,1.3-.6.5-1.1,1-1.5,1.6h8.5v3.1H5.4c0-1,.2-1.9.4-2.7.3-.8.7-1.5,1.2-2.1.5-.6,1.1-1.2,1.8-1.7.7-.5,1.4-1,2.2-1.6.4-.3.8-.6,1.2-.8s.9-.6,1.2-.9c.4-.3.7-.7.9-1.1s.4-.9.4-1.5c0-.9-.2-1.6-.8-2-.5-.5-1.1-.7-1.9-.7s-1,.1-1.3.4c-.4.2-.7.6-.9,1-.2.4-.4.8-.5,1.3,0,.5-.1,1-.1,1.4h-3.5c0-1,0-2,.4-2.8h0Z"/>
        </g>
      </g>
    </g>
  </g>
</svg>