<?xml version="1.0" encoding="UTF-8"?>
<svg xmlns="http://www.w3.org/2000/svg" version="1.1" viewBox="0 0 240 234">
  <defs>
    <style>
      .cls-1 {
        fill: none;
      }

      .cls-2 {
        opacity: .1;
      }

      .cls-2, .cls-3 {
        isolation: isolate;
      }

      .cls-3 {
        opacity: .2;
      }

      .cls-4 {
        fill: #0a264f;
      }

      .cls-5 {
        fill: #103f91;
      }

      .cls-6 {
        fill: #185abd;
      }

      .cls-7 {
        fill: #fff;
      }

      .cls-8 {
        fill: #2b7cd3;
      }

      .cls-9 {
        fill: #41a5ee;
      }
    </style>
  </defs>
  <!-- Generator: Adobe Illustrator 28.7.1, SVG Export Plug-In . SVG Version: 1.2.0 Build 142)  -->
  <g>
    <g id="Layer_1">
      <g id="Layer_1-2">
        <path class="cls-4" d="M42.5,0h155C221,0,240,19,240,42.5v149c0,23.5-19,42.5-42.5,42.5H42.5c-23.5,0-42.5-19-42.5-42.5V42.5C0,19,19,0,42.5,0Z"/>
      </g>
      <g>
        <path class="cls-9" d="M190.1,50.1h-102.1c-3.5,0-6.4,2.9-6.4,6.4h0v27.1l57.4,16.7,57.4-16.7v-27.1c0-3.5-2.9-6.4-6.4-6.4h0Z"/>
        <path class="cls-8" d="M196.5,83.6h-114.8v33.5l57.4,16.7,57.4-16.7v-33.5Z"/>
        <path class="cls-6" d="M196.5,117h-114.8v33.5l57.4,16.7,57.4-16.7v-33.5Z"/>
        <path class="cls-5" d="M196.5,150.5h-114.8v27.1c0,3.5,2.9,6.4,6.4,6.4h102.1c3.5,0,6.4-2.9,6.4-6.4h0v-27.1Z"/>
        <path class="cls-2" d="M123.1,74h-41.5v90.9h41.5c3.5,0,6.4-2.9,6.4-6.4v-78.1c0-3.5-2.9-6.4-6.4-6.4Z"/>
        <path class="cls-3" d="M118.3,78.8h-36.7v90.9h36.7c3.5,0,6.4-2.9,6.4-6.4v-78.1c0-3.5-2.9-6.4-6.4-6.4Z"/>
        <path class="cls-3" d="M118.3,78.8h-36.7v81.3h36.7c3.5,0,6.4-2.9,6.4-6.4v-68.6c0-3.5-2.9-6.4-6.4-6.4Z"/>
        <path class="cls-3" d="M113.6,78.8h-31.9v81.3h31.9c3.5,0,6.4-2.9,6.4-6.4v-68.6c0-3.5-2.9-6.4-6.4-6.4Z"/>
        <path class="cls-6" d="M49.8,78.8h63.8c3.5,0,6.4,2.9,6.4,6.4h0v63.8c0,3.5-2.9,6.4-6.4,6.4h-63.8c-3.5,0-6.4-2.9-6.4-6.4h0v-63.8c0-3.5,2.9-6.4,6.4-6.4h0Z"/>
        <path class="cls-7" d="M100.6,141h-8.6l-10-33-10.5,33h-8.6l-9.6-47.8h8.6l6.7,33.5,10-32.5h7.2l9.6,32.5,6.7-33.5h8.1l-9.6,47.8Z"/>
        <path class="cls-1" d="M43.4,40.5h153.1v153.1H43.4V40.5Z"/>
      </g>
    </g>
  </g>
</svg>