<?xml version="1.0" encoding="UTF-8"?>
<svg xmlns="http://www.w3.org/2000/svg" version="1.1" viewBox="0 0 240 234">
  <defs>
    <style>
      .cls-1 {
        fill: #2b2b2b;
      }

      .cls-2 {
        fill: #76cf00;
      }

      .cls-3 {
        fill: #e50099;
      }

      .cls-4 {
        fill: #0af;
      }

      .cls-5 {
        fill: #83d600;
      }

      .cls-6 {
        fill: #ff9100;
      }

      .cls-7 {
        fill: #eead00;
      }

      .cls-8 {
        fill: #ced800;
      }

      .cls-9 {
        fill: #00ccbd;
      }

      .cls-10 {
        fill: #ffe600;
      }

      .cls-11 {
        fill: #ff6636;
      }

      .cls-12 {
        fill: #cff200;
      }

      .cls-13 {
        fill: #a700ff;
      }

      .cls-14 {
        fill: #cf00b9;
      }

      .cls-15 {
        fill: #fc2a51;
      }

      .cls-16 {
        fill: #00dcf2;
      }

      .cls-17 {
        fill: #0080ff;
      }
    </style>
  </defs>
  <!-- Generator: Adobe Illustrator 28.7.1, SVG Export Plug-In . SVG Version: 1.2.0 Build 142)  -->
  <g>
    <g id="Layer_1">
      <g id="Layer_1-2" data-name="Layer_1">
        <path class="cls-1" d="M42.5,0h155C221,0,240,19,240,42.5v149c0,23.5-19,42.5-42.5,42.5H42.5c-23.5,0-42.5-19-42.5-42.5V42.5C0,19,19,0,42.5,0Z"/>
      </g>
      <g>
        <path id="path33624" class="cls-10" d="M84.6,117.5h0s-5.8-5.8-5.8-5.8l-19.2-19.1h-12c-2.7,7.8-4.2,16.2-4.2,25s1.5,17.1,4.2,25h12"/>
        <path id="path33628" class="cls-6" d="M95,142.5h-35.4l-8.5,8.5c7.5,15.4,20,27.9,35.4,35.4l8.5-8.5"/>
        <path id="path33632" class="cls-7" d="M87.5,120.4l-2.9-2.9-25,25h35.4v-3.9c0-6.8-2.7-13.4-7.5-18.2"/>
        <path id="path33636" class="cls-17" d="M161.2,111.6l-5.9,5.9,25,25h12c2.7-7.8,4.2-16.2,4.2-25s-1.5-17.1-4.2-25h-12"/>
        <path id="path33640" class="cls-14" d="M145,142.5v35.4l8.5,8.5c15.4-7.5,27.9-20,35.4-35.4l-8.5-8.5"/>
        <path id="path33644" class="cls-13" d="M145,138.5v3.9h35.4l-25-25-2.9,2.9c-4.8,4.8-7.5,11.4-7.5,18.2"/>
        <path id="path33648" class="cls-16" d="M145,92.5h35.3l8.5-8.5c-7.5-15.4-20-27.8-35.4-35.3l-8.5,8.5"/>
        <path id="path33652" class="cls-5" d="M95.1,57.2l24.9,24.9,25-25v-12c-7.8-2.7-16.2-4.2-25-4.2s-17.1,1.5-25,4.2v12"/>
        <path id="path33656" class="cls-12" d="M95,92.5v-35.4l-8.5-8.5c-15.4,7.5-27.9,20-35.4,35.3l8.5,8.5"/>
        <path id="path33660" class="cls-15" d="M120,152.9l-25,25v12c7.8,2.7,16.2,4.2,25,4.2s17.1-1.5,25-4.2v-12"/>
        <path id="path33664" class="cls-4" d="M155.4,117.5l5.9-5.9,19.1-19.1h-35.3v3.9c0,6.8,2.7,13.4,7.5,18.2"/>
        <path id="path33668" class="cls-8" d="M95,96.4v-3.9h-35.3l19.1,19.1,5.8,5.8,2.8-2.8c4.8-4.8,7.5-11.4,7.5-18.2"/>
        <path id="path33672" class="cls-9" d="M141.1,92.5h3.9v-35.4l-25,25,2.9,2.9c4.8,4.8,11.4,7.5,18.2,7.5"/>
        <path id="path33676" class="cls-2" d="M120,82.1l-24.9-25h0s0,35.3,0,35.3h3.9c6.8,0,13.4-2.7,18.2-7.5"/>
        <path id="path33680" class="cls-11" d="M98.9,142.5h-3.9v35.4l25-25-2.8-2.8c-4.8-4.8-11.4-7.5-18.2-7.5"/>
        <path id="path33684" class="cls-3" d="M120,152.8l25,25v-35.4h-4c-6.8,0-13.4,2.7-18.2,7.5"/>
      </g>
    </g>
  </g>
</svg>