<?xml version="1.0" encoding="UTF-8"?>
<svg xmlns="http://www.w3.org/2000/svg" version="1.1" viewBox="0 0 24 24">
  <defs>
    <style>
      .cls-1, .cls-2 {
        fill: none;
      }

      .cls-2 {
        stroke: #fff;
        stroke-linecap: round;
        stroke-linejoin: round;
        stroke-width: 1.6px;
      }
    </style>
  </defs>
  <!-- Generator: Adobe Illustrator 28.7.1, SVG Export Plug-In . SVG Version: 1.2.0 Build 142)  -->
  <g>
    <g id="Layer_2">
      <g id="Layer_1-2">
        <g>
          <rect class="cls-1" y="0" width="24" height="24"/>
          <g id="Layer_2-2">
            <g>
              <path class="cls-2" d="M21.6,2.6l-9.5,3.3L2.6,2.6h-.4s-.1.1-.1.3v14.8c0,.1,0,.3.3.4l9.7,3.3h0l9.6-3.3c.1,0,.3-.3.3-.4V2.9s0-.3-.1-.3h-.1Z"/>
              <path class="cls-2" d="M4.6,7.5l5,1.7"/>
              <path class="cls-2" d="M4.6,10.7l5,1.7"/>
              <path class="cls-2" d="M4.6,14.1l5,1.7"/>
              <path class="cls-2" d="M19.7,7.5l-5,1.7"/>
              <path class="cls-2" d="M19.7,10.7l-5,1.7"/>
              <path class="cls-2" d="M19.7,14.1l-5,1.7"/>
              <line class="cls-2" x1="12.1" y1="5.8" x2="12.1" y2="21.4"/>
            </g>
          </g>
        </g>
      </g>
    </g>
  </g>
</svg>