<?xml version="1.0" encoding="UTF-8"?>
<svg xmlns="http://www.w3.org/2000/svg" version="1.1" viewBox="0 0 24 24">
  <defs>
    <style>
      .cls-1, .cls-2 {
        fill: none;
      }

      .cls-2 {
        stroke: #fff;
        stroke-linecap: round;
        stroke-linejoin: round;
        stroke-width: 1.6px;
      }
    </style>
  </defs>
  <!-- Generator: Adobe Illustrator 28.7.1, SVG Export Plug-In . SVG Version: 1.2.0 Build 142)  -->
  <g>
    <g id="Layer_2">
      <g id="Layer_1-2">
        <g>
          <g>
            <path class="cls-2" d="M21.4,7H2.6c-.5,0-1,.4-1,1v8.9c0,.5.4,1,1,1h3.5v-4h11.9v4h3.5c.5,0,1-.4,1-1v-8.9c0-.6-.4-1-1-1ZM16.5,10h3-3Z"/>
            <path class="cls-2" d="M6.1,14v7.9c0,.5.4,1,1,1h9.9c.5,0,1-.4,1-1v-7.9H6.1Z"/>
            <path class="cls-2" d="M16.5,1.1H7.5c-.6,0-1,.4-1,1v5h10.9V2.1c0-.5-.4-1-1-1h0Z"/>
          </g>
          <rect class="cls-1" y="0" width="24" height="24"/>
        </g>
      </g>
    </g>
  </g>
</svg>