<?xml version="1.0" encoding="UTF-8"?>
<svg id="Layer_2" xmlns="http://www.w3.org/2000/svg" viewBox="0 0 24 24">
  <defs>
    <style>
      .cls-1, .cls-2 {
        fill: none;
      }

      .cls-2 {
        stroke: #333;
        stroke-linecap: round;
        stroke-linejoin: round;
        stroke-width: 1.6px;
      }

      .cls-3 {
        fill: #333;
      }
    </style>
  </defs>
  <g id="Layer_1-2" data-name="Layer_1">
    <g>
      <g>
        <polyline class="cls-3" points="3.63 5.44 1 6.51 1 9.14 2.32 9.14 2.32 7.29 3.63 6.71"/>
        <circle class="cls-3" cx="7.2" cy="15.45" r="1.28"/>
        <path class="cls-3" d="M7.86,18.68v1.99c0,.6-.49,1.09-1.09,1.09h-.46c-.6,0-1.09-.49-1.09-1.09v-1.99"/>
        <rect class="cls-2" x="3.63" y="2.24" width="16.74" height="16.4" rx="1.83" ry="1.83"/>
        <path class="cls-2" d="M5.92,12v-6.56h12.16v6.56s-5.11,1.97-12.16,0Z"/>
        <polyline class="cls-3" points="20.37 5.44 23 6.51 23 9.14 21.68 9.14 21.68 7.29"/>
        <circle class="cls-3" cx="16.8" cy="15.45" r="1.28"/>
        <path class="cls-3" d="M16.14,18.68v1.99c0,.6.49,1.09,1.09,1.09h.46c.6,0,1.09-.49,1.09-1.09v-1.99"/>
      </g>
      <rect class="cls-1" width="24" height="24"/>
    </g>
  </g>
</svg>