<?xml version="1.0" encoding="utf-8"?>
<!-- Generator: Adobe Illustrator 27.7.0, SVG Export Plug-In . SVG Version: 6.00 Build 0)  -->
<svg version="1.1" id="레이어_1" xmlns="http://www.w3.org/2000/svg" xmlns:xlink="http://www.w3.org/1999/xlink" x="0px"
	 y="0px" viewBox="0 0 100 100" style="enable-background:new 0 0 100 100;" xml:space="preserve">
<g id="안내선_00000006708498300743296520000000111067536031591349_">
	<g id="안내선">
	</g>
</g>
<path d="M50.1,3.9c14.6,0,29.3,0,43.9,0c2.4,0,3.1,0.7,3.1,3.1c0,16.3,0,32.6,0,48.9c0,0.9,0,1.8,0.1,2.7c0.2,1.5-0.4,2.5-1.4,3.5
	C85.1,72.7,74.5,83.4,64,94.1c-1.5,1.5-2.9,2.1-4.9,2C41.4,96,23.8,96,6.1,96c-2.5,0-3.3-0.8-3.3-3.3c0-12,0.1-23.9,0.1-35.9
	c0-15.8,0-31.6,0-47.4c0-0.7-0.1-1.5-0.1-2.2c0-2.4,0.9-3.3,3.2-3.3C20.7,3.9,35.4,3.9,50.1,3.9z M50,19.9C50,19.9,50,19.9,50,19.9
	c-10.2,0-20.3,0-30.5,0c-0.8,0-1,0.2-1,1c0.1,19.4-0.1,38.7,0.1,58.1c0,0.9,0.2,1.1,1.1,1.1c12.6,0,25.1,0,37.7,0.1
	c1,0,1.1-0.4,1.1-1.2c-0.1-4.3,0-8.7-0.1-13c0-4.7,3.1-8.6,8.5-8.4c4.6,0.1,9.1,0,13.7,0c0.7,0,0.8-0.2,0.8-0.9
	c0-11.8-0.1-23.6,0-35.4c0-1-0.2-1.2-1.2-1.2C70.2,19.9,60.1,19.9,50,19.9z M49.9,7.9C49.9,7.9,49.9,7.9,49.9,7.9c-14,0-28,0-41.9,0
	c-0.8,0-1.2,0-1.2,1c0,27.3,0,54.6,0,81.8c0,0.9,0.3,1,1.1,1c3.6,0,7.2,0,10.9,0c12.9,0,25.7,0,38.6,0c0.9,0,1.2-0.1,1.2-1.1
	c-0.1-1.8-0.1-3.7,0-5.5c0-0.7-0.2-1-0.9-1c-1.9,0-3.8,0-5.7,0c-11.5,0-23,0-34.5,0c-2.3,0-2.9-0.6-2.9-2.8c0-20.9,0-41.9,0-62.8
	c0-2,0.7-2.7,2.7-2.7c21.9,0,43.8,0,65.7,0c1.9,0,2.6,0.8,2.6,2.6c0,4.7,0,9.4,0,14.2c0,8,0,15.9,0,23.9c0,0.8,0.2,1.1,1,1
	c1.8-0.1,3.5-0.1,5.3,0c1.1,0.1,1.3-0.3,1.3-1.3c0-15.6,0-31.3,0-46.9c0-1-0.2-1.3-1.3-1.3C77.8,8,63.9,7.9,49.9,7.9z M90.6,61.9
	c-0.1-0.1-0.1-0.2-0.2-0.3c-0.4,0-0.8,0-1.2,0c-7.6,0-15.1,0-22.7,0c-2.6,0-3.8,1.2-3.8,3.8c0,7.7,0,15.3,0.1,23
	c0,0.3-0.2,0.7,0,0.8C72.1,80.1,81.3,71,90.6,61.9z"/>
</svg>
