<?xml version="1.0" encoding="utf-8"?>
<!-- Generator: Adobe Illustrator 27.7.0, SVG Export Plug-In . SVG Version: 6.00 Build 0)  -->
<svg version="1.1" id="레이어_1" xmlns="http://www.w3.org/2000/svg" xmlns:xlink="http://www.w3.org/1999/xlink" x="0px"
	 y="0px" viewBox="0 0 100 100" style="enable-background:new 0 0 100 100;" xml:space="preserve">
<g id="안내선_00000006708498300743296520000000111067536031591349_">
	<g id="안내선">
	</g>
</g>
<g>
	<path d="M83.5,89.5c-0.1-1.4-0.8-2.5-2.3-2.4c-1.3,0.1-1.3-0.6-1.3-1.5c0-25.7,0-51.3,0-76.9c0-1.4,0.3-2,1.7-1.8
		c1.3,0.2,1.9-0.7,2-1.8c0-1.2-0.7-2.1-2-2.1c-0.4,0-0.8,0-1.1,0C70.3,3,60.2,3,50.1,3c-10.3,0-20.7,0-31,0c-1.5,0-2.5,0.8-2.4,2
		c0.2,1.3,0.8,2.1,2.3,1.9c1.1-0.2,1.4,0.4,1.4,1.4c0,25.8,0,51.6,0,77.3c0,1-0.3,1.4-1.3,1.3c-1.8,0-2.4,0.7-2.4,2.5
		c0,1.7,0,3.3,0,5c0,1.8,0.8,2.6,2.6,2.8c1,0.1,2.1,0.2,3,0.2c6.6,0,13.1,0,19.6,0c12.9,0,25.8,0.2,38.6-0.2c1.8,0,2.9-1,3-2.8
		C83.5,92.9,83.6,91.2,83.5,89.5z M25.8,6.9c16.2,0,32.4,0,48.6,0c1.3,0,1.8,0.2,1.8,1.7c-0.1,12.8,0,25.7,0,38.4h0.1
		c0,12.8,0,25.7,0,38.4c0,1.3-0.4,1.6-1.6,1.6c-16.5,0-33.1,0-49.5,0c-0.9,0-1.5,0.1-1.5-1.3c0-25.6,0-51.1,0-76.7
		C23.7,6.5,23.4,6.9,25.8,6.9z M79.8,93.5c-0.2,0.6-0.9,0.3-1.4,0.3c-9.3,0-18.7,0-28,0c-9.6,0-19.2,0-28.8,0
		c-1.4,0-1.7-0.4-1.7-1.7c0-1.3,0.4-1.6,1.6-1.6c9.5,0.1,19,0,28.5,0c9.4,0,18.9,0,28.3,0c0.6,0,1.3-0.4,1.5,0.4
		C80.1,91.7,80.1,92.7,79.8,93.5z"/>
	<path d="M32.1,61c6.3,0,12.5,0,18.8,0c6.5,0,13,0,19.5,0c0.8,0,1.5,0,2-0.8c0.4-0.7,0.2-1.3-0.2-2c-3.3-4.7-6.5-9.4-10.1-13.8
		c-1.2-1.5-2.3-1.5-3.6,0c-1.1,1.3-2.3,2.6-3.2,4c-0.7,0.8-0.8,0.8-1.4-0.1c-2.8-4-5.7-8.1-8.6-12.1c-1.1-1.6-2.3-1.7-3.5-0.1
		c-4.3,6.3-8.7,12.5-13.1,18.8c-0.9,1.3-1.3,2.7-0.5,4.2C29,60.5,30.5,61,32.1,61z M57,51.5c1-1.3,2.1-2.6,3.2-3.9
		c2.5,3.2,4.9,6.4,7.1,10.1c-2.3,0-4.5,0-6.7,0c-0.5,0-0.8-0.2-0.9-0.5c-0.9-1.4-1.9-2.8-2.9-4.2C56.4,52.3,56.8,51.9,57,51.5z
		 M32,56c3.6-5.3,7.2-10.4,10.9-15.6c0.4-0.5,0.6-0.8,1.1-0.2c4.1,5.5,8,11.3,11.9,17.2c-7.9,0-15.5,0-23.1,0c-0.5,0-1,0.2-1.3-0.2
		C31.1,56.9,31.7,56.4,32,56z"/>
	<path d="M58.3,35.9c4.6-0.2,8.5-3.7,8.5-8.3c0-4.8-3.8-8.6-8.5-8.6c-4.8,0-8.3,3.5-8.3,8.3C49.5,32.2,54.5,36,58.3,35.9z
		 M58.2,22.5c2.9,0,5.1,2.3,5.1,5.2c0,2.6-2.3,4.9-4.9,4.9c-2.8,0-5.1-2.3-5-5.4C53.4,24.6,55.5,22.5,58.2,22.5z"/>
</g>
</svg>
