<?xml version="1.0" encoding="utf-8"?>
<!-- Generator: Adobe Illustrator 27.7.0, SVG Export Plug-In . SVG Version: 6.00 Build 0)  -->
<svg version="1.1" id="레이어_1" xmlns="http://www.w3.org/2000/svg" xmlns:xlink="http://www.w3.org/1999/xlink" x="0px"
	 y="0px" viewBox="0 0 509 472" style="enable-background:new 0 0 509 472;" xml:space="preserve">
<style type="text/css">
	.st0{opacity:0.6;clip-path:url(#SVGID_00000061438097453541027620000010406917700722154898_);}
	.st1{fill:#C1CAE3;}
	.st2{fill:#F4CCC3;}
	.st3{fill:#09276C;}
	.st4{fill:#183882;}
	.st5{fill:#999999;}
	.st6{fill:#FFFFFF;}
	.st7{fill:#CCCCCC;}
	.st8{fill:#F2F2F2;}
	.st9{fill:#DAE3E8;}
	.st10{fill:#526CB0;}
</style>
<g>
	<g>
		<defs>
			<rect id="SVGID_1_" width="509" height="472"/>
		</defs>
		<clipPath id="SVGID_00000129905178389847163180000001678092307381955745_">
			<use xlink:href="#SVGID_1_"  style="overflow:visible;"/>
		</clipPath>
		<g style="opacity:0.6;clip-path:url(#SVGID_00000129905178389847163180000001678092307381955745_);">
			<path class="st1" d="M139.6,279.5c77.1,0,139.6-62.6,139.6-139.8C279.3,62.6,216.8,0,139.6,0C62.5,0,0,62.6,0,139.8
				C0,216.9,62.5,279.5,139.6,279.5z"/>
			<path class="st2" d="M429.2,424.4c44.1,0,79.9-35.8,79.9-79.9s-35.8-79.9-79.9-79.9s-79.9,35.8-79.9,79.9
				C349.3,388.6,385.1,424.4,429.2,424.4z"/>
			<path class="st3" d="M151,89.2h258.7c6.3,0,11.3,5.1,11.3,11.3v360.1c0,6.3-5.1,11.3-11.3,11.3H151c-6.3,0-11.3-5.1-11.3-11.3
				v-360C139.6,94.3,144.7,89.2,151,89.2z"/>
			<path class="st4" d="M151,79.5h258.7c6.3,0,11.3,5.1,11.3,11.3V451c0,6.3-5.1,11.3-11.3,11.3H151c-6.3,0-11.3-5.1-11.3-11.3V90.9
				C139.6,84.6,144.7,79.5,151,79.5z"/>
			<g>
				<path class="st5" d="M167.3,439.3V101.9h238.2v337.3"/>
			</g>
			<path class="st6" d="M399.4,95.9H161.2v337.3h238.2V95.9z"/>
			<path class="st7" d="M300.9,60.5c0.2-1,0.2-2,0.2-3.1c0-11.5-9.3-20.8-20.8-20.8s-20.8,9.3-20.8,20.8c0,1,0.1,2.1,0.2,3.1
				c-19.9,5-45.7,17.5-45.7,45.9h132.6C346.6,78.1,320.8,65.6,300.9,60.5L300.9,60.5z M280.3,69c-6.4,0-11.5-5.2-11.5-11.6
				s5.2-11.6,11.5-11.6c6.4,0,11.5,5.2,11.5,11.6S286.7,69,280.3,69z"/>
			<g>
				<path class="st8" d="M346.6,106.4H214c0-2.8,0.2-5.4,0.7-7.9c0.8-4,2.1-7.7,3.9-11H342c1.8,3.3,3.1,7,3.9,11
					C346.4,101,346.6,103.7,346.6,106.4z"/>
			</g>
			<g>
				<path class="st8" d="M346.6,106.4H214c0-2.8,0.2-5.4,0.7-7.9h131.1C346.4,101,346.6,103.7,346.6,106.4L346.6,106.4z"/>
			</g>
			<path class="st9" d="M384.1,158.2H238.4v7.6h145.7L384.1,158.2L384.1,158.2z"/>
			<path class="st9" d="M349.3,176.7H238.4v7.6h110.9V176.7z"/>
			<path class="st10" d="M311.4,139.8h-73v7.6h73V139.8z"/>
			<path class="st10" d="M220.4,167.1c2.8-12-4.6-23.9-16.5-26.8c-11.9-2.8-23.9,4.6-26.7,16.5c-2.8,12,4.6,23.9,16.5,26.8
				C205.6,186.4,217.6,179,220.4,167.1z"/>
			<path class="st6" d="M194.3,173.5c-0.3,0-0.7-0.1-0.9-0.4l-8.8-8.8c-0.2-0.2-0.4-0.6-0.4-0.9s0.1-0.7,0.4-0.9l2.6-2.6
				c0.2-0.2,0.6-0.4,0.9-0.4c0.3,0,0.7,0.1,0.9,0.4l5.3,5.3l14.3-14.3c0.2-0.2,0.6-0.4,0.9-0.4c0.3,0,0.7,0.1,0.9,0.4l2.6,2.6
				c0.2,0.2,0.4,0.6,0.4,0.9c0,0.3-0.1,0.7-0.4,0.9l-17.8,17.8C195,173.3,194.7,173.5,194.3,173.5L194.3,173.5z"/>
			<path class="st9" d="M384.1,229.9H238.4v7.6h145.7L384.1,229.9L384.1,229.9z"/>
			<path class="st9" d="M349.3,248.4H238.4v7.6h110.9V248.4z"/>
			<path class="st10" d="M311.4,211.5h-73v7.6h73V211.5z"/>
			<path class="st10" d="M198.8,256c12.3,0,22.2-10,22.2-22.2c0-12.3-9.9-22.2-22.2-22.2s-22.2,10-22.2,22.2S186.5,256,198.8,256z"
				/>
			<path class="st6" d="M194.3,245.2c-0.3,0-0.7-0.1-0.9-0.4l-8.8-8.8c-0.2-0.2-0.4-0.6-0.4-0.9c0-0.3,0.1-0.7,0.4-0.9l2.6-2.6
				c0.2-0.2,0.6-0.4,0.9-0.4s0.7,0.1,0.9,0.4l5.3,5.3l14.3-14.3c0.2-0.2,0.6-0.4,0.9-0.4c0.3,0,0.7,0.1,0.9,0.4l2.6,2.6
				c0.2,0.2,0.4,0.6,0.4,0.9c0,0.3-0.1,0.7-0.4,0.9l-17.8,17.8C195,245.1,194.7,245.2,194.3,245.2L194.3,245.2z"/>
			<path class="st9" d="M384.1,301.7H238.4v7.6h145.7L384.1,301.7L384.1,301.7z"/>
			<path class="st9" d="M349.3,320.1H238.4v7.6h110.9V320.1z"/>
			<path class="st10" d="M311.4,283.2h-73v7.6h73V283.2z"/>
			<path class="st10" d="M220.4,310.5c2.8-12-4.6-23.9-16.5-26.8c-11.9-2.8-23.9,4.6-26.7,16.5c-2.8,12,4.6,23.9,16.5,26.8
				C205.6,329.9,217.6,322.5,220.4,310.5z"/>
			<path class="st6" d="M194.3,316.9c-0.3,0-0.7-0.1-0.9-0.4l-8.8-8.8c-0.2-0.2-0.4-0.6-0.4-0.9s0.1-0.7,0.4-0.9l2.6-2.6
				c0.2-0.2,0.6-0.4,0.9-0.4s0.7,0.1,0.9,0.4l5.3,5.3l14.3-14.3c0.2-0.2,0.6-0.4,0.9-0.4c0.3,0,0.7,0.1,0.9,0.4l2.6,2.6
				c0.2,0.2,0.4,0.6,0.4,0.9s-0.1,0.7-0.4,0.9l-17.8,17.8C195,316.8,194.7,316.9,194.3,316.9L194.3,316.9z"/>
			<path class="st9" d="M384.1,373.4H238.4v7.6h145.7L384.1,373.4L384.1,373.4z"/>
			<path class="st9" d="M349.3,391.8H238.4v7.6h110.9V391.8z"/>
			<path class="st10" d="M311.4,354.9h-73v7.6h73V354.9z"/>
			<path class="st10" d="M198.8,399.4c12.3,0,22.2-10,22.2-22.2c0-12.3-9.9-22.2-22.2-22.2s-22.2,10-22.2,22.2
				C176.6,389.5,186.5,399.4,198.8,399.4z"/>
			<path class="st6" d="M194.3,388.7c-0.3,0-0.7-0.1-0.9-0.4l-8.8-8.8c-0.2-0.2-0.4-0.6-0.4-0.9s0.1-0.7,0.4-0.9l2.6-2.6
				c0.2-0.2,0.6-0.4,0.9-0.4s0.7,0.1,0.9,0.4l5.3,5.3l14.3-14.3c0.2-0.2,0.6-0.4,0.9-0.4c0.3,0,0.7,0.1,0.9,0.4l2.6,2.6
				c0.2,0.2,0.4,0.6,0.4,0.9s-0.1,0.7-0.4,0.9l-17.8,17.8C195,388.5,194.7,388.7,194.3,388.7L194.3,388.7z"/>
		</g>
	</g>
</g>
</svg>
