<?xml version="1.0" encoding="utf-8"?>
<!-- Generator: Adobe Illustrator 26.5.0, SVG Export Plug-In . SVG Version: 6.00 Build 0)  -->
<svg version="1.1" id="레이어_1" xmlns="http://www.w3.org/2000/svg" xmlns:xlink="http://www.w3.org/1999/xlink" x="0px"
	 y="0px" viewBox="0 0 40 40" style="enable-background:new 0 0 40 40;" xml:space="preserve">
<style type="text/css">
	.st0{clip-path:url(#SVGID_00000063619365431150308050000000567002755428281517_);}
	.st1{fill:#001E36;}
	.st2{fill:#31A8FF;}
</style>
<g>
	<defs>
		<rect id="SVGID_1_" x="2.1" y="2.5" width="35.9" height="35"/>
	</defs>
	<clipPath id="SVGID_00000181780612069281709080000016112417751611923854_">
		<use xlink:href="#SVGID_1_"  style="overflow:visible;"/>
	</clipPath>
	<g style="clip-path:url(#SVGID_00000181780612069281709080000016112417751611923854_);">
		<path class="st1" d="M8.4,2.5h23.2c3.5,0,6.4,2.8,6.4,6.4v22.3c0,3.5-2.8,6.4-6.4,6.4H8.4c-3.5,0-6.4-2.8-6.4-6.4V8.9
			C2.1,5.3,4.9,2.5,8.4,2.5z"/>
		<path class="st2" d="M10.1,27V11.7c0-0.1,0-0.2,0.1-0.2c0.3,0,0.5,0,0.8,0c0.4,0,0.7,0,1.1,0c0.4,0,0.8,0,1.3,0c0.5,0,0.9,0,1.4,0
			c1.2,0,2.2,0.1,3.1,0.5c0.7,0.3,1.4,0.7,2,1.2c0.5,0.5,0.9,1.1,1.1,1.7c0.2,0.6,0.3,1.3,0.3,1.9c0,1.3-0.3,2.3-0.9,3.2
			c-0.6,0.8-1.4,1.5-2.4,1.8c-1,0.4-2.1,0.5-3.4,0.5c-0.4,0-0.6,0-0.7,0c-0.1,0-0.4,0-0.6,0V27c0,0.1-0.1,0.2-0.2,0.2c0,0,0,0-0.1,0
			h-2.8C10.2,27.2,10.1,27.2,10.1,27z M13.4,14.4v5c0.2,0,0.4,0,0.6,0h0.8c0.6,0,1.2-0.1,1.7-0.3c0.5-0.1,0.9-0.4,1.2-0.8
			c0.3-0.4,0.5-0.9,0.5-1.5c0-0.5-0.1-0.9-0.3-1.3c-0.3-0.4-0.6-0.7-1-0.9c-0.6-0.2-1.2-0.3-1.8-0.3c-0.4,0-0.7,0-1,0
			C13.7,14.3,13.5,14.4,13.4,14.4z"/>
		<path class="st2" d="M30.8,18.5c-0.4-0.2-0.9-0.4-1.4-0.5c-0.6-0.1-1.1-0.2-1.7-0.2c-0.3,0-0.6,0-0.9,0.1c-0.2,0-0.4,0.1-0.5,0.3
			c-0.1,0.1-0.1,0.3-0.1,0.4c0,0.1,0.1,0.3,0.1,0.4c0.1,0.2,0.3,0.3,0.5,0.4c0.3,0.2,0.7,0.3,1.1,0.5c0.8,0.3,1.6,0.6,2.3,1.1
			c0.5,0.3,0.9,0.7,1.2,1.2c0.2,0.5,0.4,1,0.3,1.5c0,0.7-0.2,1.4-0.6,2c-0.4,0.6-1,1.1-1.7,1.3c-0.7,0.3-1.6,0.5-2.7,0.5
			c-0.7,0-1.4-0.1-2-0.2c-0.5-0.1-1-0.3-1.5-0.5c-0.1-0.1-0.2-0.2-0.2-0.3V24c0,0,0-0.1,0.1-0.1c0,0,0.1,0,0.1,0
			c0.6,0.3,1.2,0.6,1.9,0.7c0.6,0.1,1.2,0.2,1.8,0.2c0.6,0,1-0.1,1.2-0.2c0.2-0.1,0.4-0.4,0.4-0.6c0-0.2-0.1-0.4-0.4-0.6
			c-0.2-0.2-0.7-0.4-1.5-0.7c-0.8-0.3-1.5-0.6-2.1-1.1c-0.5-0.3-0.9-0.8-1.1-1.3c-0.2-0.5-0.4-1-0.3-1.5c0-0.6,0.2-1.3,0.5-1.8
			c0.4-0.6,0.9-1.1,1.6-1.4c0.7-0.4,1.6-0.5,2.6-0.5c0.6,0,1.2,0,1.9,0.1c0.4,0.1,0.9,0.2,1.3,0.3c0.1,0,0.1,0.1,0.1,0.1
			c0,0.1,0,0.1,0,0.2v2.4c0,0.1,0,0.1-0.1,0.1C30.9,18.5,30.8,18.5,30.8,18.5z"/>
	</g>
</g>
</svg>
