<svg width="20" height="20" viewBox="0 0 20 20" fill="none" xmlns="http://www.w3.org/2000/svg">
<path d="M10.0004 13.9583C10.1776 13.9583 10.326 13.8984 10.4456 13.7785C10.5653 13.6588 10.6252 13.5104 10.6252 13.3333V9.79165C10.6252 9.61456 10.5652 9.46609 10.4454 9.34623C10.3255 9.22651 10.177 9.16665 9.99995 9.16665C9.82273 9.16665 9.67433 9.22651 9.55475 9.34623C9.43502 9.46609 9.37516 9.61456 9.37516 9.79165V13.3333C9.37516 13.5104 9.43509 13.6588 9.55495 13.7785C9.67482 13.8984 9.82329 13.9583 10.0004 13.9583ZM10.0002 7.7404C10.1909 7.7404 10.3507 7.67588 10.4797 7.54685C10.6088 7.41783 10.6733 7.25797 10.6733 7.06727C10.6733 6.87658 10.6088 6.71672 10.4797 6.58769C10.3507 6.4588 10.1909 6.39435 10.0002 6.39435C9.80947 6.39435 9.64961 6.4588 9.52058 6.58769C9.39155 6.71672 9.32704 6.87658 9.32704 7.06727C9.32704 7.25797 9.39155 7.41783 9.52058 7.54685C9.64961 7.67588 9.80947 7.7404 10.0002 7.7404ZM10.0016 17.9166C8.90662 17.9166 7.87738 17.7089 6.91391 17.2933C5.95044 16.8778 5.11238 16.3138 4.39975 15.6014C3.68711 14.8891 3.12287 14.0514 2.70704 13.0883C2.29134 12.1253 2.0835 11.0963 2.0835 10.0014C2.0835 8.90644 2.29127 7.8772 2.70683 6.91373C3.12238 5.95026 3.68634 5.1122 4.3987 4.39956C5.11107 3.68692 5.94877 3.12269 6.91183 2.70685C7.87488 2.29116 8.90384 2.08331 9.9987 2.08331C11.0937 2.08331 12.1229 2.29109 13.0864 2.70665C14.0499 3.1222 14.8879 3.68616 15.6006 4.39852C16.3132 5.11088 16.8775 5.94859 17.2933 6.91165C17.709 7.8747 17.9168 8.90366 17.9168 9.99852C17.9168 11.0935 17.7091 12.1228 17.2935 13.0862C16.8779 14.0497 16.314 14.8878 15.6016 15.6004C14.8893 16.313 14.0516 16.8773 13.0885 17.2931C12.1254 17.7088 11.0965 17.9166 10.0016 17.9166ZM10.0002 16.6666C11.8613 16.6666 13.4377 16.0208 14.7293 14.7291C16.021 13.4375 16.6668 11.8611 16.6668 9.99998C16.6668 8.13887 16.021 6.56248 14.7293 5.27081C13.4377 3.97915 11.8613 3.33331 10.0002 3.33331C8.13905 3.33331 6.56266 3.97915 5.271 5.27081C3.97933 6.56248 3.3335 8.13887 3.3335 9.99998C3.3335 11.8611 3.97933 13.4375 5.271 14.7291C6.56266 16.0208 8.13905 16.6666 10.0002 16.6666Z" fill="#868E96"/>
</svg>
