<?xml version="1.0" encoding="utf-8"?>
<!-- Generator: Adobe Illustrator 27.7.0, SVG Export Plug-In . SVG Version: 6.00 Build 0)  -->
<svg version="1.1" id="레이어_1" xmlns="http://www.w3.org/2000/svg" xmlns:xlink="http://www.w3.org/1999/xlink" x="0px"
	 y="0px" viewBox="0 0 20 20" style="enable-background:new 0 0 20 20;" xml:space="preserve">
<style type="text/css">
	.st0{fill:#394E98;}
</style>
<path class="st0" d="M5,18.3c-0.5,0-0.9-0.2-1.2-0.5s-0.5-0.7-0.5-1.2V3.3c0-0.5,0.2-0.9,0.5-1.2S4.5,1.7,5,1.7h6
	c0.2,0,0.4,0,0.6,0.1S12,2,12.1,2.1l4,4c0.2,0.2,0.3,0.3,0.4,0.5c0.1,0.2,0.1,0.4,0.1,0.6v9.3c0,0.5-0.2,0.9-0.5,1.2
	c-0.3,0.3-0.7,0.5-1.2,0.5L5,18.3L5,18.3z M10.8,6.7V3.3H5v13.3h10V7.5h-3.3c-0.2,0-0.4-0.1-0.6-0.2S10.8,6.9,10.8,6.7z"/>
</svg>
