<?xml version="1.0" encoding="utf-8"?>
<!-- Generator: Adobe Illustrator 27.7.0, SVG Export Plug-In . SVG Version: 6.00 Build 0)  -->
<svg version="1.1" id="레이어_1" xmlns="http://www.w3.org/2000/svg" xmlns:xlink="http://www.w3.org/1999/xlink" x="0px"
	 y="0px" viewBox="0 0 100 100" style="enable-background:new 0 0 100 100;" xml:space="preserve">
<style type="text/css">
	.st0{fill:none;stroke:#000000;stroke-width:3.3;stroke-linecap:round;stroke-linejoin:round;stroke-miterlimit:10;}
</style>
<g id="안내선_00000006708498300743296520000000111067536031591349_">
	<g id="안내선">
	</g>
</g>
<g id="기타_00000038411312295233722030000003951519244228466342_">
	<g>
		<path class="st0" d="M81.6,41.5H66.5c-2.1,0-4.1,0.7-5.7,2c-8.5,6.9-8.1,16.8-8.1,32.4c0,12.4-3.5,17.3-5.4,19.1
			c-0.4,0.3-0.1,0.9,0.3,0.9h15.9c0.4,0,0.8-0.1,1.1-0.4C66.3,94,71,85.3,69.9,75"/>
		<ellipse class="st0" cx="81.6" cy="66.7" rx="12.3" ry="25.2"/>
		<ellipse class="st0" cx="82.1" cy="66.7" rx="4.6" ry="14.7"/>
		<line class="st0" x1="81.6" y1="91.9" x2="67.6" y2="91.9"/>
	</g>
	<g>
		<circle class="st0" cx="23.3" cy="50" r="19.2"/>
		<path class="st0" d="M24.9,69.1c-0.5-1.2-0.7-2.6-0.7-4c0-6,4.9-10.9,10.9-10.9c2.3,0,4.4,0.7,6.1,1.9"/>
	</g>
	<rect x="49" y="5.2" class="st0" width="37.9" height="25.5"/>
</g>
</svg>
