<?xml version="1.0" encoding="utf-8"?>
<!-- Generator: Adobe Illustrator 27.7.0, SVG Export Plug-In . SVG Version: 6.00 Build 0)  -->
<svg version="1.1" id="레이어_1" xmlns="http://www.w3.org/2000/svg" xmlns:xlink="http://www.w3.org/1999/xlink" x="0px"
	 y="0px" viewBox="0 0 24 24" style="enable-background:new 0 0 24 24;" xml:space="preserve">
<style type="text/css">
	.st0{fill:#394E98;}
</style>
<path class="st0" d="M6.3,16.1c0.8,0,1.6,0.1,2.4,0.3c0.7,0.2,1.6,0.4,2.3,0.8V7c-0.7-0.4-1.4-0.7-2.3-0.9S7.1,5.8,6.3,5.8
	C5.7,5.8,5.1,5.9,4.5,6S3.2,6.3,2.7,6.5v10.2c0.6-0.2,1.2-0.4,1.8-0.5C5,16.1,5.7,16.1,6.3,16.1z M13,17.2c0.7-0.3,1.6-0.6,2.3-0.8
	s1.6-0.3,2.4-0.3c0.6,0,1.2,0,1.9,0.1c0.6,0.1,1.2,0.2,1.8,0.5V6.5c-0.5-0.2-1.1-0.4-1.8-0.5c-0.6-0.1-1.2-0.2-1.9-0.2
	c-0.8,0-1.7,0.1-2.4,0.3S13.8,6.6,13,7V17.2z M12,19.8c-0.2,0-0.5,0-0.7-0.1s-0.4-0.1-0.6-0.2C10,19,9.3,18.7,8.5,18.5
	c-0.6-0.2-1.4-0.3-2.2-0.3s-1.4,0.1-2.2,0.3c-0.7,0.2-1.3,0.4-2,0.8c-0.3,0.2-0.7,0.2-1,0c-0.3-0.3-0.5-0.6-0.5-1V5.9
	c0-0.2,0-0.4,0.1-0.5C0.8,5.2,0.9,5.1,1.1,5C2,4.6,2.8,4.3,3.7,4.1s1.7-0.3,2.6-0.3c1,0,2,0.1,2.9,0.4c1,0.2,2,0.6,2.8,1.1
	c0.9-0.5,1.8-0.9,2.8-1.1s1.9-0.4,2.9-0.4c0.9,0,1.8,0.1,2.7,0.3C21.2,4.3,22,4.6,22.9,5c0.2,0.1,0.3,0.2,0.4,0.4
	c0.1,0.1,0.1,0.3,0.1,0.5v12.4c0,0.4-0.2,0.7-0.5,0.9s-0.7,0.2-1,0c-0.6-0.3-1.3-0.6-2-0.8c-0.7-0.2-1.4-0.3-2.2-0.3
	c-0.8,0-1.6,0.1-2.3,0.3s-1.4,0.5-2.2,0.9c-0.2,0.1-0.4,0.2-0.6,0.2C12.5,19.7,12.2,19.8,12,19.8z M14.1,8.7c0-0.1,0.1-0.3,0.2-0.5
	c0.1-0.2,0.2-0.3,0.4-0.3c0.5-0.2,1-0.3,1.4-0.4c0.5-0.1,1-0.1,1.6-0.1c0.3,0,0.7,0,1,0.1c0.3,0,0.6,0.1,1,0.2
	c0.1,0,0.3,0.1,0.4,0.2c0,0.1,0.1,0.3,0.1,0.4c0,0.3-0.1,0.5-0.3,0.6C19.8,9,19.5,9.1,19.2,9c-0.2-0.1-0.5-0.1-0.7-0.1
	c-0.3,0-0.5,0-0.8,0c-0.4,0-0.9,0-1.3,0.1c-0.4,0.1-0.8,0.2-1.2,0.3c-0.3,0.1-0.5,0.1-0.7,0C14.2,9.2,14.1,9,14.1,8.7z M14.1,14.4
	c0-0.1,0.1-0.3,0.2-0.5c0.1-0.2,0.2-0.3,0.4-0.3c0.5-0.2,1-0.3,1.4-0.4c0.5-0.1,1-0.1,1.6-0.1c0.3,0,0.7,0,1,0.1
	c0.3,0,0.6,0.1,1,0.2c0.1,0,0.3,0.1,0.4,0.2s0.2,0.3,0.2,0.5c0,0.3-0.1,0.5-0.3,0.6c-0.2,0.1-0.4,0.2-0.7,0.1
	c-0.2-0.1-0.5-0.1-0.7-0.1c-0.3,0-0.5,0-0.8,0c-0.4,0-0.9,0-1.3,0.1s-0.8,0.2-1.2,0.3c-0.3,0.1-0.5,0.1-0.7,0
	C14.2,14.9,14.1,14.7,14.1,14.4z M14.1,11.5c0-0.1,0.1-0.3,0.2-0.5s0.2-0.3,0.4-0.3c0.5-0.2,1-0.3,1.4-0.4c0.5-0.1,1-0.1,1.6-0.1
	c0.3,0,0.7,0,1,0.1c0.3,0,0.6,0.1,1,0.2c0.1,0,0.3,0.1,0.4,0.2c0.1,0.1,0.2,0.3,0.2,0.5c0,0.3-0.1,0.5-0.3,0.6
	c-0.2,0.1-0.4,0.2-0.7,0.1c-0.2-0.1-0.5-0.1-0.7-0.1c-0.3,0-0.5,0-0.8,0c-0.4,0-0.9,0-1.3,0.1c-0.4,0.1-0.8,0.2-1.2,0.3
	c-0.3,0.1-0.5,0.1-0.7,0C14.2,12,14.1,11.8,14.1,11.5z"/>
</svg>
