<?xml version="1.0" encoding="utf-8"?>
<!-- Generator: Adobe Illustrator 27.7.0, SVG Export Plug-In . SVG Version: 6.00 Build 0)  -->
<svg version="1.1" id="Layer_2" xmlns="http://www.w3.org/2000/svg" xmlns:xlink="http://www.w3.org/1999/xlink" x="0px" y="0px"
	 viewBox="0 0 20 20" style="enable-background:new 0 0 20 20;" xml:space="preserve">
<style type="text/css">
	.st0{fill:none;}
	.st1{fill:#394E98;}
	.st2{fill:none;stroke:#868E96;stroke-width:1.4;stroke-linecap:round;stroke-linejoin:round;}
</style>
<rect class="st0" width="20" height="20"/>
<g>
	<path class="st1" d="M3.2,12.7c-0.9,0.9-0.9,2.4,0,3.2c0.4,0.4,1,0.6,1.7,0.6s1.1-0.2,1.7-0.6c0.9-0.9,0.9-2.3,0-3.2
		C5.5,11.8,4.1,11.8,3.2,12.7z M5.4,14.9c-0.3,0.3-0.8,0.3-1.1,0c-0.3-0.3-0.3-0.8,0-1.1c0.3-0.3,0.8-0.3,1.1,0
		C5.7,14.1,5.7,14.6,5.4,14.9z"/>
	<path class="st1" d="M18.2,11.2c-1.2-1.1-2.9-1.6-4.5-1l-1.1-1.1l0,0l0,0L15,6.7c1-1,1.7-2.3,1.8-3.7V2.8c0-0.5-0.2-0.9-0.6-1.2
		c-0.5-0.2-1-0.1-1.5,0.2L10,6.6l0,0l0,0L5.3,1.9C4.9,1.5,4.4,1.4,3.9,1.7C3.4,1.9,3.1,2.4,3.2,2.8c0,0,0,0.1,0,0.2
		C3.4,4.5,4.1,5.7,5,6.8l2.4,2.4l-1,1C4.8,9.7,3.1,10,2,11.2c-1,0.8-1.5,2.1-1.4,3.2c0.1,1.2,0.6,2.3,1.6,3.1
		c0.7,0.6,1.7,0.9,2.6,0.9s1.9-0.3,2.7-0.9c1.5-1.1,1.9-3,1.4-4.7l1.1-1.1l0,0l0,0l1.1,1.1c-0.6,1.7-0.1,3.5,1.4,4.7
		c0.7,0.6,1.8,0.9,2.7,0.9c0.9,0,1.9-0.3,2.6-0.9c0.9-0.7,1.6-1.9,1.6-3.1C19.5,13.3,19,12.2,18.2,11.2z M6,5.6
		C5.4,5,4.9,4.2,4.7,3.3L9,7.6l0,0l1,1l1-1l0,0l4.2-4.3C15,4.2,14.6,5,14,5.6L11.6,8l0,0l-1,1l1,1l0,0l1.6,1.6
		c0.2,0.2,0.5,0.3,0.8,0.1c1-0.5,2.4-0.3,3.2,0.5c0,0,0,0,0.1,0.1c0.5,0.5,0.8,1.4,0.7,2.1c0,0.8-0.4,1.6-1,2c-1,0.8-2.5,0.8-3.4,0
		c-1-0.8-1.4-2.2-0.7-3.4c0.1-0.3,0.1-0.6-0.1-0.8L11,10.6l-1-1l-1,1.1l0,0l-1.6,1.5c-0.2,0.2-0.3,0.5-0.1,0.8
		c0.6,1.1,0.3,2.6-0.7,3.4c-0.9,0.8-2.5,0.8-3.4,0c-0.6-0.5-1-1.2-1-2.1s0.2-1.6,0.8-2.1c0.8-0.8,2.2-1,3.2-0.5
		c0.3,0.1,0.6,0.1,0.8-0.1l1.6-1.6l0,0l0.9-0.9"/>
	<path class="st1" d="M13.6,12.7c-0.9,0.9-0.9,2.3,0,3.2c0.3,0.4,0.9,0.6,1.6,0.6s1.1-0.2,1.7-0.6c0.9-0.9,0.9-2.3,0-3.2
		C15.9,11.8,14.5,11.8,13.6,12.7z M15.8,14.8c-0.3,0.3-0.8,0.3-1.1,0c-0.4-0.2-0.4-0.7-0.1-1.1c0.2-0.2,0.4-0.2,0.6-0.2
		c0.2,0,0.4,0.1,0.6,0.2C16.1,14,16.1,14.5,15.8,14.8z"/>
</g>
<g id="Layer_1-2_00000183225560382907330340000013139862644431481481_">
	<g>
		<rect x="28.9" class="st0" width="20" height="20"/>
		<g>
			<path class="st2" d="M31.8,16.8c1.2,1,3,1,4.2,0c1.3-1.1,1.6-2.8,0.9-4.1l6.3-6.3c0.9-0.8,1.4-2,1.5-3.2V3.1
				c0.1-0.5-0.5-0.7-0.8-0.4l-8.4,8.4c-1.3-0.6-2.9-0.4-3.9,0.6C30.1,13.1,30.2,15.5,31.8,16.8z M32.9,13.1c0.6-0.6,1.5-0.6,2.1,0
				s0.6,1.5,0,2.1s-1.5,0.6-2.1,0C32.3,14.6,32.3,13.6,32.9,13.1z"/>
			<path class="st2" d="M46.2,11.7c-1.1-1.1-2.6-1.3-3.9-0.6l-8.4-8.4c-0.3-0.3-0.9-0.1-0.8,0.4v0.1c0.1,1.2,0.7,2.3,1.5,3.2
				l6.3,6.3c-0.7,1.4-0.4,3.1,0.9,4.1c1.2,1,3,1,4.2,0C47.6,15.5,47.7,13.1,46.2,11.7L46.2,11.7z M44.9,15.2c-0.6,0.6-1.5,0.6-2.1,0
				s-0.6-1.5,0-2.1c0.6-0.6,1.5-0.6,2.1,0C45.5,13.6,45.5,14.6,44.9,15.2z"/>
		</g>
	</g>
</g>
</svg>
