<?xml version="1.0" encoding="utf-8"?>
<!-- Generator: Adobe Illustrator 27.7.0, SVG Export Plug-In . SVG Version: 6.00 Build 0)  -->
<svg version="1.1" id="레이어_1" xmlns="http://www.w3.org/2000/svg" xmlns:xlink="http://www.w3.org/1999/xlink" x="0px"
	 y="0px" viewBox="0 0 24 24" style="enable-background:new 0 0 24 24;" xml:space="preserve">
<style type="text/css">
	.st0{fill:#394E98;}
</style>
<path class="st0" d="M7.1,22.5c-0.6,0-1.1-0.2-1.5-0.6S5,21,5,20.5c0-0.6,0.2-1.1,0.6-1.5s0.9-0.6,1.5-0.6s1.1,0.2,1.5,0.6
	c0.4,0.4,0.6,0.9,0.6,1.5S9,21.6,8.6,22C8.2,22.3,7.7,22.5,7.1,22.5z M17.5,22.5c-0.6,0-1.1-0.2-1.5-0.6s-0.6-0.9-0.6-1.5
	s0.2-1.1,0.6-1.5c0.4-0.4,0.9-0.6,1.5-0.6s1.1,0.2,1.5,0.6s0.6,0.9,0.6,1.5s-0.2,1.1-0.6,1.5S18.1,22.5,17.5,22.5z M6.4,5.8l2.4,4.9
	H16l2.7-4.9C18.7,5.8,6.4,5.8,6.4,5.8z M5.3,3.5h15.2c0.5,0,0.8,0.2,1.1,0.6c0.2,0.4,0.3,0.8,0,1.3L18,11.9
	c-0.2,0.4-0.5,0.6-0.8,0.8S16.5,13,16.1,13H8.3l-1.1,2h11.3c0.3,0,0.6,0.1,0.8,0.3c0.2,0.2,0.3,0.5,0.3,0.8c0,0.3-0.1,0.6-0.3,0.8
	c-0.2,0.2-0.5,0.3-0.8,0.3H7.1c-0.8,0-1.5-0.4-1.9-1.1c-0.4-0.7-0.4-1.4,0-2.1l1.4-2.5L2.8,3.7h-1C1.5,3.7,1.3,3.6,1,3.4
	C0.8,3.2,0.7,2.9,0.7,2.6S0.8,2,1,1.8s0.5-0.3,0.8-0.3h1.7c0.2,0,0.4,0.1,0.6,0.2S4.4,2,4.5,2.2C4.6,2.1,5.3,3.5,5.3,3.5z M8.7,10.8
	H16H8.7z"/>
</svg>
