<svg width="16" height="16" viewBox="0 0 16 16" fill="none" xmlns="http://www.w3.org/2000/svg">
<path d="M7.99984 13.3333C6.51095 13.3333 5.24984 12.8167 4.2165 11.7833C3.18317 10.75 2.6665 9.48889 2.6665 8C2.6665 6.51112 3.18317 5.25001 4.2165 4.21667C5.24984 3.18334 6.51095 2.66667 7.99984 2.66667C8.7665 2.66667 9.49984 2.82501 10.1998 3.14167C10.8998 3.45834 11.4998 3.91112 11.9998 4.50001V3.33334C11.9998 3.14445 12.0637 2.98612 12.1915 2.85834C12.3193 2.73056 12.4776 2.66667 12.6665 2.66667C12.8554 2.66667 13.0137 2.73056 13.1415 2.85834C13.2693 2.98612 13.3332 3.14445 13.3332 3.33334V6.66667C13.3332 6.85556 13.2693 7.01389 13.1415 7.14167C13.0137 7.26945 12.8554 7.33334 12.6665 7.33334H9.33317C9.14428 7.33334 8.98595 7.26945 8.85817 7.14167C8.73039 7.01389 8.6665 6.85556 8.6665 6.66667C8.6665 6.47778 8.73039 6.31945 8.85817 6.19167C8.98595 6.06389 9.14428 6 9.33317 6H11.4665C11.1109 5.37778 10.6248 4.88889 10.0082 4.53334C9.3915 4.17778 8.72206 4.00001 7.99984 4.00001C6.88873 4.00001 5.94428 4.38889 5.1665 5.16667C4.38873 5.94445 3.99984 6.88889 3.99984 8C3.99984 9.11112 4.38873 10.0556 5.1665 10.8333C5.94428 11.6111 6.88873 12 7.99984 12C8.75539 12 9.44706 11.8083 10.0748 11.425C10.7026 11.0417 11.1887 10.5278 11.5332 9.88334C11.6221 9.72778 11.7471 9.61945 11.9082 9.55834C12.0693 9.49723 12.2332 9.49445 12.3998 9.55C12.5776 9.60556 12.7054 9.72223 12.7832 9.9C12.8609 10.0778 12.8554 10.2444 12.7665 10.4C12.3109 11.2889 11.6609 12 10.8165 12.5333C9.97206 13.0667 9.03317 13.3333 7.99984 13.3333Z" fill="white"/>
</svg>
