<svg width="29" height="29" viewBox="0 0 29 29" fill="none" xmlns="http://www.w3.org/2000/svg">
<path d="M7.2085 14.2585C7.2085 14.5995 7.23163 14.9394 7.27791 15.2781C7.32439 15.617 7.40372 15.951 7.51591 16.28C7.59058 16.5283 7.5827 16.7657 7.49229 16.9923C7.40187 17.2188 7.24816 17.3814 7.03116 17.4802C6.8023 17.5908 6.57461 17.5998 6.34808 17.507C6.12155 17.4143 5.97086 17.2439 5.896 16.9958C5.74044 16.5559 5.62863 16.1045 5.56058 15.6415C5.49252 15.1788 5.4585 14.7177 5.4585 14.2585C5.4585 11.7352 6.33651 9.58771 8.09254 7.81613C9.84857 6.04435 11.9844 5.15846 14.5002 5.15846H15.411L13.8675 3.61496C13.706 3.45338 13.6233 3.25028 13.6196 3.00567C13.6159 2.76125 13.6986 2.55446 13.8675 2.38529C14.0365 2.21632 14.2414 2.13184 14.4821 2.13184C14.723 2.13184 14.9279 2.21632 15.0969 2.38529L18.0069 5.29525C18.2178 5.50623 18.3233 5.75229 18.3233 6.03346C18.3233 6.31463 18.2178 6.5607 18.0069 6.77167L15.0969 9.68163C14.9353 9.84302 14.7323 9.92566 14.4879 9.92955C14.2433 9.93324 14.0365 9.8506 13.8675 9.68163C13.6986 9.51246 13.6141 9.30752 13.6141 9.06679C13.6141 8.82607 13.6986 8.62113 13.8675 8.45196L15.411 6.90846H14.5002C12.4735 6.90846 10.7515 7.62188 9.33416 9.04871C7.91705 10.4757 7.2085 12.2123 7.2085 14.2585ZM21.7918 14.1418C21.7918 13.8007 21.7687 13.4608 21.7224 13.1221C21.6759 12.7832 21.5966 12.4493 21.4844 12.1203C21.4097 11.8719 21.4176 11.6345 21.508 11.408C21.5985 11.1815 21.7522 11.0188 21.9692 10.92C22.198 10.8094 22.4239 10.8005 22.6467 10.8932C22.8695 10.986 23.0183 11.1564 23.093 11.4045C23.2485 11.8443 23.3623 12.2957 23.4342 12.7587C23.506 13.2215 23.5418 13.6825 23.5418 14.1418C23.5418 16.6651 22.6638 18.8125 20.9078 20.5841C19.1518 22.3559 17.0159 23.2418 14.5002 23.2418H13.5893L15.1328 24.7853C15.2944 24.9469 15.377 25.15 15.3807 25.3946C15.3844 25.639 15.3018 25.8458 15.1328 26.015C14.9638 26.1839 14.759 26.2684 14.5182 26.2684C14.2773 26.2684 14.0724 26.1839 13.9034 26.015L10.9935 23.105C10.7825 22.894 10.677 22.648 10.677 22.3668C10.677 22.0856 10.7825 21.8396 10.9935 21.6286L13.9034 18.7186C14.065 18.5572 14.268 18.4746 14.5124 18.4707C14.757 18.467 14.9638 18.5497 15.1328 18.7186C15.3018 18.8878 15.3862 19.0927 15.3862 19.3335C15.3862 19.5742 15.3018 19.7791 15.1328 19.9483L13.5893 21.4918H14.5002C16.5269 21.4918 18.2489 20.7784 19.6662 19.3515C21.0833 17.9245 21.7918 16.1879 21.7918 14.1418Z" fill="#767676"/>
</svg>
