<?xml version="1.0" encoding="utf-8"?>
<!-- Generator: Adobe Illustrator 27.7.0, SVG Export Plug-In . SVG Version: 6.00 Build 0)  -->
<svg version="1.1" id="레이어_1" xmlns="http://www.w3.org/2000/svg" xmlns:xlink="http://www.w3.org/1999/xlink" x="0px"
	 y="0px" viewBox="0 0 24 24" style="enable-background:new 0 0 24 24;" xml:space="preserve">
<style type="text/css">
	.st0{fill:#394E98;}
</style>
<path class="st0" d="M12,13.9l-6.5,6.5c-0.2,0.2-0.6,0.4-0.9,0.4c-0.4,0-0.7-0.1-0.9-0.4s-0.4-0.6-0.4-0.9c0-0.4,0.1-0.7,0.4-0.9
	l6.5-6.5L3.6,5.5c-0.3-0.3-0.4-0.6-0.4-1s0.1-0.7,0.4-0.9s0.6-0.4,0.9-0.4c0.4,0,0.7,0.1,0.9,0.4l6.5,6.5l6.5-6.5
	c0.2-0.2,0.6-0.4,0.9-0.4s0.7,0.1,0.9,0.4s0.4,0.6,0.4,0.9s-0.1,0.7-0.4,0.9L13.9,12l6.5,6.5c0.2,0.2,0.4,0.6,0.4,0.9
	c0,0.4-0.1,0.7-0.4,0.9s-0.6,0.4-0.9,0.4s-0.7-0.1-0.9-0.4L12,13.9z"/>
</svg>
