<?xml version="1.0" encoding="utf-8"?>
<!-- Generator: Adobe Illustrator 27.7.0, SVG Export Plug-In . SVG Version: 6.00 Build 0)  -->
<svg version="1.1" id="레이어_1" xmlns="http://www.w3.org/2000/svg" xmlns:xlink="http://www.w3.org/1999/xlink" x="0px"
	 y="0px" viewBox="0 0 16 17" style="enable-background:new 0 0 16 17;" xml:space="preserve">
<style type="text/css">
	.st0{fill:#394E98;}
</style>
<path class="st0" d="M7.1,7.6V3.4c0-0.2,0.1-0.4,0.2-0.6C7.6,2.6,7.8,2.5,8,2.5s0.4,0.1,0.6,0.2c0.2,0.2,0.2,0.4,0.2,0.6v4.3h4.3
	c0.2,0,0.4,0.1,0.6,0.2C13.9,8.1,14,8.3,14,8.5s-0.1,0.4-0.2,0.6c-0.2,0.2-0.4,0.2-0.6,0.2H8.9v4.3c0,0.2-0.1,0.4-0.2,0.6
	c-0.2,0.2-0.4,0.2-0.6,0.2s-0.4-0.1-0.6-0.2c-0.2-0.2-0.2-0.4-0.2-0.6V9.4H2.9c-0.2,0-0.4-0.1-0.6-0.2C2.1,8.9,2,8.7,2,8.5
	s0.1-0.4,0.2-0.6c0.2-0.2,0.4-0.2,0.6-0.2h4.3V7.6z"/>
</svg>
