<?xml version="1.0" encoding="utf-8"?>
<!-- Generator: Adobe Illustrator 27.7.0, SVG Export Plug-In . SVG Version: 6.00 Build 0)  -->
<svg version="1.1" id="레이어_1" xmlns="http://www.w3.org/2000/svg" xmlns:xlink="http://www.w3.org/1999/xlink" x="0px"
	 y="0px" viewBox="0 0 18 18" style="enable-background:new 0 0 18 18;" xml:space="preserve">
<style type="text/css">
	.st0{fill:#FFFFFF;}
</style>
<g id="Icon">
	<path id="Vector" class="st0" d="M16.7,15.6l-2.9-2.9c1-1.2,1.6-2.8,1.6-4.5c0-4-3.2-7.2-7.2-7.2C4.2,1,1,4.3,1,8.2
		c0,3.9,3.2,7.2,7.2,7.2c1.7,0,3.2-0.6,4.5-1.6l2.9,2.9c0.2,0.2,0.4,0.2,0.6,0.2s0.4-0.1,0.6-0.2C17.1,16.4,17.1,15.9,16.7,15.6
		L16.7,15.6z M2.6,8.2c0-3.1,2.5-5.6,5.6-5.6c3.1,0,5.6,2.5,5.6,5.6c0,1.5-0.6,2.9-1.6,3.9h0v0c-1,1-2.4,1.6-3.9,1.6
		C5.2,13.8,2.6,11.3,2.6,8.2L2.6,8.2z"/>
</g>
</svg>
