<svg width="20" height="20" viewBox="0 0 20 20" fill="none" xmlns="http://www.w3.org/2000/svg">
<path d="M4.67962 16.6667C4.30935 16.6667 3.9924 16.5349 3.72879 16.2712C3.46518 16.0076 3.33337 15.6907 3.33337 15.3204V4.67958C3.33337 4.3093 3.46518 3.99236 3.72879 3.72875C3.9924 3.46514 4.30935 3.33333 4.67962 3.33333H8.59629C8.52032 2.90805 8.62205 2.52396 8.9015 2.18104C9.1808 1.83812 9.54962 1.66666 10.008 1.66666C10.4663 1.66666 10.8352 1.83812 11.1146 2.18104C11.3941 2.52396 11.4905 2.90805 11.4038 3.33333H15.3205C15.6907 3.33333 16.0077 3.46514 16.2713 3.72875C16.5349 3.99236 16.6667 4.3093 16.6667 4.67958V15.3204C16.6667 15.6907 16.5349 16.0076 16.2713 16.2712C16.0077 16.5349 15.6907 16.6667 15.3205 16.6667H4.67962ZM6.66671 13.5577H10.8334C10.9514 13.5577 11.0504 13.5177 11.1302 13.4377C11.2101 13.3577 11.25 13.2586 11.25 13.1404C11.25 13.0222 11.2101 12.9233 11.1302 12.8437C11.0504 12.7642 10.9514 12.7244 10.8334 12.7244H6.66671C6.54865 12.7244 6.44969 12.7644 6.36983 12.8444C6.28997 12.9242 6.25004 13.0233 6.25004 13.1417C6.25004 13.2599 6.28997 13.3587 6.36983 13.4383C6.44969 13.5179 6.54865 13.5577 6.66671 13.5577ZM6.66671 10.4167H13.3334C13.4514 10.4167 13.5504 10.3767 13.6302 10.2967C13.7101 10.2167 13.75 10.1176 13.75 9.99937C13.75 9.88118 13.7101 9.78229 13.6302 9.70271C13.5504 9.62312 13.4514 9.58333 13.3334 9.58333H6.66671C6.54865 9.58333 6.44969 9.62333 6.36983 9.70333C6.28997 9.78333 6.25004 9.88243 6.25004 10.0006C6.25004 10.1188 6.28997 10.2177 6.36983 10.2973C6.44969 10.3769 6.54865 10.4167 6.66671 10.4167ZM6.66671 7.27562H13.3334C13.4514 7.27562 13.5504 7.23562 13.6302 7.15562C13.7101 7.07576 13.75 6.97666 13.75 6.85833C13.75 6.74014 13.7101 6.64125 13.6302 6.56166C13.5504 6.48208 13.4514 6.44229 13.3334 6.44229H6.66671C6.54865 6.44229 6.44969 6.48229 6.36983 6.56229C6.28997 6.64229 6.25004 6.74139 6.25004 6.85958C6.25004 6.97778 6.28997 7.07666 6.36983 7.15625C6.44969 7.23583 6.54865 7.27562 6.66671 7.27562ZM10 3.70187C10.1806 3.70187 10.3299 3.64284 10.448 3.52479C10.566 3.40673 10.625 3.25743 10.625 3.07687C10.625 2.89632 10.566 2.74701 10.448 2.62896C10.3299 2.5109 10.1806 2.45187 10 2.45187C9.81948 2.45187 9.67018 2.5109 9.55212 2.62896C9.43407 2.74701 9.37504 2.89632 9.37504 3.07687C9.37504 3.25743 9.43407 3.40673 9.55212 3.52479C9.67018 3.64284 9.81948 3.70187 10 3.70187Z" fill="white"/>
</svg>
