<svg width="24" height="24" viewBox="0 0 24 24" fill="none" xmlns="http://www.w3.org/2000/svg">
<path d="M13.0307 12L10.473 14.5577C10.3347 14.6946 10.2655 14.8657 10.2655 15.071C10.2655 15.2762 10.3347 15.4532 10.473 15.602C10.6218 15.757 10.8001 15.8329 11.0078 15.8298C11.2154 15.8266 11.3936 15.7507 11.5423 15.602L14.5115 12.6328C14.6923 12.4519 14.7828 12.241 14.7828 12C14.7828 11.759 14.6923 11.5481 14.5115 11.3673L11.527 8.38275C11.3782 8.23408 11.2025 8.16067 11 8.1625C10.7975 8.1645 10.6218 8.243 10.473 8.398C10.3347 8.54683 10.2645 8.7225 10.2625 8.925C10.2607 9.1275 10.3341 9.30317 10.4827 9.452L13.0307 12ZM12.0017 21.5C10.6877 21.5 9.45267 21.2507 8.2965 20.752C7.14033 20.2533 6.13467 19.5766 5.2795 18.7218C4.42433 17.8669 3.74725 16.8617 3.24825 15.706C2.74942 14.5503 2.5 13.3156 2.5 12.0017C2.5 10.6877 2.74933 9.45267 3.248 8.2965C3.74667 7.14033 4.42342 6.13467 5.27825 5.2795C6.13308 4.42433 7.13833 3.74725 8.294 3.24825C9.44967 2.74942 10.6844 2.5 11.9983 2.5C13.3123 2.5 14.5473 2.74933 15.7035 3.248C16.8597 3.74667 17.8653 4.42342 18.7205 5.27825C19.5757 6.13308 20.2528 7.13833 20.7518 8.294C21.2506 9.44967 21.5 10.6844 21.5 11.9983C21.5 13.3123 21.2507 14.5473 20.752 15.7035C20.2533 16.8597 19.5766 17.8653 18.7218 18.7205C17.8669 19.5757 16.8617 20.2528 15.706 20.7518C14.5503 21.2506 13.3156 21.5 12.0017 21.5Z" fill="white"/>
</svg>
