<?xml version="1.0" encoding="utf-8"?>
<!-- Generator: Adobe Illustrator 27.7.0, SVG Export Plug-In . SVG Version: 6.00 Build 0)  -->
<svg version="1.1" id="레이어_1" xmlns="http://www.w3.org/2000/svg" xmlns:xlink="http://www.w3.org/1999/xlink" x="0px"
	 y="0px" viewBox="0 0 406.9 104.2" style="enable-background:new 0 0 406.9 104.2;" xml:space="preserve">
<style type="text/css">
	.st0{fill:#2B52A3;}
	.st1{fill:#727171;}
	.st2{fill:#F6AB00;}
</style>
<g>
	<g>
		<path class="st0" d="M39.3,45c0,2.9-1.1,5.5-3.4,7.7c-2.3,2.2-4.9,3.3-8.1,3.3H15v20H5.7V22.3h22.1c3.1,0,5.8,1.1,8.1,3.3
			c2.3,2.2,3.4,4.8,3.4,7.7V45z M29.9,43.8v-9.4c0-3.3-1.3-5-4-5H15v19.4h10.9C28.4,48.8,29.7,47.2,29.9,43.8z"/>
		<path class="st0" d="M76.3,66.6c0,2.9-0.9,5.1-2.8,6.8C71.7,75.1,69.2,76,66,76H55.3c-3.2,0-5.9-0.9-8.1-2.7
			c-2.2-1.8-3.3-4-3.3-6.6V61c0-2.6,0.9-4.8,2.8-6.3c1.8-1.6,4.4-2.4,7.5-2.4H67v-2.4c-0.1-1.5-0.4-2.6-1-3.3
			c-0.6-0.7-1.6-1.1-3-1.1h-5.8c-1.4,0-2.4,0.4-3,1.1c-0.6,0.7-0.9,1.8-1,3.3V51h-9.4v-2.3c0-2.9,1.1-5.3,3.3-7.4
			c2.2-2,4.9-3.1,8.1-3.1h9.6c3.2,0,5.9,1,8.1,3.1c2.2,2,3.3,4.5,3.3,7.4V66.6z M67,65.8v-6.3H56.7c-1.3,0-2.2,0.2-2.7,0.5
			c-0.5,0.3-0.7,1.1-0.8,2.2v3.4c0,1.2,0.3,2,0.9,2.5c0.6,0.5,1.6,0.7,3.1,0.7h7.7c0.6,0,1,0,1.3-0.1c0.3,0,0.5-0.2,0.6-0.3
			c0.1-0.2,0.2-0.4,0.2-0.5c0-0.1,0-0.4,0-0.9C67,66.5,67,66.1,67,65.8z"/>
		<path class="st0" d="M114.2,55.8c0,2.9-1.1,5.5-3.4,7.7c-2.3,2.2-4.9,3.3-8.1,3.3H91.1v12.3h-9.4V38.3h21c3.1,0,5.8,1.1,8.1,3.3
			c2.3,2.2,3.4,4.8,3.4,7.7V55.8z M104.8,54.6v-4.2c0-3.3-1.3-5-4-5h-9.7v14.3h9.7C103.3,59.7,104.7,58,104.8,54.6z"/>
		<path class="st0" d="M152,64.9c0,2.9-1.1,5.5-3.4,7.7c-2.3,2.2-4.9,3.3-8.1,3.3h-9.6c-3.1,0-5.8-1.1-8.1-3.3
			c-2.2-2.2-3.3-4.8-3.3-7.7V49.3c0-2.9,1.1-5.5,3.3-7.7c2.2-2.2,4.9-3.3,8.1-3.3h9.6c3.1,0,5.8,1.1,8.1,3.3
			c2.3,2.2,3.4,4.8,3.4,7.7v12.1h-23.1v2.4c0.2,3.3,1.5,5,4,5h5.8c1.5,0,2.5-0.4,3.1-1.2c0.6-0.8,0.9-2.1,0.9-3.8h9.4V64.9z
			 M142.6,54.2v-3.8c0-3.3-1.3-5-4-5h-5.8c-2.6,0-4,1.7-4,5v3.8H142.6z"/>
		<path class="st0" d="M182.2,45.4h-11.7c-2.5,0-3.8,1.7-4,5V76h-9.4V49.3c0-2.9,1.1-5.5,3.4-7.7c2.3-2.2,4.9-3.3,8.1-3.3h13.6V45.4
			z"/>
		<path class="st1" d="M219.8,64.9c0,2.9-1.1,5.5-3.4,7.7c-2.3,2.2-4.9,3.3-8.1,3.3h-10.8c-3.1,0-5.8-1.1-8-3.3
			c-2.2-2.2-3.3-4.8-3.3-7.7v-3.4h9.3v2.3c0.2,3.3,1.5,5,4,5h6.9c2.5,0,3.8-1.7,4-5v-5.2c0-4.1-1.3-6.2-3.8-6.2h-9
			c-3.1,0-5.8-1.1-8-3.3c-2.2-2.2-3.3-4.8-3.3-7.7v-8.1c0-2.9,1.1-5.5,3.3-7.7c2.2-2.2,4.9-3.3,8-3.3h10.8c3.1,0,5.8,1.1,8.1,3.3
			c2.2,2.2,3.4,4.8,3.4,7.7v2.9h-9.4v-1.7c0-3.3-1.3-5-4-5h-6.9c-2.7,0-4,1.7-4,5v5.8c0.2,3.4,1.5,5.1,4,5.1h8.8
			c3.1,0,5.7,1.3,8,3.8c2.3,2.6,3.4,5.3,3.4,8.3V64.9z"/>
		<path class="st1" d="M257.7,64.9c0,2.9-1.1,5.5-3.4,7.7c-2.3,2.2-4.9,3.3-8.1,3.3h-9.6c-3.1,0-5.8-1.1-8.1-3.3
			c-2.2-2.2-3.3-4.8-3.3-7.7V49.3c0-2.9,1.1-5.5,3.3-7.7c2.2-2.2,4.9-3.3,8.1-3.3h9.6c3.1,0,5.8,1.1,8.1,3.3
			c2.3,2.2,3.4,4.8,3.4,7.7v12.1h-23.1v2.4c0.2,3.3,1.5,5,4,5h5.8c1.5,0,2.5-0.4,3.1-1.2s0.9-2.1,0.9-3.8h9.4V64.9z M248.3,54.2
			v-3.8c0-3.3-1.3-5-4-5h-5.8c-2.6,0-4,1.7-4,5v3.8H248.3z"/>
		<path class="st1" d="M297.2,38.3L283,76h-8l-14.1-37.7h9.9l8.3,23.5l8.3-23.5H297.2z"/>
		<path class="st1" d="M332.8,64.9c0,2.9-1.1,5.5-3.4,7.7c-2.3,2.2-4.9,3.3-8.1,3.3h-9.6c-3.1,0-5.8-1.1-8.1-3.3
			c-2.2-2.2-3.3-4.8-3.3-7.7V49.3c0-2.9,1.1-5.5,3.3-7.7c2.2-2.2,4.9-3.3,8.1-3.3h9.6c3.1,0,5.8,1.1,8.1,3.3
			c2.3,2.2,3.4,4.8,3.4,7.7v12.1h-23.1v2.4c0.2,3.3,1.5,5,4,5h5.8c1.5,0,2.5-0.4,3.1-1.2s0.9-2.1,0.9-3.8h9.4V64.9z M323.4,54.2
			v-3.8c0-3.3-1.3-5-4-5h-5.8c-2.6,0-4,1.7-4,5v3.8H323.4z"/>
		<path class="st1" d="M370.6,76h-9.4V50.5c-0.2-3.3-1.5-5-4-5h-5.8c-2.5,0-3.8,1.7-4,5V76h-9.4V49.3c0-2.9,1.1-5.5,3.3-7.7
			c2.2-2.2,4.9-3.3,8.1-3.3h9.6c3.1,0,5.8,1.1,8.1,3.3c2.3,2.2,3.4,4.8,3.4,7.7V76z"/>
	</g>
	<g>
		<path d="M289,90.5v1.1h-14.5v-1.1h6.6v-2.4h1.3v2.4H289z M275.3,87.8c2.8-0.3,5.6-1.7,5.6-3.6h-5.1v-1.1h11.9v1.1h-5.1
			c0,1.9,2.9,3.3,5.6,3.6l-0.5,1c-2.6-0.3-5.1-1.5-6-3.3c-0.9,1.8-3.4,3-6,3.3L275.3,87.8z M287.3,95.7c0,1.8-2.1,2.8-5.5,2.8
			s-5.5-1-5.5-2.8c0-1.8,2-2.8,5.5-2.8S287.3,93.9,287.3,95.7z M285.9,95.7c0-1.1-1.6-1.7-4.2-1.7c-2.6,0-4.2,0.6-4.2,1.7
			c0,1.1,1.6,1.7,4.2,1.7C284.4,97.4,285.9,96.8,285.9,95.7z"/>
		<path d="M303.4,89.2c0,3.4-1.7,5.6-4.1,5.6c-2.4,0-4.1-2.2-4.1-5.6s1.7-5.6,4.1-5.6C301.7,83.7,303.4,85.8,303.4,89.2z
			 M296.5,89.2c0,2.7,1.2,4.4,2.8,4.4c1.6,0,2.8-1.8,2.8-4.4c0-2.6-1.2-4.4-2.8-4.4C297.7,84.8,296.5,86.6,296.5,89.2z M307.8,82.4
			v16.1h-1.3V82.4H307.8z"/>
		<path d="M319.3,90.1c-2.4,0-4.1-1.4-4.1-3.5c0-2.1,1.7-3.5,4.1-3.5c2.4,0,4.1,1.5,4.1,3.5C323.5,88.6,321.7,90.1,319.3,90.1z
			 M319.3,89c1.7,0,2.9-1,2.9-2.5s-1.2-2.5-2.9-2.5c-1.6,0-2.8,1-2.8,2.5S317.7,89,319.3,89z M328.5,97.2v1.1h-10.9v-4h9v-1.7h-9.1
			v-1.1H328v3.8h-9v1.9H328.5z M328,90.7h-1.3v-8.3h1.3V90.7z"/>
		<path d="M349.5,89.3v1.1H335v-1.1h6.1v-2.9h1.3v2.9H349.5z M346.4,84.1h-9.7V83h10.9v1.2c0,1.2,0,2.5-0.4,4.2l-1.3-0.1
			c0.4-1.7,0.4-2.9,0.4-4.1V84.1z M346.3,91.8h1.3v6.4h-10.7v-6.4h1.3v2h8.1V91.8z M346.3,94.9h-8.1v2.3h8.1V94.9z"/>
		<path d="M363.8,91.3c-1.8-0.6-3.2-1.9-3.9-3.6c-0.7,1.9-2.2,3.3-4.1,4l-0.6-1c2.4-0.8,4.1-2.9,4.1-5.2v-0.8h-3.7v-1.1h8.6v1.1
			h-3.6v0.8c0,2.1,1.6,4,3.9,4.8L363.8,91.3z M367.7,95.5c0,1.9-2,3-5.3,3c-3.3,0-5.3-1.1-5.3-3c0-1.8,2-2.9,5.3-2.9
			C365.8,92.6,367.7,93.7,367.7,95.5z M366.4,95.5c0-1.2-1.5-1.9-4-1.9c-2.5,0-4,0.7-4,1.9c0,1.2,1.5,1.9,4,1.9
			C364.9,97.4,366.4,96.7,366.4,95.5z M370,86.5v1.1h-2.4v4.5h-1.3v-9.7h1.3v4.1H370z"/>
	</g>
	<g>
		<path class="st2" d="M401.1,40.4c1.6-17.4-11.2-32.9-28.6-34.6c-15.3-1.4-29,8.2-33.3,22.3c-0.1,0.3-0.2,0.7-0.3,1.1
			c3.6-0.6,7.2-0.7,10.8-0.3c3.6-8.4,12.3-13.8,21.8-12.9c11.9,1.1,20.6,11.6,19.4,23.5c-0.6,6.8-4.4,12.6-9.8,16.1
			c1,3.5,1.5,7.1,1.5,10.7C392.6,61.7,400,52.1,401.1,40.4z"/>
		<path class="st2" d="M387.3,39.1c0.9-9.8-6.3-18.6-16.2-19.5c-7.6-0.7-14.5,3.5-17.7,9.9c3.5,0.8,7,2.1,10.3,4
			c1.4-2,3.8-3.2,6.4-3c3.8,0.4,6.6,3.7,6.3,7.6c-0.2,1.7-0.9,3.2-2.1,4.3c2.4,2.9,4.3,6.1,5.6,9.5C384,49,386.8,44.4,387.3,39.1z"
			/>
	</g>
</g>
</svg>
