<svg width="120" height="120" viewBox="0 0 120 120" fill="none" xmlns="http://www.w3.org/2000/svg">
<path d="M25 105C22.25 105 19.8958 104.021 17.9375 102.062C15.9792 100.104 15 97.75 15 95V25C15 22.25 15.9792 19.8958 17.9375 17.9375C19.8958 15.9792 22.25 15 25 15H95C97.75 15 100.104 15.9792 102.062 17.9375C104.021 19.8958 105 22.25 105 25V95C105 97.75 104.021 100.104 102.062 102.062C100.104 104.021 97.75 105 95 105H25ZM35 85H85C86 85 86.75 84.5417 87.25 83.625C87.75 82.7083 87.6667 81.8333 87 81L73.25 62.625C72.75 61.9583 72.0833 61.625 71.25 61.625C70.4167 61.625 69.75 61.9583 69.25 62.625L56.25 80L47 67.625C46.5 66.9583 45.8333 66.625 45 66.625C44.1667 66.625 43.5 66.9583 43 67.625L33 81C32.3333 81.8333 32.25 82.7083 32.75 83.625C33.25 84.5417 34 85 35 85ZM42.5 50C44.5833 50 46.3542 49.2708 47.8125 47.8125C49.2708 46.3542 50 44.5833 50 42.5C50 40.4167 49.2708 38.6458 47.8125 37.1875C46.3542 35.7292 44.5833 35 42.5 35C40.4167 35 38.6458 35.7292 37.1875 37.1875C35.7292 38.6458 35 40.4167 35 42.5C35 44.5833 35.7292 46.3542 37.1875 47.8125C38.6458 49.2708 40.4167 50 42.5 50Z" fill="#E1E1E1"/>
</svg>
