<?xml version="1.0" encoding="utf-8"?>
<!-- Generator: Adobe Illustrator 27.7.0, SVG Export Plug-In . SVG Version: 6.00 Build 0)  -->
<svg version="1.1" id="레이어_1" xmlns="http://www.w3.org/2000/svg" xmlns:xlink="http://www.w3.org/1999/xlink" x="0px"
	 y="0px" viewBox="0 0 170.8 31.7" style="enable-background:new 0 0 170.8 31.7;" xml:space="preserve">
<style type="text/css">
	.st0{fill:#2951A2;}
	.st1{fill:#717071;}
	.st2{fill:#F5AA00;}
</style>
<g>
	<g>
		<path class="st0" d="M14.8,17c0,1.3-0.5,2.4-1.5,3.3c-1,1-2.1,1.4-3.5,1.4H4.4v8.6h-4v-23h9.5c1.4,0,2.5,0.5,3.5,1.4
			c1,1,1.5,2.1,1.5,3.3V17z M10.8,16.5v-4c0-1.4-0.6-2.2-1.7-2.2H4.4v8.3H9C10.1,18.6,10.7,17.9,10.8,16.5z"/>
		<path class="st0" d="M30.7,26.3c0,1.2-0.4,2.2-1.2,2.9c-0.8,0.7-1.9,1.1-3.3,1.1h-4.6c-1.4,0-2.5-0.4-3.5-1.2
			c-1-0.8-1.4-1.7-1.4-2.8v-2.4c0-1.1,0.4-2,1.2-2.7c0.8-0.7,1.9-1,3.2-1h5.5v-1c0-0.6-0.2-1.1-0.4-1.4c-0.3-0.3-0.7-0.5-1.3-0.5
			h-2.5c-0.6,0-1,0.2-1.3,0.5c-0.2,0.3-0.4,0.8-0.4,1.4v0.5h-4v-1c0-1.2,0.5-2.3,1.4-3.2c1-0.9,2.1-1.3,3.5-1.3h4.1
			c1.4,0,2.5,0.4,3.5,1.3c1,0.9,1.4,1.9,1.4,3.2V26.3z M26.7,25.9v-2.7h-4.4c-0.6,0-1,0.1-1.2,0.2c-0.2,0.2-0.3,0.5-0.3,1v1.5
			c0,0.5,0.1,0.9,0.4,1.1c0.3,0.2,0.7,0.3,1.3,0.3h3.3c0.3,0,0.4,0,0.6,0c0.1,0,0.2-0.1,0.3-0.2c0.1-0.1,0.1-0.2,0.1-0.2
			c0-0.1,0-0.2,0-0.4C26.7,26.2,26.7,26,26.7,25.9z"/>
		<path class="st0" d="M47,21.6c0,1.3-0.5,2.4-1.5,3.3c-1,1-2.1,1.4-3.5,1.4h-5v5.3h-4V14.1h9c1.4,0,2.5,0.5,3.5,1.4
			c1,1,1.5,2.1,1.5,3.3V21.6z M43,21.1v-1.8c0-1.4-0.6-2.2-1.7-2.2h-4.2v6.1h4.2C42.3,23.3,42.9,22.6,43,21.1z"/>
		<path class="st0" d="M63.3,25.6c0,1.3-0.5,2.4-1.5,3.3c-1,1-2.1,1.4-3.5,1.4h-4.1c-1.4,0-2.5-0.5-3.5-1.4c-1-1-1.4-2.1-1.4-3.3
			v-6.7c0-1.3,0.5-2.4,1.4-3.3c1-1,2.1-1.4,3.5-1.4h4.1c1.4,0,2.5,0.5,3.5,1.4c1,1,1.5,2.1,1.5,3.3V24h-9.9v1.1
			c0.1,1.4,0.6,2.2,1.7,2.2h2.5c0.6,0,1.1-0.2,1.3-0.5c0.3-0.3,0.4-0.9,0.4-1.6h4V25.6z M59.2,20.9v-1.6c0-1.4-0.6-2.2-1.7-2.2H55
			c-1.1,0-1.7,0.7-1.7,2.2v1.6H59.2z"/>
		<path class="st0" d="M76.3,17.2h-5c-1.1,0-1.6,0.7-1.7,2.2v11h-4V18.8c0-1.3,0.5-2.4,1.5-3.3c1-1,2.1-1.4,3.5-1.4h5.9V17.2z"/>
		<path class="st1" d="M92.4,25.6c0,1.3-0.5,2.4-1.5,3.3c-1,1-2.1,1.4-3.5,1.4h-4.6c-1.3,0-2.5-0.5-3.4-1.4c-1-1-1.4-2.1-1.4-3.3
			v-1.5h4v1c0.1,1.4,0.6,2.2,1.7,2.2h3c1.1,0,1.6-0.7,1.7-2.2v-2.2c0-1.8-0.6-2.7-1.7-2.7h-3.9c-1.3,0-2.5-0.5-3.4-1.4
			c-1-1-1.4-2.1-1.4-3.3V12c0-1.3,0.5-2.4,1.4-3.3c1-1,2.1-1.4,3.4-1.4h4.6c1.4,0,2.5,0.5,3.5,1.4c1,1,1.5,2.1,1.5,3.3v1.2h-4v-0.8
			c0-1.4-0.6-2.2-1.7-2.2h-3c-1.2,0-1.7,0.7-1.7,2.2v2.5c0.1,1.5,0.6,2.2,1.7,2.2h3.8c1.3,0,2.5,0.6,3.5,1.7c1,1.1,1.5,2.3,1.5,3.6
			V25.6z"/>
		<path class="st1" d="M108.7,25.6c0,1.3-0.5,2.4-1.5,3.3c-1,1-2.1,1.4-3.5,1.4h-4.1c-1.4,0-2.5-0.5-3.5-1.4c-1-1-1.4-2.1-1.4-3.3
			v-6.7c0-1.3,0.5-2.4,1.4-3.3c1-1,2.1-1.4,3.5-1.4h4.1c1.4,0,2.5,0.5,3.5,1.4c1,1,1.5,2.1,1.5,3.3V24h-9.9v1.1
			c0.1,1.4,0.6,2.2,1.7,2.2h2.5c0.6,0,1.1-0.2,1.3-0.5c0.3-0.3,0.4-0.9,0.4-1.6h4V25.6z M104.7,20.9v-1.6c0-1.4-0.6-2.2-1.7-2.2
			h-2.5c-1.1,0-1.7,0.7-1.7,2.2v1.6H104.7z"/>
		<path class="st1" d="M125.7,14.1l-6.1,16.2h-3.4l-6.1-16.2h4.3l3.6,10.1l3.6-10.1H125.7z"/>
		<path class="st1" d="M141,25.6c0,1.3-0.5,2.4-1.5,3.3c-1,1-2.1,1.4-3.5,1.4h-4.1c-1.4,0-2.5-0.5-3.5-1.4c-1-1-1.4-2.1-1.4-3.3
			v-6.7c0-1.3,0.5-2.4,1.4-3.3c1-1,2.1-1.4,3.5-1.4h4.1c1.4,0,2.5,0.5,3.5,1.4c1,1,1.5,2.1,1.5,3.3V24H131v1.1
			c0.1,1.4,0.6,2.2,1.7,2.2h2.5c0.6,0,1.1-0.2,1.3-0.5c0.3-0.3,0.4-0.9,0.4-1.6h4V25.6z M137,20.9v-1.6c0-1.4-0.6-2.2-1.7-2.2h-2.5
			c-1.1,0-1.7,0.7-1.7,2.2v1.6H137z"/>
		<path class="st1" d="M157.2,30.3h-4v-11c-0.1-1.4-0.6-2.2-1.7-2.2H149c-1.1,0-1.6,0.7-1.7,2.2v11h-4V18.8c0-1.3,0.5-2.4,1.4-3.3
			c1-1,2.1-1.4,3.5-1.4h4.1c1.4,0,2.5,0.5,3.5,1.4c1,1,1.5,2.1,1.5,3.3V30.3z"/>
	</g>
	<g>
		<path class="st2" d="M170.3,15C171,7.5,165.5,0.8,158,0.1c-6.6-0.6-12.5,3.5-14.3,9.6c0,0.1-0.1,0.3-0.1,0.5
			c1.5-0.3,3.1-0.3,4.7-0.1c1.5-3.6,5.3-5.9,9.4-5.6c5.1,0.5,8.8,5,8.4,10.1c-0.3,2.9-1.9,5.4-4.2,6.9c0.4,1.5,0.7,3,0.6,4.6
			C166.7,24.1,169.9,20,170.3,15z"/>
		<path class="st2" d="M164.4,14.4c0.4-4.2-2.7-8-6.9-8.4c-3.3-0.3-6.3,1.5-7.6,4.3c1.5,0.3,3,0.9,4.4,1.7c0.6-0.9,1.6-1.4,2.7-1.3
			c1.6,0.2,2.8,1.6,2.7,3.3c-0.1,0.7-0.4,1.4-0.9,1.9c1,1.2,1.8,2.6,2.4,4.1C163,18.7,164.2,16.7,164.4,14.4z"/>
	</g>
</g>
</svg>
