<?xml version="1.0" encoding="utf-8"?>
<!-- Generator: Adobe Illustrator 27.7.0, SVG Export Plug-In . SVG Version: 6.00 Build 0)  -->
<svg version="1.1" id="레이어_1" xmlns="http://www.w3.org/2000/svg" xmlns:xlink="http://www.w3.org/1999/xlink" x="0px"
	 y="0px" viewBox="0 0 100 100" style="enable-background:new 0 0 100 100;" xml:space="preserve">
<style type="text/css">
	.st0{display:none;}
	.st1{display:inline;}
	.st2{clip-path:url(#SVGID_00000083809486018115504580000009637316856740741779_);}
	.st3{fill:#606060;}
	.st4{fill:#FFFFFF;}
	.st5{clip-path:url(#SVGID_00000049936283378822934310000012924515192729619337_);}
	.st6{fill:#FFBF00;}
	.st7{clip-path:url(#SVGID_00000157282455177045394140000016868566393644478638_);}
	.st8{clip-path:url(#SVGID_00000024682697650127738680000000773276997605958059_);}
	.st9{clip-path:url(#SVGID_00000062878562933280356170000007151040678148094385_);}
	.st10{clip-path:url(#SVGID_00000135670650123414414350000016248130329488043160_);}
	.st11{clip-path:url(#SVGID_00000002365265666109582580000001022831373606064818_);}
	.st12{clip-path:url(#SVGID_00000168108669615385660320000013945914657180426919_);}
	.st13{fill:#5D5D5D;}
</style>
<g class="st0">
	<g class="st1">
		<defs>
			<rect id="SVGID_1_" x="6.1" y="10" width="70.4" height="63.2"/>
		</defs>
		<clipPath id="SVGID_00000019662405621500387530000012731663275771380875_">
			<use xlink:href="#SVGID_1_"  style="overflow:visible;"/>
		</clipPath>
		<g style="clip-path:url(#SVGID_00000019662405621500387530000012731663275771380875_);">
			<path class="st3" d="M57.2,73.2H26.2c-3.5,0-6.1-2-6.1-4.6c0-2.6,2.6-4.6,6.1-4.6h30.9c3.5,0,6.1,2,6.1,4.6
				C63.2,71.2,60.6,73.2,57.2,73.2z M26.2,67.3c-1.7,0-2.8,0.8-2.8,1.3c0,0.6,1.1,1.3,2.8,1.3h30.9c1.7,0,2.8-0.8,2.8-1.3
				c0-0.6-1.1-1.3-2.8-1.3H26.2z"/>
			<path class="st3" d="M27.5,67.2l4.1-9.6l20.1,0l6.1,9.6L27.5,67.2L27.5,67.2z M33.7,60.8l-1.3,3.1l19.4,0l-2-3.1L33.7,60.8z"/>
			<path class="st3" d="M69.7,60.6H12.9c-3.7,0-6.8-3-6.8-6.8V16.8c0-3.7,3-6.8,6.8-6.8h56.9c3.7,0,6.8,3,6.8,6.8v37.1
				C76.5,57.6,73.5,60.6,69.7,60.6L69.7,60.6z M12.9,13.8c-1.7,0-3,1.4-3,3v37.1c0,1.7,1.4,3,3,3h56.9c1.7,0,3-1.4,3-3V16.8
				c0-1.7-1.4-3-3-3L12.9,13.8L12.9,13.8z"/>
			<path class="st3" d="M69.9,46.8c0,1.3-1.1,2.4-2.3,2.4H15c-1.3,0-2.3-1.1-2.3-2.4V18.9c0-1.3,1-2.4,2.3-2.4h52.5
				c1.3,0,2.3,1.1,2.3,2.4L69.9,46.8L69.9,46.8z"/>
			<path class="st4" d="M39.3,42.6c-0.8,0-1.7-0.4-2.3-1.1L29.1,32c-1-1.2-0.9-3.1,0.4-4.1c1.3-1,3.1-0.9,4.2,0.4l7.9,9.5
				c1,1.2,0.9,3.1-0.4,4.1C40.7,42.4,40,42.6,39.3,42.6L39.3,42.6z"/>
			<path class="st4" d="M39.6,42.9c-0.6,0-1.3-0.2-1.8-0.6c-1.3-1-1.5-2.9-0.5-4.1l12.7-15.9c1-1.3,2.9-1.5,4.1-0.5s1.5,2.9,0.5,4.1
				L42,41.8C41.4,42.5,40.5,42.9,39.6,42.9z"/>
		</g>
	</g>
	<g class="st1">
		<defs>
			<rect id="SVGID_00000064323484389789927700000013395167514740277167_" x="50.2" y="46.6" width="43.7" height="43.4"/>
		</defs>
		<clipPath id="SVGID_00000079468620534801649090000003212407019973495200_">
			<use xlink:href="#SVGID_00000064323484389789927700000013395167514740277167_"  style="overflow:visible;"/>
		</clipPath>
		<g style="clip-path:url(#SVGID_00000079468620534801649090000003212407019973495200_);">
			<path class="st3" d="M72.1,90c-12,0-21.8-9.7-21.8-21.7S60,46.6,72.1,46.6c12,0,21.8,9.7,21.8,21.7S84.1,90,72.1,90L72.1,90z
				 M72.1,49.7c-10.3,0-18.7,8.3-18.7,18.6s8.4,18.6,18.7,18.6c10.3,0,18.7-8.3,18.7-18.6S82.4,49.7,72.1,49.7z"/>
			<ellipse class="st6" cx="72.1" cy="68.3" rx="19.7" ry="19.5"/>
			<path class="st3" d="M81.9,67.4v2.1H80l-1.6,7.4h-3.6l-1.7-7.4h-1.7l-1.6,7.4h-3.6l-1.6-7.4h-1.8v-2.1h1.4L63,61.6h3.1l1.1,5.8
				h2.1l1.2-5.8H74l1.3,5.8h2.2l1.1-5.8h3.1l-1.3,5.8H81.9L81.9,67.4z M68.3,72.7l0.7-3.2h-1.3L68.3,72.7L68.3,72.7z M72,67.4h0.7
				l-0.4-1.7L72,67.4z M76.5,72.7l0.6-3.2h-1.3L76.5,72.7z"/>
		</g>
	</g>
</g>
<g>
	<g>
		<defs>
			<rect id="SVGID_00000017497700445378094650000006364711136565778819_" x="6.1" y="10" width="70.4" height="63.2"/>
		</defs>
		<clipPath id="SVGID_00000182488480182353480140000015695706542814582975_">
			<use xlink:href="#SVGID_00000017497700445378094650000006364711136565778819_"  style="overflow:visible;"/>
		</clipPath>
		<g style="clip-path:url(#SVGID_00000182488480182353480140000015695706542814582975_);">
			<path class="st3" d="M57.2,73.2H26.2c-3.5,0-6.1-2-6.1-4.6c0-2.6,2.6-4.6,6.1-4.6h30.9c3.5,0,6.1,2,6.1,4.6
				C63.2,71.2,60.6,73.2,57.2,73.2z M26.2,67.3c-1.7,0-2.8,0.8-2.8,1.3c0,0.6,1.1,1.3,2.8,1.3h30.9c1.7,0,2.8-0.8,2.8-1.3
				c0-0.6-1.1-1.3-2.8-1.3H26.2z"/>
			<path class="st3" d="M27.5,67.2l4.1-9.6l20.1,0l6.1,9.6L27.5,67.2L27.5,67.2z M33.7,60.8l-1.3,3.1l19.4,0l-2-3.1L33.7,60.8z"/>
			<path class="st3" d="M69.7,60.6H12.9c-3.7,0-6.8-3-6.8-6.8V16.8c0-3.7,3-6.8,6.8-6.8h56.9c3.7,0,6.8,3,6.8,6.8v37.1
				C76.5,57.6,73.5,60.6,69.7,60.6L69.7,60.6z M12.9,13.8c-1.7,0-3,1.4-3,3v37.1c0,1.7,1.4,3,3,3h56.9c1.7,0,3-1.4,3-3V16.8
				c0-1.7-1.4-3-3-3L12.9,13.8L12.9,13.8z"/>
			<path class="st3" d="M69.9,46.8c0,1.3-1.1,2.4-2.3,2.4H15c-1.3,0-2.3-1.1-2.3-2.4V18.9c0-1.3,1-2.4,2.3-2.4h52.5
				c1.3,0,2.3,1.1,2.3,2.4L69.9,46.8L69.9,46.8z"/>
			<path class="st4" d="M39.3,42.6c-0.8,0-1.7-0.4-2.3-1.1L29.1,32c-1-1.2-0.9-3.1,0.4-4.1c1.3-1,3.1-0.9,4.2,0.4l7.9,9.5
				c1,1.2,0.9,3.1-0.4,4.1C40.7,42.4,40,42.6,39.3,42.6L39.3,42.6z"/>
			<path class="st4" d="M39.6,42.9c-0.6,0-1.3-0.2-1.8-0.6c-1.3-1-1.5-2.9-0.5-4.1l12.7-15.9c1-1.3,2.9-1.5,4.1-0.5
				c1.3,1,1.5,2.9,0.5,4.1L42,41.8C41.4,42.5,40.5,42.9,39.6,42.9z"/>
		</g>
	</g>
	<g>
		<defs>
			<rect id="SVGID_00000041280682429816303400000007481239038896569761_" x="43.3" y="28.7" width="50.6" height="61.2"/>
		</defs>
		<clipPath id="SVGID_00000121271143539993459690000009474518845614969788_">
			<use xlink:href="#SVGID_00000041280682429816303400000007481239038896569761_"  style="overflow:visible;"/>
		</clipPath>
		<g style="clip-path:url(#SVGID_00000121271143539993459690000009474518845614969788_);">
			<path class="st4" d="M46.5,68.1l14.6,20h7.6h9.5h8.9h1.3l3.8-4.4v-7.5V61.8v-3.7c0-1.2,0.6-1.9-1.3-7.5c-1-1.5-0.8-1-0.6-0.6
				l-1.9-0.6L86.9,50l-3.2,2.5c-0.4-0.8-1.4-2.5-1.9-2.5h-2.5h-2.5l-0.6,1.2l-1.9,3.1v-1.9c-0.4-0.6-1.5-2.1-2.5-3.1h-3.2l-2.5,1.9
				l0.6-8.1l-0.6-11.2c0,0-6.1-2.5-7.6-1.2l-1.3,3.1v8.7v14.4c-0.2,3.7-1.3,10.4-3.8,6.9c-3.2-4.4-3.2-3.1-7-3.1
				C43.4,60.6,45.2,65.6,46.5,68.1z"/>
			<path class="st3" d="M87.9,47.6c-1.8,0-3.4,0.9-4.4,2.3c-1-1.4-2.6-2.3-4.4-2.3c-1.8,0-3.4,0.9-4.4,2.3c-1-1.4-2.6-2.3-4.4-2.3
				c-1.2,0-2.4,0.4-3.3,1.1V37.2c0-4.5-2.4-8-5.5-8c-3.1,0-5.5,3.5-5.5,8v28.6L53.4,62c-1.2-1.8-3.1-2.9-5-2.9
				c-0.9,0-1.8,0.2-2.5,0.7c-2.4,1.5-2.8,5-1,7.7l12.6,19.1c1.3,2,3.7,3.2,5.9,2.8c0.4,0.1,0.8,0.1,1.2,0.1h20.3
				c4.8,0,8.6-3.8,8.6-8.5V53.5C93.5,50.2,91,47.6,87.9,47.6z M91.2,81c0,3.4-2.8,6.2-6.3,6.2H64.6c-0.3,0-0.7,0-1.1-0.1
				c-0.1,0-0.1,0-0.2,0c-0.1,0-0.2,0-0.3,0c-1.3,0.3-2.8-0.4-3.6-1.8L46.8,66.3c-1.1-1.7-0.9-3.7,0.4-4.5c0.4-0.2,0.8-0.4,1.2-0.4
				c1.2,0,2.3,0.7,3.1,1.9l4.7,7.1c0.3,0.4,0.8,0.6,1.3,0.5c0.5-0.1,0.8-0.6,0.8-1.1V37.2c0-3.4,1.6-5.7,3.1-5.7
				c1.5,0,3.1,2.4,3.1,5.7v16.3c0,0,0,0,0,0.1v6.9c0,0.6,0.5,1.2,1.2,1.2c0.6,0,1.2-0.5,1.2-1.2v-7.3c0-0.2,0.1-0.5,0.1-0.7
				c0.1-0.4,0.3-0.8,0.6-1.2c0.6-0.8,1.5-1.3,2.5-1.3c0.5,0,1.1,0.1,1.5,0.4c0.8,0.5,1.5,1.4,1.6,2.3c0,0.1,0,0.2,0.1,0.3v7.5
				c0,0.6,0.5,1.2,1.2,1.2c0.6,0,1.2-0.5,1.2-1.2v-6.8c0.1-0.5,0.1-1,0.3-1.4c0.4-1.3,1.7-2.3,3.1-2.3c1.3,0,2.4,0.9,2.9,2
				c0.1,0.3,0.2,0.7,0.3,1c0,0.1,0,0.2,0.1,0.4v7.2c0,0.6,0.5,1.2,1.2,1.2c0.6,0,1.2-0.5,1.2-1.2v-6.9c0.1-0.4,0.1-0.9,0.3-1.3
				c0.4-1.3,1.7-2.3,3.1-2.3c1.8,0,3.3,1.6,3.3,3.6L91.2,81L91.2,81z"/>
			<path class="st3" d="M84.9,90H64.6c-0.4,0-0.8,0-1.2-0.1c-2.3,0.4-4.8-0.9-6.2-3L44.5,67.8c-1.9-2.9-1.4-6.6,1.2-8.3
				c0.8-0.5,1.8-0.8,2.8-0.8c2.1,0,4.1,1.2,5.4,3.1l1.7,2.6V37.2c0-4.8,2.6-8.5,5.9-8.5c3.3,0,5.9,3.7,5.9,8.5v10.7
				c0.9-0.5,1.8-0.7,2.8-0.7c1.7,0,3.3,0.7,4.4,2c1.1-1.3,2.7-2,4.4-2c1.7,0,3.3,0.7,4.4,2c1.1-1.3,2.7-2,4.4-2c3.3,0,6,2.8,6,6.3
				V81C93.9,86,89.9,90,84.9,90L84.9,90z M63.3,89L63.3,89c0.5,0.1,0.9,0.1,1.2,0.1h20.3c4.5,0,8.2-3.6,8.2-8.1V53.5
				c0-3-2.3-5.5-5.2-5.5c-1.6,0-3.1,0.8-4.1,2.1l-0.4,0.5l-0.4-0.5c-1-1.4-2.5-2.1-4.1-2.1c-1.6,0-3.1,0.8-4.1,2.1l-0.4,0.5
				l-0.4-0.5c-1-1.4-2.5-2.1-4.1-2.1c-1.1,0-2.1,0.4-3,1l-0.7,0.5V37.2c0-4.3-2.2-7.6-5-7.6c-2.8,0-5,3.3-5,7.6v30.1l-3.3-5
				c-1.1-1.7-2.9-2.7-4.7-2.7c-0.8,0-1.6,0.2-2.3,0.7c-2.2,1.4-2.6,4.6-0.9,7.1l12.6,19.1C59,88.3,61.3,89.4,63.3,89L63.3,89
				L63.3,89z M84.9,87.7H64.6c-0.4,0-0.7,0-1.1-0.1c-0.1,0-0.2,0-0.3,0c-1.4,0.3-3.1-0.5-4.1-2L46.4,66.5c-0.6-0.9-0.9-1.9-0.8-2.8
				c0.1-1,0.5-1.8,1.3-2.3c0.4-0.3,0.9-0.4,1.5-0.4c1.3,0,2.6,0.8,3.5,2.1l4.7,7.1c0.2,0.3,0.5,0.4,0.8,0.3c0.3-0.1,0.5-0.4,0.5-0.7
				V37.2c0-3.7,1.8-6.2,3.6-6.2s3.6,2.5,3.6,6.2l0,23.2c0,0.4,0.3,0.7,0.7,0.7c0.4,0,0.7-0.3,0.7-0.7v-7.3c0-0.3,0.1-0.6,0.1-0.8
				c0.1-0.5,0.4-1,0.7-1.4c0.7-0.9,1.8-1.5,2.9-1.5c0.6,0,1.3,0.2,1.8,0.5c0.9,0.5,1.6,1.6,1.8,2.6c0,0.1,0,0.2,0.1,0.3v7.6
				c0,0.4,0.3,0.7,0.7,0.7c0.4,0,0.7-0.3,0.7-0.7v-6.9c0.1-0.2,0.1-0.4,0.1-0.6c0-0.3,0.1-0.6,0.2-0.8c0.5-1.5,1.9-2.6,3.5-2.6
				c1.4,0,2.7,0.9,3.3,2.2c0.2,0.3,0.2,0.7,0.3,1.1l0.1,0.4v7.3c0,0.4,0.3,0.7,0.7,0.7c0.4,0,0.7-0.3,0.7-0.7v-7
				c0.1-0.2,0.1-0.4,0.1-0.6c0-0.3,0.1-0.5,0.2-0.8c0.5-1.5,1.9-2.6,3.5-2.6c2,0,3.7,1.8,3.7,4V81C91.6,84.7,88.6,87.7,84.9,87.7
				L84.9,87.7z M63.3,86.7c0.1,0,0.2,0,0.3,0c0.4,0.1,0.7,0.1,1,0.1h20.3c3.2,0,5.8-2.6,5.8-5.8V53.5c0-1.7-1.3-3.2-2.8-3.2
				c-1.2,0-2.3,0.9-2.6,2c-0.1,0.2-0.1,0.4-0.1,0.6c0,0.2-0.1,0.4-0.1,0.6v6.9c0,0.9-0.7,1.6-1.6,1.6c-0.9,0-1.6-0.7-1.6-1.6l0-7.5
				c-0.1-0.3-0.1-0.6-0.2-0.9C81,51,80,50.3,79,50.3c-1.2,0-2.3,0.9-2.6,2c-0.1,0.2-0.1,0.4-0.1,0.7c0,0.2-0.1,0.4-0.1,0.7v6.8
				c0,0.9-0.7,1.6-1.6,1.6c-0.9,0-1.6-0.7-1.6-1.6v-7.5c0,0,0-0.1,0-0.2c-0.2-0.8-0.7-1.6-1.4-2c-0.3-0.2-0.8-0.3-1.3-0.3
				c-0.8,0-1.7,0.4-2.2,1.2c-0.2,0.3-0.4,0.7-0.5,1.1c-0.1,0.2-0.1,0.4-0.1,0.6v7.2c0,0.9-0.7,1.6-1.6,1.6c-0.9,0-1.6-0.7-1.6-1.6
				l0-23.2c0-3.3-1.6-5.3-2.7-5.3s-2.7,2-2.7,5.3v32.5c0,0.7-0.5,1.3-1.1,1.5c-0.7,0.2-1.4-0.1-1.8-0.6l-4.7-7.1
				c-0.7-1-1.7-1.7-2.7-1.7c-0.4,0-0.7,0.1-1,0.3c-0.5,0.3-0.8,0.9-0.9,1.6c-0.1,0.8,0.2,1.6,0.7,2.3l12.6,19.1
				c0.8,1.2,2.1,1.8,3.2,1.6C63.1,86.7,63.2,86.7,63.3,86.7L63.3,86.7z"/>
		</g>
	</g>
</g>
<g class="st0">
	<g class="st1">
		<defs>
			<rect id="SVGID_00000176002786498982244680000014412733205590072478_" x="19.9" y="15.4" width="60.1" height="69.2"/>
		</defs>
		<clipPath id="SVGID_00000061444528973717663520000015263980291883540892_">
			<use xlink:href="#SVGID_00000176002786498982244680000014412733205590072478_"  style="overflow:visible;"/>
		</clipPath>
		<g style="clip-path:url(#SVGID_00000061444528973717663520000015263980291883540892_);">
			<path class="st3" d="M74.2,84.6H25.8c-3.3,0-5.9-2.5-5.9-5.6V35.3c0-3.1,2.6-5.6,5.9-5.6h48.3c3.3,0,5.9,2.5,5.9,5.6v43.6
				C80.1,82.1,77.4,84.6,74.2,84.6z M25.8,35c-0.4,0-0.6,0.2-0.6,0.3V79c0,0.1,0.3,0.3,0.6,0.3h48.3c0.4,0,0.6-0.2,0.6-0.3V35.3
				c0-0.1-0.3-0.3-0.6-0.3H25.8z"/>
			<path class="st3" d="M52.9,34.4h-6.8v47.5h6.8V34.4z"/>
			<path class="st3" d="M77,53.5H22.1v7.3H77V53.5z"/>
			<path class="st3" d="M32.6,25.4c-1.3-0.5-1.6-1.7-0.6-2.7l6.7-6.6c1-1,2.5-0.8,3.2,0.4l8.3,13.7c0.8,1.2,0.3,1.8-1.1,1.3
				L32.6,25.4L32.6,25.4z"/>
			<path class="st3" d="M67.4,25.4c1.3-0.5,1.6-1.7,0.6-2.7l-6.7-6.6c-1-1-2.5-0.8-3.2,0.4l-8.3,13.7c-0.7,1.2-0.3,1.8,1.1,1.3
				L67.4,25.4L67.4,25.4z"/>
		</g>
	</g>
</g>
<g class="st0">
	<g class="st1">
		<defs>
			<rect id="SVGID_00000039099316187536069870000015027458412210558864_" x="2" y="10" width="81" height="60.7"/>
		</defs>
		<clipPath id="SVGID_00000133511374777315276680000001406546930363844792_">
			<use xlink:href="#SVGID_00000039099316187536069870000015027458412210558864_"  style="overflow:visible;"/>
		</clipPath>
		<g style="clip-path:url(#SVGID_00000133511374777315276680000001406546930363844792_);">
			<path class="st3" d="M79.3,30.9H5.8c-2.1,0-3.8,1.7-3.8,3.7v1.3c0,2.1,1.7,3.7,3.8,3.7h73.5c2.1,0,3.8-1.7,3.8-3.7v-1.3
				C83,32.6,81.3,30.9,79.3,30.9z"/>
			<path class="st3" d="M69.2,63.2H15.1c-1.9,0-3.5,1.5-3.5,3.5v0.6c0,1.9,1.6,3.5,3.5,3.5h54.1c1.9,0,3.5-1.5,3.5-3.5v-0.6
				C72.7,64.7,71.1,63.2,69.2,63.2z"/>
			<path class="st3" d="M10.4,31.5l-5.2,1.2l8.7,35.6l5.2-1.2L10.4,31.5z"/>
			<path class="st3" d="M25.2,32.1L20,33l6.2,33.5l5.3-1L25.2,32.1z"/>
			<path class="st3" d="M44.8,32.9h-5.4v32.8h5.4V32.9z"/>
			<path class="st3" d="M57.7,32.5l-5.8,34.8l5.3,0.9L63,33.4L57.7,32.5z"/>
			<path class="st3" d="M74.1,32.3l-9,34.8l5.2,1.3l9-34.8L74.1,32.3z"/>
			<path class="st3" d="M17,35.6c-1.3,1.3-3.4,1.5-4.6,0.3c-1.2-1.2-1.1-3.2,0.2-4.6l20.1-20.2c1.3-1.3,3.4-1.5,4.6-0.3
				c1.2,1.2,1.1,3.2-0.2,4.6L17,35.6z"/>
			<path class="st3" d="M67.9,33.9c1.3,1.3,3.3,1.5,4.5,0.5c1.2-1,1-2.8-0.3-4.1L52.2,11.2c-1.3-1.3-3.3-1.5-4.5-0.5
				c-1.2,1-1,2.8,0.3,4.1L67.9,33.9z"/>
		</g>
	</g>
	<g class="st1">
		<defs>
			<rect id="SVGID_00000109752254960180176870000017734072961562308266_" x="53.9" y="46.2" width="44.1" height="43.8"/>
		</defs>
		<clipPath id="SVGID_00000172434188173229082380000018085055425402230704_">
			<use xlink:href="#SVGID_00000109752254960180176870000017734072961562308266_"  style="overflow:visible;"/>
		</clipPath>
		<g style="clip-path:url(#SVGID_00000172434188173229082380000018085055425402230704_);">
			<path class="st3" d="M75.9,90c-12.2,0-22.1-9.8-22.1-21.9c0-12.1,9.9-21.9,22.1-21.9S98,56,98,68.1C98,80.2,88.1,90,75.9,90
				L75.9,90z M75.9,49.3C65.5,49.3,57,57.7,57,68.1c0,10.4,8.5,18.8,18.9,18.8s18.9-8.4,18.9-18.8C94.9,57.7,86.4,49.3,75.9,49.3z"
				/>
			<ellipse class="st6" cx="75.9" cy="68.1" rx="19.9" ry="19.7"/>
			<path class="st3" d="M85.8,67.2v2.1h-1.9l-1.6,7.5h-3.6L77,69.3h-1.7l-1.6,7.5h-3.6l-1.7-7.5h-1.8v-2.1H68l-1.3-5.9h3.2l1.1,5.9
				h2.2l1.2-5.9h3.5l1.3,5.9h2.2l1.1-5.9h3.1l-1.3,5.9H85.8L85.8,67.2z M72.1,72.6l0.7-3.2h-1.3L72.1,72.6L72.1,72.6z M75.8,67.2
				h0.7l-0.4-1.7L75.8,67.2z M80.4,72.5l0.6-3.2h-1.3L80.4,72.5z"/>
		</g>
	</g>
</g>
<g class="st0">
	<g class="st1">
		<defs>
			<rect id="SVGID_00000127737925433277596240000003662530798293263521_" x="9" y="13.3" width="82" height="73.5"/>
		</defs>
		<clipPath id="SVGID_00000116237156407865325310000005570885999025188258_">
			<use xlink:href="#SVGID_00000127737925433277596240000003662530798293263521_"  style="overflow:visible;"/>
		</clipPath>
		<g style="clip-path:url(#SVGID_00000116237156407865325310000005570885999025188258_);">
			<path class="st3" d="M32.7,23.8c-1.7,0-3.8-1.6-5.2-3.2c-1-1.1-1.9-2.3-2.3-3.4c-0.8-1.9-0.4-2.9,0.2-3.4
				c0.3-0.2,0.7-0.5,1.4-0.5c1.7,0,3.8,1.6,5.2,3.2c1.4,1.5,2.9,3.7,2.8,5.3c0,0.8-0.4,1.2-0.6,1.5C33.8,23.5,33.4,23.8,32.7,23.8z
				 M27.4,16c0.3,0.7,0.9,1.7,2,2.9c1.1,1.2,2.1,1.9,2.7,2.2c-0.3-0.7-0.9-1.7-2-2.9C29,17,28,16.3,27.4,16z"/>
			<path class="st3" d="M35.3,23.8c-0.7,0-1.2-0.3-1.4-0.5c-0.5-0.5-1-1.5-0.2-3.4c0.5-1.1,1.3-2.3,2.3-3.4c1.4-1.5,3.5-3.2,5.2-3.2
				c0.7,0,1.2,0.3,1.4,0.5c0.5,0.5,1,1.5,0.2,3.4c-0.5,1.1-1.3,2.3-2.3,3.4C39,22.1,36.9,23.8,35.3,23.8z M40.6,16
				c-0.6,0.3-1.7,1-2.7,2.2c-1.1,1.2-1.7,2.2-2,2.9c0.6-0.3,1.7-1,2.7-2.2C39.7,17.7,40.3,16.7,40.6,16z"/>
			<path class="st13" d="M84.8,34.2c-0.3-1.8-2-3.2-3.8-3.2H61.2c-1.8,0-3.3,1.5-3.3,3.3v20.5c0,1.8-1.5,3.3-3.3,3.3H12.3
				C10.5,58,9,59.4,9,61.2v9.3c0,1.8,1.5,3.3,3.3,3.3h76c1.8,0,3-1.5,2.7-3.2L84.8,34.2L84.8,34.2z"/>
			<path class="st3" d="M27.5,86.7c-5,0-9.1-4.1-9.1-9.1s4.1-9,9.1-9s9.1,4.1,9.1,9C36.6,82.7,32.5,86.7,27.5,86.7z M27.5,74.2
				c-1.9,0-3.5,1.6-3.5,3.5c0,1.9,1.6,3.5,3.5,3.5s3.5-1.6,3.5-3.5S29.5,74.2,27.5,74.2z"/>
			<path class="st3" d="M69.7,86.7c-5,0-9.1-4.1-9.1-9c0-5,4.1-9,9.1-9s9,4.1,9,9C78.7,82.7,74.6,86.7,69.7,86.7z M69.7,74.2
				c-1.9,0-3.5,1.6-3.5,3.5c0,1.9,1.6,3.5,3.5,3.5c1.9,0,3.5-1.6,3.5-3.5S71.6,74.2,69.7,74.2z"/>
			<path class="st13" d="M51.2,56.6h-35c-2.8,0-5.1-2.3-5.1-5.1V26.4c0-2.8,2.3-5.1,5.1-5.1h35c2.8,0,5.1,2.3,5.1,5.1v25.1
				C56.4,54.3,54,56.6,51.2,56.6z M16.2,25c-0.8,0-1.4,0.6-1.4,1.4v25.1c0,0.8,0.6,1.4,1.4,1.4h35c0.8,0,1.4-0.6,1.4-1.4V26.4
				c0-0.8-0.6-1.4-1.4-1.4H16.2z"/>
			<path class="st4" d="M82.8,52.7c0.3,1.9-1.1,3.5-3,3.5H65.2c-1.9,0-3.5-1.6-3.5-3.5v-14c0-1.9,1.6-3.5,3.5-3.5h11.5
				c1.9,0,3.8,1.6,4,3.5L82.8,52.7z"/>
			<path class="st3" d="M33.8,56.7c-1.2,0-2.2-1-2.2-2.2v-31c0-1.2,1-2.2,2.2-2.2c1.2,0,2.2,1,2.2,2.2v31C36,55.7,35,56.7,33.8,56.7
				z"/>
			<path class="st3" d="M52.6,40.4h-38c-1.2,0-2.2-1-2.2-2.2c0-1.2,1-2.2,2.2-2.2h38c1.2,0,2.2,1,2.2,2.2
				C54.7,39.5,53.8,40.4,52.6,40.4L52.6,40.4z"/>
		</g>
	</g>
</g>
</svg>
