<?xml version="1.0" encoding="utf-8"?>
<!-- Generator: Adobe Illustrator 27.7.0, SVG Export Plug-In . SVG Version: 6.00 Build 0)  -->
<svg version="1.1" id="레이어_1" xmlns="http://www.w3.org/2000/svg" xmlns:xlink="http://www.w3.org/1999/xlink" x="0px"
	 y="0px" viewBox="0 0 100 100" style="enable-background:new 0 0 100 100;" xml:space="preserve">
<style type="text/css">
	.st0{display:none;}
	.st1{display:inline;fill:#222222;}
	.st2{display:inline;fill:#183882;}
	.st3{fill:#183882;}
	.st4{fill:#222222;}
	.st5{display:inline;}
	.st6{clip-path:url(#SVGID_00000083088871777014961940000004965278976850929835_);}
</style>
<g class="st0">
	<path class="st1" d="M60.5,64.6C60,64.8,59.5,65,58.9,65c-1.2,0-2.3-0.5-3-1.4L50,56.7v20.8l-19.8-8.8v-8.2l-4-1.8v13
		c0,0.5,0.3,1,0.8,1.2l22.2,9.9c0.5,0.2,1.1,0.2,1.6,0L73,73c0.5-0.2,0.8-0.7,0.8-1.2v-13L60.5,64.6z"/>
	<path class="st1" d="M81.4,51l-7.7-9l-9-4c-0.8,1-1.6,2-2.5,2.9l7,3.1L50,52.6l7.9,9.2c0.4,0.4,1,0.6,1.5,0.3l21.6-9.6
		C81.7,52.3,81.9,51.5,81.4,51z"/>
	<path class="st1" d="M37.7,40.9c-0.9-0.9-1.7-1.8-2.5-2.9l-9,4l-7.7,9c-0.4,0.5-0.3,1.3,0.3,1.6l21.7,9.6c0.5,0.2,1.2,0.1,1.5-0.3
		l7.9-9.2l-19.3-8.6L37.7,40.9z"/>
	<path class="st2" d="M56.7,17c-3.2,0-5.5,2-6.7,3.5C48.8,19,46.5,17,43.3,17c-4.4,0-9.1,3.2-9.1,10.3c0,11.8,14.7,18.3,15.4,18.6
		C49.7,46,49.8,46,50,46c0.2,0,0.3,0,0.5-0.1c0.6-0.3,15.3-6.8,15.3-18.6C65.8,20.2,61.1,17,56.7,17z"/>
</g>
<g class="st0">
	<path class="st1" d="M29.5,81.8c-2.4,0-4.4-0.8-6-2.5c-1.7-1.7-2.5-3.7-2.5-6v-5.4c0-0.9,0.3-1.6,0.9-2.2s1.3-0.9,2.2-0.9h7.1V19.4
		c0-0.3,0.1-0.6,0.4-0.7c0.3-0.1,0.6-0.1,0.8,0.1l2.5,2.1c0.3,0.3,0.6,0.4,1,0.4c0.3,0,0.7-0.1,1-0.4l2.9-2.3c0.3-0.3,0.6-0.4,1-0.4
		s0.7,0.1,1,0.4l2.9,2.3c0.3,0.3,0.6,0.4,1,0.4s0.7-0.1,1-0.4l2.9-2.3c0.3-0.3,0.6-0.4,1-0.4c0.3,0,0.7,0.1,1,0.4l2.9,2.3
		c0.3,0.3,0.6,0.4,1,0.4c0.3,0,0.7-0.1,1-0.4l2.9-2.3c0.3-0.3,0.6-0.4,1-0.4s0.7,0.1,1,0.4l2.9,2.3c0.3,0.3,0.6,0.4,1,0.4
		c0.3,0,0.7-0.1,1-0.4l2.9-2.3c0.3-0.3,0.6-0.4,1-0.4c0.3,0,0.7,0.1,1,0.4l2.9,2.3c0.3,0.3,0.6,0.4,1,0.4s0.7-0.1,1-0.4l2.5-2.1
		c0.3-0.2,0.5-0.3,0.8-0.1c0.3,0.1,0.4,0.3,0.4,0.7v53.8c0,2.4-0.8,4.4-2.5,6c-1.7,1.6-3.7,2.5-6,2.5H29.5z M70.4,76.7
		c1,0,1.8-0.3,2.4-1c0.7-0.7,1-1.5,1-2.4V25.6H36.3v39.1h27.6c0.9,0,1.6,0.3,2.2,0.9c0.6,0.6,0.9,1.3,0.9,2.2v5.4c0,1,0.3,1.8,1,2.4
		C68.6,76.3,69.4,76.7,70.4,76.7z M29.5,76.7h32.3v-6.8H26.1v3.4c0,1,0.3,1.8,1,2.4C27.7,76.3,28.5,76.7,29.5,76.7z"/>
	<path class="st2" d="M42.9,33.3h14.2c0.7,0,1.3,0.2,1.8,0.7c0.5,0.5,0.7,1.1,0.7,1.8c0,0.7-0.2,1.3-0.7,1.8
		c-0.5,0.5-1.1,0.7-1.8,0.7H42.9c-0.7,0-1.3-0.2-1.8-0.7c-0.5-0.5-0.7-1.1-0.7-1.8c0-0.7,0.2-1.3,0.7-1.8
		C41.6,33.5,42.2,33.3,42.9,33.3z"/>
	<path class="st2" d="M42.9,43.5h14.2c0.7,0,1.3,0.2,1.8,0.7c0.5,0.5,0.7,1.1,0.7,1.8c0,0.7-0.2,1.3-0.7,1.8
		c-0.5,0.5-1.1,0.7-1.8,0.7H42.9c-0.7,0-1.3-0.2-1.8-0.7c-0.5-0.5-0.7-1.1-0.7-1.8c0-0.7,0.2-1.3,0.7-1.8
		C41.6,43.7,42.2,43.5,42.9,43.5z"/>
	<path class="st2" d="M66.8,38.8c-0.8,0-1.5-0.3-2.1-0.9c-0.6-0.6-0.9-1.3-0.9-2.1c0-0.8,0.3-1.5,0.9-2.1c0.6-0.6,1.3-0.9,2.1-0.9
		c0.8,0,1.5,0.3,2.1,0.9c0.6,0.6,0.9,1.3,0.9,2.1c0,0.8-0.3,1.5-0.9,2.1C68.3,38.5,67.6,38.8,66.8,38.8z"/>
	<path class="st2" d="M66.8,49c-0.8,0-1.5-0.3-2.1-0.9c-0.6-0.6-0.9-1.3-0.9-2.1c0-0.8,0.3-1.5,0.9-2.1c0.6-0.6,1.3-0.9,2.1-0.9
		c0.8,0,1.5,0.3,2.1,0.9c0.6,0.6,0.9,1.3,0.9,2.1c0,0.8-0.3,1.5-0.9,2.1C68.3,48.7,67.6,49,66.8,49z"/>
</g>
<g>
	<path class="st3" d="M61.5,23.5l-11.5-5.2c-0.2-0.1-0.3-0.1-0.5,0l-11.5,5.2c-0.5,0.2-0.5,0.9,0,1.1l11.5,5.2
		c0.2,0.1,0.3,0.1,0.5,0l11.5-5.2C62,24.4,62,23.7,61.5,23.5z"/>
	<path class="st3" d="M47.5,33.2l-12.2-5.6c-0.4-0.2-0.8,0.1-0.8,0.6v16.7c0,0.2,0.1,0.4,0.4,0.6L47,51c0.4,0.2,0.9-0.1,0.9-0.6
		V33.8C47.8,33.5,47.7,33.3,47.5,33.2z"/>
	<path class="st3" d="M64.3,27.7l-12.2,5.5c-0.2,0.1-0.4,0.3-0.4,0.6v16.7c0,0.4,0.5,0.7,0.9,0.6l12.2-5.6c0.2-0.1,0.4-0.3,0.4-0.6
		V28.2C65.2,27.8,64.7,27.5,64.3,27.7z"/>
	<path class="st4" d="M44.6,54.2l-11.5-5.2c-0.2-0.1-0.3-0.1-0.5,0l-11.5,5.2c-0.5,0.2-0.5,0.9,0,1.1l11.5,5.2
		c0.2,0.1,0.3,0.1,0.5,0l11.5-5.2C45.1,55.1,45.1,54.4,44.6,54.2z"/>
	<path class="st4" d="M30.6,63.9l-12.2-5.6c-0.4-0.2-0.8,0.1-0.8,0.6v16.7c0,0.2,0.1,0.4,0.4,0.6l12.2,5.5c0.4,0.2,0.9-0.1,0.9-0.6
		V64.5C31,64.2,30.8,64,30.6,63.9z"/>
	<path class="st4" d="M47.4,58.4l-12.2,5.5c-0.2,0.1-0.4,0.3-0.4,0.6v16.7c0,0.4,0.5,0.7,0.9,0.6l12.2-5.6c0.2-0.1,0.4-0.3,0.4-0.6
		V58.9C48.3,58.5,47.8,58.2,47.4,58.4z"/>
	<path class="st4" d="M78.8,54.2l-11.5-5.2c-0.2-0.1-0.3-0.1-0.5,0l-11.5,5.2c-0.5,0.2-0.5,0.9,0,1.1l11.5,5.2
		c0.2,0.1,0.3,0.1,0.5,0l11.5-5.2C79.3,55.1,79.3,54.4,78.8,54.2z"/>
	<path class="st4" d="M64.7,63.9l-12.2-5.6c-0.4-0.2-0.8,0.1-0.8,0.6v16.7c0,0.2,0.1,0.4,0.4,0.6l12.2,5.5c0.4,0.2,0.9-0.1,0.9-0.6
		V64.5C65.1,64.2,65,64,64.7,63.9z"/>
	<path class="st4" d="M81.6,58.4l-12.2,5.5C69.2,64,69,64.2,69,64.5v16.7c0,0.4,0.5,0.7,0.9,0.6l12.2-5.6c0.2-0.1,0.4-0.3,0.4-0.6
		V58.9C82.4,58.5,82,58.2,81.6,58.4z"/>
</g>
<g class="st0">
	<g class="st5">
		<defs>
			<rect id="SVGID_1_" x="5.1" y="22.2" width="89.8" height="55.7"/>
		</defs>
		<clipPath id="SVGID_00000119081333919020996210000006393261078924288435_">
			<use xlink:href="#SVGID_1_"  style="overflow:visible;"/>
		</clipPath>
		<g style="clip-path:url(#SVGID_00000119081333919020996210000006393261078924288435_);">
			<path class="st4" d="M61.3,54H38.7c-1.1,0-2,0.9-2,2c0,1.1,0.9,2,2,2H48v17.9c0,1.1,0.9,2,2,2s2-0.9,2-2V58h9.3c1.1,0,2-0.9,2-2
				C63.3,54.9,62.4,54,61.3,54L61.3,54z"/>
			<path class="st3" d="M76,41.5c3.2-0.3,5.4-3.2,5.1-6.4c-0.3-3.2-3.2-5.5-6.3-5.1c-3.2,0.3-5.4,3.2-5.1,6.4
				C70,39.6,72.9,41.9,76,41.5z"/>
			<path class="st3" d="M84.5,60.6c0.8-1,1.1-2.2,0.8-3.5L83,46c-0.2-1.1-0.9-2.1-1.8-2.7c-1-0.6-2.1-0.8-3.2-0.6
				c0,0-3.2,0.7-3.9,0.9c-0.7,0.2-6.3,3.1-6.3,3.1l-4.9-0.2c-1.5-0.1-2.7,1.1-2.8,2.5c-0.1,1.5,1.1,2.7,2.5,2.8l5.6,0.2
				c0,0,0.1,0,0.1,0c0.4,0,0.8-0.1,1.2-0.3l3.7-1.8l1.4,6.2h-5.2c-2.4,0-4.3,1.9-4.3,4.3v14.3c0,1.7,1.3,3,3,3c1.6,0,3-1.3,3-3V63.2
				c0-0.6,0.5-1.1,1.1-1.1h9.2C82.5,62.1,83.7,61.6,84.5,60.6L84.5,60.6z"/>
			<path class="st4" d="M94.9,45.9c0-1.3-0.6-2.2-1.8-2.3c-1-0.1-2,0.6-2.2,1.7l-2.8,16c-0.3,1.9-2,3.3-4,3.3h-8.3
				c-1.4,0-2.6,1.2-2.6,2.6v8.7c0,1.1,0.9,2,2,2h17.6c1.1,0,2-0.9,2-2L94.9,45.9L94.9,45.9z"/>
			<path class="st3" d="M24,41.5c3.2,0.3,6-1.9,6.3-5.1c0.3-3.2-1.9-6-5.1-6.4c-3.2-0.3-6,1.9-6.3,5.1C18.5,38.3,20.8,41.2,24,41.5z
				"/>
			<path class="st3" d="M30.8,56.2h-5.2l1.4-6.2l3.7,1.8c0.4,0.2,0.8,0.3,1.2,0.3c0,0,0.1,0,0.1,0l5.6-0.2c1.5-0.1,2.6-1.3,2.5-2.8
				c-0.1-1.5-1.3-2.6-2.8-2.5l-4.9,0.2c0,0-5.6-2.9-6.3-3.1c-0.8-0.2-3.9-0.9-3.9-0.9c-1.1-0.2-2.3,0-3.2,0.6
				c-1,0.6-1.6,1.6-1.8,2.7l-2.3,11.2c-0.3,1.2,0.1,2.5,0.8,3.5c0.8,1,2,1.5,3.2,1.5H28c0.6,0,1.1,0.5,1.1,1.1v11.5c0,1.7,1.3,3,3,3
				c1.6,0,3-1.3,3-3V60.5C35,58.1,33.1,56.2,30.8,56.2L30.8,56.2z"/>
			<path class="st4" d="M24.2,64.6h-8.3c-1.9,0-3.6-1.4-4-3.3l-2.8-16c-0.2-1-1.1-1.8-2.2-1.7c-1.2,0.1-1.8,1-1.8,2.3l0,29.9
				c0,1.1,0.9,2,2,2h17.6c1.1,0,2-0.9,2-2v-8.7C26.7,65.7,25.6,64.6,24.2,64.6L24.2,64.6z"/>
			<path class="st4" d="M50,41.7c5.4,0,9.8-4.4,9.8-9.8c0-5.4-4.4-9.8-9.8-9.8c-5.4,0-9.8,4.4-9.8,9.8C40.2,37.4,44.6,41.7,50,41.7z
				 M48.6,26.8c0-0.8,0.6-1.4,1.4-1.4c0.8,0,1.4,0.6,1.4,1.4v3.8H54c0.8,0,1.4,0.6,1.4,1.4c0,0.8-0.6,1.4-1.4,1.4h-4
				c-0.8,0-1.4-0.6-1.4-1.4V26.8L48.6,26.8z"/>
		</g>
	</g>
</g>
<g class="st0">
	<path class="st2" d="M27.3,77.2c-0.8,0-1.5-0.3-2.1-0.8c-0.5-0.5-0.8-1.2-0.8-2.1v-5.5c0-0.8,0.2-1.5,0.4-2.2
		c0.3-0.7,0.7-1.3,1.2-1.8l40.5-40.5c0.5-0.5,1-0.9,1.6-1.1c0.6-0.2,1.2-0.3,1.8-0.3c0.6,0,1.2,0.1,1.8,0.3c0.6,0.2,1.1,0.6,1.5,1.1
		l4,4c0.5,0.4,0.9,1,1.1,1.5c0.2,0.6,0.3,1.2,0.3,1.8c0,0.6-0.1,1.2-0.3,1.8s-0.6,1.1-1.1,1.6L36.9,75.5c-0.5,0.5-1.1,0.9-1.8,1.2
		c-0.7,0.3-1.5,0.4-2.2,0.4H27.3z M29.2,72.4h4l32.6-32.5l-2-2l-2-2L29.2,68.4V72.4z M63.8,37.8l-2-2l4,4
		C65.8,39.8,63.8,37.8,63.8,37.8z"/>
	<path class="st1" d="M40.4,31.6c0,0.9-0.5,1.8-1.6,2.5c-1.1,0.8-3.3,1.9-6.7,3.5c-4.1,1.8-7,3.4-8.5,4.8c-1.6,1.4-2.4,3.2-2.4,5.2
		c0,1.3,0.3,2.5,1,3.5c0.7,1,1.5,1.8,2.5,2.6c0.5,0.4,1.1,0.6,1.7,0.5c0.6-0.1,1.1-0.4,1.6-0.9c0.4-0.5,0.6-1.1,0.5-1.7
		c-0.1-0.6-0.4-1.2-0.9-1.6c-0.6-0.4-1-0.7-1.3-1.1C26.2,48.4,26,48,26,47.6c0-0.8,0.5-1.6,1.6-2.4c1.1-0.8,3.2-1.9,6.4-3.2
		c4.4-1.9,7.4-3.6,8.9-5.2c1.5-1.5,2.3-3.3,2.3-5.2c0-2.6-1.1-4.7-3.3-6.4c-2.2-1.6-5.1-2.4-8.7-2.4c-2.2,0-4.2,0.4-6,1.2
		c-1.8,0.8-3.2,1.8-4.1,2.9c-0.4,0.5-0.6,1.1-0.5,1.7c0.1,0.6,0.4,1.2,0.9,1.6c0.5,0.4,1.1,0.6,1.7,0.5c0.6-0.1,1.2-0.3,1.6-0.8
		c0.8-0.8,1.7-1.4,2.8-1.8c1-0.4,2.3-0.6,3.7-0.6c2.3,0,4.1,0.4,5.4,1.2C39.8,29.6,40.4,30.5,40.4,31.6z"/>
	<path class="st1" d="M55.2,77.2c3.7,0,7.2-0.9,10.4-2.7c3.2-1.8,4.8-4.4,4.8-7.7c0-1.7-0.5-3.2-1.4-4.4c-0.9-1.3-2.2-2.4-3.9-3.4
		c-0.6-0.4-1.2-0.5-1.8-0.5s-1.2,0.3-1.6,0.8c-0.4,0.5-0.6,1.1-0.5,1.8c0.1,0.7,0.4,1.2,0.9,1.6c1.1,0.6,1.9,1.3,2.5,2
		c0.6,0.7,0.9,1.4,0.9,2.2c0,1.5-1,2.8-3.1,3.9c-2.1,1.1-4.5,1.7-7.3,1.7c-0.7,0-1.3,0.2-1.7,0.7c-0.5,0.5-0.7,1-0.7,1.7
		c0,0.7,0.2,1.3,0.7,1.7C54,77,54.6,77.2,55.2,77.2z"/>
</g>
</svg>
