<?xml version="1.0" encoding="utf-8"?>
<!-- Generator: Adobe Illustrator 27.7.0, SVG Export Plug-In . SVG Version: 6.00 Build 0)  -->
<svg version="1.1" id="레이어_1" xmlns="http://www.w3.org/2000/svg" xmlns:xlink="http://www.w3.org/1999/xlink" x="0px"
	 y="0px" viewBox="0 0 100 100" style="enable-background:new 0 0 100 100;" xml:space="preserve">
<style type="text/css">
	.st0{fill:none;stroke:#000000;stroke-width:3;stroke-linecap:round;stroke-linejoin:round;stroke-miterlimit:10;}
</style>
<g id="안내선_00000006708498300743296520000000111067536031591349_">
	<g id="안내선">
	</g>
</g>
<g>
	<path class="st0" d="M91.7,82.8H8.3c-0.9,0-1.6-0.7-1.6-1.6V25.5c0-0.9,0.7-1.6,1.6-1.6h83.4c0.9,0,1.6,0.7,1.6,1.6v55.7
		C93.3,82.1,92.6,82.8,91.7,82.8z"/>
	<path d="M16.8,82.8H9.5c-1.5,0-2.8-1.3-2.8-2.8V26.8C6.7,25.2,8,24,9.5,24h7.3V82.8z"/>
	<path class="st0" d="M8.5,24l70.7-6.7c1.1-0.1,2.1,0.4,2.1,1V24"/>
</g>
</svg>
