<?xml version="1.0" encoding="utf-8"?>
<!-- Generator: Adobe Illustrator 27.7.0, SVG Export Plug-In . SVG Version: 6.00 Build 0)  -->
<svg version="1.1" id="레이어_1" xmlns="http://www.w3.org/2000/svg" xmlns:xlink="http://www.w3.org/1999/xlink" x="0px"
	 y="0px" viewBox="0 0 100 100" style="enable-background:new 0 0 100 100;" xml:space="preserve">
<style type="text/css">
	.st0{fill:none;stroke:#000000;stroke-width:3;stroke-linecap:round;stroke-linejoin:round;stroke-miterlimit:10;}
</style>
<g id="안내선_00000006708498300743296520000000111067536031591349_">
	<g id="안내선">
	</g>
</g>
<path class="st0" d="M13,92.3V7.7c0-1.1,0.6-2,1.4-2h67.1c0.8,0,1.4,0.9,1.4,2v84.5c0,1.1-0.6,2-1.4,2H14.4
	C13.6,94.3,13,93.4,13,92.3z"/>
<path d="M13,15.8V9c0-1.8,1.3-3.3,2.9-3.3h64.2C81.7,5.7,83,7.2,83,9v6.8H13z"/>
<path class="st0" d="M83,7.5l8,72.4c0.1,1.1-0.4,2.2-1.2,2.2H83"/>
</svg>
