<?xml version="1.0" encoding="utf-8"?>
<!-- Generator: Adobe Illustrator 27.7.0, SVG Export Plug-In . SVG Version: 6.00 Build 0)  -->
<svg version="1.1" id="레이어_1" xmlns="http://www.w3.org/2000/svg" xmlns:xlink="http://www.w3.org/1999/xlink" x="0px"
	 y="0px" viewBox="0 0 100 100" style="enable-background:new 0 0 100 100;" xml:space="preserve">
<style type="text/css">
	.st0{fill:#B2B2B1;}
	.st1{fill:#C4C5C5;}
	.st2{fill:#D4D4D5;}
</style>
<g id="안내선_00000006708498300743296520000000111067536031591349_">
	<g id="안내선">
	</g>
</g>
<g>
	<path d="M17.6,72.2c0-1.1,0-2.1,0-3.2c0,0-0.1-0.1-0.1-0.1c-1.1,0-2.2,0-3.3,0c-1.2-0.1-2.3-0.6-3.3-1.3c-1.2-1-1.8-2.4-1.8-3.9
		c0-1.5,0.6-2.8,1.7-3.8c1.1-1,2.5-1.4,3.9-1.3c0.9,0,1.8,0,2.8,0c0-1.1,0-2.2,0-3.3c0,0-0.1-0.1-0.1-0.1c-1.1,0-2.1,0-3.2,0
		c-2.4-0.1-4.6-1.8-5.1-4.2c-0.6-2.8,1.2-5.5,4.2-6c1.3-0.2,2.7-0.1,4.1-0.2c0,0,0.1-0.1,0.1-0.1c0-1.1,0-2.2,0-3.3
		c-1.1,0-2.2,0-3.3,0c-2.5-0.1-4.9-2-5.1-4.7c-0.2-1.9,0.5-3.3,1.9-4.4c0.8-0.6,1.7-1.1,2.8-1.1c1.2,0,2.5,0,3.7,0
		c0-1.2,0-2.3,0-3.4c-1,0-1.9,0-2.9,0c-2.5,0-4.9-1.6-5.4-4.2c-0.6-2.6,1-5.2,3.5-5.9c0.8-0.2,1.7-0.3,2.6-0.3c0.7,0,1.5,0,2.3,0
		c0-0.2,0-0.4,0-0.5c0-2.6,0-5.2,0-7.9c0-2.3,1.9-4.2,4.2-4.2c12,0,24.1,0,36.1,0c8.9,0,17.7,0,26.6,0c2.2,0,4,1.6,4.4,3.7
		C89,8.6,89,8.9,89,9.3c0,24.8,0,49.6,0,74.4c0,1.5-0.7,2.6-1.8,3.5c-0.3,0.2-0.4,0.4-0.4,0.7c0,0.9,0,1.8,0,2.7
		c-0.1,2.3-1.6,4.2-3.9,4.7c-0.6,0.1-1.2,0.1-1.7,0.1c-19.3,0-38.6,0-57.9,0c-1.3,0-2.5-0.2-3.5-1c-1.4-1.1-2.3-2.5-2.3-4.3
		c0-2.3,0-4.6,0-6.9c0-0.2,0-0.3,0-0.6c-1.1,0-2.2,0-3.3,0c-2.2-0.1-4.2-1.4-4.9-3.5c-0.8-2.3,0.2-4.9,2.2-6
		c0.9-0.5,1.9-0.7,2.9-0.8C15.6,72.3,16.5,72.3,17.6,72.2C17.5,72.3,17.6,72.2,17.6,72.2z M17.6,24.9c0-1.7,0-3.4,0-5.1
		c-1,0-2,0-3,0c-0.9,0-1.6,0.3-2.2,1c-0.6,0.7-0.8,1.4-0.5,2.2c0.3,1.1,1.1,1.8,2.2,1.9C15.2,25,16.4,24.9,17.6,24.9
		C17.5,24.9,17.6,24.9,17.6,24.9z M30.1,7.2c0,26.2,0,52.2,0,78.4c2.6,0,5.1,0,7.7,0c15.3,0,30.5,0,45.8,0c0.2,0,0.4,0,0.5,0
		c1.3-0.1,2.3-0.9,2.3-2.3c-0.1-1.2-0.1-2.4-0.1-3.6c0-9.6,0-19.1,0-28.7c0-5.3,0-10.6,0-15.9c0-3.8,0-7.6,0-11.3
		c0-4.8,0-9.6,0-14.4c0-1.4-0.9-2.2-2.2-2.2c-17.8,0-35.5,0-53.3,0C30.5,7.2,30.3,7.2,30.1,7.2z M27.3,85.6c0-26.2,0-52.3,0-78.4
		c-1.6,0-3.3,0-4.9,0c-1.2,0-2.1,0.5-2.1,2.1c0,2.4,0,4.8,0,7.2c0,0.2,0,0.4,0,0.6c0.7,0,1.4,0,2,0c0.9,0.1,1.5,0.5,1.5,1.3
		c0,0.7-0.5,1.2-1.4,1.3c-0.7,0-1.4,0-2.1,0c0,3.8,0,7.5,0,11.2c0.4,0,0.7,0,1.1,0c0.5,0.1,1.1,0.1,1.6,0.2c0.5,0.1,0.8,0.5,0.8,1
		c0.1,0.8-0.6,1.4-1.4,1.4c-0.7,0-1.4,0-2.1,0c0,3.8,0,7.5,0,11.2c0.7,0,1.5,0,2.2,0c0.9,0,1.5,0.8,1.2,1.7
		c-0.2,0.6-0.6,0.9-1.3,0.9c-0.7,0-1.4,0-2,0c0,3.8,0,7.5,0,11.2c0.4,0,0.7,0,1,0c0.3,0,0.7,0,1,0c0.5,0,1.1,0.2,1.3,0.7
		c0.3,0.6,0.1,1.2-0.4,1.5c-0.3,0.2-0.7,0.3-1.1,0.3c-0.6,0.1-1.3,0-1.9,0c0,3.8,0,7.5,0,11.2c0.8,0,1.5,0,2.2,0
		c0.4,0,1,0.3,1.2,0.9c0.2,0.5,0,1.1-0.5,1.4c-0.4,0.2-0.8,0.3-1.2,0.3c-0.6,0.1-1.2,0-1.7,0c0,0.1-0.1,0.1-0.1,0.1
		c0,3.2,0,6.4,0,9.6c0,0.4,0.5,1.1,1,1.1C23.3,85.6,25.3,85.6,27.3,85.6z M84.2,88.4c-21.3,0-42.6,0-64,0c0.1,0.9,0,1.8,0.3,2.5
		c0.4,1.2,1.5,1.8,2.7,1.8c7.7,0,15.3,0,23,0c11.9,0,23.8,0,35.7,0c1.4,0,2.2-0.9,2.3-1.9C84.3,90,84.2,89.2,84.2,88.4z M17.6,61.1
		c-1,0-2,0-2.9,0c-0.6,0-1.1,0.2-1.6,0.4c-0.9,0.4-1.5,1.8-1.2,2.7c0.3,0.9,0.9,1.5,1.8,1.8c1.3,0.5,2.6,0.1,3.9,0.2
		C17.6,64.5,17.6,62.8,17.6,61.1z M17.6,74.9c-0.8,0-1.5,0-2.2,0c-0.4,0-0.8,0-1.1,0c-1.3,0.1-2.2,1-2.5,2.2c-0.2,1,0.6,2.2,1.6,2.7
		c1.4,0.6,2.8,0.2,4.2,0.3C17.6,78.3,17.6,76.6,17.6,74.9z M17.6,52.5c0-1.7,0-3.4,0-5.2c-1.2,0-2.4,0-3.5,0c-0.9,0-1.9,1-2.1,1.8
		c-0.5,1.6,0.8,3.2,2.6,3.3C15.5,52.6,16.5,52.5,17.6,52.5z M17.6,33.6c-1.2,0-2.3-0.1-3.5,0c-1.3,0.1-2.3,1.3-2.3,2.4
		c0,1.1,0.7,2.1,1.9,2.5c1.3,0.4,2.6,0.1,3.9,0.2C17.6,37,17.6,35.3,17.6,33.6z"/>
	<path class="st0" d="M17.6,44.7c0,0-0.1,0.1-0.1,0.1C17.5,44.7,17.6,44.7,17.6,44.7z"/>
	<path class="st0" d="M17.5,55.1c0,0,0.1,0.1,0.1,0.1C17.6,55.2,17.5,55.2,17.5,55.1z"/>
	<path class="st0" d="M17.5,68.9c0,0,0.1,0.1,0.1,0.1C17.6,68.9,17.5,68.9,17.5,68.9z"/>
	<path class="st1" d="M17.6,72.2C17.6,72.2,17.5,72.3,17.6,72.2C17.5,72.3,17.6,72.2,17.6,72.2z"/>
	<path class="st2" d="M17.5,25C17.5,24.9,17.6,24.9,17.5,25C17.6,24.9,17.5,24.9,17.5,25z"/>
	<path d="M57.7,20.4c5.4,0,10.8,0,16.1,0c1.1,0,1.6,0.5,1.6,1.6c0,7.4,0,14.8,0,22.2c0,1.2-0.7,1.9-2,1.9c-10.6,0-21.3,0-31.9,0
		c-1.1,0-1.7-0.5-1.7-1.7c0-7.5,0-15,0-22.5c0-0.9,0.7-1.6,1.6-1.6C47,20.4,52.4,20.4,57.7,20.4z M72.8,43.3c0-6.8,0-13.5,0-20.2
		c-10,0-20,0-30,0c0,6.7,0,13.4,0,20.2C52.8,43.3,62.7,43.3,72.8,43.3z"/>
</g>
</svg>
