<?xml version="1.0" encoding="utf-8"?>
<!-- Generator: Adobe Illustrator 27.7.0, SVG Export Plug-In . SVG Version: 6.00 Build 0)  -->
<svg version="1.1" id="레이어_1" xmlns="http://www.w3.org/2000/svg" xmlns:xlink="http://www.w3.org/1999/xlink" x="0px"
	 y="0px" viewBox="0 0 100 100" style="enable-background:new 0 0 100 100;" xml:space="preserve">
<style type="text/css">
	.st0{fill:#6D6D6D;}
</style>
<path class="st0" d="M15.4,2.4h69.7c2,0,3.7,1.6,3.7,3.7v76.4c0,2-1.6,3.7-3.7,3.7H15.4c-2,0-3.7-1.6-3.7-3.7V6.1
	C11.7,4,13.3,2.4,15.4,2.4z"/>
<g id="안내선_00000006708498300743296520000000111067536031591349_">
	<g id="안내선">
	</g>
</g>
<g>
	<path d="M89.8,50.4c0,15.9,0,31.7,0,47.5c0,1.6-0.3,2-2,2c-3.8,0-7.7,0-11.5,0c-19.5,0-38.9,0-58.4,0c-3.7,0-6.8-2.4-7.5-6
		c-0.1-0.4-0.1-1-0.1-1.4c0-28.5,0-57.1,0-85.6c0-3.2,2.5-5.7,5.7-5.7c17.6,0,35.3,0,52.9,0c6.2,0,12.5,0,18.8,0c0.2,0,0.4,0,0.7,0
		c1,0,1.4,0.4,1.4,1.4c0,0.4,0,0.9,0,1.3C89.8,19.2,89.8,34.9,89.8,50.4L89.8,50.4z M21.2,44.1c0,13.2,0,26.4,0,39.6
		c0,0.4,0,0.7,0.7,0.7c21.4,0,42.9,0,64.3,0c0.7,0,0.8-0.2,0.8-0.8c0-26.4,0-52.7,0-78.9c0-0.7-0.1-0.8-0.8-0.8
		c-21.4,0-42.9,0-64.2,0c-0.7,0-0.8,0.2-0.8,0.8C21.2,17.7,21.2,30.9,21.2,44.1z M52.1,97.1c11.4,0,22.9,0,34.2,0
		c0.5,0,0.8-0.1,0.8-0.8c0-2.8,0-5.6,0-8.4c0-0.7-0.1-0.9-0.9-0.9c-22.7,0-45.4,0-68.1,0c-2.7,0-5,2.2-4.9,4.9c0,3.2,2.3,5,4.9,5
		C29.3,97.1,40.7,97.1,52.1,97.1z M13.1,86.1c1.4-1.1,3-1.7,4.7-1.7c0.5,0,0.8-0.2,0.8-0.8c0-24.4,0-48.7,0-73c0-2.1,0-4,0-6.1
		c0-0.4-0.1-0.7-0.7-0.5c-0.5,0-1.1,0-1.6,0c-2,0-3.2,1.3-3.2,3.2c0,19.7,0,39.4,0,59C13.1,72.7,13.1,79.4,13.1,86.1z"/>
</g>
<rect x="133.2" y="2.4" class="st0" width="77.1" height="83.8"/>
<g>
	<path d="M211.3,50.4c0,15.9,0,31.7,0,47.5c0,1.6-0.3,2-2,2c-3.8,0-7.7,0-11.5,0c-19.5,0-38.9,0-58.4,0c-3.7,0-6.8-2.4-7.5-6
		c-0.1-0.4-0.1-1-0.1-1.4c0-28.5,0-57.1,0-85.6c0-3.2,2.5-5.7,5.7-5.7c17.6,0,35.3,0,52.9,0c6.2,0,12.5,0,18.8,0c0.2,0,0.4,0,0.7,0
		c1,0,1.4,0.4,1.4,1.4c0,0.4,0,0.9,0,1.3C211.3,19.2,211.3,34.9,211.3,50.4L211.3,50.4z M142.7,44.1c0,13.2,0,26.4,0,39.6
		c0,0.4,0,0.7,0.7,0.7c21.4,0,42.9,0,64.3,0c0.7,0,0.8-0.2,0.8-0.8c0-26.4,0-52.7,0-78.9c0-0.7-0.1-0.8-0.8-0.8
		c-21.4,0-42.9,0-64.2,0c-0.7,0-0.8,0.2-0.8,0.8C142.7,17.7,142.7,30.9,142.7,44.1z M173.6,97.1c11.4,0,22.9,0,34.2,0
		c0.5,0,0.8-0.1,0.8-0.8c0-2.8,0-5.6,0-8.4c0-0.7-0.1-0.9-0.9-0.9c-22.7,0-45.4,0-68.1,0c-2.7,0-5,2.2-4.9,4.9c0,3.2,2.3,5,4.9,5
		C150.8,97.1,162.2,97.1,173.6,97.1z M134.6,86.1c1.4-1.1,3-1.7,4.7-1.7c0.5,0,0.8-0.2,0.8-0.8c0-24.4,0-48.7,0-73c0-2.1,0-4,0-6.1
		c0-0.4-0.1-0.7-0.7-0.5c-0.5,0-1.1,0-1.6,0c-2,0-3.2,1.3-3.2,3.2c0,19.7,0,39.4,0,59C134.6,72.7,134.6,79.4,134.6,86.1z"/>
</g>
</svg>
