<?xml version="1.0" encoding="UTF-8"?>
<svg xmlns="http://www.w3.org/2000/svg" version="1.1" viewBox="0 0 44 44">
  <defs>
    <style>
      .cls-1, .cls-2 {
        fill: none;
      }

      .cls-2 {
        stroke: #fff;
        stroke-linecap: round;
        stroke-linejoin: round;
        stroke-width: 2px;
      }
    </style>
  </defs>
  <!-- Generator: Adobe Illustrator 28.7.0, SVG Export Plug-In . SVG Version: 1.2.0 Build 136)  -->
  <g>
    <g id="Layer_2">
      <g id="Layer_1-2">
        <g>
          <g>
            <polyline class="cls-2" points="38.8 32.9 42.2 32.9 42.2 23.1 39.7 20.6 36.3 11.6 28.7 11.6 28.7 32.9 32.1 32.9"/>
            <path class="cls-2" d="M10.2,32.9h-1.3c-1.1,0-2-.9-2-2v-1.3"/>
            <path class="cls-2" d="M6.9,14.4v-4.7c0-1.1.9-2,2-2h17.8c1.1,0,2,.9,2,2v23.2h-11.8"/>
            <circle class="cls-2" cx="35.4" cy="32.9" r="3.4"/>
            <circle class="cls-2" cx="13.6" cy="32.9" r="3.4"/>
            <line class="cls-2" x1="12.8" y1="17.8" x2="5.2" y2="17.8"/>
            <line class="cls-2" x1="11.1" y1="22" x2="1.8" y2="22"/>
            <line class="cls-2" x1="9.4" y1="26.2" x2="3.5" y2="26.2"/>
            <polyline class="cls-2" points="32.9 11.6 32.9 20.6 39.7 20.6"/>
          </g>
          <rect class="cls-1" y="0" width="44" height="44"/>
        </g>
      </g>
    </g>
  </g>
</svg>