<?xml version="1.0" encoding="UTF-8"?>
<svg xmlns="http://www.w3.org/2000/svg" version="1.1" viewBox="0 0 44 44">
  <defs>
    <style>
      .cls-1, .cls-2 {
        fill: none;
      }

      .cls-2 {
        stroke: #fff;
        stroke-linecap: round;
        stroke-linejoin: round;
        stroke-width: 2px;
      }
    </style>
  </defs>
  <!-- Generator: Adobe Illustrator 28.7.0, SVG Export Plug-In . SVG Version: 1.2.0 Build 136)  -->
  <g>
    <g id="Layer_2">
      <g id="Layer_1-2">
        <g>
          <g>
            <path class="cls-2" d="M36.8,26.5v-15c0-1.2-1-2.2-2.2-2.2s-2.2,1-2.2,2.2v-2.2c0-1.7-1.3-3-3-3s-3,1.3-3,3v-2.2c0-1.7-1.3-3-3-3s-3,1.3-3,3v2.2c0-1.7-1.3-3-3-3s-3,1.3-3,3v18.3l-2-2c-1.2-1.2-3.1-1.2-4.2,0s-1.2,3.1,0,4.2l8.3,8.3c.2.2.3.3.5.4,1.2,1,2.7,1.5,4.3,1.5h8.7c3.7,0,6.7-2.9,6.9-6.6,0,0,0,0,0-.1h0v-6.7h0s0,0,0,0Z"/>
            <line class="cls-2" x1="32.3" y1="11.5" x2="32.3" y2="22"/>
            <line class="cls-2" x1="26.3" y1="9.3" x2="26.3" y2="21.3"/>
            <line class="cls-2" x1="20.3" y1="9.3" x2="20.3" y2="22"/>
            <path class="cls-2" d="M14.3,27.5l2.3,2.3c2.8,0,5.4,1.1,7.2,3"/>
          </g>
          <rect class="cls-1" y="0" width="44" height="44"/>
        </g>
      </g>
    </g>
  </g>
</svg>