<svg width="70" height="70" viewBox="0 0 70 70" fill="none" xmlns="http://www.w3.org/2000/svg">
<path d="M0.5 35C0.5 15.9462 15.9462 0.5 35 0.5C54.0538 0.5 69.5 15.9462 69.5 35C69.5 54.0538 54.0538 69.5 35 69.5C15.9462 69.5 0.5 54.0538 0.5 35Z" stroke="white"/>
<path d="M23.8592 50.0002C23.1186 50.0002 22.4847 49.7366 21.9575 49.2094C21.4303 48.6822 21.1667 48.0483 21.1667 47.3077V26.0261C21.1667 25.2855 21.4303 24.6516 21.9575 24.1244C22.4847 23.5972 23.1186 23.3336 23.8592 23.3336H31.6925C31.5406 22.483 31.744 21.7148 32.3029 21.029C32.8615 20.3432 33.5992 20.0002 34.5159 20.0002C35.4325 20.0002 36.1703 20.3432 36.7292 21.029C37.2881 21.7148 37.4809 22.483 37.3075 23.3336H45.1409C45.8814 23.3336 46.5153 23.5972 47.0425 24.1244C47.5697 24.6516 47.8334 25.2855 47.8334 26.0261V47.3077C47.8334 48.0483 47.5697 48.6822 47.0425 49.2094C46.5153 49.7366 45.8814 50.0002 45.1409 50.0002H23.8592ZM27.8334 43.7823H36.1667C36.4028 43.7823 36.6007 43.7023 36.7604 43.5423C36.9202 43.3823 37 43.1841 37 42.9477C37 42.7114 36.9202 42.5136 36.7604 42.3544C36.6007 42.1952 36.4028 42.1157 36.1667 42.1157H27.8334C27.5972 42.1157 27.3993 42.1957 27.2396 42.3557C27.0799 42.5154 27 42.7136 27 42.9502C27 43.1866 27.0799 43.3844 27.2396 43.5436C27.3993 43.7027 27.5972 43.7823 27.8334 43.7823ZM27.8334 37.5002H41.1667C41.4028 37.5002 41.6007 37.4202 41.7604 37.2602C41.9202 37.1002 42 36.902 42 36.6657C42 36.4293 41.9202 36.2315 41.7604 36.0723C41.6007 35.9132 41.4028 35.8336 41.1667 35.8336H27.8334C27.5972 35.8336 27.3993 35.9136 27.2396 36.0736C27.0799 36.2336 27 36.4318 27 36.6682C27 36.9045 27.0799 37.1023 27.2396 37.2615C27.3993 37.4207 27.5972 37.5002 27.8334 37.5002ZM27.8334 31.2182H41.1667C41.4028 31.2182 41.6007 31.1382 41.7604 30.9782C41.9202 30.8184 42 30.6202 42 30.3836C42 30.1472 41.9202 29.9494 41.7604 29.7902C41.6007 29.6311 41.4028 29.5515 41.1667 29.5515H27.8334C27.5972 29.5515 27.3993 29.6315 27.2396 29.7915C27.0799 29.9515 27 30.1497 27 30.3861C27 30.6225 27.0799 30.8202 27.2396 30.9794C27.3993 31.1386 27.5972 31.2182 27.8334 31.2182ZM34.5 24.0707C34.8611 24.0707 35.1597 23.9526 35.3959 23.7165C35.632 23.4804 35.75 23.1818 35.75 22.8207C35.75 22.4595 35.632 22.1609 35.3959 21.9248C35.1597 21.6887 34.8611 21.5707 34.5 21.5707C34.1389 21.5707 33.8403 21.6887 33.6042 21.9248C33.3681 22.1609 33.25 22.4595 33.25 22.8207C33.25 23.1818 33.3681 23.4804 33.6042 23.7165C33.8403 23.9526 34.1389 24.0707 34.5 24.0707Z" fill="white"/>
</svg>
