<svg width="50" height="50" viewBox="0 0 50 50" fill="none" xmlns="http://www.w3.org/2000/svg">
<mask id="mask0_84_2185" style="mask-type:luminance" maskUnits="userSpaceOnUse" x="7" y="8" width="35" height="35">
<path d="M42 8H7V42.1226H42V8Z" fill="white"/>
</mask>
<g mask="url(#mask0_84_2185)">
<path d="M13.1429 8H35.7613C39.1735 8 42.0008 10.7298 42.0008 14.2396V35.9805C42.0008 39.3928 39.271 42.2201 35.7613 42.2201H13.1429C9.73062 42.2201 6.90332 39.4903 6.90332 35.9805V14.2396C7.00081 10.7298 9.73062 8 13.1429 8Z" fill="#330000"/>
<path d="M23.8665 28.3761H18.4069L17.3345 31.8858C17.3345 31.9833 17.237 32.0808 17.042 32.0808H14.3122C14.1172 32.0808 14.1172 31.9833 14.1172 31.7883L18.8943 18.2368C18.8943 18.1393 18.9918 17.9443 18.9918 17.7493C19.0893 17.4569 19.0893 17.1644 19.0893 16.7744C19.0893 16.6769 19.0893 16.6769 19.1868 16.5794H22.9891C23.0865 16.5794 23.184 16.5794 23.184 16.6769L28.5462 31.6908C28.5462 31.8858 28.5462 31.8858 28.4487 31.8858H25.4264C25.3289 31.8858 25.2314 31.7883 25.2314 31.6908L23.8665 28.3761ZM19.2843 25.4513H22.9891C22.8916 25.1588 22.7941 24.7688 22.6966 24.3789C22.5991 23.9889 22.4041 23.5989 22.3066 23.1115C22.2091 22.624 22.0141 22.234 21.9166 21.7466C21.8191 21.2591 21.6242 20.8691 21.5267 20.4791C21.4292 20.0892 21.3317 19.6992 21.2342 19.3092C21.1367 19.8942 20.9417 20.5766 20.7467 21.1616C20.5517 21.844 20.3567 22.624 20.0643 23.3064C19.7718 24.1839 19.4793 24.8663 19.2843 25.4513ZM31.7634 19.2117C31.276 19.2117 30.7885 19.0167 30.496 18.7243C30.2035 18.3343 30.0086 17.8468 30.0086 17.3594C30.0086 16.8719 30.2035 16.3844 30.496 16.092C30.886 15.7995 31.276 15.6045 31.7634 15.6045C32.3484 15.6045 32.7384 15.7995 33.1283 16.092C33.4208 16.4819 33.6158 16.8719 33.6158 17.3594C33.6158 17.8468 33.4208 18.3343 33.1283 18.7243C32.7384 19.1142 32.2509 19.2117 31.7634 19.2117ZM30.106 31.8858V20.6741C30.106 20.5766 30.2035 20.4791 30.301 20.4791H33.2258C33.3233 20.4791 33.4208 20.5766 33.4208 20.6741V31.8858C33.4208 32.0808 33.3233 32.0808 33.2258 32.0808H30.301C30.2035 32.0808 30.106 31.9833 30.106 31.8858Z" fill="#FF9A00"/>
</g>
</svg>
