<?xml version="1.0" encoding="utf-8"?>
<!-- Generator: Adobe Illustrator 26.5.0, SVG Export Plug-In . SVG Version: 6.00 Build 0)  -->
<svg version="1.1" id="레이어_1" xmlns="http://www.w3.org/2000/svg" xmlns:xlink="http://www.w3.org/1999/xlink" x="0px"
	 y="0px" viewBox="0 0 40 40" style="enable-background:new 0 0 40 40;" xml:space="preserve">
<style type="text/css">
	.st0{clip-path:url(#SVGID_00000005957932516323216380000007778454849966642055_);}
	.st1{fill:#330000;}
	.st2{fill:#FF9A00;}
</style>
<g>
	<defs>
		<rect id="SVGID_1_" x="2.1" y="2.5" width="35.9" height="35"/>
	</defs>
	<clipPath id="SVGID_00000007408143553882256850000016476434638111938193_">
		<use xlink:href="#SVGID_1_"  style="overflow:visible;"/>
	</clipPath>
	<g style="clip-path:url(#SVGID_00000007408143553882256850000016476434638111938193_);">
		<path class="st1" d="M8.4,2.5h23.2c3.5,0,6.4,2.8,6.4,6.4v22.3c0,3.5-2.8,6.4-6.4,6.4H8.4c-3.5,0-6.4-2.8-6.4-6.4V8.9
			C2.1,5.3,4.9,2.5,8.4,2.5z"/>
		<path class="st2" d="M19.4,23.4h-5.6L12.7,27c0,0.1-0.1,0.2-0.3,0.2H9.6c-0.2,0-0.2-0.1-0.2-0.3L14.3,13c0-0.1,0.1-0.3,0.1-0.5
			c0.1-0.3,0.1-0.6,0.1-1c0-0.1,0-0.1,0.1-0.2h3.9c0.1,0,0.2,0,0.2,0.1l5.5,15.4c0,0.2,0,0.2-0.1,0.2h-3.1c-0.1,0-0.2-0.1-0.2-0.2
			L19.4,23.4z M14.7,20.4h3.8c-0.1-0.3-0.2-0.7-0.3-1.1c-0.1-0.4-0.3-0.8-0.4-1.3c-0.1-0.5-0.3-0.9-0.4-1.4
			c-0.1-0.5-0.3-0.9-0.4-1.3c-0.1-0.4-0.2-0.8-0.3-1.2h0c-0.1,0.6-0.3,1.3-0.5,1.9c-0.2,0.7-0.4,1.5-0.7,2.2
			C15.2,19.1,14.9,19.8,14.7,20.4z M27.5,14c-0.5,0-1-0.2-1.3-0.5c-0.3-0.4-0.5-0.9-0.5-1.4c0-0.5,0.2-1,0.5-1.3
			c0.4-0.3,0.8-0.5,1.3-0.5c0.6,0,1,0.2,1.4,0.5c0.3,0.4,0.5,0.8,0.5,1.3c0,0.5-0.2,1-0.5,1.4C28.5,13.9,28,14,27.5,14z M25.8,27
			V15.5c0-0.1,0.1-0.2,0.2-0.2h3c0.1,0,0.2,0.1,0.2,0.2V27c0,0.2-0.1,0.2-0.2,0.2H26C25.9,27.2,25.8,27.1,25.8,27z"/>
	</g>
</g>
</svg>
