<?xml version="1.0" encoding="utf-8"?>
<!-- Generator: Adobe Illustrator 26.5.0, SVG Export Plug-In . SVG Version: 6.00 Build 0)  -->
<svg version="1.1" id="레이어_1" xmlns="http://www.w3.org/2000/svg" xmlns:xlink="http://www.w3.org/1999/xlink" x="0px"
	 y="0px" viewBox="0 0 44 44" style="enable-background:new 0 0 44 44;" xml:space="preserve">
<style type="text/css">
	.st0{clip-path:url(#SVGID_00000133531417199517779360000012150358200125229713_);}
	.st1{fill:#264DE4;}
	.st2{fill:#2965F1;}
	.st3{fill:#EBEBEB;}
	.st4{fill:#FFFFFF;}
</style>
<g>
	<defs>
		<rect id="SVGID_1_" x="6.5" y="0.1" width="31" height="43.8"/>
	</defs>
	<clipPath id="SVGID_00000038394461579821873890000015583254658663592077_">
		<use xlink:href="#SVGID_1_"  style="overflow:visible;"/>
	</clipPath>
	<g style="clip-path:url(#SVGID_00000038394461579821873890000015583254658663592077_);">
		<path class="st1" d="M37.5,8.7l-2.8,31.6L22,43.9L9.3,40.4L6.5,8.7H37.5z"/>
		<path class="st2" d="M32.3,38.3l2.4-27H22v29.9L32.3,38.3z"/>
		<path class="st3" d="M13,23l0.3,3.9H22V23H13z"/>
		<path class="st3" d="M22,15.2L22,15.2h-9.7l0.4,3.9H22V15.2z"/>
		<path class="st3" d="M22,37.2v-4l0,0L17.7,32l-0.3-3.1h-2.1h-1.8L14,35L22,37.2L22,37.2z"/>
		<path d="M13.8,0.1h4.7v2h-2.7v2h2.7v2h-4.7V0.1z"/>
		<path d="M19.4,0.1h4.7v1.7h-2.7v0.3h2.7v3.9h-4.7V4.3h2.7V4h-2.7V0.1z"/>
		<path d="M25.1,0.1h4.7v1.7H27v0.3h2.7v3.9h-4.7V4.3h2.7V4h-2.7V0.1z"/>
		<path class="st4" d="M26.8,26.9l-0.5,5L22,33.1v4l8-2.2l0.1-0.7l0.9-10.2l0.1-1l0.7-7.9H22v3.9h5.5l-0.4,4H22v3.9H26.8z"/>
	</g>
</g>
</svg>
