<svg width="50" height="50" viewBox="0 0 50 50" fill="none" xmlns="http://www.w3.org/2000/svg">
<mask id="mask0_84_2194" style="mask-type:luminance" maskUnits="userSpaceOnUse" x="11" y="5" width="29" height="40">
<path d="M39.3105 5H11V45H39.3105V5Z" fill="white"/>
</mask>
<g mask="url(#mask0_84_2194)">
<path d="M39.3105 12.854L36.7534 41.7124L25.1552 45.0001L13.5571 41.8038L11 12.854H39.3105Z" fill="#264DE4"/>
<path d="M34.5617 39.8856L36.7534 15.228H25.1553V42.534L34.5617 39.8856Z" fill="#2965F1"/>
<path d="M16.9365 25.9136L17.2105 29.4752H25.1557V25.9136H16.9365Z" fill="#EBEBEB"/>
<path d="M25.1553 18.79H16.2969L16.6622 22.3517H25.1553V18.79Z" fill="#EBEBEB"/>
<path d="M25.1551 38.8812V35.2282L21.2282 34.1323L20.9542 31.3013H19.0364H17.3926L17.8492 36.872L25.1551 38.8812Z" fill="#EBEBEB"/>
<path d="M17.667 5H21.9592V6.82648H19.4935V8.65297H21.9592V10.4795H17.667V5Z" fill="black"/>
<path d="M22.7812 5H27.0735V6.55251H24.6077V6.82648H27.0735V10.3881H22.7812V8.83562H25.247V8.56164H22.7812V5Z" fill="black"/>
<path d="M27.9859 5H32.2781V6.55251H29.721V6.82648H32.1868V10.3881H27.8945V8.83562H30.3603V8.56164H27.8945V5H27.9859Z" fill="black"/>
<path d="M29.5388 29.475L29.0822 34.0412L25.1553 35.1371V38.7901L32.4612 36.7809L32.5525 36.1417L33.3745 26.8266L33.4658 25.9133L34.105 18.6987H25.1553V22.2604H30.1781L29.8128 25.9133H25.1553V29.475H29.5388Z" fill="white"/>
</g>
</svg>
