<svg width="50" height="50" viewBox="0 0 50 50" fill="none" xmlns="http://www.w3.org/2000/svg">
<mask id="mask0_84_2213" style="mask-type:luminance" maskUnits="userSpaceOnUse" x="14" y="9" width="21" height="32">
<path d="M35 9H14V41H35V9Z" fill="white"/>
</mask>
<g mask="url(#mask0_84_2213)">
<path d="M19.3173 40.9998C22.2014 40.9998 24.5448 38.6226 24.5448 35.6969V30.394H19.3173C16.4332 30.394 14.0898 32.7712 14.0898 35.6969C14.0898 38.6226 16.3431 40.9998 19.3173 40.9998Z" fill="#0ACF83"/>
<path d="M14 25.0001C14 22.0744 16.3433 19.6973 19.2275 19.6973H24.5451V30.3944H19.3176C16.3433 30.303 14 27.9258 14 25.0001Z" fill="#A259FF"/>
<path d="M14 14.3029C14 11.3771 16.3433 9 19.2275 9H24.5451V19.6971H19.3176C16.3433 19.6971 14 17.32 14 14.3029Z" fill="#F24E1E"/>
<path d="M24.5459 9H29.7734C32.6575 9 35.0008 11.3771 35.0008 14.3029C35.0008 17.2286 32.6575 19.6057 29.7734 19.6057H24.5459V9Z" fill="#FF7262"/>
<path d="M35.091 25.0001C35.091 27.9258 32.7476 30.303 29.8635 30.303C26.9794 30.303 24.5459 27.9258 24.5459 25.0001C24.5459 22.0744 26.8892 19.6973 29.7734 19.6973C32.6575 19.6973 35.091 22.0744 35.091 25.0001Z" fill="#1ABCFE"/>
</g>
</svg>
