<svg width="50" height="50" viewBox="0 0 50 50" fill="none" xmlns="http://www.w3.org/2000/svg">
<mask id="mask0_84_2163" style="mask-type:luminance" maskUnits="userSpaceOnUse" x="11" y="5" width="29" height="40">
<path d="M39.4018 5H11V45H39.4018V5Z" fill="white"/>
</mask>
<g mask="url(#mask0_84_2163)">
<path d="M13.6484 5H15.4749V6.73516H17.1188V5H18.9452V10.3881H17.1188V8.56164H15.4749V10.3881H13.6484M21.2283 6.82648H19.6758V5H24.6073V6.82648H23.0548V10.3881H21.2283M25.4293 5H27.3471L28.5343 6.91781L29.7215 5H31.6393V10.3881H29.8128V7.73973L28.5343 9.65753L27.2557 7.73973V10.3881H25.5206M32.3699 5H34.1964V8.56164H36.7535V10.3881H32.3699" fill="black"/>
<path d="M13.5571 41.8038L11 12.854H39.3105L36.7534 41.7124L25.1552 45.0001" fill="#E44D26"/>
<path d="M25.1553 42.534V15.228H36.7534L34.5617 39.8856" fill="#F16529"/>
<path d="M16.2969 18.79H25.1553V22.3517H20.1325L20.4978 26.0047H25.1553V29.5663H17.2101M17.3928 31.3015H20.9544L21.2284 34.1325L25.1553 35.2284V38.9727L17.8494 36.8722" fill="#EBEBEB"/>
<path d="M34.0137 18.79H25.1553V22.3517H33.7397M33.3745 25.9133H25.1553V29.475H29.5388L29.0822 34.0412L25.1553 35.1371V38.79L32.3699 36.7809" fill="white"/>
</g>
</svg>
