<svg width="256" height="80" viewBox="0 0 256 80" fill="none" xmlns="http://www.w3.org/2000/svg">
<path d="M57.5339 73.3333H22.8672C14.0672 73.3333 6.86719 66.1333 6.86719 57.3333V22.6666C6.86719 13.8666 14.0672 6.66663 22.8672 6.66663H57.5339C66.3339 6.66663 73.5339 13.8666 73.5339 22.6666V57.3333C73.5339 66.1333 66.3339 73.3333 57.5339 73.3333Z" fill="#0049FF"/>
<path d="M36.0669 45.9999C36.0669 45.8666 36.0669 45.7333 35.9335 45.5999C35.9335 45.5999 35.9335 45.5999 35.9335 45.4666C34.8669 43.8666 34.2002 41.9999 34.2002 39.9999C34.2002 34.5333 38.6002 30.2666 43.9335 30.2666C47.2669 30.2666 49.9335 27.5999 49.9335 24.2666C49.9335 21.0666 47.4002 18.3999 44.3335 18.2666C44.2002 18.2666 44.2002 18.2666 44.0669 18.2666C43.9335 18.2666 43.9335 18.2666 43.8002 18.2666C35.1335 18.3999 28.2002 25.3333 28.2002 33.9999C28.2002 39.1999 30.7335 43.7333 34.6002 46.6666C34.6002 46.6666 34.7335 46.6666 34.7335 46.7999C34.8669 46.7999 35.0002 46.7999 35.2669 46.7999C35.6669 46.9333 36.0669 46.5333 36.0669 45.9999Z" fill="white"/>
<path d="M44.3335 33.9999C44.3335 34.1332 44.3335 34.2666 44.4668 34.3999C44.4668 34.3999 44.4668 34.3999 44.4668 34.5332C45.5335 36.1332 46.2001 37.9999 46.2001 39.9999C46.2001 45.4666 41.8001 49.7332 36.4668 49.7332C33.1335 49.7332 30.4668 52.3999 30.4668 55.7332C30.4668 58.9332 33.0001 61.5999 36.0668 61.7332C36.2001 61.7332 36.2001 61.7332 36.3335 61.7332C36.4668 61.7332 36.4668 61.7332 36.6001 61.7332C45.2668 61.4666 52.2001 54.5332 52.2001 45.8666C52.2001 40.6666 49.6668 36.1332 45.8001 33.1999C45.8001 33.1999 45.6668 33.1999 45.6668 33.0666C45.5335 33.0666 45.4001 32.9332 45.2668 32.9332C44.7335 33.0666 44.3335 33.4666 44.3335 33.9999Z" fill="white"/>
<path d="M97.1342 35.3333C98.0675 34.1333 99.1342 32.8 100.068 31.2C101.001 29.6 102.068 28.1333 102.868 26.4C103.801 24.8 104.601 23.0666 105.268 21.3333C105.934 19.6 106.468 17.8667 106.868 16.1333C107.001 15.8667 107.134 15.6 107.401 15.3333C107.668 15.2 107.934 15.0666 108.334 15.2L113.001 16.5333C113.268 16.6666 113.534 16.8 113.534 17.0667C113.534 17.3333 113.534 17.7333 113.534 18C113.401 18.9333 113.134 19.8667 112.734 20.8C112.468 21.7333 112.068 22.6666 111.668 23.7333C113.001 23.2 114.334 23.0666 115.668 23.0666C116.868 23.0666 118.068 23.3333 119.268 23.7333C120.468 24.1333 121.534 24.9333 122.601 26C123.668 27.0666 124.601 28.5333 125.534 30.2667C126.468 32 127.134 34.2667 127.801 36.9333C127.934 37.2 127.801 37.4666 127.668 37.7333C127.534 38 127.268 38.1333 126.868 38.2667L122.601 39.4666C122.334 39.6 122.068 39.4667 121.801 39.3333C121.534 39.2 121.534 38.9333 121.401 38.6667C120.868 36.6667 120.334 34.9333 119.801 33.7333C119.268 32.4 118.601 31.4667 117.934 30.8C117.268 30.1333 116.601 29.6 115.934 29.4667C115.268 29.2 114.601 29.0666 113.934 29.0666C112.868 29.0666 111.668 29.3333 110.601 29.8666C109.534 30.4 108.334 31.3333 107.001 32.6666C106.201 33.8666 105.401 35.0666 104.734 36.1333C104.068 37.2 103.268 38.1333 102.601 39.0666C102.334 39.3333 102.068 39.6 101.668 39.7333C101.268 39.8666 101.001 39.8666 100.601 39.7333L97.5342 36.9333C96.8675 36.5333 96.7342 36 97.1342 35.3333ZM109.001 57.3333C108.201 57.3333 107.801 57.7333 107.801 58.5333V60C107.801 60.8 108.201 61.0666 109.001 61.0666H139.668C140.468 61.0666 140.868 61.4666 140.868 62.2667V65.6C140.868 66.4 140.468 66.8 139.668 66.8H106.601C104.868 66.8 103.401 66.2667 102.334 65.2C101.268 64.1333 100.734 62.6666 100.734 60.9333V58C100.734 56.2666 101.268 54.8 102.334 53.7333C103.401 52.6666 104.868 52.1333 106.601 52.1333H131.934C132.734 52.1333 133.134 51.7333 133.134 50.9333V49.6C133.134 48.8 132.734 48.4 131.934 48.4H101.801C101.001 48.4 100.601 48 100.601 47.2V44C100.601 43.2 101.001 42.8 101.801 42.8H134.334C136.068 42.8 137.534 43.3333 138.601 44.4C139.668 45.4666 140.201 46.9333 140.201 48.6666V51.3333C140.201 53.0667 139.668 54.5333 138.601 55.6C137.534 56.6666 136.068 57.2 134.334 57.2H109.001V57.3333ZM133.001 16.2666C133.001 15.4666 133.401 15.0667 134.201 15.0667H139.134C139.934 15.0667 140.334 15.4666 140.334 16.2666V39.3333C140.334 40.1333 139.934 40.5333 139.134 40.5333H134.201C133.401 40.5333 133.001 40.1333 133.001 39.3333V16.2666Z" fill="#0049FF"/>
<path d="M159.401 42C158.601 42 158.201 42.4 158.201 43.2V57.0666C158.201 57.8666 158.601 58.2667 159.401 58.2667H160.601C163.801 58.2667 167.134 57.8666 170.334 56.9333C173.534 56 176.734 54.6666 179.667 53.0666C179.934 52.9333 180.334 52.9333 180.601 53.0666C180.867 53.2 181.134 53.4666 181.267 53.7333L182.467 56.8C182.601 57.3333 182.467 57.8666 181.801 58.2667C178.601 60.1333 175.001 61.6 170.867 62.6666C166.734 63.7333 162.467 64.2667 157.934 64.2667H156.734C155.001 64.2667 153.534 63.7333 152.467 62.6666C151.401 61.6 150.867 60 150.867 58.1333V42.2667C150.867 40.5333 151.401 39.0667 152.467 38C153.534 36.9333 155.001 36.4 156.734 36.4H168.067C168.734 36.4 169.267 36 169.401 35.2C169.534 34.4 169.801 33.3333 169.934 32.2666C170.067 31.2 170.201 30.1333 170.334 29.0666C170.467 28 170.467 26.9333 170.601 26C170.601 24.9333 170.601 24.1333 170.601 23.4667C170.601 22.6667 170.201 22.2667 169.401 22.2667H152.067C151.267 22.2667 150.867 21.8667 150.867 21.0666V17.4667C150.867 16.6667 151.267 16.2666 152.067 16.2666H171.934C173.667 16.2666 175.134 16.8 176.201 17.8666C177.267 18.9333 177.801 20.4 177.801 22.1333C177.801 23.0666 177.801 24.1333 177.801 25.2C177.801 26.4 177.667 27.6 177.534 28.8C177.401 30 177.267 31.3333 177.134 32.5333C177.001 33.7333 176.734 34.9333 176.601 36C176.334 37.7333 175.667 39.0667 174.734 40.2667C173.801 41.3333 172.467 42 170.734 42H159.401ZM186.067 16.2666C186.067 15.4666 186.467 15.0667 187.267 15.0667H192.201C193.001 15.0667 193.401 15.4666 193.401 16.2666V65.3333C193.401 66.1333 193.001 66.5333 192.201 66.5333H187.267C186.467 66.5333 186.067 66.1333 186.067 65.3333V16.2666Z" fill="#0049FF"/>
<path d="M247.934 42C248.734 42 249.134 42.4 249.134 43.2V46.9333C249.134 47.7333 248.734 48.1333 247.934 48.1333H203.801C203.001 48.1333 202.601 47.7333 202.601 46.9333V43.2C202.601 42.4 203.001 42 203.801 42H220.334V35.8666C220.334 35.0666 220.734 34.6666 221.534 34.6666H226.467C227.267 34.6666 227.667 35.0666 227.667 35.8666V42H247.934ZM240.334 16.1333C242.067 16.1333 243.534 16.6666 244.601 17.7333C245.667 18.8 246.201 20.2666 246.201 22V23.2C246.201 24.4 246.201 25.7333 246.067 27.2C245.934 28.6666 245.801 30 245.667 31.4666C245.534 32.9333 245.267 34.1333 245.001 35.4666C244.734 36.8 244.467 37.8666 244.201 38.8C243.934 39.4666 243.401 39.7333 242.734 39.4666L238.067 38.4C237.267 38.2666 237.001 37.7333 237.267 36.9333C237.667 35.6 238.067 34 238.334 32.2666H205.934C205.134 32.2666 204.734 31.8666 204.734 31.0666V27.4666C204.734 26.6666 205.134 26.2666 205.934 26.2666H239.001V24.2666V23.2C239.001 22.4 238.601 22 237.801 22H206.467C205.667 22 205.267 21.6 205.267 20.8V17.3333C205.267 16.5333 205.667 16.1333 206.467 16.1333H240.334ZM210.867 66.4C209.134 66.4 207.667 65.8666 206.601 64.8C205.534 63.7333 205.001 62.2666 205.001 60.5333V52.2666C205.001 51.4666 205.401 51.0666 206.201 51.0666H211.134C211.934 51.0666 212.334 51.4666 212.334 52.2666V59.3333C212.334 60.1333 212.734 60.5333 213.534 60.5333H245.934C246.734 60.5333 247.134 60.9333 247.134 61.7333V65.3333C247.134 66.1333 246.734 66.5333 245.934 66.5333H210.867V66.4Z" fill="#0049FF"/>
</svg>
