<svg width="51" height="50" viewBox="0 0 51 50" fill="none" xmlns="http://www.w3.org/2000/svg">
<mask id="mask0_84_2212" style="mask-type:luminance" maskUnits="userSpaceOnUse" x="8" y="8" width="35" height="34">
<path d="M43 8H8V42H43V8Z" fill="white"/>
</mask>
<g mask="url(#mask0_84_2212)">
<path d="M14.1429 8H36.7613C40.1735 8 43.0008 10.72 43.0008 14.2171V35.88C43.0008 39.28 40.271 42.0971 36.7613 42.0971H14.1429C10.7306 42.0971 7.90332 39.3771 7.90332 35.88V14.2171C8.00081 10.72 10.7306 8 14.1429 8Z" fill="#001E36"/>
<path d="M15.7998 31.7998V16.937C15.7998 16.8398 15.7998 16.7427 15.8973 16.7427C16.1898 16.7427 16.3848 16.7427 16.6772 16.7427C17.0672 16.7427 17.3597 16.7427 17.7497 16.7427C18.1396 16.7427 18.5296 16.7427 19.0171 16.7427C19.5045 16.7427 19.8945 16.7427 20.382 16.7427C21.5519 16.7427 22.5268 16.8398 23.4043 17.2284C24.0867 17.5198 24.7692 17.9084 25.3541 18.3941C25.8416 18.8798 26.2316 19.4627 26.4265 20.0455C26.6215 20.6284 26.719 21.3084 26.719 21.8912C26.719 23.1541 26.4265 24.1255 25.8416 24.9998C25.2566 25.777 24.4767 26.457 23.5018 26.7484C22.5268 27.137 21.4544 27.2341 20.187 27.2341C19.797 27.2341 19.602 27.2341 19.5045 27.2341C19.407 27.2341 19.1146 27.2341 18.9196 27.2341V31.7998C18.9196 31.897 18.8221 31.9941 18.7246 31.9941C18.7246 31.9941 18.7246 31.9941 18.6271 31.9941H15.8973C15.8973 31.9941 15.7998 31.9941 15.7998 31.7998ZM19.0171 19.5598V24.417C19.2121 24.417 19.407 24.417 19.602 24.417H20.382C20.9669 24.417 21.5519 24.3198 22.0394 24.1255C22.5268 24.0284 22.9168 23.737 23.2093 23.3484C23.5018 22.9598 23.6967 22.4741 23.6967 21.8912C23.6967 21.4055 23.5992 21.017 23.4043 20.6284C23.1118 20.2398 22.8193 19.9484 22.4293 19.7541C21.8444 19.5598 21.2594 19.4627 20.6745 19.4627C20.2845 19.4627 19.992 19.4627 19.6995 19.4627C19.3096 19.4627 19.1146 19.5598 19.0171 19.5598Z" fill="#31A8FF"/>
<path d="M35.9804 23.5431C35.5905 23.3488 35.103 23.1545 34.6155 23.0574C34.0306 22.9602 33.5431 22.8631 32.9581 22.8631C32.6657 22.8631 32.3732 22.8631 32.0807 22.9602C31.8857 22.9602 31.6907 23.0574 31.5932 23.2517C31.4958 23.3488 31.4958 23.5431 31.4958 23.6402C31.4958 23.7374 31.5932 23.9317 31.5932 24.0288C31.6907 24.2231 31.8857 24.3202 32.0807 24.4174C32.3732 24.6117 32.7632 24.7088 33.1531 24.9031C33.9331 25.1945 34.713 25.4859 35.3955 25.9717C35.8829 26.2631 36.2729 26.6517 36.5654 27.1374C36.7604 27.6231 36.9554 28.1088 36.8579 28.5945C36.8579 29.2745 36.6629 29.9545 36.2729 30.5374C35.8829 31.1202 35.298 31.6059 34.6155 31.8002C33.9331 32.0917 33.0556 32.2859 31.9832 32.2859C31.3008 32.2859 30.6183 32.1888 30.0334 32.0917C29.5459 31.9945 29.0584 31.8002 28.571 31.6059C28.4735 31.5088 28.376 31.4117 28.376 31.3145V28.8859C28.376 28.8859 28.376 28.7888 28.4735 28.7888H28.571C29.1559 29.0802 29.7409 29.3717 30.4233 29.4688C31.0083 29.5659 31.5932 29.6631 32.1782 29.6631C32.7632 29.6631 33.1531 29.5659 33.3481 29.4688C33.5431 29.3717 33.7381 29.0802 33.7381 28.8859C33.7381 28.6917 33.6406 28.4974 33.3481 28.3031C33.1531 28.1088 32.6657 27.9145 31.8857 27.6231C31.1058 27.3317 30.4233 27.0402 29.8384 26.5545C29.3509 26.2631 28.9609 25.7774 28.7659 25.2917C28.571 24.8059 28.376 24.3202 28.4735 23.8345C28.4735 23.2517 28.6685 22.5717 28.9609 22.0859C29.3509 21.5031 29.8384 21.0174 30.5208 20.7259C31.2033 20.3374 32.0807 20.2402 33.0556 20.2402C33.6406 20.2402 34.2256 20.2402 34.908 20.3374C35.298 20.4345 35.7854 20.5317 36.1754 20.6288C36.2729 20.6288 36.2729 20.7259 36.2729 20.7259C36.2729 20.8231 36.2729 20.8231 36.2729 20.9202V23.2517C36.2729 23.3488 36.2729 23.3488 36.1754 23.3488C36.0779 23.5431 35.9804 23.5431 35.9804 23.5431Z" fill="#31A8FF"/>
</g>
</svg>
