<?xml version="1.0" encoding="utf-8"?>
<!-- Generator: Adobe Illustrator 27.7.0, SVG Export Plug-In . SVG Version: 6.00 Build 0)  -->
<svg version="1.1" id="레이어_1" xmlns="http://www.w3.org/2000/svg" xmlns:xlink="http://www.w3.org/1999/xlink" x="0px"
	 y="0px" viewBox="0 0 24 24" style="enable-background:new 0 0 24 24;" xml:space="preserve">
<style type="text/css">
	.st0{fill:#394E98;}
</style>
<path class="st0" d="M1.9,20.6c-0.4,0-0.7-0.1-0.9-0.4s-0.4-0.5-0.4-0.9s0.1-0.7,0.4-0.9S1.5,18,1.9,18h20.2c0.4,0,0.7,0.1,0.9,0.4
	c0.2,0.2,0.4,0.5,0.4,0.9S23.2,20,23,20.2s-0.5,0.4-0.9,0.4H1.9z M1.9,13.3c-0.4,0-0.7-0.1-0.9-0.4S0.6,12.4,0.6,12s0.1-0.7,0.4-0.9
	c0.2-0.2,0.5-0.4,0.9-0.4h20.2c0.4,0,0.7,0.1,0.9,0.4c0.2,0.2,0.4,0.5,0.4,0.9s-0.1,0.7-0.4,0.9c-0.2,0.2-0.5,0.4-0.9,0.4
	C22.1,13.3,1.9,13.3,1.9,13.3z M1.9,5.9C1.5,5.9,1.2,5.8,1,5.6C0.8,5.3,0.6,5,0.6,4.7S0.8,4,1,3.8s0.5-0.4,0.9-0.4h20.2
	c0.4,0,0.7,0.1,0.9,0.4c0.2,0.2,0.4,0.5,0.4,0.9S23.2,5.3,23,5.6C22.8,5.8,22.5,6,22.1,6L1.9,5.9L1.9,5.9z"/>
</svg>
