<svg width="36" height="36" viewBox="0 0 36 36" fill="none" xmlns="http://www.w3.org/2000/svg">
<path d="M30.8122 28.53L27.0472 21.63V11.55C27.0472 6 22.5322 1.5 16.9972 1.5C11.4622 1.5 6.94724 6.015 6.94724 11.55V21.63L3.18224 28.53C2.92724 28.995 2.94224 29.565 3.21224 30.015C3.48224 30.465 3.97724 30.75 4.50224 30.75H12.0022C12.6472 32.91 14.6422 34.5 17.0122 34.5C19.3822 34.5 21.3622 32.91 22.0222 30.75H29.5222C30.0472 30.75 30.5422 30.465 30.8122 30.015C31.0822 29.565 31.0972 28.995 30.8422 28.53H30.8122ZM16.9972 31.5C16.3372 31.5 15.7372 31.2 15.3322 30.75H18.6622C18.2572 31.2 17.6572 31.5 16.9972 31.5ZM7.02224 27.75L9.75224 22.725C9.87224 22.5 9.93224 22.26 9.93224 22.005V11.55C9.93224 7.665 13.0972 4.5 16.9822 4.5C20.8672 4.5 24.0322 7.665 24.0322 11.55V22.005C24.0322 22.26 24.0922 22.5 24.2122 22.725L26.9422 27.75H7.02224Z" fill="#222222"/>
</svg>
