<svg width="25" height="24" viewBox="0 0 25 24" fill="none" xmlns="http://www.w3.org/2000/svg">
<path d="M16 17.125L20.95 12.175C21.1333 11.9917 21.3667 11.9 21.65 11.9C21.9333 11.9 22.1667 11.9917 22.35 12.175C22.5333 12.3583 22.625 12.5917 22.625 12.875C22.625 13.1583 22.5333 13.3917 22.35 13.575L16.7 19.225C16.5 19.425 16.2667 19.525 16 19.525C15.7333 19.525 15.5 19.425 15.3 19.225L12.45 16.375C12.2667 16.1917 12.175 15.9583 12.175 15.675C12.175 15.3917 12.2667 15.1583 12.45 14.975C12.6333 14.7917 12.8667 14.7 13.15 14.7C13.4333 14.7 13.6667 14.7917 13.85 14.975L16 17.125ZM5.5 21C4.95 21 4.47917 20.8042 4.0875 20.4125C3.69583 20.0208 3.5 19.55 3.5 19V5C3.5 4.45 3.69583 3.97917 4.0875 3.5875C4.47917 3.19583 4.95 3 5.5 3H9.675C9.85833 2.41667 10.2167 1.9375 10.75 1.5625C11.2833 1.1875 11.8667 1 12.5 1C13.1667 1 13.7625 1.1875 14.2875 1.5625C14.8125 1.9375 15.1667 2.41667 15.35 3H19.5C20.05 3 20.5208 3.19583 20.9125 3.5875C21.3042 3.97917 21.5 4.45 21.5 5V9C21.5 9.28333 21.4042 9.52083 21.2125 9.7125C21.0208 9.90417 20.7833 10 20.5 10C20.2167 10 19.9792 9.90417 19.7875 9.7125C19.5958 9.52083 19.5 9.28333 19.5 9V5H17.5V7C17.5 7.28333 17.4042 7.52083 17.2125 7.7125C17.0208 7.90417 16.7833 8 16.5 8H8.5C8.21667 8 7.97917 7.90417 7.7875 7.7125C7.59583 7.52083 7.5 7.28333 7.5 7V5H5.5V19H10.5C10.7833 19 11.0208 19.0958 11.2125 19.2875C11.4042 19.4792 11.5 19.7167 11.5 20C11.5 20.2833 11.4042 20.5208 11.2125 20.7125C11.0208 20.9042 10.7833 21 10.5 21H5.5ZM12.5 5C12.7833 5 13.0208 4.90417 13.2125 4.7125C13.4042 4.52083 13.5 4.28333 13.5 4C13.5 3.71667 13.4042 3.47917 13.2125 3.2875C13.0208 3.09583 12.7833 3 12.5 3C12.2167 3 11.9792 3.09583 11.7875 3.2875C11.5958 3.47917 11.5 3.71667 11.5 4C11.5 4.28333 11.5958 4.52083 11.7875 4.7125C11.9792 4.90417 12.2167 5 12.5 5Z" fill="#5C6EAE"/>
</svg>
