<svg width="16" height="16" viewBox="0 0 16 16" fill="none" xmlns="http://www.w3.org/2000/svg">
<path d="M10.7629 5.2025L4.54104 11.418C4.44871 11.5102 4.33271 11.5553 4.19304 11.5532C4.05327 11.5511 3.93721 11.5038 3.84488 11.4115C3.75265 11.3192 3.70654 11.2042 3.70654 11.0667C3.70654 10.9291 3.75265 10.8142 3.84488 10.7218L10.0604 4.5H4.59621C4.45454 4.5 4.33577 4.45206 4.23988 4.35617C4.1441 4.26028 4.09621 4.1415 4.09621 3.99983C4.09621 3.85806 4.1441 3.73933 4.23988 3.64367C4.33577 3.54789 4.45454 3.5 4.59621 3.5L11.1602 3.5C11.331 3.5 11.4741 3.55772 11.5895 3.67317C11.7051 3.78872 11.7629 3.93183 11.7629 4.1025V10.6667C11.7629 10.8083 11.7149 10.9271 11.619 11.0228C11.5232 11.1187 11.4044 11.1667 11.2627 11.1667C11.1209 11.1667 11.0022 11.1187 10.9064 11.0228C10.8107 10.9271 10.7629 10.8083 10.7629 10.6667V5.2025Z" fill="#868E96"/>
</svg>
