<?xml version="1.0" encoding="utf-8"?>
<!-- Generator: Adobe Illustrator 27.7.0, SVG Export Plug-In . SVG Version: 6.00 Build 0)  -->
<svg version="1.1" id="레이어_1" xmlns="http://www.w3.org/2000/svg" xmlns:xlink="http://www.w3.org/1999/xlink" x="0px"
	 y="0px" viewBox="0 0 100 100" style="enable-background:new 0 0 100 100;" xml:space="preserve">
<style type="text/css">
	.st0{fill:none;stroke:#000000;stroke-width:3;stroke-linejoin:round;stroke-miterlimit:10;}
	.st1{fill:none;stroke:#000000;stroke-width:2;stroke-linecap:round;stroke-linejoin:round;stroke-miterlimit:10;}
</style>
<g id="안내선_00000006708498300743296520000000111067536031591349_">
	<g id="안내선">
	</g>
</g>
<g id="캘린더_00000021826119622186829960000001677282979021554086_">
	<g>
		<circle cx="26.8" cy="43.4" r="2.1"/>
		<circle cx="24.4" cy="53.6" r="2.1"/>
		<circle cx="21.8" cy="63.8" r="2.1"/>
		<circle cx="19.3" cy="74" r="2.1"/>
	</g>
	<g>
		<circle cx="39.8" cy="43.9" r="2.1"/>
		<circle cx="37.4" cy="54.1" r="2.1"/>
		<circle cx="34.8" cy="64.3" r="2.1"/>
		<circle cx="32.2" cy="74.6" r="2.1"/>
	</g>
	<g>
		<circle cx="52.8" cy="44.5" r="2.1"/>
		<circle cx="50.3" cy="54.6" r="2.1"/>
		<circle cx="47.8" cy="64.8" r="2.1"/>
		<circle cx="45.2" cy="75.1" r="2.1"/>
	</g>
	<g>
		<circle cx="65.8" cy="45" r="2.1"/>
		<circle cx="63.3" cy="55.2" r="2.1"/>
		<circle cx="60.8" cy="65.3" r="2.1"/>
		<circle cx="58.2" cy="75.6" r="2.1"/>
	</g>
	<g>
		<polygon class="st0" points="2.8,88.8 73.1,92.8 86.4,15.4 16.3,13.4 		"/>
		<polyline class="st0" points="86.4,15.4 97.2,79.2 74.8,79.2 		"/>
		<line class="st0" x1="13.6" y1="28.6" x2="83.7" y2="30.6"/>
		<path class="st0" d="M26.6,19.5"/>
		<path class="st1" d="M26.6,17.5c-2.2,0-4.1-1.8-4.1-4.1s1.8-4.1,4.1-4.1s4.1,1.8,4.1,4.1"/>
		<path class="st1" d="M39.1,17.8c-2.2,0-4.1-1.8-4.1-4.1s1.8-4.1,4.1-4.1s4.1,1.8,4.1,4.1"/>
		<path class="st1" d="M61.9,18.5c-2.2,0-4.1-1.8-4.1-4.1s1.8-4.1,4.1-4.1c2.2,0,4.1,1.8,4.1,4.1"/>
		<path class="st1" d="M74.4,18.9c-2.2,0-4.1-1.8-4.1-4.1s1.8-4.1,4.1-4.1c2.2,0,4.1,1.8,4.1,4.1"/>
	</g>
</g>
</svg>
