<?xml version="1.0" encoding="utf-8"?>
<!-- Generator: Adobe Illustrator 27.7.0, SVG Export Plug-In . SVG Version: 6.00 Build 0)  -->
<svg version="1.1" id="레이어_1" xmlns="http://www.w3.org/2000/svg" xmlns:xlink="http://www.w3.org/1999/xlink" x="0px"
	 y="0px" viewBox="0 0 24 24" style="enable-background:new 0 0 24 24;" xml:space="preserve">
<style type="text/css">
	.st0{fill:#E2A320;}
</style>
<path class="st0" d="M12,17.3l-4.2,2.5c-0.2,0.1-0.4,0.2-0.6,0.1c-0.2,0-0.4-0.1-0.5-0.2s-0.3-0.3-0.3-0.4c-0.1-0.2-0.1-0.4-0.1-0.6
	L7.5,14l-3.7-3.2c-0.2-0.2-0.3-0.3-0.3-0.5c0-0.2,0-0.4,0-0.6c0.1-0.2,0.2-0.3,0.3-0.4c0.1-0.1,0.3-0.2,0.5-0.2l4.8-0.4l1.9-4.5
	c0.1-0.2,0.2-0.3,0.4-0.5c0.2-0.1,0.4-0.1,0.5-0.1s0.4,0,0.5,0.1c0.2,0.1,0.3,0.2,0.4,0.5l1.9,4.5l4.8,0.4c0.2,0,0.4,0.1,0.6,0.2
	c0.1,0.1,0.2,0.3,0.3,0.4c0.1,0.2,0.1,0.4,0,0.6c0,0.2-0.1,0.4-0.3,0.5L16.6,14l1.1,4.7c0.1,0.2,0,0.4,0,0.6
	c-0.1,0.2-0.2,0.3-0.4,0.4s-0.3,0.2-0.5,0.2c-0.2,0-0.4,0-0.6-0.1L12,17.3z"/>
</svg>
