<?xml version="1.0" encoding="UTF-8"?>
<svg xmlns="http://www.w3.org/2000/svg" version="1.1" viewBox="0 0 2500 2500">
  <defs>
    <style>
      .cls-1 {
        fill: #351a1b;
      }

      .cls-2 {
        fill: #ffe812;
      }
    </style>
  </defs>
  <!-- Generator: Adobe Illustrator 28.7.1, SVG Export Plug-In . SVG Version: 1.2.0 Build 142)  -->
  <g>
    <g id="Layer_1">
      <path class="cls-1" d="M1250,351.6c-560.9,0-1015.6,358.5-1015.6,800.8s190.1,536.8,476.1,678.5c-15.6,53.7-100,345.2-103.3,368.1,0,0-2,17.2,9.1,23.8s24.2,1.5,24.2,1.5c32-4.5,370.5-242.3,429.1-283.6,58.5,8.3,118.8,12.6,180.4,12.6,560.9,0,1015.6-358.5,1015.6-800.8s-454.7-800.8-1015.6-800.8h0Z"/>
      <path class="cls-2" d="M688.5,1431.9c-32.3,0-58.6-25.1-58.6-56v-348.1h-91.4c-31.7,0-57.5-25.7-57.5-57.4s25.8-57.4,57.5-57.4h300c31.7,0,57.5,25.7,57.5,57.4s-25.8,57.4-57.5,57.4h-91.4v348.1c0,30.9-26.3,56-58.6,56ZM1202.3,1431.1c-24.4,0-43.1-9.9-48.8-25.9l-29-76h-178.7s-29,76-29,76c-5.6,15.9-24.3,25.8-48.7,25.8-12.9,0-25.6-2.7-37.2-8.1-16.2-7.5-31.7-27.9-13.9-83.2l140.2-368.9c9.9-28.1,39.9-57,78-57.8,38.3.9,68.3,29.8,78.2,57.9l140.1,368.7c17.8,55.4,2.3,75.9-13.8,83.3-11.7,5.3-24.4,8.1-37.2,8.1,0,0,0,0,0,0h0ZM1093.7,1225.5l-58.5-166.3-58.5,166.3h117.1,0ZM1347.7,1423.3c-31,0-56.2-24.1-56.2-53.7v-397.9c0-32.3,26.8-58.6,59.8-58.6s59.8,26.3,59.8,58.6v344.2h124.5c31,0,56.2,24.1,56.2,53.7s-25.2,53.7-56.2,53.7h-188ZM1673.2,1431.1c-32.3,0-58.6-26.3-58.6-58.6v-400.8c0-32.3,26.3-58.6,58.6-58.6s58.6,26.3,58.6,58.6v125.9l163.5-163.5c8.4-8.4,20-13,32.5-13s29.3,6.3,40.3,17.3c10.3,10.3,16.4,23.4,17.2,37.1.8,13.8-3.8,26.5-12.9,35.7l-133.5,133.5,144.2,191.1c9.4,12.4,13.5,28,11.2,43.4-2.1,15.4-10.3,29.3-22.7,38.6-10.1,7.7-22.5,11.9-35.2,11.8-18.4,0-35.8-8.6-46.8-23.3l-137.4-182.1-20.3,20.3v127.8c0,32.4-26.3,58.6-58.6,58.6h0Z"/>
    </g>
  </g>
</svg>