<svg width="20" height="17" viewBox="0 0 20 17" fill="none" xmlns="http://www.w3.org/2000/svg">
<path d="M19.86 1.91981C19.12 2.24981 18.33 2.46981 17.52 2.55981C18.37 2.04981 19.01 1.24981 19.31 0.29981C18.51 0.77981 17.64 1.10981 16.72 1.28981C15.18 -0.35019 12.61 -0.44019 10.96 1.09981C10.13 1.86981 9.67 2.94981 9.67 4.07981C9.67 4.38981 9.7 4.70981 9.78 5.00981C6.5 4.84981 3.45 3.29981 1.38 0.749811C0.3 2.60981 0.85 4.99981 2.64 6.18981C1.99 6.16981 1.36 5.99981 0.79 5.67981V5.72981C0.79 7.66981 2.16 9.33981 4.06 9.72981C3.71 9.81981 3.35 9.86981 2.99 9.86981C2.73 9.86981 2.48 9.84981 2.22 9.78981C2.75 11.4498 4.28 12.5898 6.03 12.6198C4.59 13.7498 2.8 14.3698 0.97 14.3698C0.64 14.3698 0.32 14.3498 0 14.3098C1.86 15.5198 4.02 16.1598 6.24 16.1498C13.74 16.1498 17.84 9.93981 17.84 4.54981C17.84 4.36981 17.84 4.19981 17.83 4.01981C18.63 3.43981 19.31 2.72981 19.86 1.90981V1.91981Z" fill="#555555"/>
</svg>
