<?xml version="1.0" encoding="utf-8"?>
<!-- Generator: Adobe Illustrator 27.7.0, SVG Export Plug-In . SVG Version: 6.00 Build 0)  -->
<svg version="1.1" id="레이어_1" xmlns="http://www.w3.org/2000/svg" xmlns:xlink="http://www.w3.org/1999/xlink" x="0px"
	 y="0px" viewBox="0 0 24 24" style="enable-background:new 0 0 24 24;" xml:space="preserve">
<style type="text/css">
	.st0{fill:#394E98;stroke:#394E98;stroke-width:0.3;stroke-miterlimit:10;}
</style>
<path class="st0" d="M11.9,11.5c-1.4,0-2.6-0.5-3.5-1.4C7.4,9.1,7,7.9,7,6.8s0.5-2.6,1.4-3.6s2.2-1.4,3.4-1.4s2.6,0.5,3.4,1.4
	c1,1,1.4,2.2,1.4,3.4s-0.5,2.6-1.4,3.4C14.4,11.1,13.2,11.5,11.9,11.5z M1.3,20v-1c0-0.6,0.2-1.4,0.5-1.9c0.4-0.5,0.9-1,1.5-1.4
	c1.4-0.6,2.8-1.3,4.2-1.5c1.4-0.3,2.9-0.5,4.3-0.5s2.9,0.2,4.3,0.5c1.4,0.4,2.8,0.9,4.2,1.5c0.6,0.4,1.1,0.8,1.5,1.4
	c0.4,0.5,0.5,1.3,0.5,1.9v1c0,0.5-0.2,1.1-0.6,1.5s-0.9,0.6-1.5,0.6H3.3c-0.5,0-1.1-0.2-1.5-0.6C1.5,21.2,1.3,20.8,1.3,20z
	 M3.5,20.1h16.8v-1c0-0.4-0.1-0.5-0.2-0.8s-0.5-0.5-0.6-0.5c-1.3-0.5-2.4-1-3.7-1.4C14.5,16.1,13.2,16,12,16c-1.4,0-2.6,0.1-3.8,0.5
	c-1.3,0.4-2.6,0.8-3.7,1.4C4.1,18,4,18.3,3.9,18.4c-0.1,0.2-0.2,0.5-0.2,0.8C3.5,19.1,3.5,20.1,3.5,20.1z M11.9,9.4
	c0.8,0,1.4-0.2,2-0.8c0.5-0.5,0.8-1.2,0.8-2s-0.2-1.4-0.8-1.9c-0.5-0.5-1.3-0.8-2-0.8s-1.4,0.2-2,0.8C9.3,5.3,9.1,5.9,9.1,6.8
	s0.2,1.4,0.7,1.9C10.4,9.2,11.1,9.4,11.9,9.4z"/>
</svg>
