<?xml version="1.0" encoding="utf-8"?>
<!-- Generator: Adobe Illustrator 27.7.0, SVG Export Plug-In . SVG Version: 6.00 Build 0)  -->
<svg version="1.1" id="레이어_1" xmlns="http://www.w3.org/2000/svg" xmlns:xlink="http://www.w3.org/1999/xlink" x="0px"
	 y="0px" viewBox="0 0 24 24" style="enable-background:new 0 0 24 24;" xml:space="preserve">
<style type="text/css">
	.st0{fill:#767676;}
</style>
<path class="st0" d="M7.2,12.8h9.5v-1.5H7.2V12.8z M5.3,20.5c-0.5,0-0.9-0.2-1.3-0.5s-0.5-0.8-0.5-1.3V5.3C3.5,4.8,3.7,4.4,4,4
	s0.8-0.5,1.3-0.5h13.4c0.5,0,0.9,0.2,1.3,0.5s0.5,0.8,0.5,1.3v13.4c0,0.5-0.2,0.9-0.5,1.3s-0.8,0.5-1.3,0.5H5.3z M5.3,19h13.4
	c0.1,0,0.1,0,0.2-0.1c0.1-0.1,0.1-0.1,0.1-0.2V5.3c0-0.1,0-0.1-0.1-0.2C18.8,5,18.8,5,18.7,5H5.3C5.2,5,5.2,5,5.1,5.1
	C5,5.2,5,5.2,5,5.3v13.4c0,0.1,0,0.1,0.1,0.2C5.2,19,5.2,19,5.3,19z M5,5v14V5z"/>
</svg>
