<?xml version="1.0" encoding="utf-8"?>
<!-- Generator: Adobe Illustrator 27.7.0, SVG Export Plug-In . SVG Version: 6.00 Build 0)  -->
<svg version="1.1" id="레이어_1" xmlns="http://www.w3.org/2000/svg" xmlns:xlink="http://www.w3.org/1999/xlink" x="0px"
	 y="0px" viewBox="0 0 100 100" style="enable-background:new 0 0 100 100;" xml:space="preserve">
<g id="안내선_00000006708498300743296520000000111067536031591349_">
	<g id="안내선">
	</g>
</g>
<g id="봉투_00000108988964617799543510000001724812120319450254_">
	<g>
		<path d="M94,79.2H5.9c-0.8,0-1.5-0.7-1.5-1.5V22.2c0-0.8,0.7-1.5,1.5-1.5H94c0.8,0,1.5,0.7,1.5,1.5v55.5
			C95.5,78.5,94.8,79.2,94,79.2z M7.4,76.2h85.1V23.7H7.4V76.2z"/>
	</g>
	<g>
		<path d="M50.1,57.4c-0.3,0-0.6-0.1-0.9-0.3L5,23.4c-0.7-0.5-0.8-1.4-0.3-2.1c0.5-0.7,1.4-0.8,2.1-0.3l43.3,33l43.1-33
			c0.7-0.5,1.6-0.4,2.1,0.3c0.5,0.7,0.4,1.6-0.3,2.1L51,57.1C50.7,57.3,50.4,57.4,50.1,57.4z"/>
	</g>
	<g>
		<path d="M6.2,79c-0.4,0-0.8-0.2-1.1-0.5c-0.6-0.6-0.5-1.6,0.1-2.1L37.5,46c0.6-0.6,1.6-0.5,2.1,0.1c0.6,0.6,0.5,1.6-0.1,2.1
			L7.2,78.6C6.9,78.9,6.6,79,6.2,79z"/>
	</g>
	<g>
		<path d="M93.8,78.9c-0.4,0-0.7-0.1-1-0.4L60.7,48.2c-0.6-0.6-0.6-1.5-0.1-2.1s1.5-0.6,2.1-0.1l32.1,30.3c0.6,0.6,0.6,1.5,0.1,2.1
			C94.6,78.7,94.2,78.9,93.8,78.9z"/>
	</g>
</g>
</svg>
