<?xml version="1.0" encoding="utf-8"?>
<!-- Generator: Adobe Illustrator 27.7.0, SVG Export Plug-In . SVG Version: 6.00 Build 0)  -->
<svg version="1.1" id="레이어_1" xmlns="http://www.w3.org/2000/svg" xmlns:xlink="http://www.w3.org/1999/xlink" x="0px"
	 y="0px" viewBox="0 0 24 24" style="enable-background:new 0 0 24 24;" xml:space="preserve">
<style type="text/css">
	.st0{fill:#394E98;}
</style>
<path class="st0" d="M11,10H9c-0.3,0-0.5-0.1-0.7-0.3C8,9.5,7.9,9.2,7.9,8.9S8,8.4,8.2,8.2s0.5-0.3,0.7-0.3H15
	c0.3,0,0.5,0.1,0.7,0.3S16,8.6,16,8.9s-0.1,0.5-0.3,0.7S15.3,9.9,15,9.9h-2V15c0,0.3-0.1,0.5-0.3,0.7S12.3,16,12,16
	s-0.5-0.1-0.7-0.3S11,15.3,11,15V10z M0.8,22.2v-4.1c0-0.3,0.1-0.5,0.3-0.7s0.4-0.3,0.7-0.3h1V6.9h-1c-0.3,0-0.5-0.1-0.7-0.3
	S0.8,6.2,0.8,5.9V1.8c0-0.3,0.1-0.5,0.3-0.7s0.4-0.3,0.7-0.3h4.1c0.3,0,0.5,0.1,0.7,0.3s0.3,0.4,0.3,0.7v1h10.2v-1
	c0-0.3,0.1-0.5,0.3-0.7c0.2-0.2,0.4-0.3,0.7-0.3h4.1c0.3,0,0.5,0.1,0.7,0.3s0.3,0.4,0.3,0.7v4.1c0,0.3-0.1,0.5-0.3,0.7
	s-0.4,0.3-0.7,0.3h-1v10.2h1c0.3,0,0.5,0.1,0.7,0.3s0.3,0.4,0.3,0.7v4.1c0,0.3-0.1,0.5-0.3,0.7s-0.4,0.3-0.7,0.3h-4.1
	c-0.3,0-0.5-0.1-0.7-0.3c-0.2-0.2-0.3-0.4-0.3-0.7v-1H6.9v1c0,0.3-0.1,0.5-0.3,0.7c-0.2,0.2-0.4,0.3-0.7,0.3H1.8
	c-0.3,0-0.5-0.1-0.7-0.3S0.8,22.5,0.8,22.2z M6.9,19.1h10.2v-1c0-0.3,0.1-0.5,0.3-0.7c0.2-0.2,0.4-0.3,0.7-0.3h1V6.9h-1
	c-0.3,0-0.5-0.1-0.7-0.3c-0.2-0.2-0.3-0.4-0.3-0.7v-1H6.9v1c0,0.3-0.1,0.5-0.3,0.7C6.4,6.8,6.2,6.9,5.9,6.9h-1v10.2h1
	c0.3,0,0.5,0.1,0.7,0.3c0.2,0.2,0.3,0.4,0.3,0.7V19.1z M2.8,4.9h2v-2h-2C2.8,2.9,2.8,4.9,2.8,4.9z M19.1,4.9h2v-2h-2V4.9z
	 M19.1,21.2h2v-2h-2V21.2z M2.8,21.2h2v-2h-2C2.8,19.2,2.8,21.2,2.8,21.2z"/>
</svg>
