<svg width="20" height="19" viewBox="0 0 20 19" fill="none" xmlns="http://www.w3.org/2000/svg">
<g clip-path="url(#clip0_80_1655)">
<path d="M9.99076 0C4.46396 0 0 3.56747 0 7.90203C0 10.7116 1.85767 13.1793 4.63956 14.5841L3.69686 18.1054C3.67837 18.1608 3.67837 18.2163 3.69686 18.2717C3.7061 18.3272 3.73383 18.3734 3.78004 18.4196C3.83549 18.4658 3.90943 18.4935 3.98336 18.4935C4.04806 18.4935 4.10351 18.4658 4.15897 18.4196L8.21627 15.6839C8.81701 15.7671 9.41775 15.8133 10.0185 15.8133C15.5453 15.8133 20.0092 12.2458 20.0092 7.90203C20.0092 3.55823 15.5176 0 9.99076 0Z" fill="#555555"/>
</g>
<defs>
<clipPath id="clip0_80_1655">
<rect width="20" height="18.4843" fill="white"/>
</clipPath>
</defs>
</svg>
