<?xml version="1.0" encoding="utf-8"?>
<!-- Generator: Adobe Illustrator 27.7.0, SVG Export Plug-In . SVG Version: 6.00 Build 0)  -->
<svg version="1.1" id="레이어_1" xmlns="http://www.w3.org/2000/svg" xmlns:xlink="http://www.w3.org/1999/xlink" x="0px"
	 y="0px" viewBox="0 0 28 29" style="enable-background:new 0 0 28 29;" xml:space="preserve">
<style type="text/css">
	.st0{display:none;fill:#183882;}
	.st1{fill:#FFFFFF;stroke:#FFFFFF;stroke-width:0.6;stroke-miterlimit:10;}
</style>
<path class="st0" d="M25.2,0.5H2.8C1.3,0.5,0,1.8,0,3.3v22.4c0,1.6,1.3,2.8,2.8,2.8h22.4c1.6,0,2.8-1.3,2.8-2.8V3.3
	C28,1.8,26.7,0.5,25.2,0.5z"/>
<path class="st1" d="M7.7,13.5l4,4l8.9-8.9c0.2-0.2,0.6-0.4,0.9-0.4c0.4,0,0.7,0.1,0.9,0.4c0.2,0.2,0.4,0.6,0.4,0.9
	c0,0.4-0.1,0.7-0.4,0.9l-9.6,9.6c-0.3,0.3-0.7,0.5-1.1,0.5c-0.4,0-0.8-0.2-1.1-0.5l-4.7-4.7c-0.2-0.2-0.4-0.6-0.4-0.9
	c0-0.4,0.1-0.7,0.4-0.9c0.2-0.2,0.6-0.4,0.9-0.4C7.2,13.2,7.5,13.3,7.7,13.5z"/>
</svg>
