<?xml version="1.0" encoding="utf-8"?>
<!-- Generator: Adobe Illustrator 28.0.0, SVG Export Plug-In . SVG Version: 6.00 Build 0)  -->
<svg version="1.1" id="Layer_1" xmlns="http://www.w3.org/2000/svg" xmlns:xlink="http://www.w3.org/1999/xlink" x="0px" y="0px"
	 viewBox="0 0 40 40" style="enable-background:new 0 0 40 40;" xml:space="preserve">
<style type="text/css">
	.st0{opacity:0.4;}
	.st1{fill:#FFFFFF;}
</style>
<g class="st0">
	<g>
		<g>
			<g>
				<g>
					<g>
						<g>
							<path class="st1" d="M18.1,27.2c-0.4,0-0.8-0.2-1.2-0.5l-6.5-6.4c-0.6-0.6-0.6-1.7,0-2.3c0.6-0.6,1.7-0.6,2.3,0l5.3,5.3
								L28.5,13c0.6-0.6,1.7-0.6,2.3,0c0.6,0.6,0.6,1.7,0,2.3L19.3,26.7C18.9,27.1,18.5,27.2,18.1,27.2L18.1,27.2z"/>
						</g>
					</g>
				</g>
			</g>
		</g>
	</g>
</g>
<g class="st0">
	<path class="st1" d="M20,2c9.9,0,18,8.1,18,18s-8.1,18-18,18S2,29.9,2,20S10.1,2,20,2 M20,0C9,0,0,9,0,20s9,20,20,20s20-9,20-20
		S31,0,20,0L20,0z"/>
</g>
</svg>
