<svg width="23" height="16" viewBox="0 0 23 16" fill="none" xmlns="http://www.w3.org/2000/svg">
<path d="M22.0947 8.20178L21.8993 8.07767C21.2365 7.4175 20.3149 7.12966 19.0817 7.2036C18.0545 7.26698 17.2411 7.67364 16.6179 8.05126C16.6179 8.0407 16.6179 8.03278 16.6179 8.02222C16.6179 7.70005 16.6549 7.35148 16.6892 7.01347C16.7236 6.67018 16.7632 6.31896 16.7632 5.98888C16.7632 5.65879 16.7262 5.3287 16.6074 5.05407C16.5783 4.98277 16.5123 4.94316 16.4304 4.94316C16.0977 4.95108 15.4507 5.17818 15.2923 5.3155L15.2078 5.50299C15.2025 5.87005 15.1206 6.89728 15.0388 7.02139C15.0414 7.01611 14.9965 7.1455 14.9965 7.1455C14.8566 8.61109 14.8539 9.89711 14.9833 11.0036C14.9992 11.1145 15.2104 11.2808 15.3768 11.3416C15.5564 11.4076 16.1215 11.2571 16.4463 11.1356C16.441 11.1356 16.5677 11.1171 16.5677 11.1171C16.6707 11.1066 16.7315 11.0194 16.7262 10.9032L16.7341 10.5863C16.9691 9.63304 17.9198 8.49226 19.0421 8.32061C19.6785 8.22027 20.1802 8.38399 20.5763 8.81443C20.6291 8.89101 20.7453 9.58023 20.3281 10.3672C20.0165 10.9508 19.3933 11.4446 18.572 11.7509C17.7957 12.0466 16.9401 12.1655 15.8864 12.1285C15.8416 12.0995 14.8988 11.4604 14.8988 11.4604C14.0617 10.8715 13.0213 10.1401 12.0786 9.78356C11.9122 9.72019 11.6164 9.47196 11.4369 9.32672L11.3392 9.2475C10.7952 8.81178 9.76003 8.12256 8.93085 7.56802C8.93085 7.56802 8.55587 7.31715 8.48457 7.26697C8.48457 7.23529 8.48457 7.17191 8.48457 7.17191C8.50834 7.1455 9.03119 6.8339 9.03119 6.8339C9.76267 6.40611 10.1007 6.19749 10.172 6.08922C10.1561 6.10771 10.2697 6.03113 10.2697 6.03113C10.2776 6.02849 12.0812 5.00654 12.0812 5.00654C13.8214 4.0506 15.7914 2.96528 16.8265 1.89579L16.8767 1.73207L16.9005 1.58683C16.9691 1.35709 16.9718 1.1828 16.9163 0.979469C16.9005 0.921374 16.8477 0.852716 16.7764 0.842153C15.9683 0.760291 14.9252 1.24618 13.9772 2.1361C13.7633 2.33679 13.5838 2.4345 13.3936 2.53748L13.2484 2.61934C12.2027 3.2135 9.84717 4.67645 8.61132 5.46602C8.69318 4.14039 8.93877 2.25229 9.23981 0.68107L9.20548 0.493581L9.07873 0.255918L8.98366 0.0869129L8.95725 0.0789908C8.71167 -0.0451221 8.51098 0.00505121 8.3631 0.042021L8.11751 0.131805L7.78742 0.250636C7.72141 0.26384 7.67651 0.30345 7.65275 0.366827C7.06387 1.79016 6.5727 4.13246 6.45651 6.00472C5.27876 5.2574 4.19079 4.7187 3.65737 4.45727L3.64153 4.44935L3.57815 4.43615C3.38538 4.41238 3.153 4.26978 2.92854 4.13246C2.90477 4.11926 2.47962 3.84199 2.47962 3.84199L1.79568 3.40363L1.61611 3.36138C1.32299 3.41155 0.757881 3.79181 0.591517 4.0506C0.570391 4.08493 0.559828 4.1219 0.559828 4.15887C0.559828 4.21433 0.575673 4.26714 0.591517 4.3226L0.620564 4.46255L0.652253 4.54705C0.9797 4.88242 1.80888 5.44225 2.61957 5.87797L3.55966 6.37706L4.99884 7.16399L5.24443 7.3594L5.41343 7.45711C5.41343 7.45711 5.43192 7.46767 5.44512 7.47559C5.06222 7.73174 2.82555 9.22373 2.82555 9.22373L1.44974 10.1374C1.32035 10.2272 0.776366 10.4701 0.654894 10.5177C0.356494 10.6391 0.129394 10.8266 0.0369698 11.0273L0 11.1066L0.0369698 11.1594L0.142598 11.2386L0.282555 11.331L0.435715 11.434L0.578313 11.4578C0.821258 11.4657 1.17775 11.3284 1.84849 11.0353C2.46377 10.7633 4.13534 9.75451 4.85097 9.32408L5.15465 9.14187C5.2814 9.15244 5.41872 9.04681 5.54283 8.95174C5.68543 8.83819 5.99703 8.64542 6.18716 8.56092C6.19244 8.56092 6.30071 8.49754 6.4037 8.44209C6.4037 8.47378 6.4037 8.52395 6.4037 8.52395C6.43539 10.7104 6.5595 12.3001 6.7998 13.5254V13.5466L6.82621 13.5967C6.9424 13.7684 7.07708 14.2886 7.19591 14.7454L7.4679 15.6591L7.54448 15.7436C7.70028 15.8492 8.17297 16.0315 8.48985 15.9945L8.56907 15.9839L8.61924 15.873C8.64565 15.7357 8.65621 15.601 8.65621 15.4531C8.65621 15.2868 8.64301 15.1019 8.62981 14.8775L8.60868 14.5474C8.50833 13.0211 8.40799 10.8161 8.40799 9.35049V9.2343C8.66942 9.39538 9.80228 10.111 9.80228 10.111C11.7326 11.3627 14.6506 13.2561 16.4119 13.7552C16.5044 13.7816 16.5994 13.7605 16.6681 13.6971C16.6681 13.6944 16.9401 13.5228 16.9401 13.5228L16.9903 13.5017C17.0906 13.4541 17.1593 13.2825 17.1698 13.0976C18.6565 13.0237 20.7269 12.4507 21.8359 11.0564C22.2637 10.515 22.4592 9.85486 22.4592 9.28975C22.4592 8.82499 22.3298 8.4236 22.0974 8.20442" fill="#F8B500"/>
</svg>
