<?xml version="1.0" encoding="utf-8"?>
<!-- Generator: Adobe Illustrator 28.0.0, SVG Export Plug-In . SVG Version: 6.00 Build 0)  -->
<svg version="1.1" id="Layer_1" xmlns="http://www.w3.org/2000/svg" xmlns:xlink="http://www.w3.org/1999/xlink" x="0px" y="0px"
	 viewBox="0 0 40 40" style="enable-background:new 0 0 40 40;" xml:space="preserve">
<style type="text/css">
	.st0{fill:#FFFFFF;}
</style>
<path class="st0" d="M20,0C9,0,0,9,0,20c0,11,9,20,20,20c11,0,20-9,20-20C40,9,31,0,20,0z M31.2,14.4c-0.1,0.3-0.2,0.6-0.4,0.9
	L19.3,26.7c-0.4,0.4-0.8,0.5-1.2,0.5c-0.4,0-0.8-0.2-1.2-0.5l-6.5-6.4c-0.2-0.2-0.3-0.5-0.4-0.9v-0.6c0.1-0.3,0.2-0.6,0.4-0.9
	c0.6-0.6,1.7-0.6,2.3,0l5.3,5.3L28.5,13c0.6-0.6,1.7-0.6,2.3,0c0.2,0.2,0.3,0.5,0.4,0.9V14.4z"/>
</svg>
