<svg width="35" height="32" viewBox="0 0 35 32" fill="none" xmlns="http://www.w3.org/2000/svg">
<g clip-path="url(#clip0_87_2168)">
<path d="M10.3308 13V4.27273H12.176V11.4787H15.9174V13H10.3308ZM24.8194 8.63636C24.8194 9.58807 24.639 10.3977 24.2782 11.0653C23.9203 11.733 23.4316 12.2429 22.8123 12.5952C22.1958 12.9446 21.5027 13.1193 20.7328 13.1193C19.9572 13.1193 19.2612 12.9432 18.6447 12.5909C18.0282 12.2386 17.541 11.7287 17.1831 11.0611C16.8251 10.3935 16.6461 9.58523 16.6461 8.63636C16.6461 7.68466 16.8251 6.875 17.1831 6.20739C17.541 5.53977 18.0282 5.03125 18.6447 4.68182C19.2612 4.32955 19.9572 4.15341 20.7328 4.15341C21.5027 4.15341 22.1958 4.32955 22.8123 4.68182C23.4316 5.03125 23.9203 5.53977 24.2782 6.20739C24.639 6.875 24.8194 7.68466 24.8194 8.63636ZM22.9487 8.63636C22.9487 8.01989 22.8564 7.5 22.6717 7.0767C22.4899 6.65341 22.2328 6.33239 21.9004 6.11364C21.568 5.89489 21.1788 5.78551 20.7328 5.78551C20.2868 5.78551 19.8975 5.89489 19.5652 6.11364C19.2328 6.33239 18.9743 6.65341 18.7896 7.0767C18.6078 7.5 18.5169 8.01989 18.5169 8.63636C18.5169 9.25284 18.6078 9.77273 18.7896 10.196C18.9743 10.6193 19.2328 10.9403 19.5652 11.1591C19.8975 11.3778 20.2868 11.4872 20.7328 11.4872C21.1788 11.4872 21.568 11.3778 21.9004 11.1591C22.2328 10.9403 22.4899 10.6193 22.6717 10.196C22.8564 9.77273 22.9487 9.25284 22.9487 8.63636ZM14.7876 22.0938C14.728 21.8864 14.6442 21.7031 14.5362 21.544C14.4283 21.3821 14.2962 21.2457 14.1399 21.1349C13.9865 21.0213 13.8104 20.9347 13.6115 20.875C13.4155 20.8153 13.1982 20.7855 12.9595 20.7855C12.5135 20.7855 12.1214 20.8963 11.7834 21.1179C11.4482 21.3395 11.1868 21.6619 10.9993 22.0852C10.8118 22.5057 10.718 23.0199 10.718 23.6278C10.718 24.2358 10.8104 24.7528 10.995 25.179C11.1797 25.6051 11.4411 25.9304 11.7791 26.1548C12.1172 26.3764 12.5163 26.4872 12.9766 26.4872C13.3942 26.4872 13.7507 26.4134 14.0462 26.2656C14.3445 26.1151 14.5717 25.9034 14.728 25.6307C14.8871 25.358 14.9666 25.0355 14.9666 24.6634L15.3416 24.7188H13.0916V23.3295H16.7436V24.429C16.7436 25.196 16.5817 25.8551 16.2578 26.4062C15.9339 26.9545 15.4879 27.3778 14.9197 27.6761C14.3516 27.9716 13.701 28.1193 12.968 28.1193C12.1499 28.1193 11.4311 27.9389 10.8118 27.5781C10.1925 27.2145 9.70952 26.6989 9.36293 26.0312C9.01918 25.3608 8.8473 24.5653 8.8473 23.6449C8.8473 22.9375 8.94957 22.3068 9.15412 21.7528C9.36151 21.196 9.65128 20.7244 10.0234 20.3381C10.3956 19.9517 10.8288 19.6577 11.3232 19.456C11.8175 19.2543 12.353 19.1534 12.9297 19.1534C13.424 19.1534 13.8842 19.2259 14.3104 19.3707C14.7365 19.5128 15.1143 19.7145 15.4439 19.9759C15.7763 20.2372 16.0476 20.5483 16.2578 20.9091C16.468 21.267 16.603 21.6619 16.6626 22.0938H14.7876ZM26.1495 23.6364C26.1495 24.5881 25.9691 25.3977 25.6083 26.0653C25.2504 26.733 24.7617 27.2429 24.1424 27.5952C23.5259 27.9446 22.8327 28.1193 22.0629 28.1193C21.2873 28.1193 20.5913 27.9432 19.9748 27.5909C19.3583 27.2386 18.8711 26.7287 18.5131 26.0611C18.1552 25.3935 17.9762 24.5852 17.9762 23.6364C17.9762 22.6847 18.1552 21.875 18.5131 21.2074C18.8711 20.5398 19.3583 20.0312 19.9748 19.6818C20.5913 19.3295 21.2873 19.1534 22.0629 19.1534C22.8327 19.1534 23.5259 19.3295 24.1424 19.6818C24.7617 20.0312 25.2504 20.5398 25.6083 21.2074C25.9691 21.875 26.1495 22.6847 26.1495 23.6364ZM24.2788 23.6364C24.2788 23.0199 24.1864 22.5 24.0018 22.0767C23.82 21.6534 23.5629 21.3324 23.2305 21.1136C22.8981 20.8949 22.5089 20.7855 22.0629 20.7855C21.6168 20.7855 21.2276 20.8949 20.8952 21.1136C20.5629 21.3324 20.3043 21.6534 20.1197 22.0767C19.9379 22.5 19.8469 23.0199 19.8469 23.6364C19.8469 24.2528 19.9379 24.7727 20.1197 25.196C20.3043 25.6193 20.5629 25.9403 20.8952 26.1591C21.2276 26.3778 21.6168 26.4872 22.0629 26.4872C22.5089 26.4872 22.8981 26.3778 23.2305 26.1591C23.5629 25.9403 23.82 25.6193 24.0018 25.196C24.1864 24.7727 24.2788 24.2528 24.2788 23.6364Z" fill="#747474"/>
</g>
<defs>
<clipPath id="clip0_87_2168">
<rect width="34.5" height="31.7" fill="white"/>
</clipPath>
</defs>
</svg>
