<?xml version="1.0" encoding="UTF-8"?>
<svg id="_레이어_1" data-name="레이어 1" xmlns="http://www.w3.org/2000/svg" version="1.1" viewBox="0 0 1920 1080">
  <defs>
    <style>
      .cls-1 {
        fill: #ff6200;
        stroke-width: 0px;
      }
    </style>
  </defs>
  <path class="cls-1" d="M0,0v1080h1920V0H0ZM1110.3,726.8c-14.7,23-34.8,40.8-60.3,53.6-25.2,12.7-53.6,19.1-85,19.1s-47.1-4.1-65.6-12.4c-18.5-8.3-34.4-19.3-47.5-33.1l-62.9,42.2h-1.3v-157.4h1.7c6.5,19.9,14.4,39.3,23.8,58.3,9.6,19,21.2,36,34.8,51.2,13.8,15.2,30.1,27.2,48.9,36.2s40.6,13.4,65.6,13.4,39.8-4.4,55.2-13.1c15.4-8.9,27.2-21,35.5-36.2,8.3-15.4,12.4-33,12.4-52.9s-4.9-33.3-14.7-45.5c-9.8-12.3-22.8-22.9-38.8-31.8-16.1-8.9-33.8-17.4-53.2-25.4-19.2-8-38.5-16.7-57.9-26.1-19.2-9.4-36.8-20.5-52.9-33.5-16.1-13.2-29-29.4-38.8-48.5-9.8-19.2-14.7-42.6-14.7-70.3s7-51.8,21.1-71.7c14.1-20.1,32.4-35.5,54.9-46.2,22.5-10.7,46.8-16.1,72.7-16.1s38.8,3.2,55.6,9.7c17,6.5,32.6,16.2,45.5,29.1l60.3-38.8h1.3v150.7h-1.7c-8.9-31-20.6-57.6-35.2-79.7-14.5-22.3-32-39.4-52.6-51.2-20.3-11.8-43.6-17.7-70-17.7s-47.4,7.8-61.3,23.4c-13.6,15.6-20.4,35-20.4,58.3s4.8,29.8,14.4,41.2c9.8,11.4,22.7,21.5,38.5,30.5,15.8,8.7,33.3,17.3,52.2,25.8,19.2,8.3,38.3,17.4,57.3,27.5,19.2,9.8,36.7,21.7,52.6,35.5,15.8,13.6,28.6,30.2,38.2,49.9,9.8,19.4,14.7,43.1,14.7,71s-7.4,58.4-22.1,81.4Z"/>
</svg>